<svg xmlns="http://www.w3.org/2000/svg" width="85" height="85" viewBox="0 0 85 85">
  <g id="Group_1205678" data-name="Group 1205678" transform="translate(-1297.051 -901)">
    <circle id="Ellipse_12789" data-name="Ellipse 12789" cx="42.5" cy="42.5" r="42.5" transform="translate(1297.051 901)" fill="#ffc94a"/>
    <g id="planta" transform="translate(1314.409 915.195)">
      <g id="Group_1205675" data-name="Group 1205675" transform="translate(5.233 14.094)">
        <path id="Path_1264874" data-name="Path 1264874" d="M74.266,135.7a3.323,3.323,0,0,0-3.323-3.323H68.728v13.03h5.538S74.266,135.7,74.266,135.7Z" transform="translate(-68.728 -132.376)" fill="#fea084"/>
        <path id="Path_1264875" data-name="Path 1264875" d="M391.253,135.7a3.323,3.323,0,0,1,3.323-3.323h2.215v13.03h-5.538V135.7Z" transform="translate(-356.915 -132.376)" fill="#fea084"/>
      </g>
      <path id="Path_1264876" data-name="Path 1264876" d="M329.5,91.624V104h0a3.324,3.324,0,0,0-3.262.6l-6.606,5.5a3.316,3.316,0,0,0-1.209,2.564v12.186h8.861v-3.325a3.318,3.318,0,0,1,1.369-2.688l6.128-4.6a3.318,3.318,0,0,0,1.365-2.685V91.624a3.323,3.323,0,1,0-6.646,0Z" transform="translate(-286.607 -78.9)" fill="#ffd2ba"/>
      <g id="Group_1205676" data-name="Group 1205676" transform="translate(37.425 9.401)">
        <path id="Path_1264877" data-name="Path 1264877" d="M378.259,88.727a3.321,3.321,0,0,1,1.7,2.9v12.53a5.414,5.414,0,0,0-3.392-2.306V104a3.324,3.324,0,0,1,2.215,3.133h0a3.314,3.314,0,0,1-1.209,2.564l-5.277,4.358-.008.022a3.315,3.315,0,0,0-1.191,2.548v8.231h3.254v-3.325a3.318,3.318,0,0,1,1.369-2.688l6.128-4.6a3.318,3.318,0,0,0,1.365-2.685V91.624a3.322,3.322,0,0,0-4.95-2.9Z" transform="translate(-371.094 -88.301)" fill="#ffbc99"/>
        <path id="Path_1264878" data-name="Path 1264878" d="M392.226,252.664a.706.706,0,0,0,1,.1l.93-.768a1.731,1.731,0,0,0-.5-2.961l-.043-.015a1.732,1.732,0,0,0-1.676.321l-.013.011-.876.73a.706.706,0,0,0-.1.984Z" transform="translate(-388.694 -231.83)" fill="#ffbc99"/>
      </g>
      <rect id="Rectangle_411784" data-name="Rectangle 411784" width="13.292" height="4.433" transform="translate(29.602 44.847)" fill="#dcf3f4"/>
      <rect id="Rectangle_411785" data-name="Rectangle 411785" width="3.333" height="4.424" transform="translate(39.57 44.857)" fill="#b0cdcf"/>
      <rect id="Rectangle_411786" data-name="Rectangle 411786" width="17.722" height="5.539" transform="translate(27.387 48.17)" fill="#25739e"/>
      <rect id="Rectangle_411787" data-name="Rectangle 411787" width="3.323" height="5.539" transform="translate(41.786 48.17)" fill="#216486"/>
      <path id="Path_1264879" data-name="Path 1264879" d="M33.759,91.624V104h0a3.324,3.324,0,0,1,3.262.6l6.606,5.5a3.316,3.316,0,0,1,1.209,2.564v12.186H35.974v-3.325a3.319,3.319,0,0,0-1.369-2.688l-6.128-4.6a3.318,3.318,0,0,1-1.365-2.685V91.624a3.323,3.323,0,1,1,6.646,0Z" transform="translate(-26.311 -78.9)" fill="#ffd2ba"/>
      <g id="Group_1205677" data-name="Group 1205677" transform="translate(0.802 9.401)">
        <path id="Path_1264880" data-name="Path 1264880" d="M32.063,88.727a3.321,3.321,0,0,0-1.7,2.9v12.53a5.414,5.414,0,0,1,3.392-2.306V104a3.324,3.324,0,0,0-2.215,3.133h0a3.314,3.314,0,0,0,1.209,2.564l5.276,4.358.008.022a3.315,3.315,0,0,1,1.191,2.548v8.231H35.975v-3.325a3.318,3.318,0,0,0-1.369-2.688l-6.128-4.6a3.318,3.318,0,0,1-1.365-2.685V91.624a3.323,3.323,0,0,1,4.95-2.9Z" transform="translate(-27.113 -88.301)" fill="#ffbc99"/>
        <path id="Path_1264881" data-name="Path 1264881" d="M86.244,252.664a.706.706,0,0,1-1,.1l-.93-.768a1.731,1.731,0,0,1,.5-2.961l.043-.015a1.732,1.732,0,0,1,1.676.321l.013.011.876.73a.706.706,0,0,1,.1.984Z" transform="translate(-77.66 -231.83)" fill="#ffbc99"/>
      </g>
      <rect id="Rectangle_411788" data-name="Rectangle 411788" width="13.292" height="4.433" transform="translate(7.449 44.847)" fill="#dcf3f4"/>
      <rect id="Rectangle_411789" data-name="Rectangle 411789" width="3.333" height="4.424" transform="translate(7.438 44.857)" fill="#b0cdcf"/>
      <rect id="Rectangle_411790" data-name="Rectangle 411790" width="17.722" height="5.539" transform="translate(5.233 48.17)" fill="#25739e"/>
      <rect id="Rectangle_411791" data-name="Rectangle 411791" width="3.323" height="5.539" transform="translate(5.233 48.17)" fill="#216486"/>
      <path id="Path_1264882" data-name="Path 1264882" d="M213.058,5.07a10.232,10.232,0,0,0,0,17.723,10.232,10.232,0,0,0,0-17.723Z" transform="translate(-187.886 -4.53)" fill="#4fd255"/>
      <path id="Path_1264883" data-name="Path 1264883" d="M242.057,5.07a10.276,10.276,0,0,0-1.662,1.2,10.224,10.224,0,0,1,0,15.325,10.277,10.277,0,0,0,1.661,1.2,10.231,10.231,0,0,0,0-17.723Z" transform="translate(-216.886 -4.53)" fill="#2cb855"/>
      <path id="Path_1264884" data-name="Path 1264884" d="M289.812,162.763a5.116,5.116,0,0,0-7.089,5.317,5.116,5.116,0,0,0,7.089-5.317Z" transform="translate(-254.674 -145.067)" fill="#4fd255"/>
      <path id="Path_1264885" data-name="Path 1264885" d="M289.823,163.444a5.138,5.138,0,0,0-1.12-.33,5.105,5.105,0,0,1-5.972,4.479,5.143,5.143,0,0,0,0,1.168,5.116,5.116,0,0,0,7.089-5.317Z" transform="translate(-254.685 -145.747)" fill="#2cb855"/>
      <path id="Path_1264886" data-name="Path 1264886" d="M162.083,162.763a5.116,5.116,0,0,1,7.089,5.317,5.116,5.116,0,0,1-7.089-5.317Z" transform="translate(-146.879 -145.067)" fill="#4fd255"/>
      <path id="Path_1264887" data-name="Path 1264887" d="M162.083,163.444a5.137,5.137,0,0,1,1.12-.33,5.1,5.1,0,0,0,5.972,4.479,5.137,5.137,0,0,1,0,1.168,5.116,5.116,0,0,1-7.089-5.317Z" transform="translate(-146.879 -145.747)" fill="#2cb855"/>
      <path id="Path_1264888" data-name="Path 1264888" d="M288.908,80.765a4.13,4.13,0,0,0-4.125,4.125v.647a4.132,4.132,0,0,0-3.323,4.046v7.959l-6.253,5.211a4.114,4.114,0,0,0-1.5,3.183v10.274h-1.413a.8.8,0,0,0-.8.8v2.521h-1.413a.8.8,0,0,0-.8.8v5.539a.8.8,0,1,0,1.6,0v-4.736H287v4.736a.8.8,0,1,0,1.6,0v-5.539a.8.8,0,0,0-.8-.8h-1.413v-2.521a.8.8,0,0,0-.8-.8h-1.413V114.8a2.531,2.531,0,0,1,1.039-2.039l.009-.007,6.119-4.59a4.142,4.142,0,0,0,1.694-3.333V84.89A4.13,4.13,0,0,0,288.908,80.765Zm-4.125,6.429v9.091c-.1-.007-.2-.013-.305-.013a4.138,4.138,0,0,0-1.413.249V89.583A2.524,2.524,0,0,1,284.782,87.194Zm0,32.339H273.1v-1.718h11.687v1.718Zm6.646-14.705a2.537,2.537,0,0,1-1.044,2.043l-6.123,4.593a4.141,4.141,0,0,0-1.694,3.333v1.413H275.31V105.936a2.517,2.517,0,0,1,.921-1.948l6.539-5.449,0,0,.069-.057a2.521,2.521,0,1,1,3.236,3.865l-6.283,5.189a.8.8,0,0,0,1.022,1.237l6.283-5.189a4.124,4.124,0,0,0-.714-6.838V84.89a2.521,2.521,0,0,1,5.041,0v19.938Z" transform="translate(-242.69 -72.166)"/>
      <path id="Path_1264889" data-name="Path 1264889" d="M313.909,476.118h-2.215a.8.8,0,1,0,0,1.6h2.215a.8.8,0,1,0,0-1.6Z" transform="translate(-279.876 -425.427)"/>
      <path id="Path_1264890" data-name="Path 1264890" d="M42.529,119.535H41.116v-2.521a.8.8,0,0,0-.8-.8H38.9V105.937a4.112,4.112,0,0,0-1.5-3.181l-6.256-5.213v-7.96a4.132,4.132,0,0,0-3.323-4.046v-.646a4.125,4.125,0,0,0-8.251,0V104.83a4.137,4.137,0,0,0,1.686,3.327l6.128,4.6.009.007a2.531,2.531,0,0,1,1.039,2.039v1.413H27.022a.8.8,0,0,0-.8.8v2.521H24.806a.8.8,0,0,0-.8.8v5.539a.8.8,0,0,0,1.6,0v-4.736h2.944a.8.8,0,1,0,0-1.6h-.729v-1.718H39.511v1.718H32.136a.8.8,0,0,0,0,1.6h9.591v4.736a.8.8,0,0,0,1.6,0v-5.539A.8.8,0,0,0,42.529,119.535ZM29.542,89.584v6.939a4.128,4.128,0,0,0-1.413-.25c-.1,0-.2.005-.306.013V87.2A2.525,2.525,0,0,1,29.542,89.584Zm-1.2,21.881-6.132-4.6a2.532,2.532,0,0,1-1.036-2.037V84.891a2.521,2.521,0,1,1,5.041,0V96.744a4.124,4.124,0,0,0-.714,6.837l6.283,5.189a.8.8,0,0,0,1.022-1.237l-6.284-5.19a2.521,2.521,0,1,1,3.243-3.86l.064.053h0l6.544,5.453a2.515,2.515,0,0,1,.918,1.945v10.274H30.039V114.8A4.14,4.14,0,0,0,28.345,111.466Z" transform="translate(-19.573 -72.167)"/>
      <path id="Path_1264891" data-name="Path 1264891" d="M168.25,476.118h-2.215a.8.8,0,1,0,0,1.6h2.215a.8.8,0,1,0,0-1.6Z" transform="translate(-149.725 -425.427)"/>
      <path id="Path_1264892" data-name="Path 1264892" d="M169.443,31.818a.8.8,0,0,0-.8-.8H166.12V25.573l2.206-1.654a5.915,5.915,0,0,0,7.755-6.317.8.8,0,0,0-.482-.643,5.917,5.917,0,0,0-8.237,5.677l-1.242.931V18.976a11.032,11.032,0,0,0-.4-18.867.8.8,0,0,0-.8,0,11.032,11.032,0,0,0-.4,18.867v4.592l-1.242-.931a5.916,5.916,0,0,0-8.237-5.677.8.8,0,0,0-.482.643,5.919,5.919,0,0,0,7.755,6.317l2.206,1.654v5.442h-2.521a.8.8,0,1,0,0,1.6h6.646A.8.8,0,0,0,169.443,31.818Zm1.243-12.867a4.332,4.332,0,0,1,3.832-.679,4.312,4.312,0,0,1-5.556,4.167A4.332,4.332,0,0,1,170.686,18.951Zm-12.844,2.81a4.332,4.332,0,0,1-1.725-3.488,4.312,4.312,0,0,1,5.556,4.167A4.332,4.332,0,0,1,157.842,21.761ZM161,9.665a9.468,9.468,0,0,1,4.315-7.921A9.424,9.424,0,0,1,166.12,17V12.376l1.772-.886a.8.8,0,0,0-.717-1.435l-1.054.527V7.45a.8.8,0,0,0-1.6,0v.917l-1.054-.527a.8.8,0,0,0-.718,1.435l1.772.886V17A9.466,9.466,0,0,1,161,9.665Z" transform="translate(-140.146 -0.001)"/>
    </g>
  </g>
</svg>
