<svg xmlns="http://www.w3.org/2000/svg" xmlns:xlink="http://www.w3.org/1999/xlink" width="126.376" height="126.376" viewBox="0 0 126.376 126.376">
  <defs>
    <filter id="Path_874925" x="0" y="0" width="126.376" height="126.376" filterUnits="userSpaceOnUse">
      <feOffset dy="3" input="SourceAlpha"/>
      <feGaussianBlur stdDeviation="3" result="blur"/>
      <feFlood flood-opacity="0.161"/>
      <feComposite operator="in" in2="blur"/>
      <feComposite in="SourceGraphic"/>
    </filter>
  </defs>
  <g id="Group_1205721" data-name="Group 1205721" transform="translate(-737.051 -4167)">
    <g id="Group_1205682" data-name="Group 1205682" transform="translate(461.051 -2077.874)">
      <g id="Group_1200232" data-name="Group 1200232" transform="translate(285 6250.874)">
        <g id="Group_1187153" data-name="Group 1187153">
          <g id="Group_1182177" data-name="Group 1182177">
            <g id="Group_1181903" data-name="Group 1181903">
              <g id="Group_1181438" data-name="Group 1181438">
                <g id="Group_1111314" data-name="Group 1111314">
                  <g transform="matrix(1, 0, 0, 1, -9, -6)" filter="url(#Path_874925)">
                    <g id="Path_874925-2" data-name="Path 874925" transform="translate(9 6)" fill="#ffc94a">
                      <path d="M 54.1878662109375 106.8763656616211 C 47.07439041137695 106.8763656616211 40.17448043823242 105.4835205078125 33.67983627319336 102.7365036010742 C 27.40597343444824 100.0828857421875 21.77115821838379 96.28368377685547 16.93191146850586 91.44444274902344 C 12.09268188476562 86.60519409179688 8.293481826782227 80.97038269042969 5.639866352081299 74.696533203125 C 2.892850875854492 68.20187377929688 1.500004649162292 61.30196380615234 1.500004649162292 54.1884880065918 C 1.500004649162292 47.07439422607422 2.892850875854492 40.17448806762695 5.639866352081299 33.67982482910156 C 8.293481826782227 27.40597915649414 12.09268188476562 21.77116394042969 16.93191146850586 16.93191719055176 C 21.77115821838379 12.09267139434814 27.40597343444824 8.293471336364746 33.67983627319336 5.639855861663818 C 40.17448043823242 2.892840623855591 47.07439041137695 1.499994397163391 54.1878662109375 1.499994397163391 C 61.30134201049805 1.499994397163391 68.20124816894531 2.892840623855591 74.69589996337891 5.639855861663818 C 80.96975708007812 8.293471336364746 86.60457611083984 12.09267139434814 91.44381713867188 16.93191719055176 C 96.28305053710938 21.77116394042969 100.0822525024414 27.40597915649414 102.7358627319336 33.67982482910156 C 105.4828796386719 40.17448806762695 106.8757247924805 47.07439422607422 106.8757247924805 54.18787002563477 C 106.8757247924805 61.30196380615234 105.4828796386719 68.20187377929688 102.7358627319336 74.696533203125 C 100.0822525024414 80.97038269042969 96.28305053710938 86.60519409179688 91.44381713867188 91.44444274902344 C 86.60457611083984 96.28368377685547 80.96975708007812 100.0828857421875 74.69589996337891 102.7365036010742 C 68.20124816894531 105.4835205078125 61.30134201049805 106.8763656616211 54.1878662109375 106.8763656616211 Z" stroke="none"/>
                      <path d="M 54.1878662109375 2.999992370605469 C 47.2762336730957 2.999992370605469 40.57291412353516 4.352981567382812 34.26416778564453 7.0213623046875 C 28.16909790039062 9.599342346191406 22.69454956054688 13.29059600830078 17.99258422851562 17.99257659912109 C 13.29059600830078 22.69454193115234 9.599349975585938 28.16909790039062 7.021369934082031 34.26416015625 C 4.352981567382812 40.57292938232422 3 47.27622985839844 3 54.18849563598633 C 3 61.10012817382812 4.352981567382812 67.80344390869141 7.021369934082031 74.11219787597656 C 9.599349975585938 80.20726013183594 13.29059600830078 85.68180847167969 17.99258422851562 90.38378143310547 C 22.69454956054688 95.08576202392578 28.16909790039062 98.77701568603516 34.26416778564453 101.3549957275391 C 40.57291412353516 104.0233764648438 47.2762336730957 105.3763656616211 54.1878662109375 105.3763656616211 C 61.0994987487793 105.3763656616211 67.80281066894531 104.0233764648438 74.11156463623047 101.3549957275391 C 80.20663452148438 98.77701568603516 85.68118286132812 95.08576202392578 90.38314819335938 90.38378143310547 C 95.08512878417969 85.68180847167969 98.77638244628906 80.20726013183594 101.3543701171875 74.11219787597656 C 104.0227508544922 67.80344390869141 105.375732421875 61.10012817382812 105.375732421875 54.1878776550293 C 105.375732421875 47.27622985839844 104.0227508544922 40.57292938232422 101.3543701171875 34.26416015625 C 98.77638244628906 28.16909790039062 95.08512878417969 22.69454193115234 90.38314819335938 17.99257659912109 C 85.68118286132812 13.29059600830078 80.20663452148438 9.599342346191406 74.11156463623047 7.0213623046875 C 67.80281066894531 4.352981567382812 61.0994987487793 2.999992370605469 54.1878662109375 2.999992370605469 M 54.1878662109375 -7.62939453125e-06 C 84.11499786376953 -7.62939453125e-06 108.375732421875 24.26072692871094 108.375732421875 54.1878776550293 L 108.375732421875 54.18849563598633 C 108.375732421875 84.11563110351562 84.11499786376953 108.3763656616211 54.1878662109375 108.3763656616211 C 24.26073455810547 108.3763656616211 0 84.11563110351562 0 54.18849563598633 L 0 54.1878776550293 C 0 24.26072692871094 24.26073455810547 -7.62939453125e-06 54.1878662109375 -7.62939453125e-06 Z" stroke="none" fill="#fff"/>
                    </g>
                  </g>
                </g>
              </g>
            </g>
          </g>
        </g>
      </g>
    </g>
    <g id="desigualdad" transform="translate(510.054 3769.657)">
      <g id="Group_1205690" data-name="Group 1205690" transform="translate(257.052 432.398)">
        <g id="Group_1205689" data-name="Group 1205689">
          <g id="Group_1205688" data-name="Group 1205688">
            <g id="XMLID_1_">
              <path id="Path_1264913" data-name="Path 1264913" d="M1254.168,459.716a4.884,4.884,0,0,1-.092,1.66,4.98,4.98,0,0,1-1.911-.892s-2.325,2.345-6.687.9a7.428,7.428,0,0,1-1.087,1.166,10.722,10.722,0,0,1-.688-.94,2.631,2.631,0,0,1-.58-1.417,3.225,3.225,0,0,1,.586-1.751c.237-.344.581-.578.811-.929a8.793,8.793,0,0,0,.379-1.072,1.415,1.415,0,0,1,.757-.653,6.335,6.335,0,0,1,1.178-.341,7.2,7.2,0,0,1,2.158-.075,7.59,7.59,0,0,1,3.774,1.425q.121.1.237.213a3.745,3.745,0,0,1,.937,1.273A4.945,4.945,0,0,1,1254.168,459.716Z" transform="translate(-1200.747 -455.327)" fill="#bd653e"/>
              <path id="Path_1264914" data-name="Path 1264914" d="M372.155,563.52l1.378,11.335a5.968,5.968,0,0,0-2.99-.4l-1.575.191-.545-3.122h0l-.113-.056a3.925,3.925,0,0,0,1.322-3.439l-.4-3.317a4.474,4.474,0,0,1-2.566-2.325c-.57,3.1-5.233,3.273-5.233,3.273l.4,3.318a3.915,3.915,0,0,0,1.477,2.619,3.957,3.957,0,0,0,.574.374l-.039.112.219,3.161-1.576.191a5.967,5.967,0,0,0-2.807,1.105L358.3,565.2a6.976,6.976,0,1,1,13.85-1.683Z" transform="translate(-354.81 -552.894)" fill="#bd653e"/>
              <path id="Path_1264915" data-name="Path 1264915" d="M1281.93,575.687a6.017,6.017,0,0,1,.044.727,5.453,5.453,0,0,1-1.858,4.174,4.473,4.473,0,0,1-4.749.689,5.5,5.5,0,0,1-3.123-4.413l-.275-2.265a7.433,7.433,0,0,0,1.087-1.166c4.363,1.443,6.688-.9,6.688-.9a4.982,4.982,0,0,0,1.911.892Z" transform="translate(-1228.327 -567.374)" fill="#f9c7b2"/>
              <path id="Path_1264916" data-name="Path 1264916" d="M438.672,676.712a3.928,3.928,0,1,1-7.8.948l-.4-3.318s4.664-.173,5.233-3.272a4.474,4.474,0,0,0,2.566,2.325Z" transform="translate(-423.85 -661.578)" fill="#f9c7b2"/>
              <path id="Path_1264917" data-name="Path 1264917" d="M1352.68,758.676l-2.5,2.479-3.132-1.876a12.889,12.889,0,0,0,.1-2.909h0a4.473,4.473,0,0,0,4.749-.689h0c0,.047.011.1.019.15A13.277,13.277,0,0,0,1352.68,758.676Z" transform="translate(-1300.103 -742.465)" fill="#f0c0aa"/>
              <path id="Path_1264918" data-name="Path 1264918" d="M489.967,877.536l.545,3.122-2.042,3.662-2.86-3.066-.219-3.161.039-.112a3.93,3.93,0,0,0,4.425-.5l.113.056Z" transform="translate(-476.354 -858.907)" fill="#f0c0aa"/>
              <path id="Path_1264919" data-name="Path 1264919" d="M1214.4,822.781l-11.885,1.444-3.843.467-1.175-9.663a2.359,2.359,0,0,1,1.5-2.488l4.439-1.7.625.374,3.132,1.876,2.5-2.479.61-.605,4.717.585a2.359,2.359,0,0,1,2.052,2.056l1.175,9.663Z" transform="translate(-1157.11 -794.405)" fill="#ff725c"/>
              <path id="Path_1264920" data-name="Path 1264920" d="M350.9,955.922l-10.949,1.331-4.5.548-.7-5.742a5.994,5.994,0,0,1,5.229-6.676l1.576-.191,2.86,3.066,2.042-3.662,1.575-.191a5.992,5.992,0,0,1,6.675,5.229l.7,5.742Z" transform="translate(-332.295 -922.844)" fill="#fd6"/>
              <path id="Path_1264921" data-name="Path 1264921" d="M878.9,1205.56l1.433,11.209H866.47l1.252-9.787.362-2.833a5.36,5.36,0,0,1,10.634,0Z" transform="translate(-840.667 -1166.73)" fill="#63a2cc"/>
              <g id="Group_1205687" data-name="Group 1205687" transform="translate(0 31.53)">
                <path id="Path_1264922" data-name="Path 1264922" d="M1121.858,1179.252l-.087.011-.18-1.41a5.341,5.341,0,0,0-1.07-2.591l.024-.019,26.136-3.265a2.071,2.071,0,1,1,.513,4.109l-25.335,3.164Z" transform="translate(-1083.54 -1171.962)" fill="#75c0f2"/>
                <path id="Path_1264923" data-name="Path 1264923" d="M307.766,1272.75l.043.019a5.347,5.347,0,0,0-.392,1.438l-.362,2.832-.108-.014-24.619,3.075a2.071,2.071,0,1,1-.513-4.109Z" transform="translate(-280 -1268.316)" fill="#75c0f2"/>
              </g>
            </g>
          </g>
        </g>
      </g>
      <g id="Group_1205720" data-name="Group 1205720" transform="translate(255.996 431.343)">
        <g id="Group_1205691" data-name="Group 1205691" transform="translate(9.733 50.039)">
          <path id="Path_1264924" data-name="Path 1264924" d="M524.277,1570.782h-46a1.056,1.056,0,1,1,0-2.112h46a1.056,1.056,0,0,1,0,2.112Z" transform="translate(-477.22 -1568.67)" fill="#333"/>
        </g>
        <g id="Group_1205692" data-name="Group 1205692" transform="translate(25.803 32.74)">
          <path id="Path_1264925" data-name="Path 1264925" d="M857.391,1194.891H843.53a1.056,1.056,0,0,1-1.047-1.19l1.614-12.619a6.416,6.416,0,0,1,12.729,0l1.614,12.619a1.056,1.056,0,0,1-1.048,1.19Zm-12.662-2.112h11.462l-1.462-11.429a4.3,4.3,0,0,0-8.539,0Z" transform="translate(-842.474 -1175.48)" fill="#333"/>
        </g>
        <g id="Group_1205693" data-name="Group 1205693" transform="translate(0 35.963)">
          <path id="Path_1264926" data-name="Path 1264926" d="M259.117,1258.228a3.127,3.127,0,0,1-.381-6.229l25.951-3.241a1.056,1.056,0,0,1,.262,2.1L259,1254.094a1.014,1.014,0,1,0,.252,2.013l24.619-3.075a1.056,1.056,0,0,1,.262,2.1l-24.619,3.075A3.229,3.229,0,0,1,259.117,1258.228Z" transform="translate(-255.996 -1248.749)" fill="#333"/>
        </g>
        <g id="Group_1205694" data-name="Group 1205694" transform="translate(37.004 31.529)">
          <path id="Path_1264927" data-name="Path 1264927" d="M1099.423,1157.364a1.056,1.056,0,0,1-.114-2.106l25.318-3.163a1.014,1.014,0,1,0-.252-2.013l-26.136,3.265a1.056,1.056,0,0,1-.262-2.1l26.136-3.264a3.126,3.126,0,1,1,.775,6.2l-25.335,3.164A1.021,1.021,0,0,1,1099.423,1157.364Z" transform="translate(-1097.053 -1147.962)" fill="#333"/>
        </g>
        <g id="Group_1205695" data-name="Group 1205695" transform="translate(32.318 37.013)">
          <circle id="Ellipse_12792" data-name="Ellipse 12792" cx="1.472" cy="1.472" r="1.472" fill="#333"/>
        </g>
        <g id="Group_1205719" data-name="Group 1205719" transform="translate(2.407)">
          <g id="Group_1205705" data-name="Group 1205705" transform="translate(0 4.489)">
            <g id="Group_1205704" data-name="Group 1205704">
              <g id="Group_1205696" data-name="Group 1205696" transform="translate(0 17.026)">
                <path id="Path_1264928" data-name="Path 1264928" d="M312.491,935.912a1.056,1.056,0,0,1-1.047-.929l-.7-5.742a7.052,7.052,0,0,1,6.149-7.851l1.576-.191a1.056,1.056,0,0,1,.255,2.1l-1.576.191a4.94,4.94,0,0,0-4.308,5.5l.571,4.693,17.861-2.171-.571-4.693a4.946,4.946,0,0,0-5.5-4.308l-1.575.191a1.056,1.056,0,1,1-.255-2.1l1.575-.191a7.06,7.06,0,0,1,7.851,6.149l.7,5.742a1.056,1.056,0,0,1-.921,1.176L312.62,935.9A1.073,1.073,0,0,1,312.491,935.912Z" transform="translate(-310.694 -920.359)" fill="#333"/>
              </g>
              <g id="Group_1205700" data-name="Group 1205700" transform="translate(1.036)">
                <g id="Group_1205698" data-name="Group 1205698" transform="translate(3.178 5.002)">
                  <g id="Group_1205697" data-name="Group 1205697">
                    <path id="Path_1264929" data-name="Path 1264929" d="M411.826,659.231a4.985,4.985,0,0,1-4.94-4.383l-.4-3.318a1.056,1.056,0,0,1,1.009-1.183,8.27,8.27,0,0,0,2.136-.43c1.231-.438,1.937-1.1,2.1-1.978a1.056,1.056,0,0,1,2.017-.207,3.432,3.432,0,0,0,1.97,1.738,1.056,1.056,0,0,1,.666.857l.4,3.318a4.984,4.984,0,0,1-4.346,5.549A5.15,5.15,0,0,1,411.826,659.231Zm-3.12-6.9.275,2.267a2.872,2.872,0,1,0,5.7-.693l-.331-2.727a6.063,6.063,0,0,1-1.407-.989,5.808,5.808,0,0,1-2.666,1.743A10.006,10.006,0,0,1,408.706,652.326Z" transform="translate(-406.475 -647.074)" fill="#333"/>
                  </g>
                </g>
                <g id="Group_1205699" data-name="Group 1205699">
                  <path id="Path_1264930" data-name="Path 1264930" d="M336.725,554.646a1.056,1.056,0,0,1-1.047-.929L334.3,542.382a8.032,8.032,0,0,1,15.947-1.939l1.378,11.335a1.056,1.056,0,1,1-2.1.255L348.151,540.7a5.92,5.92,0,0,0-11.754,1.429l1.378,11.335a1.056,1.056,0,0,1-.921,1.176A1.08,1.08,0,0,1,336.725,554.646Z" transform="translate(-334.24 -533.38)" fill="#333"/>
                </g>
              </g>
              <g id="Group_1205701" data-name="Group 1205701" transform="translate(6.63 14.139)">
                <path id="Path_1264931" data-name="Path 1264931" d="M465.526,863.632a1.056,1.056,0,0,1-.772-.336l-2.86-3.066a1.055,1.055,0,0,1-.281-.647l-.219-3.161a1.056,1.056,0,1,1,2.107-.146l.193,2.788,1.616,1.733,1.154-2.07-.48-2.754-.005-.032a1.056,1.056,0,0,1,2.086-.326l.544,3.117a1.054,1.054,0,0,1-.118.7l-2.042,3.662a1.055,1.055,0,0,1-.795.534A.818.818,0,0,1,465.526,863.632Z" transform="translate(-461.391 -854.735)" fill="#333"/>
              </g>
              <g id="Group_1205702" data-name="Group 1205702" transform="translate(4.479 23.602)">
                <path id="Path_1264932" data-name="Path 1264932" d="M414.324,1078.261a1.056,1.056,0,0,1-1.047-.929l-.768-6.317a1.056,1.056,0,0,1,2.1-.255l.768,6.317a1.056,1.056,0,0,1-.921,1.176A1.1,1.1,0,0,1,414.324,1078.261Z" transform="translate(-412.502 -1069.832)" fill="#333"/>
              </g>
              <g id="Group_1205703" data-name="Group 1205703" transform="translate(15.428 22.271)">
                <path id="Path_1264933" data-name="Path 1264933" d="M663.174,1048.011a1.056,1.056,0,0,1-1.047-.929l-.768-6.317a1.056,1.056,0,0,1,2.1-.255l.768,6.317A1.056,1.056,0,0,1,663.3,1048,1.1,1.1,0,0,1,663.174,1048.011Z" transform="translate(-661.352 -1039.582)" fill="#333"/>
              </g>
            </g>
          </g>
          <g id="Group_1205718" data-name="Group 1205718" transform="translate(37.96)">
            <g id="Group_1205717" data-name="Group 1205717">
              <g id="Group_1205708" data-name="Group 1205708" transform="translate(6.58 13.214)">
                <g id="Group_1205706" data-name="Group 1205706" transform="translate(4.845)">
                  <path id="Path_1264934" data-name="Path 1264934" d="M1435,736.795a1.056,1.056,0,0,1-.93-.554,13.748,13.748,0,0,1-.884-3.2c-.01-.071-.018-.134-.024-.195a1.056,1.056,0,0,1,2.1-.211q0,.046.013.106a13.09,13.09,0,0,0,.651,2.494,1.056,1.056,0,0,1-.928,1.558Z" transform="translate(-1433.157 -731.687)" fill="#333"/>
                </g>
                <g id="Group_1205707" data-name="Group 1205707" transform="translate(0 0.689)">
                  <path id="Path_1264935" data-name="Path 1264935" d="M1324.1,752.361a1.057,1.057,0,0,1-1.017-1.341,12.685,12.685,0,0,0,.06-2.539,1.056,1.056,0,1,1,2.1-.172,13.521,13.521,0,0,1-.131,3.281A1.056,1.056,0,0,1,1324.1,752.361Z" transform="translate(-1323.043 -747.339)" fill="#333"/>
                </g>
              </g>
              <g id="Group_1205712" data-name="Group 1205712" transform="translate(2.008)">
                <g id="Group_1205711" data-name="Group 1205711">
                  <g id="Group_1205709" data-name="Group 1205709" transform="translate(1.27 5.156)">
                    <path id="Path_1264936" data-name="Path 1264936" d="M1254.255,559.779a6.294,6.294,0,0,1-6.007-5.734l-.275-2.265a1.057,1.057,0,0,1,.389-.953,6.27,6.27,0,0,0,.9-.971,1.057,1.057,0,0,1,1.179-.373,6.482,6.482,0,0,0,4.291.1,3.973,3.973,0,0,0,1.316-.742,1.056,1.056,0,0,1,1.442-.054,3.856,3.856,0,0,0,1.441.656,1.057,1.057,0,0,1,.826.9l.275,2.265a6.22,6.22,0,0,1-5.112,7.126A5.521,5.521,0,0,1,1254.255,559.779Zm-4.12-7.713.209,1.724a3.854,3.854,0,1,0,7.589-.922l-.192-1.578a6.244,6.244,0,0,1-.91-.407,7.768,7.768,0,0,1-6.351.814C1250.377,551.815,1250.26,551.941,1250.135,552.066Z" transform="translate(-1247.965 -548.527)" fill="#333"/>
                  </g>
                  <g id="Group_1205710" data-name="Group 1205710">
                    <path id="Path_1264937" data-name="Path 1264937" d="M1221.435,440.68a1.053,1.053,0,0,1-.612-.2,4.2,4.2,0,0,1-.883-1.112l-.053-.077a3.673,3.673,0,0,1-.775-2,4.144,4.144,0,0,1,1.287-2.975,2.38,2.38,0,0,0,.283-.316,1.819,1.819,0,0,0,.082-.273,3.4,3.4,0,0,1,.23-.681,2.445,2.445,0,0,1,1.3-1.166,7.294,7.294,0,0,1,1.376-.4,8.23,8.23,0,0,1,2.476-.09,8.649,8.649,0,0,1,4.343,1.666c.1.082.2.169.289.259a4.6,4.6,0,0,1,1.2,1.668,8.143,8.143,0,0,1,.16,3.757,1.056,1.056,0,1,1-2.025-.6,6.631,6.631,0,0,0-.114-2.425,2.608,2.608,0,0,0-.677-.878c-.06-.058-.122-.113-.185-.166a6.492,6.492,0,0,0-3.206-1.184,6.139,6.139,0,0,0-1.839.06,5.212,5.212,0,0,0-.98.281.455.455,0,0,0-.213.141,1.866,1.866,0,0,0-.082.274,2.865,2.865,0,0,1-.364.915,4.132,4.132,0,0,1-.55.645,2.6,2.6,0,0,0-.275.3,2.211,2.211,0,0,0-.4,1.118,1.762,1.762,0,0,0,.383.834l.077.113c.307.45.431.617.481.679a1.055,1.055,0,0,1-.729,1.819Zm.614-1.916h0Z" transform="translate(-1219.11 -431.343)" fill="#333"/>
                  </g>
                </g>
              </g>
              <g id="Group_1205713" data-name="Group 1205713" transform="translate(0 15.604)">
                <path id="Path_1264938" data-name="Path 1264938" d="M1175.722,802.81a1.056,1.056,0,0,1-1.047-.929l-1.175-9.663a3.409,3.409,0,0,1,2.17-3.6l4.439-1.7a1.055,1.055,0,0,1,.92.081l3.052,1.828,2.526-2.506a1.055,1.055,0,0,1,.874-.3l4.717.585a3.409,3.409,0,0,1,2.97,2.977l1.175,9.663a1.056,1.056,0,0,1-.921,1.176l-19.572,2.379A1.051,1.051,0,0,1,1175.722,802.81Zm4.663-13.734-3.96,1.514a1.3,1.3,0,0,0-.828,1.375l1.047,8.614,17.476-2.124-1.047-8.615a1.3,1.3,0,0,0-1.133-1.136l-4.207-.521-2.744,2.723a1.056,1.056,0,0,1-1.286.156Z" transform="translate(-1173.475 -786.016)" fill="#333"/>
              </g>
              <g id="Group_1205716" data-name="Group 1205716" transform="translate(4.006 19.905)">
                <g id="Group_1205714" data-name="Group 1205714" transform="translate(0 1.445)">
                  <path id="Path_1264939" data-name="Path 1264939" d="M1266.606,927.174a1.056,1.056,0,0,1-1.047-.929l-1.029-8.47a1.056,1.056,0,1,1,2.1-.255l1.03,8.47a1.056,1.056,0,0,1-.921,1.176A1.074,1.074,0,0,1,1266.606,927.174Z" transform="translate(-1264.522 -916.592)" fill="#333"/>
                </g>
                <g id="Group_1205715" data-name="Group 1205715" transform="translate(11.885)">
                  <path id="Path_1264940" data-name="Path 1264940" d="M1536.746,894.335a1.056,1.056,0,0,1-1.047-.929l-1.03-8.47a1.056,1.056,0,0,1,2.1-.255l1.03,8.47a1.056,1.056,0,0,1-.921,1.176A1.071,1.071,0,0,1,1536.746,894.335Z" transform="translate(-1534.662 -883.752)" fill="#333"/>
                </g>
              </g>
            </g>
          </g>
        </g>
      </g>
    </g>
  </g>
</svg>
