<svg xmlns="http://www.w3.org/2000/svg" xmlns:xlink="http://www.w3.org/1999/xlink" width="126.376" height="126.376" viewBox="0 0 126.376 126.376">
  <defs>
    <filter id="Path_874925" x="0" y="0" width="126.376" height="126.376" filterUnits="userSpaceOnUse">
      <feOffset dy="3" input="SourceAlpha"/>
      <feGaussianBlur stdDeviation="3" result="blur"/>
      <feFlood flood-opacity="0.161"/>
      <feComposite operator="in" in2="blur"/>
      <feComposite in="SourceGraphic"/>
    </filter>
  </defs>
  <g id="Group_1205686" data-name="Group 1205686" transform="translate(-409.051 -4167.031)">
    <g id="Group_1200946" data-name="Group 1200946" transform="translate(133.051 -2077.843)">
      <g id="Group_1200232" data-name="Group 1200232" transform="translate(285 6250.874)">
        <g id="Group_1187153" data-name="Group 1187153">
          <g id="Group_1182177" data-name="Group 1182177">
            <g id="Group_1181903" data-name="Group 1181903">
              <g id="Group_1181438" data-name="Group 1181438">
                <g id="Group_1111314" data-name="Group 1111314">
                  <g transform="matrix(1, 0, 0, 1, -9, -6)" filter="url(#Path_874925)">
                    <g id="Path_874925-2" data-name="Path 874925" transform="translate(9 6)" fill="#ffc94a">
                      <path d="M 54.1878662109375 106.8763656616211 C 47.07439041137695 106.8763656616211 40.17448043823242 105.4835205078125 33.67983627319336 102.7365036010742 C 27.40597343444824 100.0828857421875 21.77115821838379 96.28368377685547 16.93191146850586 91.44444274902344 C 12.09268188476562 86.60519409179688 8.293481826782227 80.97038269042969 5.639866352081299 74.696533203125 C 2.892850875854492 68.20187377929688 1.500004649162292 61.30196380615234 1.500004649162292 54.1884880065918 C 1.500004649162292 47.07439422607422 2.892850875854492 40.17448806762695 5.639866352081299 33.67982482910156 C 8.293481826782227 27.40597915649414 12.09268188476562 21.77116394042969 16.93191146850586 16.93191719055176 C 21.77115821838379 12.09267139434814 27.40597343444824 8.293471336364746 33.67983627319336 5.639855861663818 C 40.17448043823242 2.892840623855591 47.07439041137695 1.499994397163391 54.1878662109375 1.499994397163391 C 61.30134201049805 1.499994397163391 68.20124816894531 2.892840623855591 74.69589996337891 5.639855861663818 C 80.96975708007812 8.293471336364746 86.60457611083984 12.09267139434814 91.44381713867188 16.93191719055176 C 96.28305053710938 21.77116394042969 100.0822525024414 27.40597915649414 102.7358627319336 33.67982482910156 C 105.4828796386719 40.17448806762695 106.8757247924805 47.07439422607422 106.8757247924805 54.18787002563477 C 106.8757247924805 61.30196380615234 105.4828796386719 68.20187377929688 102.7358627319336 74.696533203125 C 100.0822525024414 80.97038269042969 96.28305053710938 86.60519409179688 91.44381713867188 91.44444274902344 C 86.60457611083984 96.28368377685547 80.96975708007812 100.0828857421875 74.69589996337891 102.7365036010742 C 68.20124816894531 105.4835205078125 61.30134201049805 106.8763656616211 54.1878662109375 106.8763656616211 Z" stroke="none"/>
                      <path d="M 54.1878662109375 2.999992370605469 C 47.2762336730957 2.999992370605469 40.57291412353516 4.352981567382812 34.26416778564453 7.0213623046875 C 28.16909790039062 9.599342346191406 22.69454956054688 13.29059600830078 17.99258422851562 17.99257659912109 C 13.29059600830078 22.69454193115234 9.599349975585938 28.16909790039062 7.021369934082031 34.26416015625 C 4.352981567382812 40.57292938232422 3 47.27622985839844 3 54.18849563598633 C 3 61.10012817382812 4.352981567382812 67.80344390869141 7.021369934082031 74.11219787597656 C 9.599349975585938 80.20726013183594 13.29059600830078 85.68180847167969 17.99258422851562 90.38378143310547 C 22.69454956054688 95.08576202392578 28.16909790039062 98.77701568603516 34.26416778564453 101.3549957275391 C 40.57291412353516 104.0233764648438 47.2762336730957 105.3763656616211 54.1878662109375 105.3763656616211 C 61.0994987487793 105.3763656616211 67.80281066894531 104.0233764648438 74.11156463623047 101.3549957275391 C 80.20663452148438 98.77701568603516 85.68118286132812 95.08576202392578 90.38314819335938 90.38378143310547 C 95.08512878417969 85.68180847167969 98.77638244628906 80.20726013183594 101.3543701171875 74.11219787597656 C 104.0227508544922 67.80344390869141 105.375732421875 61.10012817382812 105.375732421875 54.1878776550293 C 105.375732421875 47.27622985839844 104.0227508544922 40.57292938232422 101.3543701171875 34.26416015625 C 98.77638244628906 28.16909790039062 95.08512878417969 22.69454193115234 90.38314819335938 17.99257659912109 C 85.68118286132812 13.29059600830078 80.20663452148438 9.599342346191406 74.11156463623047 7.0213623046875 C 67.80281066894531 4.352981567382812 61.0994987487793 2.999992370605469 54.1878662109375 2.999992370605469 M 54.1878662109375 -7.62939453125e-06 C 84.11499786376953 -7.62939453125e-06 108.375732421875 24.26072692871094 108.375732421875 54.1878776550293 L 108.375732421875 54.18849563598633 C 108.375732421875 84.11563110351562 84.11499786376953 108.3763656616211 54.1878662109375 108.3763656616211 C 24.26073455810547 108.3763656616211 0 84.11563110351562 0 54.18849563598633 L 0 54.1878776550293 C 0 24.26072692871094 24.26073455810547 -7.62939453125e-06 54.1878662109375 -7.62939453125e-06 Z" stroke="none" fill="#fff"/>
                    </g>
                  </g>
                </g>
              </g>
            </g>
          </g>
        </g>
      </g>
    </g>
    <g id="direccion" transform="translate(436.229 4187.522)">
      <path id="Path_1264893" data-name="Path 1264893" d="M74.253,60.056l-6.835,1.513L62.937,54.36,58.76,52.309l-2-2.758c-.824,1.412-1.611,2.838-2.326,4.278a3.645,3.645,0,0,1-6.527.005,122.948,122.948,0,0,0-7.274-12.16l-.455-.7a29.968,29.968,0,0,1-3.382-6.42L28.25,28.6a25.224,25.224,0,0,1-2.02,3.573l-.322.488a82.6,82.6,0,0,0-4.9,8.139,3.645,3.645,0,0,1-6.524,0A63.534,63.534,0,0,0,11.111,35L1.875,39.322,4,44.866l5.24.911,9.721,14.658.3,6L31.115,83.524l3.342.456,2.43-2.962,7.519-2.278,5.848,3.8,3.266-5.468,20.658-5.859,2.81-8.343Z" transform="translate(-0.736 -8.867)" fill="#e1ebf4"/>
      <path id="Path_1264894" data-name="Path 1264894" d="M87.511,21.948a13.475,13.475,0,0,0-.857-4.229,12.787,12.787,0,0,0-23.793,0A13.475,13.475,0,0,0,62,21.948c-.152,3.846,1.713,7.042,3.8,10.256l.456.7A125.148,125.148,0,0,1,73.67,45.3a1.214,1.214,0,0,0,2.175,0,125.152,125.152,0,0,1,7.413-12.4l.456-.7c2.084-3.214,3.949-6.41,3.8-10.256Zm-5.839,8.931-.456.7c-2.212,3.4-4.49,6.9-6.459,10.548-1.969-3.645-4.247-7.145-6.459-10.548l-.456-.7c-1.865-2.868-3.53-5.705-3.409-8.834a10.828,10.828,0,0,1,.7-3.469,10.355,10.355,0,0,1,19.242,0,10.987,10.987,0,0,1,.7,3.469c.006.109.006.219.006.322,0,3-1.616,5.742-3.415,8.512Z" transform="translate(-24.328 -1.421)" fill="#2d4356"/>
      <path id="Path_1264895" data-name="Path 1264895" d="M86.652,23.615a10.987,10.987,0,0,0-.7-3.469,10.355,10.355,0,0,0-19.242,0,10.828,10.828,0,0,0-.7,3.469c-.122,3.129,1.543,5.966,3.409,8.834l.456.7c2.212,3.4,4.49,6.9,6.459,10.548,1.969-3.646,4.247-7.145,6.459-10.548l.456-.7c1.8-2.771,3.415-5.511,3.415-8.512,0-.1,0-.213-.006-.322ZM76.329,32.078a7.9,7.9,0,1,1,7.9-7.9,7.9,7.9,0,0,1-7.9,7.9Z" transform="translate(-25.899 -2.991)" fill="#fc785e"/>
      <path id="Path_1264896" data-name="Path 1264896" d="M77.9,18a7.9,7.9,0,1,0,7.9,7.9A7.9,7.9,0,0,0,77.9,18Zm0,13.367A5.468,5.468,0,1,1,83.367,25.9,5.468,5.468,0,0,1,77.9,31.367Z" transform="translate(-27.469 -4.71)" fill="#2d4356"/>
      <path id="Path_1264897" data-name="Path 1264897" d="M84.936,27.468A5.468,5.468,0,1,1,79.468,22,5.468,5.468,0,0,1,84.936,27.468Z" transform="translate(-29.039 -6.279)" fill="#fff"/>
      <g id="Group_1205685" data-name="Group 1205685" transform="translate(0 5.999)">
        <path id="Path_1264898" data-name="Path 1264898" d="M52.974,31.715l-7.521-5.187a14.837,14.837,0,0,1-.972,2.283l9.76,6.732a17.467,17.467,0,0,1-1.268-3.827Z" transform="translate(-17.455 -14.054)" fill="#2d4356"/>
        <path id="Path_1264899" data-name="Path 1264899" d="M74.984,62.606a1.219,1.219,0,0,0-1.146-.343L67.518,63.7l-4.655-6.592a1.218,1.218,0,0,0-.342-.326l-3.629-2.3-1.8-3.4q-.745,1.22-1.449,2.453l1.258,2.37a1.214,1.214,0,0,0,.423.457l3.7,2.342L66,65.77a1.22,1.22,0,0,0,1.263.484l6.444-1.469L75.159,66.3l-2.75,7.733L52.669,79.571a1.215,1.215,0,0,0-.716.549l-2.33,3.919-4.6-3.061a1.212,1.212,0,0,0-.974-.166l-7.5,1.917a1.21,1.21,0,0,0-.7.488l-2.086,3.025H31.528l-11.364-16.4-.142-4.735a1.217,1.217,0,0,0-.189-.615l-10.1-15.9a1.215,1.215,0,0,0-.8-.542L4.4,47.173,2.76,42.984l8.128-3.85c-.436-.692-.88-1.38-1.324-2.062l-8.869,4.2a1.215,1.215,0,0,0-.611,1.541l2.294,5.868a1.215,1.215,0,0,0,.9.751l4.686.9L17.6,65.516l.143,4.762a1.216,1.216,0,0,0,.216.656L29.894,88.15a1.214,1.214,0,0,0,1,.523h3.519a1.214,1.214,0,0,0,1-.526L37.6,84.971l6.53-1.67,5.21,3.47a1.215,1.215,0,0,0,1.718-.39l2.735-4.6L73.672,76.2a1.216,1.216,0,0,0,.816-.763L77.7,66.4a1.217,1.217,0,0,0-.269-1.249Z" transform="translate(0 -18.192)" fill="#2d4356"/>
        <path id="Path_1264900" data-name="Path 1264900" d="M30.608,11.759A8.962,8.962,0,0,0,22.114,6a8.962,8.962,0,0,0-8.494,5.76,9.439,9.439,0,0,0-.614,3c-.109,2.728,1.2,4.97,2.661,7.212l.316.48a84.064,84.064,0,0,1,5.043,8.391,1.214,1.214,0,0,0,2.175,0,84.064,84.064,0,0,1,5.043-8.391l.316-.48c1.464-2.242,2.771-4.484,2.661-7.212a9.439,9.439,0,0,0-.614-3Zm-4.083,8.883-.316.48c-1.391,2.133-2.825,4.314-4.1,6.586-1.27-2.272-2.7-4.454-4.1-6.586l-.316-.48c-1.288-1.975-2.345-3.767-2.266-5.784a7.049,7.049,0,0,1,.456-2.236A6.486,6.486,0,0,1,22.114,8.43a6.486,6.486,0,0,1,6.222,4.192,7.049,7.049,0,0,1,.456,2.236C28.87,16.875,27.813,18.668,26.525,20.642Z" transform="translate(-5.101 -5.999)" fill="#2d4356"/>
      </g>
      <path id="Path_1264901" data-name="Path 1264901" d="M29.906,14.191A6.486,6.486,0,0,0,23.685,10a6.486,6.486,0,0,0-6.222,4.192,7.049,7.049,0,0,0-.456,2.236c-.079,2.017.978,3.81,2.266,5.784l.316.48c1.391,2.133,2.825,4.314,4.1,6.586,1.27-2.272,2.7-4.454,4.1-6.586l.316-.48c1.288-1.975,2.345-3.767,2.266-5.784a7.049,7.049,0,0,0-.456-2.236Zm-6.222,6.744a4.253,4.253,0,1,1,4.253-4.253,4.253,4.253,0,0,1-4.253,4.253Z" transform="translate(-6.672 -1.569)" fill="#fc785e"/>
      <path id="Path_1264902" data-name="Path 1264902" d="M25.253,14a4.253,4.253,0,1,0,4.253,4.253A4.253,4.253,0,0,0,25.253,14Zm0,6.076a1.823,1.823,0,1,1,1.823-1.823A1.823,1.823,0,0,1,25.253,20.076Z" transform="translate(-8.241 -3.14)" fill="#2d4356"/>
      <circle id="Ellipse_12790" data-name="Ellipse 12790" cx="1.823" cy="1.823" r="1.823" transform="translate(15.19 13.29)" fill="#fff"/>
      <path id="Path_1264903" data-name="Path 1264903" d="M55.608,68.76a9.143,9.143,0,0,0-16.988,0,9.439,9.439,0,0,0-.614,3c-.109,2.728,1.2,4.97,2.661,7.212l.316.48a84.063,84.063,0,0,1,5.043,8.391,1.214,1.214,0,0,0,2.175,0,84.063,84.063,0,0,1,5.043-8.391l.316-.48c1.464-2.242,2.771-4.478,2.661-7.212A9.439,9.439,0,0,0,55.608,68.76Zm-4.083,8.883-.316.48c-1.391,2.133-2.825,4.314-4.1,6.586-1.27-2.272-2.7-4.454-4.1-6.586l-.316-.48c-1.288-1.975-2.345-3.767-2.266-5.784a7.049,7.049,0,0,1,.456-2.236,6.713,6.713,0,0,1,12.443,0,7.049,7.049,0,0,1,.456,2.236c0,.073.006.14.006.213C53.8,74,52.77,75.735,51.525,77.643Z" transform="translate(-14.912 -22.368)" fill="#2d4356"/>
      <path id="Path_1264904" data-name="Path 1264904" d="M55.362,73.428a7.049,7.049,0,0,0-.456-2.236,6.713,6.713,0,0,0-12.443,0,7.049,7.049,0,0,0-.456,2.236c-.079,2.017.978,3.81,2.266,5.784l.316.48c1.391,2.133,2.825,4.314,4.1,6.586,1.27-2.272,2.7-4.454,4.1-6.586l.316-.48c1.246-1.908,2.272-3.639,2.272-5.572,0-.073-.006-.14-.006-.213Zm-6.677,4.508a4.253,4.253,0,1,1,4.253-4.253A4.253,4.253,0,0,1,48.685,77.936Z" transform="translate(-16.483 -23.938)" fill="#fc785e"/>
      <path id="Path_1264905" data-name="Path 1264905" d="M50.253,71a4.253,4.253,0,1,0,4.253,4.253A4.253,4.253,0,0,0,50.253,71Zm0,6.076a1.823,1.823,0,1,1,1.823-1.823,1.823,1.823,0,0,1-1.823,1.823Z" transform="translate(-18.051 -25.508)" fill="#2d4356"/>
      <circle id="Ellipse_12791" data-name="Ellipse 12791" cx="1.823" cy="1.823" r="1.823" transform="translate(30.379 47.923)" fill="#fff"/>
      <path id="Path_1264906" data-name="Path 1264906" d="M86.658,30.2c0,3-1.616,5.742-3.415,8.512l-.456.7c-2.212,3.4-4.49,6.9-6.459,10.548-1.969-3.645-4.247-7.145-6.459-10.548l-.456-.7c-1.865-2.868-3.53-5.705-3.409-8.834.006-.1.006-.194.018-.292.194,2.771,1.713,5.329,3.39,7.911l.456.7c2.212,3.4,4.49,6.9,6.459,10.548C78.3,45.1,80.576,41.6,82.787,38.2l.456-.7c1.677-2.582,3.2-5.14,3.39-7.911.012.1.012.194.018.292S86.658,30.1,86.658,30.2Z" transform="translate(-25.899 -9.258)" fill="#a54b3f" opacity="0.5"/>
      <path id="Path_1264907" data-name="Path 1264907" d="M86.658,23.937c0,.2-.006.4-.024.6a11.006,11.006,0,0,0-.68-3.178,10.355,10.355,0,0,0-19.242,0,10.817,10.817,0,0,0-.687,3.178,7.785,7.785,0,0,1-.018-.924,10.828,10.828,0,0,1,.7-3.469,10.355,10.355,0,0,1,19.242,0,10.987,10.987,0,0,1,.7,3.469c.006.109.006.219.006.322Z" transform="translate(-25.9 -2.991)" fill="#f9dbd7" opacity="0.3"/>
      <path id="Path_1264908" data-name="Path 1264908" d="M76.94,69.991l-2.746,7.735-19.74,5.541a1.205,1.205,0,0,0-.717.547L51.4,87.733,46.81,84.671a1.223,1.223,0,0,0-.972-.164l-7.5,1.92a1.194,1.194,0,0,0-.7.486l-2.084,3.026H33.309L21.947,73.54,21.8,68.807a1.157,1.157,0,0,0-.188-.614L11.521,52.286a1.223,1.223,0,0,0-.8-.541L6.18,50.871,4.54,46.678l.4-.188L6.18,49.656l4.545.875a1.223,1.223,0,0,1,.8.541L21.613,66.978a1.157,1.157,0,0,1,.188.614l.146,4.733,11.362,16.4h2.248L37.641,85.7a1.194,1.194,0,0,1,.7-.486l7.5-1.92a1.223,1.223,0,0,1,.972.164L51.4,86.518,53.736,82.6a1.205,1.205,0,0,1,.717-.547l19.74-5.541,2.43-6.847Z" transform="translate(-1.782 -15.89)" fill="#9fa5aa" opacity="0.5"/>
      <path id="Path_1264909" data-name="Path 1264909" d="M30.362,20.317c.079,2.017-.978,3.81-2.266,5.784l-.316.48c-1.391,2.133-2.825,4.314-4.1,6.586-1.27-2.272-2.7-4.454-4.1-6.586l-.316-.48c-1.288-1.975-2.345-3.767-2.266-5.784.006-.134.012-.273.03-.407a11.742,11.742,0,0,0,2.236,4.976l.316.48c1.391,2.133,2.825,4.314,4.1,6.586,1.27-2.272,2.7-4.454,4.1-6.586l.316-.48a11.742,11.742,0,0,0,2.236-4.976c.018.134.024.273.03.407Z" transform="translate(-6.672 -5.459)" fill="#a54b3f" opacity="0.5"/>
      <path id="Path_1264910" data-name="Path 1264910" d="M30.331,17.235a7.025,7.025,0,0,0-.425-1.829,6.486,6.486,0,0,0-6.222-4.192,6.486,6.486,0,0,0-6.222,4.192,7.025,7.025,0,0,0-.425,1.829,5.109,5.109,0,0,1-.03-.808,7.049,7.049,0,0,1,.456-2.236A6.486,6.486,0,0,1,23.684,10a6.486,6.486,0,0,1,6.222,4.192,7.049,7.049,0,0,1,.456,2.236A5.109,5.109,0,0,1,30.331,17.235Z" transform="translate(-6.672 -1.569)" fill="#f9dbd7" opacity="0.3"/>
      <path id="Path_1264911" data-name="Path 1264911" d="M55.368,77.53c0,1.932-1.027,3.664-2.272,5.572l-.316.48c-1.391,2.133-2.825,4.314-4.1,6.586-1.27-2.272-2.7-4.454-4.1-6.586l-.316-.48c-1.288-1.975-2.345-3.767-2.266-5.784.006-.134.012-.273.03-.407a11.742,11.742,0,0,0,2.236,4.976l.316.48c1.391,2.133,2.825,4.314,4.1,6.586,1.27-2.272,2.7-4.454,4.1-6.586l.316-.48a11.742,11.742,0,0,0,2.236-4.976c.018.134.024.273.03.407,0,.073.006.14.006.213Z" transform="translate(-16.483 -27.827)" fill="#a54b3f" opacity="0.5"/>
      <path id="Path_1264912" data-name="Path 1264912" d="M55.368,73.641a4.821,4.821,0,0,1-.036.6,7.025,7.025,0,0,0-.425-1.829,6.713,6.713,0,0,0-12.443,0,7.025,7.025,0,0,0-.425,1.829,5.109,5.109,0,0,1-.03-.808,7.049,7.049,0,0,1,.456-2.236,6.713,6.713,0,0,1,12.443,0,7.049,7.049,0,0,1,.456,2.236C55.362,73.5,55.368,73.568,55.368,73.641Z" transform="translate(-16.483 -23.938)" fill="#f9dbd7" opacity="0.3"/>
    </g>
  </g>
</svg>
