<svg xmlns="http://www.w3.org/2000/svg" xmlns:xlink="http://www.w3.org/1999/xlink" width="111.776" height="111.776" viewBox="0 0 111.776 111.776">
  <defs>
    <filter id="Path_874925" x="0" y="0" width="111.776" height="111.776" filterUnits="userSpaceOnUse">
      <feOffset dy="3" input="SourceAlpha"/>
      <feGaussianBlur stdDeviation="3" result="blur"/>
      <feFlood flood-opacity="0.161"/>
      <feComposite operator="in" in2="blur"/>
      <feComposite in="SourceGraphic"/>
    </filter>
  </defs>
  <g id="Group_1205817" data-name="Group 1205817" transform="translate(-1216 -1726)">
    <g id="Group_1204849" data-name="Group 1204849" transform="translate(940 -4518.874)">
      <g id="Group_1200232" data-name="Group 1200232" transform="translate(285 6250.874)">
        <g id="Group_1187153" data-name="Group 1187153">
          <g id="Group_1182177" data-name="Group 1182177">
            <g id="Group_1181903" data-name="Group 1181903">
              <g id="Group_1181438" data-name="Group 1181438">
                <g id="Group_1111314" data-name="Group 1111314">
                  <g transform="matrix(1, 0, 0, 1, -9, -6)" filter="url(#Path_874925)">
                    <g id="Path_874925-2" data-name="Path 874925" transform="translate(9 6)" fill="#ffc94a">
                      <path d="M 46.88790893554688 92.2763671875 C 40.75992202758789 92.2763671875 34.8160285949707 91.07652282714844 29.22134971618652 88.71018218994141 C 23.81676292419434 86.42423248291016 18.96264266967773 83.15139007568359 14.79381561279297 78.98255157470703 C 10.62497520446777 74.81372833251953 7.35213565826416 69.95960998535156 5.066188812255859 64.55502319335938 C 2.699842214584351 58.9603385925293 1.500002264976501 53.01644515991211 1.500002264976501 46.88844680786133 C 1.500002264976501 40.75992584228516 2.699842214584351 34.81603240966797 5.066188812255859 29.22135353088379 C 7.35213565826416 23.8167667388916 10.62497520446777 18.962646484375 14.79381561279297 14.79381942749023 C 18.96264266967773 10.62497997283936 23.81676292419434 7.352139949798584 29.22134971618652 5.066193103790283 C 34.8160285949707 2.699846506118774 40.75992202758789 1.500006437301636 46.88790893554688 1.500006437301636 C 53.01589584350586 1.500006437301636 58.95978927612305 2.699846506118774 64.55446624755859 5.066193103790283 C 69.95905303955078 7.352139949798584 74.81317901611328 10.62497997283936 78.98200225830078 14.79381942749023 C 83.15084075927734 18.962646484375 86.42368316650391 23.8167667388916 88.70962524414062 29.22135353088379 C 91.07597351074219 34.81603240966797 92.27581787109375 40.75992584228516 92.27581787109375 46.88791275024414 C 92.27581787109375 53.01644515991211 91.07597351074219 58.9603385925293 88.70962524414062 64.55502319335938 C 86.42368316650391 69.95960998535156 83.15084075927734 74.81372833251953 78.98200225830078 78.98255157470703 C 74.81317901611328 83.15139007568359 69.95905303955078 86.42423248291016 64.55446624755859 88.71018218994141 C 58.95978927612305 91.07652282714844 53.01589584350586 92.2763671875 46.88790893554688 92.2763671875 Z" stroke="none"/>
                      <path d="M 46.88790893554688 2.999992370605469 C 40.96175003051758 2.999992370605469 35.2144660949707 4.159965515136719 29.80567932128906 6.44769287109375 C 24.57989501953125 8.658004760742188 19.88602447509766 11.82290649414062 15.85446929931641 15.85446929931641 C 11.82290649414062 19.88602447509766 8.658012390136719 24.57989501953125 6.44769287109375 29.80567932128906 C 4.159965515136719 35.2144660949707 2.999992370605469 40.96175003051758 2.999992370605469 46.88845062255859 C 2.999992370605469 52.81460952758789 4.159965515136719 58.56189346313477 6.44769287109375 63.97069549560547 C 8.658012390136719 69.19646453857422 11.82290649414062 73.89033508300781 15.85446929931641 77.92189025878906 C 19.88602447509766 81.95343780517578 24.57989501953125 85.11833953857422 29.80567932128906 87.32865142822266 C 35.2144660949707 89.61637878417969 40.96175003051758 90.77635192871094 46.88790893554688 90.77635192871094 C 52.81406784057617 90.77635192871094 58.56135177612305 89.61637878417969 63.97013854980469 87.32865142822266 C 69.1959228515625 85.11833953857422 73.88979339599609 81.95343780517578 77.92134857177734 77.92189025878906 C 81.95291137695312 73.89033508300781 85.11781311035156 69.19646453857422 87.328125 63.97069549560547 C 89.61585235595703 58.56189346313477 90.77582550048828 52.81460952758789 90.77582550048828 46.88790893554688 C 90.77582550048828 40.96175003051758 89.61585235595703 35.2144660949707 87.328125 29.80567932128906 C 85.11781311035156 24.57989501953125 81.95291137695312 19.88602447509766 77.92134857177734 15.85446929931641 C 73.88979339599609 11.82290649414062 69.1959228515625 8.658004760742188 63.97013854980469 6.44769287109375 C 58.56135177612305 4.159965515136719 52.81406784057617 2.999992370605469 46.88790893554688 2.999992370605469 M 46.88790893554688 -7.62939453125e-06 C 72.78337860107422 -7.62939453125e-06 93.77582550048828 20.99243927001953 93.77582550048828 46.88790893554688 L 93.77582550048828 46.88845062255859 C 93.77582550048828 72.783935546875 72.78337860107422 93.77635192871094 46.88790893554688 93.77635192871094 C 20.99243927001953 93.77635192871094 -7.62939453125e-06 72.783935546875 -7.62939453125e-06 46.88845062255859 L -7.62939453125e-06 46.88790893554688 C -7.62939453125e-06 20.99243927001953 20.99243927001953 -7.62939453125e-06 46.88790893554688 -7.62939453125e-06 Z" stroke="none" fill="#fff"/>
                    </g>
                  </g>
                </g>
              </g>
            </g>
          </g>
        </g>
      </g>
    </g>
    <g id="campesinos4" transform="translate(1155.348 1754.34)">
      <g id="Group_1205800" data-name="Group 1205800" transform="translate(114.27 0.801)">
        <g id="Group_1205796" data-name="Group 1205796" transform="translate(12.822 7.476)">
          <rect id="Rectangle_411799" data-name="Rectangle 411799" width="13.878" height="8.256" transform="translate(0 0)" fill="#fde31d"/>
        </g>
        <g id="Group_1205797" data-name="Group 1205797" transform="translate(12.822 7.476)">
          <rect id="Rectangle_411800" data-name="Rectangle 411800" width="2.669" height="8.256" transform="translate(0 0)" fill="#e9ca1c"/>
        </g>
        <g id="Group_1205798" data-name="Group 1205798" transform="translate(4.093 13.352)">
          <path id="Path_1265261" data-name="Path 1265261" d="M184.041,140.3v10.714a3.184,3.184,0,0,1-1.646,2.745H169.43v-6.593H159.31V142.82h6.649V140.3a8.415,8.415,0,0,1,5.47-7.723h7.141a9.083,9.083,0,0,1,2.823,1.78A8.089,8.089,0,0,1,184.041,140.3Z" transform="translate(-159.31 -132.58)" fill="#fff"/>
        </g>
        <path id="Path_1265262" data-name="Path 1265262" d="M124.99,408.033h0c-2.22,0-4.019-3.7-4.019-5.765v-4.042a1.665,1.665,0,0,1,1.723-1.6h4.594a1.665,1.665,0,0,1,1.723,1.6v4.042C129.01,404.331,127.21,408.033,124.99,408.033Z" transform="translate(-120.971 -355.084)" fill="#cdd9dd"/>
        <path id="Path_1265263" data-name="Path 1265263" d="M123.842,402.267v-4.042a1.665,1.665,0,0,1,1.723-1.6h-2.871a1.665,1.665,0,0,0-1.723,1.6v4.042c0,2.064,1.8,5.765,4.019,5.765h0a2.462,2.462,0,0,0,1.435-.515A7.522,7.522,0,0,1,123.842,402.267Z" transform="translate(-120.971 -355.083)" fill="#acbfc7"/>
        <path id="Path_1265264" data-name="Path 1265264" d="M144.208,374.537c-1.63,0-1.723-6.913-1.723-6.913h3.445S145.838,374.537,144.208,374.537Z" transform="translate(-140.188 -329.179)" fill="#cdd9dd"/>
        <path id="Path_1265265" data-name="Path 1265265" d="M249.519,212.765v-3.248c0-2.062-2.135-8.632-2.135-8.632v-6.649a1.6,1.6,0,0,0-1.6-1.6h-7.937a1.6,1.6,0,0,0-1.6,1.6v6.649s-2.135,5.887-2.135,8.632v3.248Z" transform="translate(-222.032 -172.87)" fill="#ff6a47"/>
        <path id="Path_1265266" data-name="Path 1265266" d="M245.809,432.21v-5.047H234.669v5.047l-2.323,2.353v.85H248.13v-.85Z" transform="translate(-220.456 -382.362)" fill="#fde31d"/>
        <rect id="Rectangle_411801" data-name="Rectangle 411801" width="11.139" height="4.906" transform="translate(14.213 39.895)" fill="#ffceb7"/>
        <rect id="Rectangle_411802" data-name="Rectangle 411802" width="3.203" height="4.906" transform="translate(14.213 39.895)" fill="#ffaa81"/>
        <path id="Path_1265267" data-name="Path 1265267" d="M238.914,200.885v-8.251h-1.068a1.6,1.6,0,0,0-1.6,1.6v6.649s-2.135,5.887-2.135,8.632v3.248h2.669v-3.248C236.779,206.772,238.914,200.885,238.914,200.885Z" transform="translate(-222.032 -172.87)" fill="#fd3501"/>
        <g id="Group_1205799" data-name="Group 1205799" transform="translate(4.093 13.353)">
          <rect id="Rectangle_411803" data-name="Rectangle 411803" width="2.669" height="4.347" transform="translate(0 10.24)" fill="#e3e9ee"/>
          <path id="Path_1265268" data-name="Path 1265268" d="M224.258,140.308a8.415,8.415,0,0,1,5.47-7.722H227.06a8.415,8.415,0,0,0-5.471,7.723v3.265h2.669Z" transform="translate(-214.94 -132.585)" fill="#e3e9ee"/>
        </g>
        <path id="Path_1265269" data-name="Path 1265269" d="M144.684,236.785h-1.669a.888.888,0,0,1-.919-.854v-1.572a.888.888,0,0,1,.919-.854h1.669a1.705,1.705,0,0,1,1.764,1.64h0A1.705,1.705,0,0,1,144.684,236.785Z" transform="translate(-139.841 -209.378)" fill="#ffceb7"/>
        <path id="Path_1265270" data-name="Path 1265270" d="M144.124,235.931v-1.572a.874.874,0,0,1,.765-.841,1.837,1.837,0,0,0-.206-.013h-1.669a.888.888,0,0,0-.919.854v1.572a.888.888,0,0,0,.919.854h1.669a1.831,1.831,0,0,0,.206-.013A.875.875,0,0,1,144.124,235.931Z" transform="translate(-139.841 -209.378)" fill="#ffaa81"/>
        <path id="Path_1265271" data-name="Path 1265271" d="M237.861,432.21v-5.047h-3.191v5.047l-2.323,2.353v.85h3.191v-.85Z" transform="translate(-220.456 -382.362)" fill="#e9ca1c"/>
        <path id="Path_1265272" data-name="Path 1265272" d="M230.856,14.981h13.777a1.3,1.3,0,0,0,1.3-1.3h0l-3.606-1.9L241.6,8.735a1.6,1.6,0,0,0-1.558-1.23h-4.6a1.6,1.6,0,0,0-1.558,1.23l-.726,3.048-3.606,1.9h0A1.3,1.3,0,0,0,230.856,14.981Z" transform="translate(-217.962 -7.505)" fill="#e6cc9f"/>
        <path id="Path_1265273" data-name="Path 1265273" d="M235.778,12.312l.509-4.807h-.843a1.6,1.6,0,0,0-1.558,1.23l-.726,3.048-3.606,1.9a1.3,1.3,0,0,0,1.3,1.3h1.719Z" transform="translate(-217.963 -7.505)" fill="#dfba7f"/>
        <path id="Path_1265274" data-name="Path 1265274" d="M271.281,77.533l.012,3.5a3.736,3.736,0,0,0,3.725,3.456h0a3.736,3.736,0,0,0,3.725-3.456l.012-3.5Z" transform="translate(-255.235 -70.057)" fill="#ffceb7"/>
        <path id="Path_1265275" data-name="Path 1265275" d="M273.962,81.036l-.012-3.5h-2.669l.012,3.5a3.735,3.735,0,0,0,5.059,3.21A3.738,3.738,0,0,1,273.962,81.036Z" transform="translate(-255.235 -70.057)" fill="#ffaa81"/>
      </g>
      <g id="Group_1205801" data-name="Group 1205801" transform="translate(113.469 0)">
        <path id="Trazado_1265276" data-name="Trazado 1265276" d="M137.418,368.638c-2,0-2.476-4.189-2.523-7.7l-.011-.811h4.588l.234.235c.622.622-.22,5.817-.659,6.877C138.567,368.395,137.9,368.638,137.418,368.638Zm-.9-6.913c.1,2.4.479,4.622.9,5.221.416-.6.8-2.851.9-5.221Z" transform="translate(-132.598 -321.679)"/>
        <path id="Trazado_1265277" data-name="Trazado 1265277" d="M118.289,402.129c-2.832,0-4.82-4.259-4.82-6.565v-4.042a2.468,2.468,0,0,1,2.523-2.4h.78v1.6h-.78a.869.869,0,0,0-.922.8v4.042c0,1.779,1.622,4.964,3.219,4.964s3.219-3.185,3.219-4.964v-4.042a.869.869,0,0,0-.922-.8h-.78v-1.6h.78a2.468,2.468,0,0,1,2.523,2.4v4.042C123.109,397.87,121.121,402.129,118.289,402.129Z" transform="translate(-113.469 -347.579)"/>
        <path id="Línea_564" data-name="Línea 564" d="M-5.9,11.223H-7.5V0h1.6Z" transform="translate(11.52 28.024)"/>
        <path id="Trazado_1265278" data-name="Trazado 1265278" d="M372.6,259.787l-.8-1.387a2.376,2.376,0,0,0,1.245-2.051V250.5h1.6v5.848A3.959,3.959,0,0,1,372.6,259.787Z" transform="translate(-344.227 -223.758)"/>
        <path id="Trazado_1265279" data-name="Trazado 1265279" d="M343.512,137.353h-1.6v-3.265a7.266,7.266,0,0,0-2.393-5.355,8.242,8.242,0,0,0-2.574-1.622l.593-1.488a9.836,9.836,0,0,1,3.072,1.937,8.851,8.851,0,0,1,2.9,6.528Z" transform="translate(-313.087 -112.212)"/>
        <path id="Trazado_1265280" data-name="Trazado 1265280" d="M166.758,137.405h-7.45v-1.6h5.848v-1.717a9.2,9.2,0,0,1,5.974-8.466l.594,1.487a7.61,7.61,0,0,0-4.967,6.979Z" transform="translate(-154.414 -112.21)"/>
        <path id="Línea_565" data-name="Línea 565" d="M10.121-5.9H0V-7.5H10.121Z" transform="translate(4.894 35.441)"/>
        <path id="Línea_566" data-name="Línea 566" d="M-5.9,6.306H-7.5V0h1.6Z" transform="translate(23.436 14.259)"/>
        <path id="Línea_567" data-name="Línea 567" d="M-5.9,6.253H-7.5V0h1.6Z" transform="translate(31.13 14.312)"/>
        <path id="Línea_568" data-name="Línea 568" d="M-5.9,13.156H-7.5V0h1.6Z" transform="translate(27.283 40.696)"/>
        <path id="Trazado_1265281" data-name="Trazado 1265281" d="M243.621,206.867H226.61v-4.049c0-2.651,1.807-7.849,2.135-8.771v-6.51a2.4,2.4,0,0,1,2.4-2.4h7.937a2.4,2.4,0,0,1,2.4,2.4v6.523c.352,1.091,2.135,6.725,2.135,8.759Zm-15.409-1.6h13.808v-2.447c0-1.588-1.513-6.591-2.1-8.385l-.039-.121v-6.776a.8.8,0,0,0-.8-.8h-7.937a.8.8,0,0,0-.8.8v6.79l-.048.132c-.021.058-2.087,5.786-2.087,8.359Z" transform="translate(-214.532 -165.37)"/>
        <path id="Trazado_1265282" data-name="Trazado 1265282" d="M242.231,395.163H224.846v-1.979l2.323-2.353v-9.625h1.6v10.282l-2.047,2.073h13.631l-2.046-2.074V381.206h1.6v9.625l2.321,2.353Z" transform="translate(-212.956 -340.51)"/>
        <path id="Trazado_1265283" data-name="Trazado 1265283" d="M137.985,227.238h-1.669a1.826,1.826,0,0,1-1.719-1.913v-2.046a1.826,1.826,0,0,1,1.719-1.913h1.669a2.963,2.963,0,0,1,0,5.872Zm-1.669-4.27a.4.4,0,0,0-.118.311v2.046a.368.368,0,0,0,.127.313h1.66c.522,0,.963-.611.963-1.334s-.441-1.334-.963-1.334Z" transform="translate(-132.341 -197.734)"/>
        <path id="Línea_569" data-name="Línea 569" d="M-5.9,13.678H-7.5V0h1.6Z" transform="translate(11.52 11.049)"/>
        <path id="Línea_570" data-name="Línea 570" d="M9.169-5.9H0V-7.5H9.169Z" transform="translate(15.999 11.779)"/>
        <path id="Trazado_1265284" data-name="Trazado 1265284" d="M268.309,85.271a4.553,4.553,0,0,1-4.523-4.2l-.014-3.56,1.6-.005.012,3.5a2.936,2.936,0,0,0,5.851-.057l.009-3.446,1.6.005-.012,3.5A4.563,4.563,0,0,1,268.309,85.271Z" transform="translate(-247.726 -69.234)"/>
        <path id="Línea_571" data-name="Línea 571" d="M11.139-5.9H0V-7.5H11.139Z" transform="translate(15.014 52.302)"/>
        <path id="Línea_572" data-name="Línea 572" d="M-5.9,8.256H-7.5V0h1.6Z" transform="translate(20.322 8.277)"/>
        <path id="Línea_573" data-name="Línea 573" d="M-5.9,8.256H-7.5V0h1.6Z" transform="translate(34.201 8.277)"/>
        <path id="Trazado_1265285" data-name="Trazado 1265285" d="M237.931,9.077H224.154a2.1,2.1,0,0,1-2.1-2.1V6.492l3.712-1.952.642-2.694A2.394,2.394,0,0,1,228.741,0h.525V1.6h-.525a.8.8,0,0,0-.779.616l-.81,3.4-3.317,1.744a.5.5,0,0,0,.318.113h13.777a.5.5,0,0,0,.317-.114l-3.317-1.744-.809-3.4a.8.8,0,0,0-.78-.615h-2.475V0h2.475a2.4,2.4,0,0,1,2.338,1.846l.641,2.694,3.712,1.952v.484A2.1,2.1,0,0,1,237.931,9.077Z" transform="translate(-210.459 0)"/>
      </g>
      <g id="Group_1205802" data-name="Group 1205802" transform="translate(131.443 23.864)">
        <path id="Línea_574" data-name="Línea 574" d="M1.6-5.9H0V-7.5H1.6Z" transform="translate(0 7.5)" fill="#fff"/>
        <path id="Línea_575" data-name="Línea 575" d="M1.6-5.9H0V-7.5H1.6Z" transform="translate(3.203 7.5)" fill="#fff"/>
      </g>
    </g>
    <g id="campesino6" transform="translate(1230 1756.629)">
      <path id="Path_1265276" data-name="Path 1265276" d="M76.526,280.392,72.874,279l-7.527,7.091L57.821,279l-3.652,1.389a4.147,4.147,0,0,0-2.673,3.876v12.609a.829.829,0,0,0,.829.829H79.2V284.268A4.147,4.147,0,0,0,76.526,280.392Z" transform="translate(-47.225 -255.862)" fill="#fff3de"/>
      <g id="Group_1205803" data-name="Group 1205803" transform="translate(4.271 23.141)">
        <path id="Path_1265277" data-name="Path 1265277" d="M55.477,296.876V284.268a4.147,4.147,0,0,1,2.673-3.876l.815-.31L57.821,279l-3.652,1.389a4.147,4.147,0,0,0-2.673,3.876v12.609a.829.829,0,0,0,.829.829h3.981A.829.829,0,0,1,55.477,296.876Z" transform="translate(-51.496 -279.003)" fill="#ffe5c2"/>
      </g>
      <path id="Trazado_1265278-2" data-name="Trazado 1265278" d="M72.321,291.45H54.792a.622.622,0,1,1,0-1.244H71.7V277.39a3.544,3.544,0,0,0-2.272-3.295l-3.288-1.25L58.9,279.669a.622.622,0,0,1-.853,0L50.8,272.845l-3.288,1.25a3.544,3.544,0,0,0-2.272,3.295V290a.208.208,0,0,0,.207.207h6.442a.622.622,0,0,1,0,1.244H45.447A1.453,1.453,0,0,1,44,290V277.39a4.8,4.8,0,0,1,3.074-4.458l3.652-1.389a.622.622,0,0,1,.648.129l7.1,6.689,7.1-6.689a.622.622,0,0,1,.648-.129l3.652,1.389a4.8,4.8,0,0,1,3.074,4.458v13.438A.622.622,0,0,1,72.321,291.45Z" transform="translate(-40.347 -248.984)"/>
      <path id="Path_1265279" data-name="Path 1265279" d="M137.956,241.576a.415.415,0,0,1-.267-.388V240.2a4.418,4.418,0,0,1-1.323.2H134.2a4.417,4.417,0,0,1-1.323-.2v.985a.415.415,0,0,1-.267.388l-4.854,1.846,7.527,7.091,7.527-7.091Z" transform="translate(-117.161 -220.281)" fill="#ffcebf"/>
      <g id="Group_1205804" data-name="Group 1205804" transform="translate(10.596 22.08)">
        <path id="Path_1265280" data-name="Path 1265280" d="M130.548,266.21l-2.791,1.061,7.527,7.091,1.959-1.845Z" transform="translate(-127.757 -266.21)" fill="#ffb09e"/>
      </g>
      <path id="Trazado_1265281-2" data-name="Trazado 1265281" d="M128.405,244.256a.62.62,0,0,1-.427-.169L120.452,237a.622.622,0,0,1,.205-1.034l4.72-1.795v-.842a.622.622,0,1,1,1.244,0v.985a1.042,1.042,0,0,1-.668.969l-3.926,1.493,6.377,6.008,6.377-6.008-3.925-1.493a1.042,1.042,0,0,1-.668-.969v-.985a.622.622,0,0,1,1.244,0v.842l4.72,1.795a.622.622,0,0,1,.205,1.034l-7.527,7.091A.621.621,0,0,1,128.405,244.256Z" transform="translate(-110.283 -213.403)"/>
      <path id="Línea_564-2" data-name="Línea 564" d="M-4.307-6.256H-6.878A.622.622,0,0,1-7.5-6.878.622.622,0,0,1-6.878-7.5h2.571a.622.622,0,0,1,.622.622A.622.622,0,0,1-4.307-6.256Z" transform="translate(26.577 30.599)"/>
      <path id="Línea_565-2" data-name="Línea 565" d="M-4.307-6.256H-6.878A.622.622,0,0,1-7.5-6.878.622.622,0,0,1-6.878-7.5h2.571a.622.622,0,0,1,.622.622A.622.622,0,0,1-4.307-6.256Z" transform="translate(20.854 30.599)"/>
      <g id="Group_1205805" data-name="Group 1205805" transform="translate(7.966 34.359)">
        <path id="Línea_566-2" data-name="Línea 566" d="M-6.878.606A.622.622,0,0,1-7.5-.016V-6.878A.622.622,0,0,1-6.878-7.5a.622.622,0,0,1,.622.622V-.016A.622.622,0,0,1-6.878.606Z" transform="translate(7.5 7.5)"/>
        <path id="Línea_567-2" data-name="Línea 567" d="M-6.878.606A.622.622,0,0,1-7.5-.016V-6.878A.622.622,0,0,1-6.878-7.5a.622.622,0,0,1,.622.622V-.016A.622.622,0,0,1-6.878.606Z" transform="translate(26.569 7.5)"/>
      </g>
      <g id="Group_1205814" data-name="Group 1205814">
        <path id="Path_1265282" data-name="Path 1265282" d="M161.186,161.187a2.074,2.074,0,0,0-2.074-2.074h-2.9a2.074,2.074,0,0,0-2.074,2.074.936.936,0,0,1-1.821.3,3.1,3.1,0,0,1-.157-.976v1.1a4.42,4.42,0,0,0,4.42,4.42h2.165a4.42,4.42,0,0,0,4.42-4.42v-1.1a3.1,3.1,0,0,1-.156.976A.936.936,0,0,1,161.186,161.187Z" transform="translate(-139.538 -145.916)" fill="#ffd15b"/>
        <g id="Group_1205806" data-name="Group 1205806" transform="translate(12.62 13.791)">
          <path id="Path_1265283" data-name="Path 1265283" d="M154.757,168.191v-1.913a2.067,2.067,0,0,0-.621,1.479.936.936,0,0,1-1.821.3,3.1,3.1,0,0,1-.157-.976v1.1a4.42,4.42,0,0,0,4.42,4.42h2.165c.073,0,.145,0,.217-.005A4.42,4.42,0,0,1,154.757,168.191Z" transform="translate(-152.158 -166.278)" fill="#ffc344"/>
        </g>
        <path id="Trazado_1265284-2" data-name="Trazado 1265284" d="M151.865,175.286H149.7a5.048,5.048,0,0,1-5.042-5.042v-1.1a.622.622,0,1,1,1.244,0v1.1a3.8,3.8,0,0,0,3.8,3.8h2.165a3.8,3.8,0,0,0,3.8-3.8v-1.1a.622.622,0,1,1,1.244,0v1.1A5.048,5.048,0,0,1,151.865,175.286Z" transform="translate(-132.66 -154.54)"/>
        <path id="Path_1265285" data-name="Path 1265285" d="M128.9,16.4h.645V14.712a.415.415,0,0,1,.7-.3l1.161,1.13,1.819-1.754,1.819,1.754,1.819-1.754,1.819,1.754,1.161-1.13a.415.415,0,0,1,.7.3V16.4h.645a2.137,2.137,0,0,1,1.4.52V13.362A5.862,5.862,0,0,0,136.739,7.5h-3.372a5.862,5.862,0,0,0-5.862,5.862v3.555A2.137,2.137,0,0,1,128.9,16.4Z" transform="translate(-116.93 -6.878)" fill="#ffd15b"/>
        <g id="Group_1205807" data-name="Group 1205807" transform="translate(10.575 0.622)">
          <path id="Path_1265286" data-name="Path 1265286" d="M131.485,13.362a5.862,5.862,0,0,1,5.557-5.854q-.151-.008-.3-.008h-3.372a5.862,5.862,0,0,0-5.862,5.862v3.555a2.137,2.137,0,0,1,1.4-.52h.645V14.712a.415.415,0,0,1,.7-.3l1.161,1.13.071-.068V13.362Z" transform="translate(-127.504 -7.5)" fill="#ffc344"/>
        </g>
        <path id="Trazado_1265287" data-name="Trazado 1265287" d="M296.238,47.381a.622.622,0,0,1-.622-.622V43.2a5.19,5.19,0,0,0-.516-2.27.622.622,0,0,1,1.121-.54,6.424,6.424,0,0,1,.639,2.81v3.555A.622.622,0,0,1,296.238,47.381Z" transform="translate(-270.568 -36.72)"/>
        <path id="Trazado_1265288" data-name="Trazado 1265288" d="M120.626,10.661a.622.622,0,0,1-.622-.622V6.484A6.491,6.491,0,0,1,126.488,0h3.372a6.438,6.438,0,0,1,3.769,1.209.622.622,0,1,1-.724,1.012,5.2,5.2,0,0,0-3.045-.977h-3.372a5.245,5.245,0,0,0-5.24,5.24v3.555A.622.622,0,0,1,120.626,10.661Z" transform="translate(-110.051 0)"/>
        <g id="Group_1205808" data-name="Group 1205808" transform="translate(9.207 8.897)">
          <path id="Path_1265289" data-name="Path 1265289" d="M285.494,114.769h-.645v4.705h.645a2.146,2.146,0,0,0,2.146-2.146v-.413A2.146,2.146,0,0,0,285.494,114.769Z" transform="translate(-270.43 -114.147)" fill="#ffb09e"/>
          <path id="Trazado_1265290" data-name="Trazado 1265290" d="M277.971,107.269h.645a2.768,2.768,0,0,1,2.768,2.768v.413a2.771,2.771,0,0,1-2.768,2.768h-.645a.622.622,0,0,1-.622-.622v-4.705A.622.622,0,0,1,277.971,107.269Zm.645,4.705a1.526,1.526,0,0,0,1.524-1.524v-.413a1.524,1.524,0,0,0-1.524-1.524h-.023v3.461Z" transform="translate(-263.552 -107.269)"/>
          <path id="Path_1265291" data-name="Path 1265291" d="M121.3,114.769h-.645a2.146,2.146,0,0,0-2.146,2.146v.413a2.146,2.146,0,0,0,2.146,2.146h.645Z" transform="translate(-117.882 -114.147)" fill="#f89580"/>
          <path id="Trazado_1265292" data-name="Trazado 1265292" d="M113.772,107.269h.645a.622.622,0,0,1,.622.622V112.6a.622.622,0,0,1-.622.622h-.645A2.771,2.771,0,0,1,111,110.45v-.413A2.771,2.771,0,0,1,113.772,107.269Zm.023,1.244h-.023a1.526,1.526,0,0,0-1.524,1.524v.413a1.526,1.526,0,0,0,1.524,1.524h.023Z" transform="translate(-111.004 -107.269)"/>
        </g>
        <path id="Path_1265293" data-name="Path 1265293" d="M161.3,85.11l-1.819-1.754L157.66,85.11l-1.819-1.754-1.819,1.754-1.161-1.13a.415.415,0,0,0-.7.3v6.765a3.1,3.1,0,0,0,.157.976.936.936,0,0,0,1.821-.3h0a2.074,2.074,0,0,1,2.074-2.074h2.9a2.074,2.074,0,0,1,2.074,2.074h0a.936.936,0,0,0,1.821.3,3.1,3.1,0,0,0,.157-.976V84.276a.415.415,0,0,0-.7-.3Z" transform="translate(-139.537 -76.442)" fill="#ffcebf"/>
        <g id="Group_1205809" data-name="Group 1205809" transform="translate(12.62 7.418)">
          <path id="Path_1265294" data-name="Path 1265294" d="M154.756,89.985l-.733.707-1.161-1.13a.415.415,0,0,0-.7.3v6.765a3.1,3.1,0,0,0,.157.976.936.936,0,0,0,1.821-.3,2.067,2.067,0,0,1,.621-1.479V89.985Z" transform="translate(-152.157 -89.443)" fill="#ffb09e"/>
        </g>
        <path id="Trazado_1265295" data-name="Trazado 1265295" d="M148.963,75.856a.62.62,0,0,1,.432.174l1.387,1.337,1.387-1.337a.622.622,0,0,1,.864,0l1.385,1.335.729-.71a1.028,1.028,0,0,1,.72-.295h0a1.04,1.04,0,0,1,1.04,1.038v6.765a3.72,3.72,0,0,1-.188,1.171,1.519,1.519,0,0,1-1.46,1.061,1.553,1.553,0,0,1-1.574-1.56,1.453,1.453,0,0,0-1.451-1.451h-2.9a1.453,1.453,0,0,0-1.451,1.451A1.553,1.553,0,0,1,146.3,86.4a1.519,1.519,0,0,1-1.46-1.061,3.72,3.72,0,0,1-.188-1.171V77.4a1.04,1.04,0,0,1,1.04-1.038,1.028,1.028,0,0,1,.72.295l.73.71,1.385-1.335A.62.62,0,0,1,148.963,75.856Zm1.819,3a.62.62,0,0,1-.432-.174l-1.387-1.337-1.387,1.337a.622.622,0,0,1-.866,0l-.809-.788v6.274a2.478,2.478,0,0,0,.125.78.272.272,0,0,0,.279.208.311.311,0,0,0,.33-.316,2.7,2.7,0,0,1,2.7-2.7h2.9a2.7,2.7,0,0,1,2.7,2.7.311.311,0,0,0,.33.316.272.272,0,0,0,.279-.208,2.477,2.477,0,0,0,.125-.78V77.89l-.809.788a.622.622,0,0,1-.866,0L152.6,77.342l-1.387,1.337A.62.62,0,0,1,150.782,78.854Z" transform="translate(-132.659 -69.564)"/>
        <g id="Group_1205810" data-name="Group 1205810" transform="translate(14.739 8.735)">
          <path id="Línea_568-2" data-name="Línea 568" d="M-6.878-5.139A.622.622,0,0,1-7.5-5.761V-6.878A.622.622,0,0,1-6.878-7.5a.622.622,0,0,1,.622.622v1.117A.622.622,0,0,1-6.878-5.139Z" transform="translate(7.5 7.5)"/>
          <path id="Línea_569-2" data-name="Línea 569" d="M-6.878-5.139A.622.622,0,0,1-7.5-5.761V-6.878A.622.622,0,0,1-6.878-7.5a.622.622,0,0,1,.622.622v1.117A.622.622,0,0,1-6.878-5.139Z" transform="translate(13.023 7.5)"/>
        </g>
        <g id="Group_1205811" data-name="Group 1205811" transform="translate(16.172 14.927)">
          <path id="Trazado_1265296" data-name="Trazado 1265296" d="M196.932,181.486a4.088,4.088,0,0,1-1.567-.314.622.622,0,1,1,.476-1.149,2.831,2.831,0,0,0,2.181,0,.622.622,0,1,1,.476,1.149A4.088,4.088,0,0,1,196.932,181.486Z" transform="translate(-194.981 -179.975)"/>
        </g>
        <path id="Trazado_1265297" data-name="Trazado 1265297" d="M195.266,120.942a.619.619,0,0,1-.39-.138l-1.3-1.046a.622.622,0,0,1-.023-.949l1.3-1.152a.622.622,0,1,1,.826.93l-.748.664.725.585a.622.622,0,0,1-.391,1.106Z" transform="translate(-177.311 -107.754)"/>
        <g id="Group_1205813" data-name="Group 1205813">
          <g id="Group_1205812" data-name="Group 1205812">
            <path id="Path_1265298" data-name="Path 1265298" d="M285.6,51.337" transform="translate(-261.911 -47.079)" fill="#fff"/>
            <path id="Trazado_1265298_-_Contorno" data-name="Trazado 1265298 - Contorno"/>
          </g>
        </g>
      </g>
      <path id="Path_1265299" data-name="Path 1265299" d="M118.106,279l-.855,4.118a.829.829,0,0,0,.605.972l7.776,2Z" transform="translate(-107.51 -255.863)" fill="#fed2a4"/>
      <path id="Path_1265300" data-name="Path 1265300" d="M226.029,279l.855,4.118a.829.829,0,0,1-.605.972l-7.776,2Z" transform="translate(-200.38 -255.863)" fill="#fed2a4"/>
      <path id="Trazado_1265301" data-name="Trazado 1265301" d="M111.225,271.5a.622.622,0,0,1,.427.169l7.527,7.091a.622.622,0,0,1-.582,1.055l-7.776-2a1.449,1.449,0,0,1-1.059-1.7l.855-4.118a.622.622,0,0,1,.609-.5Zm5.341,6.508-4.958-4.671-.629,3.029a.207.207,0,0,0,.151.243Z" transform="translate(-100.629 -248.985)"/>
      <path id="Trazado_1265302" data-name="Trazado 1265302" d="M219.151,271.5a.622.622,0,0,1,.609.5l.855,4.118a1.449,1.449,0,0,1-1.059,1.7l-7.776,2a.622.622,0,0,1-.582-1.055l7.527-7.091A.622.622,0,0,1,219.151,271.5Zm-5.341,6.508,5.436-1.4a.207.207,0,0,0,.151-.243l-.629-3.03Z" transform="translate(-193.502 -248.985)"/>
      <g id="Group_1205816" data-name="Group 1205816" transform="translate(25.795 11.073)">
        <path id="Trazado_1265303" data-name="Trazado 1265303" d="M321.1,147.683h-7.177A2.926,2.926,0,0,1,311,144.76V134.122a.622.622,0,1,1,1.244,0V144.76a1.68,1.68,0,0,0,1.678,1.678H321.1a1.68,1.68,0,0,0,1.678-1.678V134.122a.622.622,0,1,1,1.244,0V144.76A2.926,2.926,0,0,1,321.1,147.683Z" transform="translate(-311.003 -133.5)"/>
        <path id="Línea_570-2" data-name="Línea 570" d="M-6.878,6.1A.622.622,0,0,1-7.5,5.48V-6.878A.622.622,0,0,1-6.878-7.5a.622.622,0,0,1,.622.622V5.48A.622.622,0,0,1-6.878,6.1Z" transform="translate(13.389 8.081)"/>
        <path id="Path_1265304" data-name="Path 1265304" d="M377,297v17.21h1.244a.829.829,0,0,0,.829-.829V297Z" transform="translate(-371.53 -283.439)" fill="#e9b665"/>
        <rect id="Rectangle_411804" data-name="Rectangle 411804" width="1.037" height="17.21" transform="translate(5.474 13.561)" fill="#d8aa5e"/>
        <path id="Trazado_1265305" data-name="Trazado 1265305" d="M371.37,307.954h-1.244a.622.622,0,0,1-.622-.622v-17.21a.622.622,0,0,1,.622-.622H372.2a.622.622,0,0,1,.622.622v2.944a.622.622,0,0,1-1.244,0v-2.322h-.829V306.71h.622a.208.208,0,0,0,.207-.207V295.969a.622.622,0,0,1,1.244,0V306.5A1.453,1.453,0,0,1,371.37,307.954Z" transform="translate(-364.652 -276.561)"/>
        <path id="Path_1265306" data-name="Path 1265306" d="M365.366,389a.852.852,0,0,0-.862.8.851.851,0,0,1,0,1.639.83.83,0,0,1,0,1.607.851.851,0,0,1,0,1.639.852.852,0,0,0,.862.8h1.664a1.621,1.621,0,0,0,1.621-1.621v-3.241A1.621,1.621,0,0,0,367.03,389Z" transform="translate(-360.066 -367.809)" fill="#ffcebf"/>
        <path id="Path_1265307" data-name="Path 1265307" d="M366.494,393.862v-3.241a1.62,1.62,0,0,1,1.078-1.526,1.615,1.615,0,0,0-.542-.095h-1.664a.852.852,0,0,0-.862.8.851.851,0,0,1,0,1.639.83.83,0,0,1,0,1.607.851.851,0,0,1,0,1.639.852.852,0,0,0,.862.8h1.664a1.614,1.614,0,0,0,.542-.095A1.62,1.62,0,0,1,366.494,393.862Z" transform="translate(-360.066 -367.809)" fill="#ffb09e"/>
        <path id="Trazado_1265308" data-name="Trazado 1265308" d="M358.488,381.5h1.664a2.245,2.245,0,0,1,2.243,2.243v3.241a2.245,2.245,0,0,1-2.243,2.243h-1.664a1.456,1.456,0,0,1-1.243-2.259A4.172,4.172,0,0,0,357,384.56a1.553,1.553,0,0,0,0-1.662A1.464,1.464,0,0,1,358.488,381.5Zm1.664,6.482a1,1,0,0,0,1-1v-3.241a1,1,0,0,0-1-1h-1.664a.231.231,0,0,0-.24.2.208.208,0,0,0,.156.21.622.622,0,0,1,0,1.2.208.208,0,0,0,0,.4.622.622,0,0,1,0,1.2.208.208,0,0,0,0,.4.622.622,0,0,1,0,1.2.208.208,0,0,0-.156.21.231.231,0,0,0,.24.2Z" transform="translate(-353.188 -360.931)"/>
        <path id="Path_1265309" data-name="Path 1265309" d="M327.98,241.564H320.8a2.3,2.3,0,0,1-2.3-2.3v2.488a2.3,2.3,0,0,0,2.3,2.3h7.177a2.3,2.3,0,0,0,2.3-2.3v-2.488A2.3,2.3,0,0,1,327.98,241.564Z" transform="translate(-317.881 -230.492)" fill="#e2e2e2"/>
        <g id="Group_1205815" data-name="Group 1205815" transform="translate(0.622 8.772)">
          <path id="Path_1265310" data-name="Path 1265310" d="M321.822,241.752v-.188H320.8a2.3,2.3,0,0,1-2.3-2.3v2.488a2.3,2.3,0,0,0,2.3,2.3h3.318A2.3,2.3,0,0,1,321.822,241.752Z" transform="translate(-318.504 -239.264)" fill="#cecece"/>
        </g>
        <path id="Trazado_1265311" data-name="Trazado 1265311" d="M311.625,231.764a.622.622,0,0,1,.622.622,1.68,1.68,0,0,0,1.678,1.678H321.1a1.68,1.68,0,0,0,1.678-1.678.622.622,0,1,1,1.244,0v2.488A2.926,2.926,0,0,1,321.1,237.8h-7.177A2.926,2.926,0,0,1,311,234.874v-2.488A.622.622,0,0,1,311.625,231.764Zm9.477,3.545h-7.177a2.907,2.907,0,0,1-1.678-.531v.1a1.68,1.68,0,0,0,1.678,1.678H321.1a1.68,1.68,0,0,0,1.678-1.678v-.1A2.907,2.907,0,0,1,321.1,235.309Z" transform="translate(-311.003 -223.614)"/>
      </g>
    </g>
  </g>
</svg>
