<svg xmlns="http://www.w3.org/2000/svg" xmlns:xlink="http://www.w3.org/1999/xlink" width="126.376" height="126.376" viewBox="0 0 126.376 126.376">
  <defs>
    <filter id="Path_874925" x="0" y="0" width="126.376" height="126.376" filterUnits="userSpaceOnUse">
      <feOffset dy="3" input="SourceAlpha"/>
      <feGaussianBlur stdDeviation="3" result="blur"/>
      <feFlood flood-opacity="0.161"/>
      <feComposite operator="in" in2="blur"/>
      <feComposite in="SourceGraphic"/>
    </filter>
  </defs>
  <g id="Group_1205730" data-name="Group 1205730" transform="translate(6787 7440.969)">
    <g id="Group_1205684" data-name="Group 1205684" transform="translate(-7063 -13685.843)">
      <g id="Group_1200232" data-name="Group 1200232" transform="translate(285 6250.874)">
        <g id="Group_1187153" data-name="Group 1187153">
          <g id="Group_1182177" data-name="Group 1182177">
            <g id="Group_1181903" data-name="Group 1181903">
              <g id="Group_1181438" data-name="Group 1181438">
                <g id="Group_1111314" data-name="Group 1111314">
                  <g transform="matrix(1, 0, 0, 1, -9, -6)" filter="url(#Path_874925)">
                    <g id="Path_874925-2" data-name="Path 874925" transform="translate(9 6)" fill="#ffc94a">
                      <path d="M 54.1878662109375 106.8763656616211 C 47.07439041137695 106.8763656616211 40.17448043823242 105.4835205078125 33.67983627319336 102.7365036010742 C 27.40597343444824 100.0828857421875 21.77115821838379 96.28368377685547 16.93191146850586 91.44444274902344 C 12.09268188476562 86.60519409179688 8.293481826782227 80.97038269042969 5.639866352081299 74.696533203125 C 2.892850875854492 68.20187377929688 1.500004649162292 61.30196380615234 1.500004649162292 54.1884880065918 C 1.500004649162292 47.07439422607422 2.892850875854492 40.17448806762695 5.639866352081299 33.67982482910156 C 8.293481826782227 27.40597915649414 12.09268188476562 21.77116394042969 16.93191146850586 16.93191719055176 C 21.77115821838379 12.09267139434814 27.40597343444824 8.293471336364746 33.67983627319336 5.639855861663818 C 40.17448043823242 2.892840623855591 47.07439041137695 1.499994397163391 54.1878662109375 1.499994397163391 C 61.30134201049805 1.499994397163391 68.20124816894531 2.892840623855591 74.69589996337891 5.639855861663818 C 80.96975708007812 8.293471336364746 86.60457611083984 12.09267139434814 91.44381713867188 16.93191719055176 C 96.28305053710938 21.77116394042969 100.0822525024414 27.40597915649414 102.7358627319336 33.67982482910156 C 105.4828796386719 40.17448806762695 106.8757247924805 47.07439422607422 106.8757247924805 54.18787002563477 C 106.8757247924805 61.30196380615234 105.4828796386719 68.20187377929688 102.7358627319336 74.696533203125 C 100.0822525024414 80.97038269042969 96.28305053710938 86.60519409179688 91.44381713867188 91.44444274902344 C 86.60457611083984 96.28368377685547 80.96975708007812 100.0828857421875 74.69589996337891 102.7365036010742 C 68.20124816894531 105.4835205078125 61.30134201049805 106.8763656616211 54.1878662109375 106.8763656616211 Z" stroke="none"/>
                      <path d="M 54.1878662109375 2.999992370605469 C 47.2762336730957 2.999992370605469 40.57291412353516 4.352981567382812 34.26416778564453 7.0213623046875 C 28.16909790039062 9.599342346191406 22.69454956054688 13.29059600830078 17.99258422851562 17.99257659912109 C 13.29059600830078 22.69454193115234 9.599349975585938 28.16909790039062 7.021369934082031 34.26416015625 C 4.352981567382812 40.57292938232422 3 47.27622985839844 3 54.18849563598633 C 3 61.10012817382812 4.352981567382812 67.80344390869141 7.021369934082031 74.11219787597656 C 9.599349975585938 80.20726013183594 13.29059600830078 85.68180847167969 17.99258422851562 90.38378143310547 C 22.69454956054688 95.08576202392578 28.16909790039062 98.77701568603516 34.26416778564453 101.3549957275391 C 40.57291412353516 104.0233764648438 47.2762336730957 105.3763656616211 54.1878662109375 105.3763656616211 C 61.0994987487793 105.3763656616211 67.80281066894531 104.0233764648438 74.11156463623047 101.3549957275391 C 80.20663452148438 98.77701568603516 85.68118286132812 95.08576202392578 90.38314819335938 90.38378143310547 C 95.08512878417969 85.68180847167969 98.77638244628906 80.20726013183594 101.3543701171875 74.11219787597656 C 104.0227508544922 67.80344390869141 105.375732421875 61.10012817382812 105.375732421875 54.1878776550293 C 105.375732421875 47.27622985839844 104.0227508544922 40.57292938232422 101.3543701171875 34.26416015625 C 98.77638244628906 28.16909790039062 95.08512878417969 22.69454193115234 90.38314819335938 17.99257659912109 C 85.68118286132812 13.29059600830078 80.20663452148438 9.599342346191406 74.11156463623047 7.0213623046875 C 67.80281066894531 4.352981567382812 61.0994987487793 2.999992370605469 54.1878662109375 2.999992370605469 M 54.1878662109375 -7.62939453125e-06 C 84.11499786376953 -7.62939453125e-06 108.375732421875 24.26072692871094 108.375732421875 54.1878776550293 L 108.375732421875 54.18849563598633 C 108.375732421875 84.11563110351562 84.11499786376953 108.3763656616211 54.1878662109375 108.3763656616211 C 24.26073455810547 108.3763656616211 0 84.11563110351562 0 54.18849563598633 L 0 54.1878776550293 C 0 24.26072692871094 24.26073455810547 -7.62939453125e-06 54.1878662109375 -7.62939453125e-06 Z" stroke="none" fill="#fff"/>
                    </g>
                  </g>
                </g>
              </g>
            </g>
          </g>
        </g>
      </g>
    </g>
    <g id="familia" transform="translate(-6756.442 -7432.157)">
      <path id="Path_1264975" data-name="Path 1264975" d="M294.838,63.2h0a12.037,12.037,0,0,1,12.037,12.037h0a124.165,124.165,0,0,0,1.094,15.32,38.654,38.654,0,0,1-13.132,4.377,38.654,38.654,0,0,1-13.132-4.377,124.165,124.165,0,0,0,1.094-15.32h0A12.038,12.038,0,0,1,294.838,63.2Z" transform="translate(-245.731 -36.441)" fill="#d59f63"/>
      <path id="Path_1264976" data-name="Path 1264976" d="M290.461,74.14V70.857a7.661,7.661,0,0,1,6.168-7.512,12.07,12.07,0,0,0-1.791-.148h0A12.037,12.037,0,0,0,282.8,75.234a124.164,124.164,0,0,1-1.094,15.32,38.654,38.654,0,0,0,13.132,4.377V78.517Z" transform="translate(-245.731 -36.442)" fill="#cd915a"/>
      <path id="Path_1264977" data-name="Path 1264977" d="M293.147,277.874l-7.5-3a2.189,2.189,0,0,1-1.376-2.032v-3.99h-8.754v3.99a2.188,2.188,0,0,1-1.376,2.032l-7.5,3a3.283,3.283,0,0,0-2.064,3.048v4.343a1.094,1.094,0,0,0,1.094,1.094h0v9.849h28.452V286.36h1.094v-5.438A3.283,3.283,0,0,0,293.147,277.874Z" transform="translate(-230.783 -215.833)" fill="#fad7a5"/>
      <g id="Group_1205728" data-name="Group 1205728" transform="translate(34.881 53.018)">
        <path id="Path_1264978" data-name="Path 1264978" d="M353.868,274.323a13.077,13.077,0,0,0,4.489-.8,2.175,2.175,0,0,1-.112-.677v-3.99h-8.754v3.99a2.172,2.172,0,0,1-.112.677A13.077,13.077,0,0,0,353.868,274.323Z" transform="translate(-339.643 -268.851)" fill="#f0c891"/>
        <path id="Path_1264979" data-name="Path 1264979" d="M273.138,397.386v3.283h1.094a1.094,1.094,0,0,1,1.094,1.094v6.566h3.283V397.386Z" transform="translate(-273.138 -380.971)" fill="#f0c891"/>
      </g>
      <path id="Path_1264980" data-name="Path 1264980" d="M324.737,162.021h0c-5.439,0-8.754-4.409-8.754-9.849V147.8c3.148,0,3.5-2.264,4.07-3.536a.646.646,0,0,1,.982-.255c4.636,3.5,13.551.881,13.551,8.168h0A9.849,9.849,0,0,1,324.737,162.021Z" transform="translate(-275.63 -106.815)" fill="#ffe1b4"/>
      <path id="Path_1264981" data-name="Path 1264981" d="M320.36,152.746v-8.217a.629.629,0,0,0-.307.3c-.566,1.271-.922,3.536-4.07,3.536V152.4c0,4.523,1.819,8.654,6.182,9.848a9.68,9.68,0,0,0,5.308-.044A9.847,9.847,0,0,1,320.36,152.746Z" transform="translate(-275.63 -107.387)" fill="#fad098"/>
      <path id="Path_1264982" data-name="Path 1264982" d="M293.147,326.754l-4.668-1.867a8.752,8.752,0,0,1-17.177,0l-4.668,1.867a3.283,3.283,0,0,0-2.064,3.048v15.286h25.169V335.24h5.471V329.8A3.283,3.283,0,0,0,293.147,326.754Z" transform="translate(-230.783 -264.713)" fill="#ff507d"/>
      <g id="Group_1205729" data-name="Group 1205729" transform="translate(37.44 60.175)">
        <path id="Path_1264983" data-name="Path 1264983" d="M461.654,354.845l4.974-4.974a3.272,3.272,0,0,1,.5,1.725v5.438h-5.472v-2.189Z" transform="translate(-440.139 -346.681)" fill="#d23c69"/>
        <path id="Path_1264984" data-name="Path 1264984" d="M313.433,324.888a8.752,8.752,0,0,1-17.178,0l-3.078,1.231a12.022,12.022,0,0,0,23.334,0Z" transform="translate(-293.177 -324.888)" fill="#d23c69"/>
      </g>
      <rect id="Rectangle_411792" data-name="Rectangle 411792" width="6.565" height="12.038" transform="translate(2.052 68.339)" fill="#b48764"/>
      <path id="Path_1264985" data-name="Path 1264985" d="M37.91,262.905l-9.618-2.623H19.537l-9.618,2.623A3.283,3.283,0,0,0,7.5,266.072V276.7h6.566v12.037H40.329V266.072A3.283,3.283,0,0,0,37.91,262.905Z" transform="translate(-6.542 -208.358)" fill="#00aaf0"/>
      <path id="Path_1264986" data-name="Path 1264986" d="M79.31,261.742l-5.352-1.46H65.2l-5.352,1.46a9.836,9.836,0,0,0,19.458,0Z" transform="translate(-52.209 -208.358)" fill="#0096dc"/>
      <path id="Path_1264987" data-name="Path 1264987" d="M93.19,230.291v3.83a5.472,5.472,0,0,0,10.943,0v-3.83Z" transform="translate(-81.289 -182.197)" fill="#b48764"/>
      <path id="Path_1264988" data-name="Path 1264988" d="M93.19,234.01a13.021,13.021,0,0,0,10.943,0v-3.719H93.19Z" transform="translate(-81.289 -182.197)" fill="#966d50"/>
      <path id="Path_1264989" data-name="Path 1264989" d="M63.662,86.9V80.334h-19.7V86.9a2.189,2.189,0,0,0,0,4.377,9.849,9.849,0,0,0,19.7,0,2.189,2.189,0,1,0,0-4.377Z" transform="translate(-36.441 -51.39)" fill="#c39772"/>
      <path id="Path_1264990" data-name="Path 1264990" d="M49.436,91.277V80.334H43.965V86.9a2.189,2.189,0,0,0,0,4.377,9.832,9.832,0,0,0,12.584,9.456A9.847,9.847,0,0,1,49.436,91.277Z" transform="translate(-36.441 -51.39)" fill="#b48764"/>
      <path id="Path_1264991" data-name="Path 1264991" d="M69.809,42.511a2.137,2.137,0,0,1,2.422-.156V35.486a4.358,4.358,0,0,0-2.241-3.8A3.275,3.275,0,0,0,66.76,28.92H58.005a7.66,7.66,0,0,0-7.66,7.66v5.775a2.166,2.166,0,0,1,1.094-.3,2.118,2.118,0,0,1,.411.04,2.023,2.023,0,0,0,2.4-1.432h0l.269-1.076a1.088,1.088,0,0,1,1.026-.828c2.28-.062,8.745-.393,12.309-2.175l.637,3.823A3.265,3.265,0,0,0,69.809,42.511Z" transform="translate(-43.916 -6.542)" fill="#64463c"/>
      <path id="Path_1264992" data-name="Path 1264992" d="M56.911,35.486a6.566,6.566,0,0,1,6.566-6.566H58.005a7.66,7.66,0,0,0-7.66,7.66v5.775a2.166,2.166,0,0,1,1.094-.3,2.111,2.111,0,0,1,.947.223,1.166,1.166,0,0,0,1.665-.824l.467-1.868a1.089,1.089,0,0,1,1.026-.828c.359-.01.827-.027,1.366-.054V35.486Z" transform="translate(-43.916 -6.542)" fill="#553732"/>
      <path id="Path_1264993" data-name="Path 1264993" d="M7.5,290.652v10.624h6.566v-3.594a5.471,5.471,0,0,0-1.153-3.359l-4.56-5.863A3.269,3.269,0,0,0,7.5,290.652Z" transform="translate(-6.542 -232.938)" fill="#0096dc"/>
      <path id="Path_1264994" data-name="Path 1264994" d="M204.9,402.109l-3.573-1.191a1.094,1.094,0,0,1-.748-1.038v-2.494h-6.566v2.494a1.094,1.094,0,0,1-.748,1.038l-3.573,1.191a3.283,3.283,0,0,0-2.245,3.115v3.105h19.7v-3.105A3.283,3.283,0,0,0,204.9,402.109Z" transform="translate(-163.51 -327.953)" fill="#e6af78"/>
      <path id="Path_1264995" data-name="Path 1264995" d="M236.363,401.763a10.9,10.9,0,0,0,4.129-.812l-.1-.033a1.094,1.094,0,0,1-.748-1.038v-2.494h-6.566v2.494a1.094,1.094,0,0,1-.748,1.038l-.1.033A10.905,10.905,0,0,0,236.363,401.763Z" transform="translate(-202.576 -327.953)" fill="#d29b6e"/>
      <path id="Path_1264996" data-name="Path 1264996" d="M197.3,217.438h0a9.849,9.849,0,0,0-9.849,9.849v3.283h19.7v-3.283A9.849,9.849,0,0,0,197.3,217.438Z" transform="translate(-163.51 -170.985)" fill="#64463c"/>
      <path id="Path_1264997" data-name="Path 1264997" d="M200.58,218.01a9.827,9.827,0,0,0-13.132,9.276v3.283h6.566v-3.283A9.844,9.844,0,0,1,200.58,218.01Z" transform="translate(-163.51 -170.985)" fill="#553732"/>
      <path id="Path_1264998" data-name="Path 1264998" d="M198.533,283.193h-.075a2.068,2.068,0,0,1-2.068-2.068h0a.85.85,0,0,0-1.135-.8c-8.09,2.869-13.091,2.869-13.091,2.869h-1.049a2.216,2.216,0,0,0-2.211,1.87,2.19,2.19,0,0,0,2.166,2.507h1.094v.98a7.661,7.661,0,1,0,15.32.114V287.57h1.094a2.19,2.19,0,0,0,2.166-2.507A2.216,2.216,0,0,0,198.533,283.193Z" transform="translate(-156.036 -225.797)" fill="#f0c087"/>
      <path id="Path_1264999" data-name="Path 1264999" d="M226.287,200.3l-6.566,2.814-6.566-2.814v6.566l6.566-2.814,6.566,2.814Z" transform="translate(-185.934 -156.036)" fill="#ffdc64"/>
      <path id="Path_1265000" data-name="Path 1265000" d="M186.539,305.475v-5.929a28.789,28.789,0,0,1-4.377.457h-1.094a2.189,2.189,0,1,0,0,4.377h1.094v.773a7.873,7.873,0,0,0,7.425,7.978,7.666,7.666,0,0,0,2.424-.318A7.66,7.66,0,0,1,186.539,305.475Z" transform="translate(-156.035 -242.608)" fill="#e6af78"/>
      <path id="Path_1265001" data-name="Path 1265001" d="M204.9,430.309l-1.785-.595a6.56,6.56,0,0,1-11.639,0l-1.785.595a3.283,3.283,0,0,0-2.245,3.115v3.105h19.7v-3.105A3.283,3.283,0,0,0,204.9,430.309Z" transform="translate(-163.51 -356.153)" fill="#ffdc64"/>
      <path id="Path_1265002" data-name="Path 1265002" d="M114.543,187.241a3.789,3.789,0,0,0,2.932-1.449.958.958,0,0,0-1.488-1.207,1.781,1.781,0,0,1-2.889,0,.958.958,0,0,0-1.488,1.207A3.789,3.789,0,0,0,114.543,187.241Z" transform="translate(-97.171 -142.019)"/>
      <path id="Path_1265003" data-name="Path 1265003" d="M95.217,144.4a.958.958,0,0,0,.958-.958v-1.094a.958.958,0,1,0-1.916,0v1.094A.958.958,0,0,0,95.217,144.4Z" transform="translate(-82.222 -104.646)"/>
      <path id="Path_1265004" data-name="Path 1265004" d="M163.769,144.4a.958.958,0,0,0,.958-.958v-1.094a.958.958,0,1,0-1.916,0v1.094A.958.958,0,0,0,163.769,144.4Z" transform="translate(-142.019 -104.646)"/>
      <path id="Path_1265005" data-name="Path 1265005" d="M363.044,230.085a3.788,3.788,0,0,0,2.932-1.449.958.958,0,1,0-1.488-1.207,1.781,1.781,0,0,1-2.889,0,.958.958,0,1,0-1.488,1.207A3.788,3.788,0,0,0,363.044,230.085Z" transform="translate(-313.937 -179.391)"/>
      <path id="Path_1265006" data-name="Path 1265006" d="M343.717,187.241a.958.958,0,0,0,.958-.958v-1.094a.958.958,0,0,0-1.916,0v1.094A.958.958,0,0,0,343.717,187.241Z" transform="translate(-298.987 -142.019)"/>
      <path id="Path_1265007" data-name="Path 1265007" d="M412.269,187.241a.958.958,0,0,0,.958-.958v-1.094a.958.958,0,0,0-1.916,0v1.094A.958.958,0,0,0,412.269,187.241Z" transform="translate(-358.784 -142.019)"/>
      <path id="Path_1265008" data-name="Path 1265008" d="M62.719,61.152l-7.5-3a1.256,1.256,0,0,1-.116-.057c5.183-1.179,7.637-3.151,7.746-3.241a.958.958,0,0,0,.341-.876A124.082,124.082,0,0,1,62.1,38.793a13,13,0,1,0-25.99,0c0,1.963-.089,4.365-.234,6.638l-2.091,1.046-6.138-3.069c-.018-.009-.036-.015-.054-.023a10.729,10.729,0,0,0,.553-2.679,3.144,3.144,0,0,0,1.125-5.389V28.944a5.33,5.33,0,0,0-2.348-4.4,4.211,4.211,0,0,0-4.081-3.126H14.089a8.628,8.628,0,0,0-8.618,8.618v5.278A3.144,3.144,0,0,0,6.6,40.705a10.8,10.8,0,0,0,4.347,7.859v2.647L3.022,53.588A4.215,4.215,0,0,0,0,57.65V68.339a.958.958,0,0,0,.958.958h.137v11.08a.958.958,0,0,0,1.916,0V69.3H6.566v11.08a.958.958,0,0,0,1.916,0V63.861a4.228,4.228,0,0,0-.712-2.352L6.132,59.053a.958.958,0,1,0-1.594,1.063l1.637,2.456a2.318,2.318,0,0,1,.391,1.29v3.52H1.916V57.65a2.311,2.311,0,0,1,1.657-2.227l3.288-.986a10.808,10.808,0,0,0,15.633,7,3.143,3.143,0,0,0,2.539,1.29h.137v.137a8.622,8.622,0,0,0,4.377,7.5v1.562a.137.137,0,0,1-.093.129L25.88,73.248a4.235,4.235,0,0,0-2.9,4.023v3.105a.958.958,0,1,0,1.916,0V77.271a2.322,2.322,0,0,1,1.59-2.206l1.051-.35a7.523,7.523,0,0,0,12.5,0l1.05.35a2.322,2.322,0,0,1,1.59,2.206v3.105a.958.958,0,1,0,1.916,0V77.271a4.235,4.235,0,0,0-2.9-4.023l-3.573-1.191a.136.136,0,0,1-.093-.129V70.365a8.653,8.653,0,0,0,4.055-5.17,9.711,9.711,0,0,0,16.269-3.727l3.656,1.462a2.314,2.314,0,0,1,1.462,2.159v4.48H59.913V68.339a.958.958,0,0,0-1.916,0V80.376a.958.958,0,0,0,1.916,0V71.485h2.462v8.891a.958.958,0,0,0,1.916,0V71.485h.137a.958.958,0,0,0,.958-.958V65.09A4.219,4.219,0,0,0,62.719,61.152ZM38.028,38.792a11.08,11.08,0,1,1,22.159,0,125.752,125.752,0,0,0,1.026,14.875,20.5,20.5,0,0,1-6.771,2.611V54.754a10.724,10.724,0,0,0,1.454-.988,10.782,10.782,0,0,0,4.018-8.408c0-5.414-3.915-6.191-7.7-6.942-2.409-.478-4.9-.973-6.884-2.56a.958.958,0,0,0-1.556.748c0,.025-.042,2.546-3.652,3.448a.958.958,0,0,0,.465,1.858c3.022-.755,4.254-2.45,4.757-3.724a20.061,20.061,0,0,0,6.5,2.108C55.886,41.1,58,41.689,58,45.359a8.866,8.866,0,0,1-3.306,6.919,8.889,8.889,0,0,1-10.759.31,10.823,10.823,0,0,0-2.622-4.042V44.264a.958.958,0,0,0-1.386-.857l-2.068,1.034C37.97,42.447,38.028,40.55,38.028,38.792Zm1.367,7.021V49.28l-3.466-1.733Zm-11.216,0,3.466,1.733L28.179,49.28Zm-1.916,2.732a10.822,10.822,0,0,0-2.468,3.645c0-.089.007-.177.007-.266v-3.36a10.894,10.894,0,0,0,2.462-2.545ZM8.481,39.887a.958.958,0,0,0-.958-.958,1.231,1.231,0,0,1,0-2.462H9.712a.958.958,0,0,0,.909-.655l.879-2.637c2.2-.05,9.024-.359,12.866-2.28a.958.958,0,1,0-.857-1.713c-4.122,2.061-12.618,2.087-12.7,2.087a.958.958,0,0,0-.908.655l-.876,2.628h-1.5c-.046,0-.091,0-.137,0V30.038a6.71,6.71,0,0,1,6.7-6.7h8.754a2.308,2.308,0,0,1,2.285,1.96.958.958,0,0,0,.475.684,3.419,3.419,0,0,1,1.753,2.964v5.612c-.045,0-.091,0-.137,0H26.127a.958.958,0,0,0,0,1.916h1.094a1.231,1.231,0,0,1,0,2.462.958.958,0,0,0-.958.958,8.891,8.891,0,0,1-17.782,0Zm8.891,10.806a10.742,10.742,0,0,0,4.514-.989v2.22a4.514,4.514,0,0,1-9.027.012s0-.009,0-.014V49.7A10.738,10.738,0,0,0,17.372,50.693ZM8.7,53.884l2.366-.71a6.427,6.427,0,0,0,12.007,1.716,10.769,10.769,0,0,0-.093,1.41v.91a3.147,3.147,0,0,0-1.094,2.373A8.891,8.891,0,0,1,8.7,53.884ZM37.515,73.874l.611.2a5.6,5.6,0,0,1-8.678,0l.61-.2a2.049,2.049,0,0,0,1.4-1.947v-.763a8.574,8.574,0,0,0,4.65,0v.763A2.049,2.049,0,0,0,37.515,73.874Zm-3.728-4.3a6.71,6.71,0,0,1-6.7-6.7V61.773a.958.958,0,0,0-.958-.958H25.033A1.232,1.232,0,0,1,23.8,59.584a1.217,1.217,0,0,1,.618-1.057.952.952,0,0,0,.227-.186c2.368-.069,10.043-.514,15.087-3.4a.958.958,0,1,0-.95-1.663c-4.419,2.525-11.362,3.031-13.887,3.132V56.3a8.9,8.9,0,0,1,1.517-4.961.955.955,0,0,0,1.237.346l6.138-3.069,6.138,3.069a.952.952,0,0,0,1.236-.346A8.9,8.9,0,0,1,42.678,56.3v1.4a.958.958,0,0,0,.476.828,1.217,1.217,0,0,1,.618,1.057,1.232,1.232,0,0,1-1.231,1.231H41.447a.958.958,0,0,0-.958.958v.952c0,.008,0,.017,0,.025v.117A6.71,6.71,0,0,1,33.787,69.569Zm15.32-3.283a7.807,7.807,0,0,1-6.544-3.556,3.138,3.138,0,0,0,2.03-5.519V56.3a10.77,10.77,0,0,0-.062-1.149,10.8,10.8,0,0,0,7.995.453v1.4A3.131,3.131,0,0,0,54.5,59.929l2.065.826A7.792,7.792,0,0,1,49.107,66.286Z"/>
      <path id="Path_1265009" data-name="Path 1265009" d="M245.87,355.824a.958.958,0,0,0-1.347.141,1.781,1.781,0,0,1-2.889,0,.958.958,0,1,0-1.488,1.207,3.692,3.692,0,0,0,5.865,0A.958.958,0,0,0,245.87,355.824Z" transform="translate(-209.291 -291.512)"/>
      <circle id="Ellipse_12793" data-name="Ellipse 12793" cx="0.958" cy="0.958" r="0.958" transform="translate(29.564 59.725)"/>
      <circle id="Ellipse_12794" data-name="Ellipse 12794" cx="0.958" cy="0.958" r="0.958" transform="translate(36.077 59.725)"/>
    </g>
  </g>
</svg>
