<svg xmlns="http://www.w3.org/2000/svg" xmlns:xlink="http://www.w3.org/1999/xlink" width="190" height="113.775" viewBox="0 0 190 113.775">
  <defs>
    <filter id="Path_874925" x="38.999" y="1.999" width="111.776" height="111.776" filterUnits="userSpaceOnUse">
      <feOffset dy="3" input="SourceAlpha"/>
      <feGaussianBlur stdDeviation="3" result="blur"/>
      <feFlood flood-opacity="0.161"/>
      <feComposite operator="in" in2="blur"/>
      <feComposite in="SourceGraphic"/>
    </filter>
  </defs>
  <g id="Group_1205904" data-name="Group 1205904" transform="translate(-180 -3766)">
    <rect id="Rectangle_411769" data-name="Rectangle 411769" width="190" height="109" transform="translate(180 3766)" fill="#dde6d8"/>
    <g id="Group_1205887" data-name="Group 1205887">
      <g id="Group_1204849" data-name="Group 1204849" transform="translate(-57.001 -2476.875)">
        <g id="Group_1200232" data-name="Group 1200232" transform="translate(285 6250.874)">
          <g id="Group_1187153" data-name="Group 1187153">
            <g id="Group_1182177" data-name="Group 1182177">
              <g id="Group_1181903" data-name="Group 1181903">
                <g id="Group_1181438" data-name="Group 1181438">
                  <g id="Group_1111314" data-name="Group 1111314">
                    <g transform="matrix(1, 0, 0, 1, -48, -8)" filter="url(#Path_874925)">
                      <g id="Path_874925-2" data-name="Path 874925" transform="translate(48 8)" fill="#ffc94a">
                        <path d="M 46.88790893554688 92.2763671875 C 40.75992202758789 92.2763671875 34.8160285949707 91.07652282714844 29.22134971618652 88.71018218994141 C 23.81676292419434 86.42423248291016 18.96264266967773 83.15139007568359 14.79381561279297 78.98255157470703 C 10.62497520446777 74.81372833251953 7.35213565826416 69.95960998535156 5.066188812255859 64.55502319335938 C 2.699842214584351 58.9603385925293 1.500002264976501 53.01644515991211 1.500002264976501 46.88844680786133 C 1.500002264976501 40.75992584228516 2.699842214584351 34.81603240966797 5.066188812255859 29.22135353088379 C 7.35213565826416 23.8167667388916 10.62497520446777 18.962646484375 14.79381561279297 14.79381942749023 C 18.96264266967773 10.62497997283936 23.81676292419434 7.352139949798584 29.22134971618652 5.066193103790283 C 34.8160285949707 2.699846506118774 40.75992202758789 1.500006437301636 46.88790893554688 1.500006437301636 C 53.01589584350586 1.500006437301636 58.95978927612305 2.699846506118774 64.55446624755859 5.066193103790283 C 69.95905303955078 7.352139949798584 74.81317901611328 10.62497997283936 78.98200225830078 14.79381942749023 C 83.15084075927734 18.962646484375 86.42368316650391 23.8167667388916 88.70962524414062 29.22135353088379 C 91.07597351074219 34.81603240966797 92.27581787109375 40.75992584228516 92.27581787109375 46.88791275024414 C 92.27581787109375 53.01644515991211 91.07597351074219 58.9603385925293 88.70962524414062 64.55502319335938 C 86.42368316650391 69.95960998535156 83.15084075927734 74.81372833251953 78.98200225830078 78.98255157470703 C 74.81317901611328 83.15139007568359 69.95905303955078 86.42423248291016 64.55446624755859 88.71018218994141 C 58.95978927612305 91.07652282714844 53.01589584350586 92.2763671875 46.88790893554688 92.2763671875 Z" stroke="none"/>
                        <path d="M 46.88790893554688 2.999992370605469 C 40.96175003051758 2.999992370605469 35.2144660949707 4.159965515136719 29.80567932128906 6.44769287109375 C 24.57989501953125 8.658004760742188 19.88602447509766 11.82290649414062 15.85446929931641 15.85446929931641 C 11.82290649414062 19.88602447509766 8.658012390136719 24.57989501953125 6.44769287109375 29.80567932128906 C 4.159965515136719 35.2144660949707 2.999992370605469 40.96175003051758 2.999992370605469 46.88845062255859 C 2.999992370605469 52.81460952758789 4.159965515136719 58.56189346313477 6.44769287109375 63.97069549560547 C 8.658012390136719 69.19646453857422 11.82290649414062 73.89033508300781 15.85446929931641 77.92189025878906 C 19.88602447509766 81.95343780517578 24.57989501953125 85.11833953857422 29.80567932128906 87.32865142822266 C 35.2144660949707 89.61637878417969 40.96175003051758 90.77635192871094 46.88790893554688 90.77635192871094 C 52.81406784057617 90.77635192871094 58.56135177612305 89.61637878417969 63.97013854980469 87.32865142822266 C 69.1959228515625 85.11833953857422 73.88979339599609 81.95343780517578 77.92134857177734 77.92189025878906 C 81.95291137695312 73.89033508300781 85.11781311035156 69.19646453857422 87.328125 63.97069549560547 C 89.61585235595703 58.56189346313477 90.77582550048828 52.81460952758789 90.77582550048828 46.88790893554688 C 90.77582550048828 40.96175003051758 89.61585235595703 35.2144660949707 87.328125 29.80567932128906 C 85.11781311035156 24.57989501953125 81.95291137695312 19.88602447509766 77.92134857177734 15.85446929931641 C 73.88979339599609 11.82290649414062 69.1959228515625 8.658004760742188 63.97013854980469 6.44769287109375 C 58.56135177612305 4.159965515136719 52.81406784057617 2.999992370605469 46.88790893554688 2.999992370605469 M 46.88790893554688 -7.62939453125e-06 C 72.78337860107422 -7.62939453125e-06 93.77582550048828 20.99243927001953 93.77582550048828 46.88790893554688 L 93.77582550048828 46.88845062255859 C 93.77582550048828 72.783935546875 72.78337860107422 93.77635192871094 46.88790893554688 93.77635192871094 C 20.99243927001953 93.77635192871094 -7.62939453125e-06 72.783935546875 -7.62939453125e-06 46.88845062255859 L -7.62939453125e-06 46.88790893554688 C -7.62939453125e-06 20.99243927001953 20.99243927001953 -7.62939453125e-06 46.88790893554688 -7.62939453125e-06 Z" stroke="none" fill="#fff"/>
                      </g>
                    </g>
                  </g>
                </g>
              </g>
            </g>
          </g>
        </g>
      </g>
      <g id="XMLID_1020_" transform="translate(247 3793)">
        <g id="XMLID_1910_" transform="translate(1.082 1.529)">
          <circle id="XMLID_1515_" cx="26.364" cy="26.364" r="26.364" transform="translate(0.039 0)" fill="#80b6ff"/>
          <g id="Group_1205886" data-name="Group 1205886" transform="translate(0 5.482)">
            <path id="XMLID_1106_" d="M20.314,103.621h-4.6A26.494,26.494,0,0,0,10,120.1a26.833,26.833,0,0,0,.255,3.687h.086a9.585,9.585,0,0,0,9.15-6.731,9.585,9.585,0,0,1,3.445-4.849l.169-.125a4.693,4.693,0,0,0-2.793-8.464Z" transform="translate(-10 -99.425)" fill="#89df8f"/>
            <path id="XMLID_1674_" d="M326.255,72.938a8.115,8.115,0,0,0,3.719,6.821l2.814,1.813a5.218,5.218,0,0,1,.279,8.58,5.266,5.266,0,0,0-2.132,4.232,3.882,3.882,0,0,0,3.882,3.882h7.189A26.618,26.618,0,0,0,335.4,64.823h-1.03A8.115,8.115,0,0,0,326.255,72.938Z" transform="translate(-292.048 -64.823)" fill="#89df8f"/>
          </g>
        </g>
        <path id="XMLID_1821_" d="M100.871,345.586h0A8.869,8.869,0,0,0,92,354.455v5.455H109.74v-5.455a8.869,8.869,0,0,0-8.869-8.869Z" transform="translate(-82.05 -308.207)" fill="#c5d3de"/>
        <path id="XMLID_1820_" d="M142.85,266.579h0a3.778,3.778,0,0,0-3.778,3.778v.9a3.778,3.778,0,0,0,3.778,3.778h0a3.778,3.778,0,0,0,3.778-3.778v-.9A3.778,3.778,0,0,0,142.85,266.579Z" transform="translate(-124.03 -237.745)" fill="#f2b394"/>
        <path id="XMLID_1824_" d="M264.871,345.586h0a8.869,8.869,0,0,1,8.869,8.869v5.455H256v-5.455A8.869,8.869,0,0,1,264.871,345.586Z" transform="translate(-228.312 -308.207)" fill="#ffcd69"/>
        <path id="XMLID_1823_" d="M306.853,266.579h0a3.778,3.778,0,0,1,3.778,3.778v.9a3.778,3.778,0,0,1-3.778,3.778h0a3.778,3.778,0,0,1-3.778-3.778v-.9A3.778,3.778,0,0,1,306.853,266.579Z" transform="translate(-270.294 -237.745)" fill="#f2b394"/>
        <path id="XMLID_1807_" d="M18.87,420h0A8.869,8.869,0,0,0,10,428.869H27.739A8.869,8.869,0,0,0,18.87,420Z" transform="translate(-8.918 -374.572)" fill="#ffcd69"/>
        <path id="XMLID_1806_" d="M60.85,340.993h0a3.778,3.778,0,0,0-3.778,3.778v.9a3.778,3.778,0,0,0,3.778,3.778h0a3.778,3.778,0,0,0,3.778-3.778v-.9A3.778,3.778,0,0,0,60.85,340.993Z" transform="translate(-50.899 -304.111)" fill="#f5c6af"/>
        <path id="XMLID_1812_" d="M182.87,420h0A8.869,8.869,0,0,0,174,428.869h17.739A8.869,8.869,0,0,0,182.87,420Z" transform="translate(-155.18 -374.572)" fill="#ff7d97"/>
        <path id="XMLID_1811_" d="M224.85,340.993h0a3.778,3.778,0,0,0-3.778,3.778v.9a3.778,3.778,0,0,0,3.778,3.778h0a3.778,3.778,0,0,0,3.778-3.778v-.9A3.778,3.778,0,0,0,224.85,340.993Z" transform="translate(-197.16 -304.111)" fill="#f2b394"/>
        <path id="XMLID_1816_" d="M346.87,420h0A8.869,8.869,0,0,0,338,428.869h17.739A8.869,8.869,0,0,0,346.87,420Z" transform="translate(-301.441 -374.572)" fill="#c5d3de"/>
        <path id="XMLID_1815_" d="M388.85,340.993h0a3.778,3.778,0,0,0-3.778,3.778v.9a3.778,3.778,0,0,0,3.778,3.778h0a3.778,3.778,0,0,0,3.778-3.778v-.9A3.778,3.778,0,0,0,388.85,340.993Z" transform="translate(-343.422 -304.111)" fill="#f5c6af"/>
        <path id="XMLID_1906_" d="M198.418,137.441a4.234,4.234,0,0,0,4.346.922,4.834,4.834,0,0,0,3.208-4.552v-2.064a3.747,3.747,0,0,0-7.032-1.8l-1.313,2.394A4.234,4.234,0,0,0,198.418,137.441Z" transform="translate(-175.785 -114.155)" fill="#89df8f"/>
        <g id="XMLID_4_" transform="translate(0 0)">
          <path id="XMLID_768_" d="M49.221,45.1a27.739,27.739,0,0,0,5.085-25.066,1.082,1.082,0,1,0-2.079.6,25.6,25.6,0,0,1-2.029,19.1,4.867,4.867,0,0,0-4.77-3.932h0A4.852,4.852,0,0,0,41.6,37.669c-.137-.081-.275-.159-.416-.233a2.792,2.792,0,0,1-.136-.864,4.2,4.2,0,0,1,1.694-3.363,6.3,6.3,0,0,0-.337-10.358l-2.814-1.814A7.033,7.033,0,0,1,43.4,8.093h.659a25.918,25.918,0,0,1,3.984,4.193,1.082,1.082,0,1,0,1.724-1.307,27.941,27.941,0,0,0-9.554-7.99A27.695,27.695,0,0,0,0,27.689,27.619,27.619,0,0,0,6.158,45.1,9.966,9.966,0,0,0,0,54.3a1.082,1.082,0,0,0,1.082,1.082H54.3A1.082,1.082,0,0,0,55.379,54.3a9.966,9.966,0,0,0-6.157-9.2ZM12.647,40.66v.9a2.7,2.7,0,0,1-5.393,0v-.9a2.7,2.7,0,0,1,2.7-2.7h0A2.7,2.7,0,0,1,12.647,40.66Zm2.163.9v-.9a4.857,4.857,0,0,0-.109-1.022,7.791,7.791,0,0,1,8.237,0,4.856,4.856,0,0,0-.109,1.022v.9a4.843,4.843,0,0,0,1.4,3.406,10.007,10.007,0,0,0-5.407,4.82,10.008,10.008,0,0,0-5.408-4.82,4.843,4.843,0,0,0,1.4-3.406Zm6.706-8.049a2.7,2.7,0,0,1-5.393,0v-.9a2.7,2.7,0,0,1,2.7-2.7h0a2.7,2.7,0,0,1,2.7,2.7Zm8.869,7.147v.9a2.7,2.7,0,0,1-5.393,0v-.9a2.7,2.7,0,0,1,2.7-2.7h0A2.7,2.7,0,0,1,30.386,40.66Zm2.163.9v-.9a4.862,4.862,0,0,0-.109-1.021,7.793,7.793,0,0,1,8.238,0,4.857,4.857,0,0,0-.109,1.023v.9a4.843,4.843,0,0,0,1.4,3.406,10.007,10.007,0,0,0-5.407,4.82,10.007,10.007,0,0,0-5.408-4.82,4.843,4.843,0,0,0,1.4-3.406Zm6.706-8.049a2.7,2.7,0,0,1-5.393,0v-.9a2.7,2.7,0,0,1,2.7-2.7h0a2.7,2.7,0,0,1,2.7,2.7v.9Zm6.173,4.451h0a2.7,2.7,0,0,1,2.7,2.7v.9a2.7,2.7,0,0,1-5.393,0v-.9A2.7,2.7,0,0,1,45.428,37.964ZM27.689,2.163A25.376,25.376,0,0,1,41.417,6.148a9.2,9.2,0,0,0-3,16.709l2.814,1.814a4.136,4.136,0,0,1,.221,6.8c-.051.037-.1.078-.148.116a4.867,4.867,0,0,0-4.75-3.836h0A4.865,4.865,0,0,0,31.7,32.611v.9a4.843,4.843,0,0,0,1.4,3.4,9.819,9.819,0,0,0-1.58.752A4.852,4.852,0,0,0,27.69,35.8h0a4.852,4.852,0,0,0-3.825,1.867,9.833,9.833,0,0,0-1.58-.752,4.843,4.843,0,0,0,1.4-3.4v-.9a4.865,4.865,0,0,0-4.859-4.859h0a4.865,4.865,0,0,0-4.859,4.859v.9a4.842,4.842,0,0,0,1.4,3.4,9.824,9.824,0,0,0-1.58.752A4.852,4.852,0,0,0,9.951,35.8h0a4.867,4.867,0,0,0-4.77,3.934A25.429,25.429,0,0,1,2.6,32.393a10.584,10.584,0,0,0,5.146-2.009,10.6,10.6,0,0,0,3.862-5.416,8.45,8.45,0,0,1,3.057-4.3l.169-.125A5.774,5.774,0,0,0,11.4,10.126H9.183A25.457,25.457,0,0,1,27.689,2.163ZM7.346,12.289H11.4A3.611,3.611,0,0,1,13.545,18.8l-.169.125a10.6,10.6,0,0,0-3.834,5.4A8.46,8.46,0,0,1,2.293,30.25q-.127-1.27-.129-2.56a25.394,25.394,0,0,1,5.183-15.4ZM2.238,53.216A7.8,7.8,0,0,1,9.951,46.51h0a7.8,7.8,0,0,1,7.712,6.706Zm17.739,0a7.8,7.8,0,0,1,7.712-6.706h0A7.8,7.8,0,0,1,35.4,53.216Zm17.739,0a7.8,7.8,0,0,1,7.712-6.706h0a7.8,7.8,0,0,1,7.712,6.706Z" transform="translate(0 0)"/>
          <path id="XMLID_1169_" d="M188.764,129.306a5.293,5.293,0,0,0,5.456,1.158,5.928,5.928,0,0,0,3.926-5.571v-2.064a4.828,4.828,0,0,0-9.061-2.322l-1.313,2.394A5.322,5.322,0,0,0,188.764,129.306Zm.9-5.365,1.313-2.394a2.665,2.665,0,0,1,5,1.282v2.064a3.76,3.76,0,0,1-2.49,3.534,3.153,3.153,0,0,1-3.825-4.486Z" transform="translate(-166.878 -105.237)"/>
          <path id="XMLID_1178_" d="M467.2,138.213a1.082,1.082,0,1,0-.765-.317A1.09,1.09,0,0,0,467.2,138.213Z" transform="translate(-415.704 -121.335)"/>
        </g>
      </g>
    </g>
  </g>
</svg>
