<svg xmlns="http://www.w3.org/2000/svg" xmlns:xlink="http://www.w3.org/1999/xlink" width="126.376" height="126.376" viewBox="0 0 126.376 126.376">
  <defs>
    <filter id="Path_874925" x="0" y="0" width="126.376" height="126.376" filterUnits="userSpaceOnUse">
      <feOffset dy="3" input="SourceAlpha"/>
      <feGaussianBlur stdDeviation="3" result="blur"/>
      <feFlood flood-opacity="0.161"/>
      <feComposite operator="in" in2="blur"/>
      <feComposite in="SourceGraphic"/>
    </filter>
  </defs>
  <g id="Group_1205727" data-name="Group 1205727" transform="translate(-1068.051 -4167)">
    <g id="Group_1205683" data-name="Group 1205683" transform="translate(792.051 -2077.874)">
      <g id="Group_1200232" data-name="Group 1200232" transform="translate(285 6250.874)">
        <g id="Group_1187153" data-name="Group 1187153">
          <g id="Group_1182177" data-name="Group 1182177">
            <g id="Group_1181903" data-name="Group 1181903">
              <g id="Group_1181438" data-name="Group 1181438">
                <g id="Group_1111314" data-name="Group 1111314">
                  <g transform="matrix(1, 0, 0, 1, -9, -6)" filter="url(#Path_874925)">
                    <g id="Path_874925-2" data-name="Path 874925" transform="translate(9 6)" fill="#ffc94a">
                      <path d="M 54.1878662109375 106.8763656616211 C 47.07439041137695 106.8763656616211 40.17448043823242 105.4835205078125 33.67983627319336 102.7365036010742 C 27.40597343444824 100.0828857421875 21.77115821838379 96.28368377685547 16.93191146850586 91.44444274902344 C 12.09268188476562 86.60519409179688 8.293481826782227 80.97038269042969 5.639866352081299 74.696533203125 C 2.892850875854492 68.20187377929688 1.500004649162292 61.30196380615234 1.500004649162292 54.1884880065918 C 1.500004649162292 47.07439422607422 2.892850875854492 40.17448806762695 5.639866352081299 33.67982482910156 C 8.293481826782227 27.40597915649414 12.09268188476562 21.77116394042969 16.93191146850586 16.93191719055176 C 21.77115821838379 12.09267139434814 27.40597343444824 8.293471336364746 33.67983627319336 5.639855861663818 C 40.17448043823242 2.892840623855591 47.07439041137695 1.499994397163391 54.1878662109375 1.499994397163391 C 61.30134201049805 1.499994397163391 68.20124816894531 2.892840623855591 74.69589996337891 5.639855861663818 C 80.96975708007812 8.293471336364746 86.60457611083984 12.09267139434814 91.44381713867188 16.93191719055176 C 96.28305053710938 21.77116394042969 100.0822525024414 27.40597915649414 102.7358627319336 33.67982482910156 C 105.4828796386719 40.17448806762695 106.8757247924805 47.07439422607422 106.8757247924805 54.18787002563477 C 106.8757247924805 61.30196380615234 105.4828796386719 68.20187377929688 102.7358627319336 74.696533203125 C 100.0822525024414 80.97038269042969 96.28305053710938 86.60519409179688 91.44381713867188 91.44444274902344 C 86.60457611083984 96.28368377685547 80.96975708007812 100.0828857421875 74.69589996337891 102.7365036010742 C 68.20124816894531 105.4835205078125 61.30134201049805 106.8763656616211 54.1878662109375 106.8763656616211 Z" stroke="none"/>
                      <path d="M 54.1878662109375 2.999992370605469 C 47.2762336730957 2.999992370605469 40.57291412353516 4.352981567382812 34.26416778564453 7.0213623046875 C 28.16909790039062 9.599342346191406 22.69454956054688 13.29059600830078 17.99258422851562 17.99257659912109 C 13.29059600830078 22.69454193115234 9.599349975585938 28.16909790039062 7.021369934082031 34.26416015625 C 4.352981567382812 40.57292938232422 3 47.27622985839844 3 54.18849563598633 C 3 61.10012817382812 4.352981567382812 67.80344390869141 7.021369934082031 74.11219787597656 C 9.599349975585938 80.20726013183594 13.29059600830078 85.68180847167969 17.99258422851562 90.38378143310547 C 22.69454956054688 95.08576202392578 28.16909790039062 98.77701568603516 34.26416778564453 101.3549957275391 C 40.57291412353516 104.0233764648438 47.2762336730957 105.3763656616211 54.1878662109375 105.3763656616211 C 61.0994987487793 105.3763656616211 67.80281066894531 104.0233764648438 74.11156463623047 101.3549957275391 C 80.20663452148438 98.77701568603516 85.68118286132812 95.08576202392578 90.38314819335938 90.38378143310547 C 95.08512878417969 85.68180847167969 98.77638244628906 80.20726013183594 101.3543701171875 74.11219787597656 C 104.0227508544922 67.80344390869141 105.375732421875 61.10012817382812 105.375732421875 54.1878776550293 C 105.375732421875 47.27622985839844 104.0227508544922 40.57292938232422 101.3543701171875 34.26416015625 C 98.77638244628906 28.16909790039062 95.08512878417969 22.69454193115234 90.38314819335938 17.99257659912109 C 85.68118286132812 13.29059600830078 80.20663452148438 9.599342346191406 74.11156463623047 7.0213623046875 C 67.80281066894531 4.352981567382812 61.0994987487793 2.999992370605469 54.1878662109375 2.999992370605469 M 54.1878662109375 -7.62939453125e-06 C 84.11499786376953 -7.62939453125e-06 108.375732421875 24.26072692871094 108.375732421875 54.1878776550293 L 108.375732421875 54.18849563598633 C 108.375732421875 84.11563110351562 84.11499786376953 108.3763656616211 54.1878662109375 108.3763656616211 C 24.26073455810547 108.3763656616211 0 84.11563110351562 0 54.18849563598633 L 0 54.1878776550293 C 0 24.26072692871094 24.26073455810547 -7.62939453125e-06 54.1878662109375 -7.62939453125e-06 Z" stroke="none" fill="#fff"/>
                    </g>
                  </g>
                </g>
              </g>
            </g>
          </g>
        </g>
      </g>
    </g>
    <g id="bailar" transform="translate(1056.367 4191)">
      <g id="Group_1205724" data-name="Group 1205724" transform="translate(45.754 1.07)">
        <path id="Path_1264941" data-name="Path 1264941" d="M228.064,361.492v17.3a1.478,1.478,0,0,1-1.478,1.477h-4.78a1.083,1.083,0,0,1-.923-1.651l2.062-3.359-.664-15.668Z" transform="translate(-196.672 -309.35)" fill="#ffbd86"/>
        <path id="Path_1264942" data-name="Path 1264942" d="M231.656,359.591l.04.952,2.886.948v17.3a1.478,1.478,0,0,1-1.478,1.477h2.857a1.478,1.478,0,0,0,1.478-1.477v-17.3Z" transform="translate(-206.047 -309.35)" fill="#f6a96c"/>
        <path id="Path_1264943" data-name="Path 1264943" d="M228.064,469.393v3.533a1.478,1.478,0,0,1-1.478,1.477h-4.78a1.083,1.083,0,0,1-.923-1.651l2.062-3.359Z" transform="translate(-196.672 -403.485)" fill="#99e6fc"/>
        <path id="Path_1264944" data-name="Path 1264944" d="M228.064,469.393v3.533a1.478,1.478,0,0,1-1.478,1.477h-4.78a1.083,1.083,0,0,1-.923-1.651l2.062-3.359Z" transform="translate(-196.672 -403.485)" fill="#99e6fc"/>
        <path id="Path_1264945" data-name="Path 1264945" d="M243.282,469.393v3.533A1.478,1.478,0,0,1,241.8,474.4h2.857a1.478,1.478,0,0,0,1.478-1.477v-3.533Z" transform="translate(-214.747 -403.485)" fill="#62dbfb"/>
        <path id="Path_1264946" data-name="Path 1264946" d="M272.183,361.492v17.3a1.478,1.478,0,0,0,1.478,1.477h4.78a1.083,1.083,0,0,0,.923-1.651l-2.062-3.359.663-15.668Z" transform="translate(-240.791 -309.35)" fill="#ffbd86"/>
        <path id="Path_1264947" data-name="Path 1264947" d="M292.959,378.618l-2.062-3.359.664-15.668-2.9.952-.623,14.716,2.062,3.359a1.083,1.083,0,0,1-.923,1.651h2.857A1.083,1.083,0,0,0,292.959,378.618Z" transform="translate(-254.386 -309.35)" fill="#f6a96c"/>
        <path id="Path_1264948" data-name="Path 1264948" d="M272.183,469.393v3.533a1.478,1.478,0,0,0,1.478,1.477h4.78a1.083,1.083,0,0,0,.923-1.651l-2.062-3.359Z" transform="translate(-240.791 -403.485)" fill="#99e6fc"/>
        <path id="Path_1264949" data-name="Path 1264949" d="M272.183,469.393v3.533a1.478,1.478,0,0,0,1.478,1.477h4.78a1.083,1.083,0,0,0,.923-1.651l-2.062-3.359Z" transform="translate(-240.791 -403.485)" fill="#99e6fc"/>
        <path id="Path_1264950" data-name="Path 1264950" d="M292.958,472.752l-2.062-3.359H288.04l2.062,3.359a1.083,1.083,0,0,1-.923,1.651h2.857A1.083,1.083,0,0,0,292.958,472.752Z" transform="translate(-254.385 -403.485)" fill="#62dbfb"/>
        <path id="Path_1264951" data-name="Path 1264951" d="M236.872,100.806l.3,11.193,10.792,1.281,3.245-10.581Z" transform="translate(-210.518 -87.492)" fill="#dff6fd"/>
        <path id="Path_1264952" data-name="Path 1264952" d="M294.649,110.932,291.4,121.513l-3.864-.458,3.155-10.645Z" transform="translate(-253.956 -95.726)" fill="#c8effe"/>
        <path id="Path_1264953" data-name="Path 1264953" d="M63.822,240.538l-10.7,4.138a1.462,1.462,0,0,0-.52,2.384c3.858,3.965,14.832,13.915,28.126,14.285,16.709.466,25.494-3.5,28.924-5.579a1.461,1.461,0,0,0,.1-2.428l-12.489-9.124Z" transform="translate(-52.183 -207.285)" fill="#6c7fd8"/>
        <g id="Group_1205722" data-name="Group 1205722" transform="translate(11.084 33.253)">
          <path id="Path_1264954" data-name="Path 1264954" d="M135.972,241.149l-5.557-.611-.555.215Z" transform="translate(-129.86 -240.538)" fill="#4f66d0"/>
          <path id="Path_1264955" data-name="Path 1264955" d="M354.189,272.524,341.7,263.4l-4.391-.483,13.016,9.607a1.461,1.461,0,0,1-.1,2.428,32.691,32.691,0,0,1-11.854,4.94c8.385-1.148,13.34-3.5,15.719-4.94A1.461,1.461,0,0,0,354.189,272.524Z" transform="translate(-307.708 -259.724)" fill="#4f66d0"/>
        </g>
        <path id="Path_1264956" data-name="Path 1264956" d="M377.316,187.666l-4.224-1.571-.512-9.205,3.726-2.7a3.854,3.854,0,0,1,.775,2.237Z" transform="translate(-326.862 -150.405)" fill="#f6a96c"/>
        <path id="Path_1264957" data-name="Path 1264957" d="M115.961,157.356l-1.574,1.26-5.679,7.69-4.168-.494,5.943-10.512a4.644,4.644,0,0,1,1.15-1.35Z" transform="translate(-97.069 -133.053)" fill="#ffbd86"/>
        <path id="Path_1264958" data-name="Path 1264958" d="M238.7,179.246l10.792,1.281v4.18l-10.839-1.164Z" transform="translate(-212.048 -154.739)" fill="#fe76a8"/>
        <path id="Path_1264959" data-name="Path 1264959" d="M287.535,185.007v4.224l3.865.415v-4.18Z" transform="translate(-253.952 -159.678)" fill="#fe5694"/>
        <path id="Path_1264960" data-name="Path 1264960" d="M146.55,220.593c-2.63,1.858-8.658,4.771-19.848,3.844a40.11,40.11,0,0,1-23.716-10.314,1.435,1.435,0,0,1,.793-2.481l9.8-1.228,8.363-1.049,10.839,1.163,7.21,4.044,6.423,3.6A1.433,1.433,0,0,1,146.55,220.593Z" transform="translate(-95.337 -180.56)" fill="#fe76a8"/>
        <path id="Path_1264961" data-name="Path 1264961" d="M301.985,222.34l-6.423-3.6-7.21-4.044-4.372-.469h0l14.141,8.115a1.433,1.433,0,0,1,.133,2.42c-2.109,1.49-6.406,3.657-13.8,3.979,9.8.4,15.208-2.246,17.661-3.979A1.433,1.433,0,0,0,301.985,222.34Z" transform="translate(-250.904 -184.727)" fill="#fe5694"/>
        <g id="Group_1205723" data-name="Group 1205723" transform="translate(30.546)">
          <path id="Path_1264962" data-name="Path 1264962" d="M275.352,12.2l-9.1-.5.1-1.845A2.5,2.5,0,0,1,268.986,7.5L273,7.849a2.5,2.5,0,0,1,2.353,2.629Z" transform="translate(-266.256 -7.5)" fill="#ffe177"/>
        </g>
        <path id="Path_1264963" data-name="Path 1264963" d="M278.366,7.85a2.7,2.7,0,0,1,2.582,2.642l0,1.513,3.637.2,0-1.727a2.5,2.5,0,0,0-2.353-2.629L278.221,7.5a2.483,2.483,0,0,0-1.192.23Z" transform="translate(-244.945 -7.501)" fill="#ffd15b"/>
        <path id="Path_1264964" data-name="Path 1264964" d="M261.678,37.177l-.242,4.38a2.463,2.463,0,0,0,1.245,2.278l-.292,3.146-2.165-.286a3.8,3.8,0,0,0,3.592,3.717,3.627,3.627,0,0,0,4.17-2.692l-1.742-.23.251-3.184h0a2.546,2.546,0,0,0,2.683-2.4l.238-4.3Z" transform="translate(-230.538 -32.942)" fill="#ffbd86"/>
        <path id="Path_1264965" data-name="Path 1264965" d="M284.878,39.228l-.238,4.3a2.545,2.545,0,0,1-2.538,2.406c-.047,0-.1,0-.144,0l-.251,3.185,1.742.23a3.628,3.628,0,0,1-4.169,2.693,4.786,4.786,0,0,1-1.019-.2,4.266,4.266,0,0,0,2.52-2.842l-1.013-.134a.557.557,0,0,1-.482-.605l.2-2.138a.562.562,0,0,1,.515-.5,1.924,1.924,0,0,0,1.784-2.083l.224-4.458Z" transform="translate(-246.001 -34.565)" fill="#f6a96c"/>
        <path id="Path_1264966" data-name="Path 1264966" d="M125.591,157.356l-4.328-3.406-4.9,1.444a.817.817,0,0,0-.242,1.45l6.042,4.287Z" transform="translate(-106.699 -133.053)" fill="#f2fbff"/>
        <path id="Path_1264967" data-name="Path 1264967" d="M206.463,214.57a26.791,26.791,0,0,1-14.287,2.418c-8.83-1.037-12.055-6.458-12.125-6.576l8.363-1.049,10.839,1.163Z" transform="translate(-161.805 -180.56)" fill="#ffe177"/>
        <path id="Path_1264968" data-name="Path 1264968" d="M283.98,214.225l9.432,5.413c.857-.316,1.582-.631,2.15-.9l-7.21-4.044-4.372-.469Z" transform="translate(-250.904 -184.727)" fill="#ffd15b"/>
        <path id="Path_1264969" data-name="Path 1264969" d="M265.072,37.365s.943,4.332-3.12,4.855c0,0-2.832-2.8.272-5.012Z" transform="translate(-231.007 -32.969)" fill="#8d9ca8"/>
        <path id="Path_1264970" data-name="Path 1264970" d="M372.583,176.886l.294,5.28,6.94-2.465a.95.95,0,0,0,.361-1.56l-3.87-3.957Z" transform="translate(-326.865 -150.4)" fill="#f2fbff"/>
        <path id="Path_1264971" data-name="Path 1264971" d="M338.1,122.649l-3.726,2.7-6.358-6.935,1.333-4.344a6.247,6.247,0,0,1,4.128,2.431Z" transform="translate(-288.659 -98.863)" fill="#dff6fd"/>
        <path id="Path_1264972" data-name="Path 1264972" d="M166.171,105.3l-7.594,6.08-4.328-3.406,8.456-6.751a4.133,4.133,0,0,1,3.333-.832Z" transform="translate(-139.685 -87.075)" fill="#dff6fd"/>
        <path id="Path_1264973" data-name="Path 1264973" d="M381.612,178.142l-3.87-3.957-1.671,1.212,2.685,2.745a.95.95,0,0,1-.361,1.56l-4.139,1.47.055.995,6.94-2.465A.95.95,0,0,0,381.612,178.142Z" transform="translate(-328.298 -150.4)" fill="#dff6fd"/>
        <path id="Path_1264974" data-name="Path 1264974" d="M344.337,122.649l-1.671,1.211-5.809-7.359a6.224,6.224,0,0,0-1.567-1.468l.3-.963a6.246,6.246,0,0,1,4.128,2.431Z" transform="translate(-294.893 -98.863)" fill="#c8effe"/>
      </g>
      <g id="Group_1205726" data-name="Group 1205726" transform="translate(44.684 0)">
        <path id="Trazado_1264975" data-name="Trazado 1264975" d="M241.534,107.923a1.076,1.076,0,0,1-.127-.008l-10.792-1.28a1.07,1.07,0,0,1-.944-1.034l-.3-11.193a1.07,1.07,0,0,1,1.21-1.09l5.5.725a1.07,1.07,0,0,1-.28,2.122l-4.255-.561.244,9.014,8.986,1.066,2.612-8.517-3.733-.492a1.07,1.07,0,0,1,.28-2.122l4.987.658a1.07,1.07,0,0,1,.883,1.375l-3.245,10.581A1.07,1.07,0,0,1,241.534,107.923Z" transform="translate(-203.016 -79.995)"/>
        <path id="Trazado_1264976" data-name="Trazado 1264976" d="M398.457,221.091a1.073,1.073,0,0,1-1.072-1.129l-.145-6.94a1.07,1.07,0,0,1,2.14-.045l.147,7.02a1.07,1.07,0,0,1-1.07,1.093Z" transform="translate(-346.933 -181.689)"/>
        <path id="Trazado_1264977" data-name="Trazado 1264977" d="M328.413,128.37a1.07,1.07,0,0,1-1.068-1.011l-.445-8-6.1-6.653a1.07,1.07,0,0,1-.234-1.037l1.333-4.344a1.07,1.07,0,0,1,1.171-.746,7.27,7.27,0,0,1,4.835,2.848l4.623,6.147a1.07,1.07,0,1,1-1.711,1.287l-4.623-6.147a5.141,5.141,0,0,0-2.54-1.814l-.862,2.811,5.944,6.483a1.071,1.071,0,0,1,.28.664l.467,8.382a1.07,1.07,0,0,1-1.009,1.128Z" transform="translate(-281.159 -91.363)"/>
        <path id="Trazado_1264978" data-name="Trazado 1264978" d="M232.274,171.746a1.068,1.068,0,0,1,.126.007l10.792,1.281a1.07,1.07,0,0,1,.944,1.063v4.18a1.07,1.07,0,0,1-1.184,1.064l-10.839-1.164a1.07,1.07,0,0,1-.956-1.076l.048-4.3a1.07,1.07,0,0,1,1.07-1.058Zm9.721,3.3-8.664-1.028-.024,2.133,8.688.933Z" transform="translate(-204.548 -147.239)"/>
        <path id="Trazado_1264979" data-name="Trazado 1264979" d="M124.424,219.255c-1.366,0-2.8-.061-4.248-.181A41.068,41.068,0,0,1,95.823,208.48a2.505,2.505,0,0,1,1.386-4.33l18.165-2.277a1.071,1.071,0,0,1,.247,0l10.839,1.163a1.07,1.07,0,0,1,.409.131L140.5,210.81a2.5,2.5,0,0,1,.226,4.228C138.5,216.612,133.418,219.255,124.424,219.255Zm-8.907-15.243-18.043,2.262a.365.365,0,0,0-.2.632,38.914,38.914,0,0,0,23.08,10.035c1.394.115,2.764.174,4.071.174,8.4,0,13.049-2.4,15.071-3.825a.346.346,0,0,0,.15-.309.359.359,0,0,0-.188-.3l-13.442-7.539Z" transform="translate(-87.83 -173.06)"/>
        <path id="Trazado_1264980" data-name="Trazado 1264980" d="M220.17,396.546h-4.779a2.154,2.154,0,0,1-1.835-3.282l1.891-3.08-.5-11.739a1.07,1.07,0,1,1,2.138-.091l.511,12.066a1.07,1.07,0,0,1-.157.605l-2.062,3.359,4.79.021a.408.408,0,0,0,.408-.407V378.935a1.07,1.07,0,0,1,2.14,0V394A2.551,2.551,0,0,1,220.17,396.546Z" transform="translate(-189.187 -323.488)"/>
        <path id="Trazado_1264981" data-name="Trazado 1264981" d="M216.527,461.893h5.119a1.07,1.07,0,0,1,1.07,1.07V466.5a2.55,2.55,0,0,1-2.548,2.547h-4.78a2.154,2.154,0,0,1-1.835-3.281l2.062-3.358A1.07,1.07,0,0,1,216.527,461.893Zm4.049,2.14h-3.45l-1.748,2.848,4.791.021a.408.408,0,0,0,.408-.406Z" transform="translate(-189.184 -395.985)"/>
        <path id="Trazado_1264982" data-name="Trazado 1264982" d="M272.009,427.1h-4.78a2.551,2.551,0,0,1-2.548-2.547,1.07,1.07,0,1,1,2.14,0,.408.408,0,0,0,.408.407h4.78l-2.051-3.38a1.07,1.07,0,0,1-.157-.605l.3-6.981a1.07,1.07,0,0,1,2.138.09l-.282,6.655,1.891,3.08a2.154,2.154,0,0,1-1.835,3.281Z" transform="translate(-233.288 -354.038)"/>
        <path id="Trazado_1264983" data-name="Trazado 1264983" d="M265.753,461.893h5.119a1.07,1.07,0,0,1,.912.51l2.062,3.359a2.154,2.154,0,0,1-1.835,3.281h-4.78a2.55,2.55,0,0,1-2.548-2.547v-3.533A1.07,1.07,0,0,1,265.753,461.893Zm4.517,2.14h-3.447V466.5a.408.408,0,0,0,.408.406h4.78Z" transform="translate(-233.291 -395.985)"/>
        <g id="Group_1205725" data-name="Group 1205725" transform="translate(28.113)">
          <path id="Trazado_1264984" data-name="Trazado 1264984" d="M268.922,6.845l-.059,0-9.1-.5a1.07,1.07,0,0,1-1.009-1.127l.1-1.845A3.565,3.565,0,0,1,262.416,0l.2.006,4.042.348a3.562,3.562,0,0,1,3.33,3.754l.005,1.666a1.07,1.07,0,0,1-1.07,1.073Zm-7.969-2.583,6.9.381V4.05a1.443,1.443,0,0,0-1.342-1.563l-4.042-.348A1.436,1.436,0,0,0,261,3.486Z" transform="translate(-256.323 0)"/>
          <path id="Línea_564" data-name="Línea 564" d="M7.361-4.6l-.06,0-13.79-.763A1.07,1.07,0,0,1-7.5-6.489,1.07,1.07,0,0,1-6.371-7.5l13.79.763A1.07,1.07,0,0,1,8.428-5.608,1.07,1.07,0,0,1,7.361-4.6Z" transform="translate(7.5 11.567)"/>
        </g>
        <path id="Línea_565" data-name="Línea 565" d="M-6.432.353A1.065,1.065,0,0,1-6.958.214a1.07,1.07,0,0,1-.4-1.458l3.231-5.713a1.07,1.07,0,0,1,1.458-.4,1.07,1.07,0,0,1,.4,1.458L-5.5-.191A1.07,1.07,0,0,1-6.432.353Z" transform="translate(15.918 32.873)"/>
        <path id="Trazado_1264985" data-name="Trazado 1264985" d="M141.989,112.132a1.07,1.07,0,0,1-.86-1.706l3.586-4.854a1.069,1.069,0,0,1,.192-.2l8.753-7.008-.092-3.392a3.06,3.06,0,0,0-1.623.655l-4.483,3.579a1.07,1.07,0,0,1-1.335-1.673l4.484-3.579a5.2,5.2,0,0,1,4.2-1.048,1.07,1.07,0,0,1,.874,1.023l.133,4.909a1.07,1.07,0,0,1-.4.864l-9.059,7.253-3.5,4.742A1.069,1.069,0,0,1,141.989,112.132Z" transform="translate(-127.188 -79.574)"/>
        <path id="Trazado_1264986" data-name="Trazado 1264986" d="M257.9,45.106q-.3,0-.617-.029a4.82,4.82,0,0,1-4.566-4.772,1.07,1.07,0,0,1,1.21-1.072l1.063.14.133-1.432A3.527,3.527,0,0,1,254,36.007a1.07,1.07,0,1,1,2.1-.432,1.4,1.4,0,0,0,.68.928,1.07,1.07,0,0,1,.536,1.029l-.291,3.146a1.07,1.07,0,0,1-1.205.962l-.622-.082a2.656,2.656,0,0,0,2.286,1.387,2.8,2.8,0,0,0,2.443-.762l-.253-.033a1.07,1.07,0,0,1-.927-1.145l.251-3.185a1.07,1.07,0,0,1,1.13-.984,1.494,1.494,0,0,0,1.551-1.392l.179-3.232-6.591-.365a1.07,1.07,0,1,1,.118-2.137l7.66.424a1.07,1.07,0,0,1,1.009,1.128l-.238,4.3a3.617,3.617,0,0,1-2.754,3.315l-.1,1.284.735.1a1.07,1.07,0,0,1,.909,1.274A4.614,4.614,0,0,1,257.9,45.106Z" transform="translate(-223.035 -25.47)"/>
        <path id="Trazado_1264987" data-name="Trazado 1264987" d="M369.879,166.685a1.069,1.069,0,0,1,.765.322l3.87,3.957a2.02,2.02,0,0,1-.768,3.316l-6.94,2.465a1.07,1.07,0,0,1-1.427-.949l-.294-5.28a1.07,1.07,0,0,1,.44-.926l3.726-2.7A1.067,1.067,0,0,1,369.879,166.685Zm2.974,5.641-3.093-3.162-2.505,1.816.182,3.27Z" transform="translate(-319.365 -142.9)"/>
        <path id="Trazado_1264988" data-name="Trazado 1264988" d="M114.83,146.45a1.07,1.07,0,0,1,.662.229l4.328,3.406a1.07,1.07,0,0,1,.13,1.561l-3.432,3.775a1.07,1.07,0,0,1-1.411.153l-6.042-4.287a1.887,1.887,0,0,1,.559-3.35l4.9-1.444A1.07,1.07,0,0,1,114.83,146.45Zm2.764,4.607L114.6,148.7l-3.873,1.141,4.843,3.437Z" transform="translate(-99.197 -125.553)"/>
        <path id="Trazado_1264989" data-name="Trazado 1264989" d="M188.617,211.8a25.8,25.8,0,0,1-3-.174c-9.273-1.089-12.777-6.85-12.921-7.094a1.07,1.07,0,0,1,.788-1.606l8.363-1.049a1.07,1.07,0,0,1,.247,0l10.839,1.163a1.07,1.07,0,0,1,.409.131l7.21,4.043a1.07,1.07,0,0,1-.065,1.9A28.354,28.354,0,0,1,188.617,211.8Zm-12.986-6.987a16.369,16.369,0,0,0,10.24,4.687,23.653,23.653,0,0,0,2.746.16A26,26,0,0,0,197.6,208l-5.11-2.866-10.5-1.126Z" transform="translate(-154.305 -173.06)"/>
        <path id="Trazado_1264990" data-name="Trazado 1264990" d="M255.794,29.708l.059,0,2.848.157a1.07,1.07,0,0,1,.987.841,6.024,6.024,0,0,1-.751,4.319,4.512,4.512,0,0,1-3.278,1.825,1.07,1.07,0,0,1-.89-.3,5.047,5.047,0,0,1-1.487-3.646,4.063,4.063,0,0,1,1.892-3A1.07,1.07,0,0,1,255.794,29.708Zm1.873,2.246-1.534-.085a1.8,1.8,0,0,0-.717,1.2,2.534,2.534,0,0,0,.527,1.547,2.164,2.164,0,0,0,1.245-.825A3.267,3.267,0,0,0,257.667,31.954Z" transform="translate(-223.506 -25.469)"/>
        <path id="Línea_566" data-name="Línea 566" d="M-6.43-4.008a1.07,1.07,0,0,1-.943-.563,1.07,1.07,0,0,1,.434-1.45l2.51-1.353a1.07,1.07,0,0,1,1.45.434,1.07,1.07,0,0,1-.434,1.45l-2.51,1.353A1.066,1.066,0,0,1-6.43-4.008Z" transform="translate(35.033 15.4)"/>
        <path id="Trazado_1264991" data-name="Trazado 1264991" d="M81.065,263.321c-2.1,0-4.382-.1-6.863-.319-15.524-1.381-27.487-13.255-28.8-14.6a2.532,2.532,0,0,1,.9-4.128l7.681-2.969a1.07,1.07,0,1,1,.772,2l-7.681,2.969a.391.391,0,0,0-.139.639c1.256,1.291,12.7,12.652,27.455,13.965,2.411.214,4.625.31,6.658.31,12.36,0,18.057-3.533,21.012-5.365l.6-.372a.377.377,0,0,0,.185-.314.386.386,0,0,0-.162-.336l-7.351-5.37a1.07,1.07,0,0,1,1.263-1.728l7.351,5.371a2.532,2.532,0,0,1-.176,4.207l-.587.361C100.058,259.575,94.015,263.321,81.065,263.321Z" transform="translate(-44.684 -206.807)"/>
      </g>
    </g>
  </g>
</svg>
