<svg xmlns="http://www.w3.org/2000/svg" width="129.063" height="75.78" viewBox="0 0 129.063 75.78">
  <g id="Group_1205885" data-name="Group 1205885" transform="translate(-11914 5480.969)">
    <g id="Group_1205226" data-name="Group 1205226" transform="translate(11126.219 -8037.129)">
      <g id="Rectangle_410589" data-name="Rectangle 410589" transform="translate(787.781 2575.623)" fill="#ffc94a" stroke="#dfab32" stroke-width="1">
        <rect width="129.063" height="43.021" rx="8" stroke="none"/>
        <rect x="0.5" y="0.5" width="128.063" height="42.021" rx="7.5" fill="none"/>
      </g>
    </g>
    <g id="reala6" transform="translate(11938.008 -5483.97)">
      <path id="Path_1265390" data-name="Path 1265390" d="M181.875,15.059l1.65-1.106a.665.665,0,0,1,.847.083l2.553,2.553a.665.665,0,0,1,.083.847l-1.106,1.65,1.4,3.387,1.948.384a.665.665,0,0,1,.541.658v3.611a.665.665,0,0,1-.541.658l-1.948.384-1.4,3.387,1.106,1.65a.665.665,0,0,1-.083.847L184.372,36.6a.665.665,0,0,1-.848.083l-1.65-1.106-3.387,1.4-.384,1.948a.665.665,0,0,1-.658.541h-3.611a.665.665,0,0,1-.658-.541l-.384-1.948-3.387-1.4-1.65,1.106a.665.665,0,0,1-.847-.083l-2.553-2.553a.665.665,0,0,1-.083-.847l1.106-1.65-1.4-3.387-1.948-.384a.665.665,0,0,1-.541-.658V23.514a.665.665,0,0,1,.541-.658l1.948-.384,1.4-3.387-1.106-1.65a.665.665,0,0,1,.083-.847l2.553-2.553a.665.665,0,0,1,.847-.083l1.65,1.106,3.387-1.4.384-1.948a.665.665,0,0,1,.658-.541h3.611a.665.665,0,0,1,.658.541l.384,1.948,3.387,1.4Z" transform="translate(-134.759 -6.943)" fill="#fdc72e" fill-rule="evenodd"/>
      <path id="Path_1265391" data-name="Path 1265391" d="M181.876,15.058l1.2-.8,2.722,2.722-1.413,2.107,1.4,3.387,2.489.491v4.713l-2.489.491-1.4,3.387,1.413,2.107-2.722,2.722-2.429-1.629-3.523,1.46-.642,3.259h-2.641a.665.665,0,0,1-.658-.541l-.384-1.948-4.647-1.925-1.665,1.117-2.124-2.124a.665.665,0,0,1-.083-.847l1.106-1.65-1.4-3.387-1.948-.384a.665.665,0,0,1-.541-.658V23.513a.665.665,0,0,1,.541-.658l1.948-.384,1.4-3.387-1.106-1.65a.665.665,0,0,1,.083-.848l2.124-2.124,1.665,1.117,1.261-.522,3.387-1.4.384-1.948a.665.665,0,0,1,.658-.541h2.641l.642,3.259,3.523,1.46,1.232-.826Z" transform="translate(-134.76 -6.942)" fill="#ffeb87" fill-rule="evenodd"/>
      <circle id="Ellipse_12811" data-name="Ellipse 12811" cx="7.568" cy="7.568" r="7.568" transform="translate(32.11 11.244) rotate(-3.154)" fill="#fdc72e"/>
      <circle id="Ellipse_12812" data-name="Ellipse 12812" cx="7.371" cy="7.371" r="7.371" transform="translate(33.511 11.005)" fill="#fff"/>
      <circle id="Ellipse_12813" data-name="Ellipse 12813" cx="6.063" cy="6.063" r="6.063" transform="translate(11.259 41.918) rotate(-67.486)" fill="#e6d6d1"/>
      <circle id="Ellipse_12814" data-name="Ellipse 12814" cx="6.063" cy="6.063" r="6.063" transform="translate(54.689 41.913) rotate(-67.486)" fill="#e6d6d1"/>
      <g id="Group_1205884" data-name="Group 1205884" transform="translate(2.992 3.001)">
        <path id="Path_1265392" data-name="Path 1265392" d="M75.555,212.971a6.064,6.064,0,0,1,0-11.939,6.064,6.064,0,0,1,0,11.939Z" transform="translate(-60.438 -171.374)" fill="#f0e3df" fill-rule="evenodd"/>
        <path id="Path_1265393" data-name="Path 1265393" d="M365.451,201.032a6.064,6.064,0,1,0,5,5.969A6.065,6.065,0,0,0,365.451,201.032Z" transform="translate(-306.918 -171.374)" fill="#f0e3df" fill-rule="evenodd"/>
        <path id="Path_1265394" data-name="Path 1265394" d="M211.039,332.625v15.348a.908.908,0,0,1-.906.906h-7.054a.908.908,0,0,1-.906-.906V332.625H198.9a.987.987,0,0,1-.734-1.647l7.708-8.567a.987.987,0,0,1,1.468,0l7.708,8.567a.987.987,0,0,1-.734,1.647h-3.275Z" transform="translate(-168.716 -274.297)" fill="#90ef90" fill-rule="evenodd"/>
        <path id="Path_1265395" data-name="Path 1265395" d="M208.516,351.207h-5.438a.908.908,0,0,1-.9-.906V334.953H198.9a.987.987,0,0,1-.734-1.647l7.633-8.484,7.633,8.484a.987.987,0,0,1-.734,1.647h-3.275V350.3a.908.908,0,0,1-.906.906Z" transform="translate(-168.716 -276.625)" fill="#adffad" fill-rule="evenodd"/>
        <path id="Path_1265396" data-name="Path 1265396" d="M12.993,267.184a2.924,2.924,0,0,1-2.005-2.767V248.223c0-4.92,3.192-8.1,7.47-8.1h10.9a8.521,8.521,0,0,0,6.237-2.584l7.12-7.12a2.913,2.913,0,1,1,4.119,4.119l-11.7,11.7v18.175H15.761v.767a2.107,2.107,0,0,1-2.767,2Z" transform="translate(-9.79 -195.641)" fill="#6cbfff" fill-rule="evenodd"/>
        <path id="Path_1265397" data-name="Path 1265397" d="M10.988,265.111V248.918c0-4.92,3.192-8.1,7.47-8.1h10.9a8.521,8.521,0,0,0,6.237-2.584l7.12-7.12a2.887,2.887,0,0,1,1.22-.727,2.888,2.888,0,0,1,1.22.727,2.921,2.921,0,0,1,0,4.119l-11.7,11.7v18.175H10.988Z" transform="translate(-9.79 -196.335)" fill="#85caff" fill-rule="evenodd"/>
        <path id="Path_1265398" data-name="Path 1265398" d="M290.674,267.184a2.924,2.924,0,0,0,2.005-2.767V248.223c0-4.92-3.192-8.1-7.47-8.1h-10.9a8.521,8.521,0,0,1-6.237-2.584l-7.12-7.12a2.913,2.913,0,1,0-4.119,4.119l11.7,11.7v18.175h19.37v.767a2.107,2.107,0,0,0,2.767,2Z" transform="translate(-218.098 -195.641)" fill="#abb6e5" fill-rule="evenodd"/>
        <path id="Path_1265399" data-name="Path 1265399" d="M302.209,265.111V248.918c0-4.92-3.192-8.1-7.47-8.1h-10.9a8.521,8.521,0,0,1-6.237-2.584l-7.12-7.12a1.387,1.387,0,0,0-2.441,0,2.921,2.921,0,0,0,0,4.119l11.7,11.7v18.175h22.464Z" transform="translate(-227.627 -196.335)" fill="#bdc7f2" fill-rule="evenodd"/>
        <path id="Path_1265400" data-name="Path 1265400" d="M40.882,12.581a5.8,5.8,0,1,1-5.8,5.8A5.8,5.8,0,0,1,40.882,12.581Zm0,13.988a8.192,8.192,0,1,0-8.192-8.192A8.2,8.2,0,0,0,40.882,26.569ZM27.9,17.022v2.711l2,.323a1.194,1.194,0,0,1,.969.885,10.317,10.317,0,0,0,1.12,2.7,1.2,1.2,0,0,1-.058,1.313L30.746,26.6l1.917,1.916,1.643-1.184a1.194,1.194,0,0,1,1.312-.058,10.266,10.266,0,0,0,2.7,1.118,1.2,1.2,0,0,1,.887.97l.322,2h2.711l.323-2a1.2,1.2,0,0,1,.887-.97,10.262,10.262,0,0,0,2.7-1.12,1.2,1.2,0,0,1,1.312.06L49.1,28.513,51.02,26.6l-1.186-1.642a1.2,1.2,0,0,1-.059-1.313,10.243,10.243,0,0,0,1.121-2.7,1.193,1.193,0,0,1,.968-.885l2-.323V17.022l-2-.323a1.2,1.2,0,0,1-.97-.885,10.224,10.224,0,0,0-1.119-2.7,1.2,1.2,0,0,1,.059-1.313l1.186-1.641L49.1,8.242,47.46,9.426a1.194,1.194,0,0,1-1.312.058,10.309,10.309,0,0,0-2.7-1.118,1.2,1.2,0,0,1-.887-.97l-.323-2H39.527l-.322,2a1.2,1.2,0,0,1-.887.97,10.218,10.218,0,0,0-2.7,1.12,1.2,1.2,0,0,1-1.312-.06L32.664,8.242l-1.917,1.917L31.933,11.8a1.2,1.2,0,0,1,.058,1.313,10.255,10.255,0,0,0-1.12,2.7,1.2,1.2,0,0,1-.969.885l-2,.323Zm-.72,5.021,1.587.256a12.585,12.585,0,0,0,.775,1.867l-.942,1.3a1.987,1.987,0,0,0,.207,2.577l2.4,2.4a1.985,1.985,0,0,0,2.577.207l1.3-.94a12.853,12.853,0,0,0,1.867.774l.256,1.588a1.987,1.987,0,0,0,1.969,1.675h3.4a1.985,1.985,0,0,0,1.968-1.677l.257-1.588a12.458,12.458,0,0,0,1.867-.774l1.306.942a1.986,1.986,0,0,0,2.578-.207l2.4-2.4a1.986,1.986,0,0,0,.208-2.577l-.942-1.3a12.5,12.5,0,0,0,.774-1.867l1.588-.256a1.985,1.985,0,0,0,1.676-1.969V16.68a1.986,1.986,0,0,0-1.676-1.969l-1.588-.256a12.6,12.6,0,0,0-.774-1.867l.942-1.3a1.987,1.987,0,0,0-.208-2.578l-2.4-2.4A1.985,1.985,0,0,0,47.978,6.1l-1.306.942a12.427,12.427,0,0,0-1.867-.774l-.257-1.589A1.985,1.985,0,0,0,42.58,3h-3.4a1.988,1.988,0,0,0-1.969,1.677L36.96,6.266a12.7,12.7,0,0,0-1.867.773l-1.3-.941a1.984,1.984,0,0,0-2.577.207l-2.4,2.4a1.988,1.988,0,0,0-.207,2.578l.942,1.3a12.426,12.426,0,0,0-.775,1.867l-1.587.256a1.985,1.985,0,0,0-1.676,1.969v3.394a1.985,1.985,0,0,0,1.676,1.969ZM45.315,60.131a1.2,1.2,0,0,0-1.2,1.2V76.385H37.649V61.33a1.2,1.2,0,0,0-1.2-1.2h-2.8l7.234-8.04,7.235,8.04h-2.8Zm-2.807-9.817a2.185,2.185,0,0,0-3.249,0l-7.708,8.567a2.185,2.185,0,0,0,1.625,3.646h2.077v14.15a2.105,2.105,0,0,0,2.1,2.1h7.054a2.106,2.106,0,0,0,2.1-2.1V62.528h2.077a2.185,2.185,0,0,0,1.625-3.646l-7.708-8.567ZM62.59,33.764a4.865,4.865,0,1,1-4.865,4.865,4.87,4.87,0,0,1,4.865-4.865Zm0,12.126a7.261,7.261,0,1,1,7.26-7.262A7.269,7.269,0,0,1,62.59,45.89Zm13.787,25.87V55.567c0-4.126-2.52-6.9-6.275-6.9H59.209a9.691,9.691,0,0,1-7.084-2.935l-7.12-7.12A1.712,1.712,0,0,0,42.08,39.79v.074a1.71,1.71,0,0,0,.5,1.176l11.7,11.7a1.2,1.2,0,0,1,.35.848V70.562h15.92V58a1.2,1.2,0,0,1,2.4,0V71.761a1.714,1.714,0,0,0,1.711,1.715h.007a1.725,1.725,0,0,0,1.711-1.715ZM39.185,41.039a1.7,1.7,0,0,0,.5-1.192v-.042a1.715,1.715,0,0,0-2.924-1.192l-7.12,7.12a9.688,9.688,0,0,1-7.084,2.935h-10.9c-3.752,0-6.272,2.773-6.272,6.9V71.761a1.715,1.715,0,1,0,3.429,0V58a1.2,1.2,0,0,1,2.4,0V70.562H27.135V53.587a1.194,1.194,0,0,1,.351-.848l11.7-11.7ZM76.313,48.85a8.414,8.414,0,0,0-6.21-2.578H59.209a7.284,7.284,0,0,1-5.39-2.233l-7.12-7.12a4.117,4.117,0,0,0-5.814,0l0,0s0,0,0,0a4.118,4.118,0,0,0-5.813,0l-7.12,7.12a7.282,7.282,0,0,1-5.39,2.233h-10.9A8.423,8.423,0,0,0,5.451,48.85a9.545,9.545,0,0,0-2.459,6.717V71.761a4.112,4.112,0,0,0,8.045,1.2h17.3a1.2,1.2,0,0,0,1.2-1.2V54.082L40.881,42.733s0,0,0,0,0,0,0,0L52.235,54.082V71.761a1.2,1.2,0,0,0,1.2,1.2h17.3a4.112,4.112,0,0,0,3.928,2.913h.007a4.12,4.12,0,0,0,4.109-4.111V55.567A9.541,9.541,0,0,0,76.313,48.85ZM19.175,33.764a4.865,4.865,0,1,1-4.865,4.865A4.87,4.87,0,0,1,19.175,33.764Zm0,12.126a7.261,7.261,0,1,1,7.261-7.262A7.27,7.27,0,0,1,19.175,45.89Z" transform="translate(-2.992 -3.001)" fill-rule="evenodd"/>
      </g>
    </g>
  </g>
</svg>
