<svg xmlns="http://www.w3.org/2000/svg" xmlns:xlink="http://www.w3.org/1999/xlink" width="129.063" height="80.823" viewBox="0 0 129.063 80.823">
  <defs>
    <clipPath id="clip-path">
      <path id="path690" d="M0-682.665H80.823v80.823H0Z" transform="translate(0 682.665)"/>
    </clipPath>
  </defs>
  <g id="Group_1205879" data-name="Group 1205879" transform="translate(-735 -5452.177)">
    <g id="Group_1205223" data-name="Group 1205223" transform="translate(-52.781 2903.871)">
      <g id="Rectangle_410589" data-name="Rectangle 410589" transform="translate(787.781 2575.623)" fill="#ffc94a" stroke="#dfab32" stroke-width="1">
        <rect width="129.063" height="43.021" rx="8" stroke="none"/>
        <rect x="0.5" y="0.5" width="128.063" height="42.021" rx="7.5" fill="none"/>
      </g>
    </g>
    <g id="g684" transform="translate(760 6134.842)">
      <g id="g686" transform="translate(0 -682.665)">
        <g id="g688" clip-path="url(#clip-path)">
          <g id="g694" transform="translate(15.893 1.184)">
            <path id="path696" d="M-349.615-200.82a4.636,4.636,0,0,0,2.021-4.683,4.328,4.328,0,0,0-3.374-3.65,4.807,4.807,0,0,0,.424-5.151,4.031,4.031,0,0,0-4.32-2.177,4.751,4.751,0,0,0-1.224-5,3.88,3.88,0,0,0-4.745-.441,4.5,4.5,0,0,0-2.724-4.242,3.935,3.935,0,0,0-4.6,1.348,4.175,4.175,0,0,0-3.9-2.975,4.176,4.176,0,0,0-3.9,2.975,3.935,3.935,0,0,0-4.6-1.348,4.5,4.5,0,0,0-2.724,4.242,3.88,3.88,0,0,0-4.745.441,4.751,4.751,0,0,0-1.224,5,4.031,4.031,0,0,0-4.32,2.177,4.807,4.807,0,0,0,.424,5.151,4.327,4.327,0,0,0-3.374,3.65,4.636,4.636,0,0,0,2.021,4.683,4.636,4.636,0,0,0-2.021,4.683,4.327,4.327,0,0,0,3.374,3.65,4.807,4.807,0,0,0-.424,5.151,4.031,4.031,0,0,0,4.32,2.177,4.751,4.751,0,0,0,1.224,5,3.88,3.88,0,0,0,4.745.441,4.5,4.5,0,0,0,2.724,4.242,3.935,3.935,0,0,0,4.6-1.348,4.175,4.175,0,0,0,3.9,2.975,4.175,4.175,0,0,0,3.9-2.975,3.935,3.935,0,0,0,4.6,1.348,4.5,4.5,0,0,0,2.724-4.242,3.88,3.88,0,0,0,4.745-.441,4.751,4.751,0,0,0,1.224-5,4.031,4.031,0,0,0,4.32-2.177,4.807,4.807,0,0,0-.424-5.151,4.328,4.328,0,0,0,3.374-3.65,4.636,4.636,0,0,0-2.021-4.683" transform="translate(396.565 227.789)" fill="#7a6d79"/>
          </g>
          <g id="g698" transform="translate(15.893 2.538)">
            <path id="path700" d="M-134.309-347.856a3.88,3.88,0,0,1-4.745-.441,4.751,4.751,0,0,1-1.224-5,4.032,4.032,0,0,1-4.32-2.177,4.807,4.807,0,0,1,.424-5.151,4.327,4.327,0,0,1-3.374-3.65,4.636,4.636,0,0,1,2.021-4.683,4.636,4.636,0,0,1-2.021-4.683,4.327,4.327,0,0,1,3.374-3.65,4.808,4.808,0,0,1-.424-5.151,4.032,4.032,0,0,1,4.32-2.177,4.751,4.751,0,0,1,1.224-5,3.88,3.88,0,0,1,4.745-.441,4.632,4.632,0,0,1,1.771-3.706,3.86,3.86,0,0,0-3.782-.536h0a4.5,4.5,0,0,0-2.724,4.242,3.88,3.88,0,0,0-4.745.441,4.751,4.751,0,0,0-1.224,5,4.031,4.031,0,0,0-4.32,2.177,4.808,4.808,0,0,0,.424,5.151,4.327,4.327,0,0,0-3.374,3.65,4.636,4.636,0,0,0,2.021,4.683,4.636,4.636,0,0,0-2.021,4.683,4.327,4.327,0,0,0,3.374,3.65,4.807,4.807,0,0,0-.424,5.151,4.031,4.031,0,0,0,4.32,2.177,4.751,4.751,0,0,0,1.224,5,3.88,3.88,0,0,0,4.745.441,4.5,4.5,0,0,0,2.724,4.242h0a3.861,3.861,0,0,0,3.782-.537,4.632,4.632,0,0,1-1.771-3.706" transform="translate(152.346 394.571)" fill="#685e68"/>
          </g>
          <g id="g702" transform="translate(15.029 40.82)">
            <path id="path704" d="M-323.265-114.2l-11.107-3.8v-11.538h-13.845V-118l-11.107,3.8a10.871,10.871,0,0,0-7.353,10.286v13.2h50.765v-13.2a10.871,10.871,0,0,0-7.353-10.286" transform="translate(366.678 129.541)" fill="#d78878"/>
          </g>
          <g id="g706" transform="translate(33.489 40.82)">
            <path id="path708" d="M-35.264-85.912V-97.449H-40v11.537l6.923,27.282,2.368-9.332Z" transform="translate(40 97.449)" fill="#c96e58"/>
          </g>
          <g id="g710" transform="translate(14.709 0)">
            <path id="path712" d="M-122.92-394.468a1.178,1.178,0,0,1-.64-.189,5.657,5.657,0,0,1-2.334-3.211,5.021,5.021,0,0,1-1.134.13,5.134,5.134,0,0,1-3.455-1.36,5.9,5.9,0,0,1-1.853-4.668,5.333,5.333,0,0,1-3.938-2.826,6.062,6.062,0,0,1-.246-5.077,5.358,5.358,0,0,1-1.343-1.042,5.77,5.77,0,0,1-1.484-3.049,5.968,5.968,0,0,1,1.379-4.872,5.9,5.9,0,0,1-1.457-3.9,6.1,6.1,0,0,1,.078-.974,5.678,5.678,0,0,1,2.827-4.089,6.031,6.031,0,0,1-.447-2.281,5.985,5.985,0,0,1,.694-2.8,5.329,5.329,0,0,1,3.936-2.828q-.01-.172-.01-.345a5.843,5.843,0,0,1,1.863-4.321,5.086,5.086,0,0,1,4.593-1.232,5.563,5.563,0,0,1,3.24-3.677,5.034,5.034,0,0,1,4.694.523,5.5,5.5,0,0,1,1.1-1.147,5.059,5.059,0,0,1,3.132-1.086,5.223,5.223,0,0,1,4.23,2.232,5.067,5.067,0,0,1,2.847-.878,5.017,5.017,0,0,1,1.851.356,5.561,5.561,0,0,1,3.242,3.677,5.022,5.022,0,0,1,1.133-.13,5.134,5.134,0,0,1,3.455,1.36,5.9,5.9,0,0,1,1.853,4.668,5.09,5.09,0,0,1,1.565.488,1.184,1.184,0,0,1,.528,1.589,1.184,1.184,0,0,1-1.589.528,2.64,2.64,0,0,0-1.7-.237,1.184,1.184,0,0,1-1.118-.383,1.184,1.184,0,0,1-.229-1.16,3.561,3.561,0,0,0-.9-3.742,2.735,2.735,0,0,0-1.861-.742,2.722,2.722,0,0,0-1.454.428,1.184,1.184,0,0,1-1.206.035,1.184,1.184,0,0,1-.61-1.041,3.313,3.313,0,0,0-1.974-3.135,2.66,2.66,0,0,0-.981-.19,2.832,2.832,0,0,0-2.242,1.157,1.184,1.184,0,0,1-1.137.448,1.184,1.184,0,0,1-.927-.8,3,3,0,0,0-2.77-2.163,2.714,2.714,0,0,0-1.678.587,3.29,3.29,0,0,0-1.094,1.577,1.184,1.184,0,0,1-.927.795,1.184,1.184,0,0,1-1.136-.447,2.734,2.734,0,0,0-3.221-.967,3.317,3.317,0,0,0-1.977,3.124,1.2,1.2,0,0,1-.613,1.046,1.184,1.184,0,0,1-1.2-.029,2.684,2.684,0,0,0-3.314.316,3.47,3.47,0,0,0-1.091,2.571,3.633,3.633,0,0,0,.191,1.171,1.184,1.184,0,0,1-.23,1.16,1.184,1.184,0,0,1-1.119.383,2.866,2.866,0,0,0-3.046,1.571,3.609,3.609,0,0,0-.417,1.688,3.563,3.563,0,0,0,.731,2.182,1.184,1.184,0,0,1,.172,1.147,1.184,1.184,0,0,1-.89.744,3.154,3.154,0,0,0-2.423,2.676,3.726,3.726,0,0,0-.048.594,3.386,3.386,0,0,0,1.525,2.891,1.184,1.184,0,0,1,.561,1.006,1.184,1.184,0,0,1-.559,1.007,3.456,3.456,0,0,0-1.478,3.489,3.412,3.412,0,0,0,.87,1.805,2.849,2.849,0,0,0,1.553.87,1.184,1.184,0,0,1,.89.745,1.184,1.184,0,0,1-.174,1.147,3.619,3.619,0,0,0-.312,3.869,2.921,2.921,0,0,0,2.539,1.617,2.661,2.661,0,0,0,.508-.049,1.184,1.184,0,0,1,1.118.383,1.184,1.184,0,0,1,.229,1.159,3.566,3.566,0,0,0,.9,3.744,2.771,2.771,0,0,0,1.86.742,2.722,2.722,0,0,0,1.454-.428,1.184,1.184,0,0,1,1.205-.035,1.184,1.184,0,0,1,.611,1.04,3.409,3.409,0,0,0,1.479,2.881,1.184,1.184,0,0,1,.354,1.636A1.183,1.183,0,0,1-122.92-394.468Z" transform="translate(139.426 448.786)"/>
          </g>
          <g id="g714" transform="translate(48.421 16.223)">
            <path id="path716" d="M-8.816-273.665a1.183,1.183,0,0,1-1-.544,1.184,1.184,0,0,1,.356-1.636,3.4,3.4,0,0,0,1.479-2.864,1.2,1.2,0,0,1,.613-1.047,1.183,1.183,0,0,1,1.2.026,2.686,2.686,0,0,0,3.315-.315,3.464,3.464,0,0,0,1.091-2.569,3.643,3.643,0,0,0-.191-1.174,1.184,1.184,0,0,1,.23-1.16A1.184,1.184,0,0,1-.6-285.331,2.863,2.863,0,0,0,2.447-286.9a3.6,3.6,0,0,0,.417-1.689,3.554,3.554,0,0,0-.729-2.18,1.184,1.184,0,0,1-.173-1.147,1.184,1.184,0,0,1,.89-.745,3.157,3.157,0,0,0,2.422-2.676,3.74,3.74,0,0,0,.048-.594A3.393,3.393,0,0,0,3.8-298.825a1.184,1.184,0,0,1-.559-1.006,1.184,1.184,0,0,1,.56-1.006,3.453,3.453,0,0,0,1.476-3.487A3.423,3.423,0,0,0,4.4-306.13,2.828,2.828,0,0,0,2.854-307a1.184,1.184,0,0,1-.891-.743,1.184,1.184,0,0,1,.172-1.148,3.5,3.5,0,0,0,.708-1.8,1.184,1.184,0,0,1,1.3-1.06,1.184,1.184,0,0,1,1.06,1.3,5.988,5.988,0,0,1-.412,1.665,5.349,5.349,0,0,1,1.341,1.042A5.782,5.782,0,0,1,7.612-304.7a5.967,5.967,0,0,1-1.378,4.872,5.905,5.905,0,0,1,1.456,3.9,6.113,6.113,0,0,1-.078.973,5.681,5.681,0,0,1-2.826,4.089,6.035,6.035,0,0,1,.446,2.28,5.979,5.979,0,0,1-.695,2.8A5.324,5.324,0,0,1,.6-282.962q.01.173.01.347a5.836,5.836,0,0,1-1.864,4.32,5.086,5.086,0,0,1-4.591,1.231,5.643,5.643,0,0,1-2.333,3.21A1.179,1.179,0,0,1-8.816-273.665Z" transform="translate(10.001 311.76)"/>
          </g>
          <g id="g718" transform="translate(22.382 52.357)">
            <path id="path720" d="M-82.71,0l6.923,27.282H-92.949s2.994-13.339-.868-23.482Z" transform="translate(93.817)" fill="#57be92"/>
          </g>
          <g id="g722" transform="translate(15.029 56.157)">
            <path id="path724" d="M0-76.593v13.2H7.893v-13.2a10.853,10.853,0,0,1,.957-4.461,28.851,28.851,0,0,0-1.5-5.825A10.871,10.871,0,0,0,0-76.593" transform="translate(0 86.878)" fill="#c96e58"/>
          </g>
          <g id="g726" transform="translate(22.382 52.357)">
            <path id="path728" d="M0-28.291a28.857,28.857,0,0,1,1.5,5.825,10.869,10.869,0,0,1,6.4-5.825l3.845-1.315-.63-2.484Z" transform="translate(0 32.091)" fill="#22b380"/>
          </g>
          <g id="g730" transform="translate(40.412 52.357)">
            <path id="path732" d="M-51.548,0l-6.923,27.282h17.162S-44.3,13.943-40.441,3.8Z" transform="translate(58.471)" fill="#57be92"/>
          </g>
          <g id="g734" transform="translate(13.846 44.56)">
            <path id="path736" d="M-386.824-215.323h-50.764a1.184,1.184,0,0,1-1.184-1.184v-13.2a12.055,12.055,0,0,1,8.152-11.406l10.308-3.526V-250.4a1.184,1.184,0,0,1,1.184-1.184,1.184,1.184,0,0,1,1.184,1.184v6.613a1.184,1.184,0,0,1-.8,1.12l-11.108,3.8A9.687,9.687,0,0,0-436.4-229.7v12.013h48.4V-221.8a1.184,1.184,0,0,1,1.184-1.184,1.184,1.184,0,0,1,1.184,1.184v5.293A1.184,1.184,0,0,1-386.824-215.323Z" transform="translate(438.772 251.586)"/>
          </g>
          <g id="g738" transform="translate(46.15 44.56)">
            <path id="path740" d="M9.644,15.811A1.184,1.184,0,0,1,8.46,14.627V11.882A9.687,9.687,0,0,0,1.909,2.716L-9.2-1.083A1.184,1.184,0,0,1-10-2.2V-8.816A1.184,1.184,0,0,1-8.816-10,1.184,1.184,0,0,1-7.632-8.816V-3.05L2.676.476a12.055,12.055,0,0,1,8.152,11.406v2.745A1.184,1.184,0,0,1,9.644,15.811Z" transform="translate(10 10)"/>
          </g>
          <g id="g742" transform="translate(28.533 17.626)">
            <path id="path744" d="M-120.134,0a4.9,4.9,0,0,1-4.255,2.466A4.9,4.9,0,0,1-128.645,0c-1.506,3.645-2.887,4.915-7.623,4.915V18.464a11.878,11.878,0,0,0,11.878,11.878,11.879,11.879,0,0,0,11.878-11.878V4.915C-117.467,4.75-119.575,2.3-120.134,0" transform="translate(136.268)" fill="#d78878"/>
          </g>
          <g id="g746" transform="translate(28.533 17.626)">
            <path id="path748" d="M-35.264-137.489v-13.549c3.486,0,5.154-.688,6.393-2.506a4.906,4.906,0,0,1-3.506-2.409c-1.506,3.645-2.887,4.915-7.623,4.915v13.549a11.878,11.878,0,0,0,11.878,11.878,11.929,11.929,0,0,0,2.368-.236,11.883,11.883,0,0,1-9.511-11.642" transform="translate(40 155.953)" fill="#c96e58"/>
          </g>
          <g id="g750" transform="translate(27.349 16.442)">
            <path id="path752" d="M-128.951-10a1.186,1.186,0,0,1,.167.012,1.184,1.184,0,0,1,.984.892c.591,2.431,2.965,3.893,6.513,4.011A1.184,1.184,0,0,1-120.143-3.9V9.647A13.077,13.077,0,0,1-133.205,22.71,13.077,13.077,0,0,1-146.268,9.647V-3.9a1.184,1.184,0,0,1,1.184-1.184c4.2,0,5.169-.891,6.528-4.183A1.184,1.184,0,0,1-137.537-10a1.184,1.184,0,0,1,1.1.592,3.732,3.732,0,0,0,3.228,1.871,3.732,3.732,0,0,0,3.229-1.872A1.184,1.184,0,0,1-128.951-10Zm-4.255,4.834a6.1,6.1,0,0,1-3.963-1.469c-1.312,2.45-3,3.683-6.731,3.887v12.4a10.707,10.707,0,0,0,10.695,10.695A10.707,10.707,0,0,0-122.511,9.647V-2.8c-3.887-.421-5.821-2.254-6.771-3.8A6.1,6.1,0,0,1-133.206-5.166Z" transform="translate(146.268 10)"/>
          </g>
          <g id="g754" transform="translate(23.25 26.311)">
            <path id="path756" d="M-39.343,0h-2.213a3.07,3.07,0,0,0-3.07,3.07v2.3a3.071,3.071,0,0,0,3.07,3.071h2.213Z" transform="translate(44.627)" fill="#bb5d4c"/>
          </g>
          <g id="g758" transform="translate(22.066 25.127)">
            <path id="path760" d="M-50.372-10h2.213a1.184,1.184,0,0,1,1.184,1.184V-.374A1.184,1.184,0,0,1-48.159.81h-2.213a4.259,4.259,0,0,1-4.254-4.255v-2.3A4.259,4.259,0,0,1-50.372-10Zm1.029,2.368h-1.029a1.889,1.889,0,0,0-1.887,1.887v2.3a1.889,1.889,0,0,0,1.887,1.887h1.029Z" transform="translate(54.627 10)"/>
          </g>
          <g id="g762" transform="translate(52.29 26.311)">
            <path id="path764" d="M0,0H2.213a3.07,3.07,0,0,1,3.07,3.07v2.3a3.071,3.071,0,0,1-3.07,3.071H0Z" fill="#bb5d4c"/>
          </g>
          <g id="g766" transform="translate(51.106 25.127)">
            <path id="path768" d="M-8.816-10H-6.6A4.259,4.259,0,0,1-2.349-5.746v2.3A4.259,4.259,0,0,1-6.6.81H-8.816A1.184,1.184,0,0,1-10-.374V-8.816A1.184,1.184,0,0,1-8.816-10ZM-6.6-1.558A1.889,1.889,0,0,0-4.716-3.445v-2.3A1.889,1.889,0,0,0-6.6-7.632H-7.632v6.074Z" transform="translate(10 10)"/>
          </g>
          <g id="g770" transform="translate(36.259 37.62)">
            <path id="path772" d="M-5.847-4.663A4.158,4.158,0,0,1-10-8.816,1.184,1.184,0,0,1-8.816-10,1.184,1.184,0,0,1-7.632-8.816,1.787,1.787,0,0,0-5.847-7.031,1.787,1.787,0,0,0-4.062-8.816,1.184,1.184,0,0,1-2.878-10,1.184,1.184,0,0,1-1.694-8.816,4.158,4.158,0,0,1-5.847-4.663Z" transform="translate(10 10)"/>
          </g>
          <g id="g774" transform="translate(21.197 51.173)">
            <path id="path776" d="M-107.757-71.589H-124.92a1.184,1.184,0,0,1-.924-.444,1.184,1.184,0,0,1-.231-1c.029-.13,2.868-13.12-.819-22.8a1.184,1.184,0,0,1,.035-.924,1.184,1.184,0,0,1,.689-.617l11.108-3.8a1.184,1.184,0,0,1,.947.079,1.184,1.184,0,0,1,.584.75l1.471,5.8a1.184,1.184,0,0,1-.857,1.439,1.184,1.184,0,0,1-1.439-.857l-1.155-4.555-8.762,3c2.7,8.263,1.427,17.947.79,21.566h14.2l-3.807-15.005a1.184,1.184,0,0,1,.856-1.439,1.184,1.184,0,0,1,1.439.856l4.182,16.48a1.184,1.184,0,0,1-.213,1.018A1.184,1.184,0,0,1-107.757-71.589Z" transform="translate(126.972 101.24)"/>
          </g>
          <g id="g778" transform="translate(39.228 51.173)">
            <path id="path780" d="M-60.364-10a1.183,1.183,0,0,1,.383.064l11.107,3.8a1.184,1.184,0,0,1,.689.617,1.184,1.184,0,0,1,.035.924c-3.687,9.683-.848,22.672-.819,22.8a1.184,1.184,0,0,1-.231,1,1.184,1.184,0,0,1-.924.444H-67.287a1.184,1.184,0,0,1-.934-.457,1.184,1.184,0,0,1-.213-1.018l6.923-27.282a1.184,1.184,0,0,1,.584-.75A1.184,1.184,0,0,1-60.364-10Zm9.593,5.716-8.761-3-6.232,24.562h14.2C-52.2,13.663-53.476,3.979-50.771-4.283Z" transform="translate(68.471 10)"/>
          </g>
          <g id="g782" transform="translate(34.22 28.69)">
            <path id="path784" d="M-8.816-6.078A1.184,1.184,0,0,1-10-7.262V-8.816A1.184,1.184,0,0,1-8.816-10,1.184,1.184,0,0,1-7.632-8.816v1.554A1.184,1.184,0,0,1-8.816-6.078Z" transform="translate(10 10)"/>
          </g>
          <g id="g786" transform="translate(44.42 28.69)">
            <path id="path788" d="M-8.816-6.078A1.184,1.184,0,0,1-10-7.262V-8.816A1.184,1.184,0,0,1-8.816-10,1.184,1.184,0,0,1-7.632-8.816v1.554A1.184,1.184,0,0,1-8.816-6.078Z" transform="translate(10 10)"/>
          </g>
          <g id="g790" transform="translate(32.994 24.517)">
            <path id="path792" d="M-6.364-7.632H-8.816A1.184,1.184,0,0,1-10-8.816,1.184,1.184,0,0,1-8.816-10h2.452A1.184,1.184,0,0,1-5.18-8.816,1.184,1.184,0,0,1-6.364-7.632Z" transform="translate(10 10)"/>
          </g>
          <g id="g794" transform="translate(43.009 24.517)">
            <path id="path796" d="M-6.364-7.632H-8.816A1.184,1.184,0,0,1-10-8.816,1.184,1.184,0,0,1-8.816-10h2.452A1.184,1.184,0,0,1-5.18-8.816,1.184,1.184,0,0,1-6.364-7.632Z" transform="translate(10 10)"/>
          </g>
        </g>
      </g>
    </g>
  </g>
</svg>
