<svg xmlns="http://www.w3.org/2000/svg" xmlns:xlink="http://www.w3.org/1999/xlink" width="126.376" height="126.376" viewBox="0 0 126.376 126.376">
  <defs>
    <filter id="Path_874925" x="0" y="0" width="126.376" height="126.376" filterUnits="userSpaceOnUse">
      <feOffset dy="3" input="SourceAlpha"/>
      <feGaussianBlur stdDeviation="3" result="blur"/>
      <feFlood flood-opacity="0.161"/>
      <feComposite operator="in" in2="blur"/>
      <feComposite in="SourceGraphic"/>
    </filter>
  </defs>
  <g id="Group_1205746" data-name="Group 1205746" transform="translate(-789.051 -3872)">
    <g id="Group_1205721" data-name="Group 1205721" transform="translate(52 -295)">
      <g id="Group_1205682" data-name="Group 1205682" transform="translate(461.051 -2077.874)">
        <g id="Group_1200232" data-name="Group 1200232" transform="translate(285 6250.874)">
          <g id="Group_1187153" data-name="Group 1187153">
            <g id="Group_1182177" data-name="Group 1182177">
              <g id="Group_1181903" data-name="Group 1181903">
                <g id="Group_1181438" data-name="Group 1181438">
                  <g id="Group_1111314" data-name="Group 1111314">
                    <g transform="matrix(1, 0, 0, 1, -9, -6)" filter="url(#Path_874925)">
                      <g id="Path_874925-2" data-name="Path 874925" transform="translate(9 6)" fill="#ffc94a">
                        <path d="M 54.1878662109375 106.8763656616211 C 47.07439041137695 106.8763656616211 40.17448043823242 105.4835205078125 33.67983627319336 102.7365036010742 C 27.40597343444824 100.0828857421875 21.77115821838379 96.28368377685547 16.93191146850586 91.44444274902344 C 12.09268188476562 86.60519409179688 8.293481826782227 80.97038269042969 5.639866352081299 74.696533203125 C 2.892850875854492 68.20187377929688 1.500004649162292 61.30196380615234 1.500004649162292 54.1884880065918 C 1.500004649162292 47.07439422607422 2.892850875854492 40.17448806762695 5.639866352081299 33.67982482910156 C 8.293481826782227 27.40597915649414 12.09268188476562 21.77116394042969 16.93191146850586 16.93191719055176 C 21.77115821838379 12.09267139434814 27.40597343444824 8.293471336364746 33.67983627319336 5.639855861663818 C 40.17448043823242 2.892840623855591 47.07439041137695 1.499994397163391 54.1878662109375 1.499994397163391 C 61.30134201049805 1.499994397163391 68.20124816894531 2.892840623855591 74.69589996337891 5.639855861663818 C 80.96975708007812 8.293471336364746 86.60457611083984 12.09267139434814 91.44381713867188 16.93191719055176 C 96.28305053710938 21.77116394042969 100.0822525024414 27.40597915649414 102.7358627319336 33.67982482910156 C 105.4828796386719 40.17448806762695 106.8757247924805 47.07439422607422 106.8757247924805 54.18787002563477 C 106.8757247924805 61.30196380615234 105.4828796386719 68.20187377929688 102.7358627319336 74.696533203125 C 100.0822525024414 80.97038269042969 96.28305053710938 86.60519409179688 91.44381713867188 91.44444274902344 C 86.60457611083984 96.28368377685547 80.96975708007812 100.0828857421875 74.69589996337891 102.7365036010742 C 68.20124816894531 105.4835205078125 61.30134201049805 106.8763656616211 54.1878662109375 106.8763656616211 Z" stroke="none"/>
                        <path d="M 54.1878662109375 2.999992370605469 C 47.2762336730957 2.999992370605469 40.57291412353516 4.352981567382812 34.26416778564453 7.0213623046875 C 28.16909790039062 9.599342346191406 22.69454956054688 13.29059600830078 17.99258422851562 17.99257659912109 C 13.29059600830078 22.69454193115234 9.599349975585938 28.16909790039062 7.021369934082031 34.26416015625 C 4.352981567382812 40.57292938232422 3 47.27622985839844 3 54.18849563598633 C 3 61.10012817382812 4.352981567382812 67.80344390869141 7.021369934082031 74.11219787597656 C 9.599349975585938 80.20726013183594 13.29059600830078 85.68180847167969 17.99258422851562 90.38378143310547 C 22.69454956054688 95.08576202392578 28.16909790039062 98.77701568603516 34.26416778564453 101.3549957275391 C 40.57291412353516 104.0233764648438 47.2762336730957 105.3763656616211 54.1878662109375 105.3763656616211 C 61.0994987487793 105.3763656616211 67.80281066894531 104.0233764648438 74.11156463623047 101.3549957275391 C 80.20663452148438 98.77701568603516 85.68118286132812 95.08576202392578 90.38314819335938 90.38378143310547 C 95.08512878417969 85.68180847167969 98.77638244628906 80.20726013183594 101.3543701171875 74.11219787597656 C 104.0227508544922 67.80344390869141 105.375732421875 61.10012817382812 105.375732421875 54.1878776550293 C 105.375732421875 47.27622985839844 104.0227508544922 40.57292938232422 101.3543701171875 34.26416015625 C 98.77638244628906 28.16909790039062 95.08512878417969 22.69454193115234 90.38314819335938 17.99257659912109 C 85.68118286132812 13.29059600830078 80.20663452148438 9.599342346191406 74.11156463623047 7.0213623046875 C 67.80281066894531 4.352981567382812 61.0994987487793 2.999992370605469 54.1878662109375 2.999992370605469 M 54.1878662109375 -7.62939453125e-06 C 84.11499786376953 -7.62939453125e-06 108.375732421875 24.26072692871094 108.375732421875 54.1878776550293 L 108.375732421875 54.18849563598633 C 108.375732421875 84.11563110351562 84.11499786376953 108.3763656616211 54.1878662109375 108.3763656616211 C 24.26073455810547 108.3763656616211 0 84.11563110351562 0 54.18849563598633 L 0 54.1878776550293 C 0 24.26072692871094 24.26073455810547 -7.62939453125e-06 54.1878662109375 -7.62939453125e-06 Z" stroke="none" fill="#fff"/>
                      </g>
                    </g>
                  </g>
                </g>
              </g>
            </g>
          </g>
        </g>
      </g>
    </g>
    <g id="comunidad" transform="translate(823.214 3936.723)">
      <g id="Group_1205741" data-name="Group 1205741" transform="translate(1.165 -7.632)">
        <g id="Group_1205738" data-name="Group 1205738" transform="translate(9.557)">
          <circle id="Ellipse_12795" data-name="Ellipse 12795" cx="4.662" cy="4.662" r="4.662" transform="translate(4.895)" fill="#ffd1c8"/>
          <path id="Path_1265010" data-name="Path 1265010" d="M111.114,334.178H92v-6.526a9.557,9.557,0,1,1,19.114,0Z" transform="translate(-92 -308.755)" fill="#fff"/>
        </g>
        <g id="Group_1205739" data-name="Group 1205739" transform="translate(28.671)">
          <circle id="Ellipse_12796" data-name="Ellipse 12796" cx="4.662" cy="4.662" r="4.662" transform="translate(4.895)" fill="#ffd1c8"/>
          <path id="Path_1265011" data-name="Path 1265011" d="M256,334.178h19.114v-6.526a9.557,9.557,0,1,0-19.114,0Z" transform="translate(-256 -308.755)" fill="#99ebfb"/>
        </g>
        <circle id="Ellipse_12797" data-name="Ellipse 12797" cx="4.662" cy="4.662" r="4.662" transform="translate(24.009 11.061)" fill="#ffd1c8"/>
        <circle id="Ellipse_12798" data-name="Ellipse 12798" cx="4.662" cy="4.662" r="4.662" transform="translate(43.123 11.061)" fill="#ffddd6"/>
        <path id="Path_1265012" data-name="Path 1265012" d="M193.114,423.371H174v-.816a9.557,9.557,0,1,1,19.114,0Z" transform="translate(-154.886 -392.598)" fill="#ffcf5c"/>
        <path id="Path_1265013" data-name="Path 1265013" d="M357.114,423.371H338v-.816a9.557,9.557,0,1,1,19.114,0Z" transform="translate(-299.772 -392.598)" fill="#ff9eb2"/>
        <g id="Group_1205740" data-name="Group 1205740" transform="translate(0 11.061)">
          <circle id="Ellipse_12799" data-name="Ellipse 12799" cx="4.662" cy="4.662" r="4.662" transform="translate(4.895)" fill="#ffddd6"/>
          <path id="Path_1265014" data-name="Path 1265014" d="M29.114,423.371H10v-.816a9.557,9.557,0,1,1,19.114,0Z" transform="translate(-10 -403.658)" fill="#6ae6a3"/>
        </g>
      </g>
      <g id="Group_1205744" data-name="Group 1205744" transform="translate(5.657 -40.032)">
        <g id="Group_1205742" data-name="Group 1205742" transform="translate(18.918 5.831)">
          <path id="Path_1265015" data-name="Path 1265015" d="M233.837,10.617a18.248,18.248,0,0,1-4.727,17.636,18.539,18.539,0,0,1-17.636,4.727,18.261,18.261,0,0,1,22.363-22.363Z" transform="translate(-210.855 -9.998)" fill="#6ae6a3"/>
        </g>
        <g id="Group_1205743" data-name="Group 1205743">
          <ellipse id="Ellipse_12800" data-name="Ellipse 12800" cx="9.128" cy="15.813" rx="9.128" ry="15.813" transform="translate(0 12.907) rotate(-45)" fill="#daf092"/>
        </g>
      </g>
      <g id="Group_1205745" data-name="Group 1205745" transform="translate(0 -35.366)">
        <path id="Path_1265016" data-name="Path 1265016" d="M52.91,249.119a5.825,5.825,0,0,0-6.731-9.4,10.681,10.681,0,0,0-2.823-1.668,5.827,5.827,0,1,0-7.925,0,10.664,10.664,0,0,0-2.824,1.667,5.819,5.819,0,0,0-5.542,0,10.668,10.668,0,0,0-2.824-1.668,5.827,5.827,0,1,0-7.925,0,10.665,10.665,0,0,0-2.824,1.667,5.824,5.824,0,0,0-6.73,9.4A10.74,10.74,0,0,0,0,259.084v.816a1.166,1.166,0,0,0,1.165,1.165H58.508a1.166,1.166,0,0,0,1.165-1.165v-.816a10.74,10.74,0,0,0-6.763-9.964Zm-19.114,0a5.812,5.812,0,0,0,.627-7.857,8.387,8.387,0,0,1,9.939,0,5.813,5.813,0,0,0,.628,7.857,10.787,10.787,0,0,0-5.6,5.106A10.787,10.787,0,0,0,33.8,249.119Zm-19.114,0a5.812,5.812,0,0,0,.627-7.857,8.389,8.389,0,0,1,9.939,0,5.812,5.812,0,0,0,.628,7.857,10.787,10.787,0,0,0-5.6,5.106,10.787,10.787,0,0,0-5.6-5.106Zm37.765-4.27a3.5,3.5,0,1,1-3.5-3.5A3.5,3.5,0,0,1,52.447,244.849ZM39.394,230.292a3.5,3.5,0,1,1-3.5,3.5A3.5,3.5,0,0,1,39.394,230.292Zm-6.061,14.557a3.5,3.5,0,1,1-3.5-3.5A3.5,3.5,0,0,1,33.333,244.849ZM20.28,230.292a3.5,3.5,0,1,1-3.5,3.5A3.5,3.5,0,0,1,20.28,230.292Zm-9.557,11.061a3.5,3.5,0,1,1-3.5,3.5A3.5,3.5,0,0,1,10.723,241.353ZM2.338,258.734a8.392,8.392,0,0,1,16.769,0Zm19.114,0a8.392,8.392,0,0,1,16.769,0Zm19.114,0a8.392,8.392,0,0,1,16.769,0Z" transform="translate(0 -201.393)"/>
        <path id="Path_1265017" data-name="Path 1265017" d="M90.743,12.507a1.166,1.166,0,0,0,.814-1.433,17.176,17.176,0,0,1-.2-8.323,17.089,17.089,0,0,1,20.687,19.039l-4.176-4.176v-5.73a1.165,1.165,0,1,0-2.331,0v3.4L102.3,12.039V7.805a1.165,1.165,0,1,0-2.331,0v1.9L97.653,7.4A1.166,1.166,0,0,0,96,9.045l2.312,2.312h-1.9a1.165,1.165,0,1,0,0,2.331h4.234l3.243,3.243h-3.4a1.165,1.165,0,0,0,0,2.331h5.73L110.4,23.44a17.032,17.032,0,0,1-13.694-4.126,1.166,1.166,0,0,0-1.546,1.744,19.348,19.348,0,0,0,12.852,4.881,19.609,19.609,0,0,0,5.041-.663A19.364,19.364,0,0,0,126.966,1.486a1.165,1.165,0,0,0-.825-.825,19.4,19.4,0,0,0-18.023,4.332A19.4,19.4,0,0,0,90.095.661a1.165,1.165,0,0,0-.825.825,19.506,19.506,0,0,0,.041,10.206,1.166,1.166,0,0,0,1.433.814ZM124.877,2.75A17.157,17.157,0,0,1,120.289,18.6a16.893,16.893,0,0,1-5.982,3.838,19.591,19.591,0,0,0,.232-3.176h1.378a1.165,1.165,0,1,0,0-2.331h-1.535q-.1-.8-.272-1.591l1.651-1.651H120a1.165,1.165,0,0,0,0-2.331h-1.9L120.4,9.045A1.166,1.166,0,1,0,118.755,7.4l-2.312,2.312v-1.9a1.165,1.165,0,0,0-2.331,0v4.234l-.739.739a19.419,19.419,0,0,0-3.618-6.124,17.166,17.166,0,0,1,15.121-3.9Z" transform="translate(-78.283 -0.003)"/>
        <circle id="Ellipse_12801" data-name="Ellipse 12801" cx="1.165" cy="1.165" r="1.165" transform="translate(13.095 15.017)"/>
      </g>
    </g>
  </g>
</svg>
