<svg xmlns="http://www.w3.org/2000/svg" xmlns:xlink="http://www.w3.org/1999/xlink" width="126.376" height="126.376" viewBox="0 0 126.376 126.376">
  <defs>
    <filter id="Path_874925" x="0" y="0" width="126.376" height="126.376" filterUnits="userSpaceOnUse">
      <feOffset dy="3" input="SourceAlpha"/>
      <feGaussianBlur stdDeviation="3" result="blur"/>
      <feFlood flood-opacity="0.161"/>
      <feComposite operator="in" in2="blur"/>
      <feComposite in="SourceGraphic"/>
    </filter>
  </defs>
  <g id="Group_1205748" data-name="Group 1205748" transform="translate(-1096.051 -3872)">
    <g id="Group_1205731" data-name="Group 1205731" transform="translate(359 -295)">
      <g id="Group_1205682" data-name="Group 1205682" transform="translate(461.051 -2077.874)">
        <g id="Group_1200232" data-name="Group 1200232" transform="translate(285 6250.874)">
          <g id="Group_1187153" data-name="Group 1187153">
            <g id="Group_1182177" data-name="Group 1182177">
              <g id="Group_1181903" data-name="Group 1181903">
                <g id="Group_1181438" data-name="Group 1181438">
                  <g id="Group_1111314" data-name="Group 1111314">
                    <g transform="matrix(1, 0, 0, 1, -9, -6)" filter="url(#Path_874925)">
                      <g id="Path_874925-2" data-name="Path 874925" transform="translate(9 6)" fill="#ffc94a">
                        <path d="M 54.1878662109375 106.8763656616211 C 47.07439041137695 106.8763656616211 40.17448043823242 105.4835205078125 33.67983627319336 102.7365036010742 C 27.40597343444824 100.0828857421875 21.77115821838379 96.28368377685547 16.93191146850586 91.44444274902344 C 12.09268188476562 86.60519409179688 8.293481826782227 80.97038269042969 5.639866352081299 74.696533203125 C 2.892850875854492 68.20187377929688 1.500004649162292 61.30196380615234 1.500004649162292 54.1884880065918 C 1.500004649162292 47.07439422607422 2.892850875854492 40.17448806762695 5.639866352081299 33.67982482910156 C 8.293481826782227 27.40597915649414 12.09268188476562 21.77116394042969 16.93191146850586 16.93191719055176 C 21.77115821838379 12.09267139434814 27.40597343444824 8.293471336364746 33.67983627319336 5.639855861663818 C 40.17448043823242 2.892840623855591 47.07439041137695 1.499994397163391 54.1878662109375 1.499994397163391 C 61.30134201049805 1.499994397163391 68.20124816894531 2.892840623855591 74.69589996337891 5.639855861663818 C 80.96975708007812 8.293471336364746 86.60457611083984 12.09267139434814 91.44381713867188 16.93191719055176 C 96.28305053710938 21.77116394042969 100.0822525024414 27.40597915649414 102.7358627319336 33.67982482910156 C 105.4828796386719 40.17448806762695 106.8757247924805 47.07439422607422 106.8757247924805 54.18787002563477 C 106.8757247924805 61.30196380615234 105.4828796386719 68.20187377929688 102.7358627319336 74.696533203125 C 100.0822525024414 80.97038269042969 96.28305053710938 86.60519409179688 91.44381713867188 91.44444274902344 C 86.60457611083984 96.28368377685547 80.96975708007812 100.0828857421875 74.69589996337891 102.7365036010742 C 68.20124816894531 105.4835205078125 61.30134201049805 106.8763656616211 54.1878662109375 106.8763656616211 Z" stroke="none"/>
                        <path d="M 54.1878662109375 2.999992370605469 C 47.2762336730957 2.999992370605469 40.57291412353516 4.352981567382812 34.26416778564453 7.0213623046875 C 28.16909790039062 9.599342346191406 22.69454956054688 13.29059600830078 17.99258422851562 17.99257659912109 C 13.29059600830078 22.69454193115234 9.599349975585938 28.16909790039062 7.021369934082031 34.26416015625 C 4.352981567382812 40.57292938232422 3 47.27622985839844 3 54.18849563598633 C 3 61.10012817382812 4.352981567382812 67.80344390869141 7.021369934082031 74.11219787597656 C 9.599349975585938 80.20726013183594 13.29059600830078 85.68180847167969 17.99258422851562 90.38378143310547 C 22.69454956054688 95.08576202392578 28.16909790039062 98.77701568603516 34.26416778564453 101.3549957275391 C 40.57291412353516 104.0233764648438 47.2762336730957 105.3763656616211 54.1878662109375 105.3763656616211 C 61.0994987487793 105.3763656616211 67.80281066894531 104.0233764648438 74.11156463623047 101.3549957275391 C 80.20663452148438 98.77701568603516 85.68118286132812 95.08576202392578 90.38314819335938 90.38378143310547 C 95.08512878417969 85.68180847167969 98.77638244628906 80.20726013183594 101.3543701171875 74.11219787597656 C 104.0227508544922 67.80344390869141 105.375732421875 61.10012817382812 105.375732421875 54.1878776550293 C 105.375732421875 47.27622985839844 104.0227508544922 40.57292938232422 101.3543701171875 34.26416015625 C 98.77638244628906 28.16909790039062 95.08512878417969 22.69454193115234 90.38314819335938 17.99257659912109 C 85.68118286132812 13.29059600830078 80.20663452148438 9.599342346191406 74.11156463623047 7.0213623046875 C 67.80281066894531 4.352981567382812 61.0994987487793 2.999992370605469 54.1878662109375 2.999992370605469 M 54.1878662109375 -7.62939453125e-06 C 84.11499786376953 -7.62939453125e-06 108.375732421875 24.26072692871094 108.375732421875 54.1878776550293 L 108.375732421875 54.18849563598633 C 108.375732421875 84.11563110351562 84.11499786376953 108.3763656616211 54.1878662109375 108.3763656616211 C 24.26073455810547 108.3763656616211 0 84.11563110351562 0 54.18849563598633 L 0 54.1878776550293 C 0 24.26072692871094 24.26073455810547 -7.62939453125e-06 54.1878662109375 -7.62939453125e-06 Z" stroke="none" fill="#fff"/>
                      </g>
                    </g>
                  </g>
                </g>
              </g>
            </g>
          </g>
        </g>
      </g>
    </g>
    <g id="mujer" transform="translate(1132.551 3898)">
      <path id="Path_1265018" data-name="Path 1265018" d="M53.584,357.838l-11.21-3.957a4.341,4.341,0,0,1-2.9-4.094v-5.612H26.452v5.612a4.341,4.341,0,0,1-2.9,4.094l-12.478,4.4A4.612,4.612,0,0,0,8,362.636v3.249H57.929v-1.9A6.512,6.512,0,0,0,53.584,357.838Zm0,0" transform="translate(-6.484 -297.573)" fill="#e3aa75"/>
      <path id="Path_1265019" data-name="Path 1265019" d="M144.273,349.393a16.981,16.981,0,0,0,13.025,0V344.18H144.273Zm0,0" transform="translate(-124.306 -297.576)" fill="#d29b6e"/>
      <path id="Path_1265020" data-name="Path 1265020" d="M110.536,22.7A15.2,15.2,0,1,1,95.34,7.5,15.2,15.2,0,0,1,110.536,22.7Zm0,0" transform="translate(-68.86 -6.484)" fill="#c38c66"/>
      <path id="Path_1265021" data-name="Path 1265021" d="M79.275,68.872a19.209,19.209,0,0,0,2.037-8.683,20.623,20.623,0,0,0-41.246,0A19.209,19.209,0,0,0,42.1,68.872Zm0,0" transform="translate(-34.209 -34.209)" fill="#b57f5f"/>
      <path id="Path_1265022" data-name="Path 1265022" d="M60.689,84.091V72.617a29.184,29.184,0,0,1-7.922-5.135c-2.276-2.138-2.812-3.814-2.932-5.1-.339-3.629,1.243-5.214,1.243-5.214A20.611,20.611,0,0,0,40.066,75.407,19.2,19.2,0,0,0,42.1,84.091Zm0,0" transform="translate(-34.209 -49.427)" fill="#9f6e50"/>
      <path id="Path_1265023" data-name="Path 1265023" d="M97.218,148.935H95.59V147.85a14.094,14.094,0,0,0-.659-4.262,32.068,32.068,0,0,1-20.987-7.655,14.087,14.087,0,0,0-6.576,11.916v1.085h-.543a2.713,2.713,0,1,0,0,5.427h.6a14.1,14.1,0,0,0,28.111,0h1.683a2.713,2.713,0,1,0,0-5.427Zm0,0" transform="translate(-55 -117.528)" fill="#f5b97d"/>
      <g id="Group_1205747" data-name="Group 1205747" transform="translate(10.197 58.543)">
        <path id="Path_1265024" data-name="Path 1265024" d="M192.371,442.151h16.281v-9.764C206.2,438.087,199.838,442.151,192.371,442.151Zm0,0" transform="translate(-176.088 -432.382)" fill="#ffe09f"/>
        <path id="Path_1265025" data-name="Path 1265025" d="M72.117,432.355l0,0v0Zm0,0" transform="translate(-72.117 -432.355)" fill="#ffe09f"/>
        <path id="Path_1265026" data-name="Path 1265026" d="M72.129,432.383v9.765H88.41C80.943,442.148,74.577,438.083,72.129,432.383Zm0,0" transform="translate(-72.127 -432.379)" fill="#ffe09f"/>
      </g>
      <path id="Path_1265027" data-name="Path 1265027" d="M60.439,418.495a2.171,2.171,0,1,1-2.171-2.171A2.17,2.17,0,0,1,60.439,418.495Zm0,0" transform="translate(-48.07 -359.952)" fill="#f6d190"/>
      <path id="Path_1265028" data-name="Path 1265028" d="M300.923,418.495a2.171,2.171,0,1,1-2.171-2.171A2.17,2.17,0,0,1,300.923,418.495Zm0,0" transform="translate(-255.991 -359.952)" fill="#f6d190"/>
      <path id="Path_1265029" data-name="Path 1265029" d="M88.479,143.662a33.812,33.812,0,0,1-21.451-7.643c-.193.123-.388.243-.575.375l-.008-.01c-.043.03-.081.068-.124.1-.372.269-.734.551-1.077.854l0,0a13.864,13.864,0,0,0-4.805,10.586v1.085H58.812a2.713,2.713,0,1,0,0,5.427h1.682a14.01,14.01,0,0,0,16.234,12.842,14.1,14.1,0,0,1-11.947-13.928V142.205a2.014,2.014,0,0,1,.684-1.512l.023-.021a2.021,2.021,0,0,1,2.51-.116,34.741,34.741,0,0,0,20.485,6.281s0-1,0-1.007C88.377,145.086,88.7,144.365,88.479,143.662Zm0,0" transform="translate(-48.07 -117.602)" fill="#e3aa75"/>
      <path id="Path_1265030" data-name="Path 1265030" d="M47.438,59.307l-1.5-.529c.006-.078.01-.157.01-.236a3.185,3.185,0,0,0-5.806-1.81l-3.914-1.381a3.332,3.332,0,0,1-2.219-3.137V48.865A15.16,15.16,0,0,0,41.459,37.85h.76a3.733,3.733,0,0,0,3.729-3.729c0-.113-.006-.224-.015-.334a12.662,12.662,0,0,0,2.187-7.806,21.572,21.572,0,0,0-6.424-15.371,16.216,16.216,0,0,0-30.433,0A21.57,21.57,0,0,0,4.842,25.98a12.659,12.659,0,0,0,2.187,7.8c-.01.111-.016.223-.016.336a3.733,3.733,0,0,0,3.729,3.729h.76a15.16,15.16,0,0,0,7.451,11.015v3.35a3.332,3.332,0,0,1-2.219,3.137l-3.914,1.382a3.185,3.185,0,0,0-5.807,1.81c0,.079,0,.158.01.236l-1.5.529A7.54,7.54,0,0,0,.5,66.407v1.9a1.016,1.016,0,0,0,2.031,0v-1.9A5.506,5.506,0,0,1,6.2,61.223l1.615-.57a3.2,3.2,0,0,0,1.369.91v6.749a1.016,1.016,0,0,0,2.031,0v-5.83a15.037,15.037,0,0,0,5.392,4.539,21.474,21.474,0,0,0,9.873,2.307,21.476,21.476,0,0,0,9.871-2.306,15.037,15.037,0,0,0,5.394-4.54v5.83a1.016,1.016,0,0,0,2.031,0V61.562a3.2,3.2,0,0,0,1.369-.91l1.615.57a5.506,5.506,0,0,1,3.668,5.184v1.9a1.016,1.016,0,0,0,2.031,0v-1.9A7.54,7.54,0,0,0,47.438,59.307ZM10.2,59.7a1.155,1.155,0,1,1,1.155-1.155A1.157,1.157,0,0,1,10.2,59.7ZM26.48,2.031a14.21,14.21,0,0,1,11.134,5.4,21.6,21.6,0,0,0-22.262,0A14.241,14.241,0,0,1,26.48,2.031ZM13.386,35.789a1.044,1.044,0,0,0-.979-1.056,1.016,1.016,0,0,0-1.052,1.015c0,.023,0,.047,0,.07h-.564a1.731,1.731,0,0,1-1.74-1.534,1.7,1.7,0,0,1,1.69-1.861h1.374a1.186,1.186,0,0,0,.9-.23,1.025,1.025,0,0,0,.372-.793V30.321a12.5,12.5,0,0,1,2.985-8.351,1.044,1.044,0,0,0-.055-1.438,1.016,1.016,0,0,0-1.46.085,14.476,14.476,0,0,0-3.5,9.7v.07h-.612a3.718,3.718,0,0,0-2.714,1.176A11.9,11.9,0,0,1,6.873,25.98a19.607,19.607,0,1,1,39.215,0,11.905,11.905,0,0,1-1.154,5.588,3.718,3.718,0,0,0-2.715-1.177h-.612V27.065s0-.007,0-.011l1.16-.036a1.045,1.045,0,0,0,1.011-1.038h0A17.3,17.3,0,0,0,9.4,23.209a1.015,1.015,0,1,0,2,.323,15.267,15.267,0,0,1,30.305,1.486A32.612,32.612,0,0,1,24.741,21.2a25.1,25.1,0,0,1-6.186-4.577,1.016,1.016,0,0,0-1.517,1.35,26.475,26.475,0,0,0,6.647,4.964,34.335,34.335,0,0,0,15.89,4.136V31.4a1.014,1.014,0,0,0,.529.9c.228.124.231.125,1.3.124h.763a1.731,1.731,0,0,1,1.741,1.534,1.7,1.7,0,0,1-1.69,1.862h-.614c0-.023,0-.047,0-.07a1.016,1.016,0,0,0-1.053-1.015,1.044,1.044,0,0,0-.979,1.056,13.095,13.095,0,0,1-26.19,0ZM26.48,67.3c-6.064,0-11.556-2.6-13.981-6.551a3.177,3.177,0,0,0,.883-2.057l4.027-1.421a5.366,5.366,0,0,0,3.574-5.052V49.84a15.12,15.12,0,0,0,10.994,0v2.374a5.366,5.366,0,0,0,3.574,5.052l4.027,1.421a3.173,3.173,0,0,0,.883,2.056C38.037,64.691,32.544,67.3,26.48,67.3Zm16.281-7.6a1.155,1.155,0,1,1,1.156-1.155A1.157,1.157,0,0,1,42.761,59.7Zm0,0"/>
      <path id="Path_1265031" data-name="Path 1265031" d="M169.065,298.336a1.016,1.016,0,0,0-1.426-1.446,4.475,4.475,0,0,1-5.086,0,1.016,1.016,0,0,0-1.427,1.446,6.407,6.407,0,0,0,7.939,0Zm0,0" transform="translate(-138.615 -256.437)"/>
      <path id="Path_1265032" data-name="Path 1265032" d="M137.789,232.469a1.015,1.015,0,0,0-1.016,1.016v1.085a1.016,1.016,0,0,0,2.031,0v-1.085A1.015,1.015,0,0,0,137.789,232.469Zm0,0" transform="translate(-117.821 -200.992)"/>
      <path id="Path_1265033" data-name="Path 1265033" d="M233.984,232.469a1.015,1.015,0,0,0-1.016,1.016v1.085a1.016,1.016,0,0,0,2.031,0v-1.085A1.015,1.015,0,0,0,233.984,232.469Zm0,0" transform="translate(-200.992 -200.992)"/>
      <path id="Path_1265034" data-name="Path 1265034" d="M131.96,208.249l-2.171-.027a1.016,1.016,0,0,0-.025,2.031l2.171.026h.013a1.015,1.015,0,0,0,.012-2.031Zm0,0" transform="translate(-110.894 -180.028)"/>
      <path id="Path_1265035" data-name="Path 1265035" d="M225.968,210.28h.013l2.171-.026a1.016,1.016,0,0,0-.025-2.031l-2.171.027a1.015,1.015,0,0,0,.012,2.031Zm0,0" transform="translate(-194.061 -180.028)"/>
    </g>
  </g>
</svg>
