<svg xmlns="http://www.w3.org/2000/svg" xmlns:xlink="http://www.w3.org/1999/xlink" width="126.376" height="126.376" viewBox="0 0 126.376 126.376">
  <defs>
    <filter id="Path_874925" x="0" y="0" width="126.376" height="126.376" filterUnits="userSpaceOnUse">
      <feOffset dy="3" input="SourceAlpha"/>
      <feGaussianBlur stdDeviation="3" result="blur"/>
      <feFlood flood-opacity="0.161"/>
      <feComposite operator="in" in2="blur"/>
      <feComposite in="SourceGraphic"/>
    </filter>
  </defs>
  <g id="Group_1205773" data-name="Group 1205773" transform="translate(1358 7736)">
    <g id="Group_1205733" data-name="Group 1205733" transform="translate(-2095.051 -11903)">
      <g id="Group_1205682" data-name="Group 1205682" transform="translate(461.051 -2077.874)">
        <g id="Group_1200232" data-name="Group 1200232" transform="translate(285 6250.874)">
          <g id="Group_1187153" data-name="Group 1187153">
            <g id="Group_1182177" data-name="Group 1182177">
              <g id="Group_1181903" data-name="Group 1181903">
                <g id="Group_1181438" data-name="Group 1181438">
                  <g id="Group_1111314" data-name="Group 1111314">
                    <g transform="matrix(1, 0, 0, 1, -9, -6)" filter="url(#Path_874925)">
                      <g id="Path_874925-2" data-name="Path 874925" transform="translate(9 6)" fill="#ffc94a">
                        <path d="M 54.1878662109375 106.8763656616211 C 47.07439041137695 106.8763656616211 40.17448043823242 105.4835205078125 33.67983627319336 102.7365036010742 C 27.40597343444824 100.0828857421875 21.77115821838379 96.28368377685547 16.93191146850586 91.44444274902344 C 12.09268188476562 86.60519409179688 8.293481826782227 80.97038269042969 5.639866352081299 74.696533203125 C 2.892850875854492 68.20187377929688 1.500004649162292 61.30196380615234 1.500004649162292 54.1884880065918 C 1.500004649162292 47.07439422607422 2.892850875854492 40.17448806762695 5.639866352081299 33.67982482910156 C 8.293481826782227 27.40597915649414 12.09268188476562 21.77116394042969 16.93191146850586 16.93191719055176 C 21.77115821838379 12.09267139434814 27.40597343444824 8.293471336364746 33.67983627319336 5.639855861663818 C 40.17448043823242 2.892840623855591 47.07439041137695 1.499994397163391 54.1878662109375 1.499994397163391 C 61.30134201049805 1.499994397163391 68.20124816894531 2.892840623855591 74.69589996337891 5.639855861663818 C 80.96975708007812 8.293471336364746 86.60457611083984 12.09267139434814 91.44381713867188 16.93191719055176 C 96.28305053710938 21.77116394042969 100.0822525024414 27.40597915649414 102.7358627319336 33.67982482910156 C 105.4828796386719 40.17448806762695 106.8757247924805 47.07439422607422 106.8757247924805 54.18787002563477 C 106.8757247924805 61.30196380615234 105.4828796386719 68.20187377929688 102.7358627319336 74.696533203125 C 100.0822525024414 80.97038269042969 96.28305053710938 86.60519409179688 91.44381713867188 91.44444274902344 C 86.60457611083984 96.28368377685547 80.96975708007812 100.0828857421875 74.69589996337891 102.7365036010742 C 68.20124816894531 105.4835205078125 61.30134201049805 106.8763656616211 54.1878662109375 106.8763656616211 Z" stroke="none"/>
                        <path d="M 54.1878662109375 2.999992370605469 C 47.2762336730957 2.999992370605469 40.57291412353516 4.352981567382812 34.26416778564453 7.0213623046875 C 28.16909790039062 9.599342346191406 22.69454956054688 13.29059600830078 17.99258422851562 17.99257659912109 C 13.29059600830078 22.69454193115234 9.599349975585938 28.16909790039062 7.021369934082031 34.26416015625 C 4.352981567382812 40.57292938232422 3 47.27622985839844 3 54.18849563598633 C 3 61.10012817382812 4.352981567382812 67.80344390869141 7.021369934082031 74.11219787597656 C 9.599349975585938 80.20726013183594 13.29059600830078 85.68180847167969 17.99258422851562 90.38378143310547 C 22.69454956054688 95.08576202392578 28.16909790039062 98.77701568603516 34.26416778564453 101.3549957275391 C 40.57291412353516 104.0233764648438 47.2762336730957 105.3763656616211 54.1878662109375 105.3763656616211 C 61.0994987487793 105.3763656616211 67.80281066894531 104.0233764648438 74.11156463623047 101.3549957275391 C 80.20663452148438 98.77701568603516 85.68118286132812 95.08576202392578 90.38314819335938 90.38378143310547 C 95.08512878417969 85.68180847167969 98.77638244628906 80.20726013183594 101.3543701171875 74.11219787597656 C 104.0227508544922 67.80344390869141 105.375732421875 61.10012817382812 105.375732421875 54.1878776550293 C 105.375732421875 47.27622985839844 104.0227508544922 40.57292938232422 101.3543701171875 34.26416015625 C 98.77638244628906 28.16909790039062 95.08512878417969 22.69454193115234 90.38314819335938 17.99257659912109 C 85.68118286132812 13.29059600830078 80.20663452148438 9.599342346191406 74.11156463623047 7.0213623046875 C 67.80281066894531 4.352981567382812 61.0994987487793 2.999992370605469 54.1878662109375 2.999992370605469 M 54.1878662109375 -7.62939453125e-06 C 84.11499786376953 -7.62939453125e-06 108.375732421875 24.26072692871094 108.375732421875 54.1878776550293 L 108.375732421875 54.18849563598633 C 108.375732421875 84.11563110351562 84.11499786376953 108.3763656616211 54.1878662109375 108.3763656616211 C 24.26073455810547 108.3763656616211 0 84.11563110351562 0 54.18849563598633 L 0 54.1878776550293 C 0 24.26072692871094 24.26073455810547 -7.62939453125e-06 54.1878662109375 -7.62939453125e-06 Z" stroke="none" fill="#fff"/>
                      </g>
                    </g>
                  </g>
                </g>
              </g>
            </g>
          </g>
        </g>
      </g>
    </g>
    <g id="sistema" transform="translate(-1325 -7707)">
      <g id="Group_1205771" data-name="Group 1205771">
        <g id="Group_1205758" data-name="Group 1205758">
          <path id="Path_1265065" data-name="Path 1265065" d="M45,45a4,4,0,0,0-4,4H40a2.993,2.993,0,0,0-2.12.88A9,9,0,0,1,46,37h3.39a11.872,11.872,0,0,0,6.25-1.78c.12-.07.24-.14.36-.22l1.82,1.82a10.865,10.865,0,0,1,1.93,12.74A3.016,3.016,0,0,0,58,49H57a2.006,2.006,0,0,0-2-2H47A2.006,2.006,0,0,1,45,45Z" fill="#b27946"/>
        </g>
        <g id="Group_1205759" data-name="Group 1205759">
          <path id="Path_1265066" data-name="Path 1265066" d="M11.93,10.59l-3.17.18a4.007,4.007,0,0,0-3.76,4V15H4a2.994,2.994,0,0,0-1.67.51A9.628,9.628,0,0,1,10.62,1h2.91A7.241,7.241,0,0,1,20,5l.12.02A6.077,6.077,0,0,1,25,10.98a10.071,10.071,0,0,1-1.15,4.66A2.984,2.984,0,0,0,22,15H21V13a4.479,4.479,0,0,1-2.48-.76,4.382,4.382,0,0,1-1.51-1.76H17v.28A3.613,3.613,0,0,1,15,14l-.33-1a3.633,3.633,0,0,0-2.74-2.41Z" fill="#b27946"/>
        </g>
        <g id="Group_1205760" data-name="Group 1205760">
          <path id="Path_1265067" data-name="Path 1265067" d="M47.98,10.96l-.05.04H45a4,4,0,0,0-4,4v5a6.844,6.844,0,0,0,.68,3l-1.52-.32A4.013,4.013,0,0,1,37,18.76V13a12,12,0,1,1,24,0v5.76a4.013,4.013,0,0,1-3.16,3.92L56.32,23A6.844,6.844,0,0,0,57,20V16a3,3,0,0,0-3-3H52a4.957,4.957,0,0,1-4.02-2.04Z" fill="#656d78"/>
        </g>
        <g id="Group_1205761" data-name="Group 1205761">
          <path id="Path_1265068" data-name="Path 1265068" d="M7.01,38.04A12.006,12.006,0,0,1,27,47v1.29a15.731,15.731,0,0,0,1.66,7.03A3.332,3.332,0,0,1,29,56.76,3.239,3.239,0,0,1,25.76,60H19.61A6.98,6.98,0,0,0,23,54V49a2.006,2.006,0,0,0-2-2H16l-2-3-2,3H9a2.006,2.006,0,0,0-2,2v5a6.98,6.98,0,0,0,3.39,6H4.24A3.244,3.244,0,0,1,1,56.76a3.277,3.277,0,0,1,.34-1.44A15.731,15.731,0,0,0,3,48.29V47a11.962,11.962,0,0,1,3.51-8.49C6.67,38.35,6.84,38.19,7.01,38.04Z" fill="#fcd770"/>
        </g>
        <g id="Group_1205762" data-name="Group 1205762">
          <path id="Path_1265069" data-name="Path 1265069" d="M23,49v5a6.994,6.994,0,0,1-7,7H14a6.994,6.994,0,0,1-7-7V49a2.006,2.006,0,0,1,2-2h3l2-3,2,3h5A2.006,2.006,0,0,1,23,49Z" fill="#f0d0b4"/>
        </g>
        <g id="Group_1205763" data-name="Group 1205763">
          <path id="Path_1265070" data-name="Path 1265070" d="M60.12,54.12A2.993,2.993,0,0,1,58,55H57l-.08-.01A5.365,5.365,0,0,0,57,54V49h1a3,3,0,0,1,2.12,5.12Z" fill="#f0d0b4"/>
        </g>
        <g id="Group_1205764" data-name="Group 1205764">
          <path id="Path_1265071" data-name="Path 1265071" d="M41,54a5.365,5.365,0,0,0,.08.99L41,55H40a2.949,2.949,0,0,1-1.19-.25,2.835,2.835,0,0,1-.93-.63A3,3,0,0,1,40,49h1Z" fill="#f0d0b4"/>
        </g>
        <g id="Group_1205765" data-name="Group 1205765">
          <path id="Path_1265072" data-name="Path 1265072" d="M57,49v5a5.365,5.365,0,0,1-.08.99A6.98,6.98,0,0,1,50,61H48a6.98,6.98,0,0,1-6.92-6.01A5.365,5.365,0,0,1,41,54V49a4,4,0,0,1,4-4,2.006,2.006,0,0,0,2,2h8a2.006,2.006,0,0,1,2,2Z" fill="#f0d0b4"/>
        </g>
        <g id="Group_1205766" data-name="Group 1205766">
          <path id="Path_1265073" data-name="Path 1265073" d="M57,16v4a6.844,6.844,0,0,1-.68,3,6.279,6.279,0,0,1-1.13,1.68A6.889,6.889,0,0,1,50,27H48a6.97,6.97,0,0,1-6.32-4A6.844,6.844,0,0,1,41,20V15a4,4,0,0,1,4-4h2.93l.05-.04A4.957,4.957,0,0,0,52,13h2A3,3,0,0,1,57,16Z" fill="#f0d0b4"/>
        </g>
        <g id="Group_1205767" data-name="Group 1205767">
          <path id="Path_1265074" data-name="Path 1265074" d="M24.12,20.12A2.993,2.993,0,0,1,22,21H21l-.08-.01A5.365,5.365,0,0,0,21,20V15h1a3,3,0,0,1,2.12,5.12Z" fill="#f0d0b4"/>
        </g>
        <g id="Group_1205768" data-name="Group 1205768">
          <path id="Path_1265075" data-name="Path 1265075" d="M18.52,12.24A4.479,4.479,0,0,0,21,13v7a5.365,5.365,0,0,1-.08.99A6.98,6.98,0,0,1,14,27H12a6.889,6.889,0,0,1-5.19-2.32,6.749,6.749,0,0,1-1.73-3.69A5.365,5.365,0,0,1,5,20V14.77a4.007,4.007,0,0,1,3.76-4l3.17-.18A3.633,3.633,0,0,1,14.67,13L15,14a3.613,3.613,0,0,0,2-3.24v-.28h.01a4.382,4.382,0,0,0,1.51,1.76Z" fill="#f0d0b4"/>
        </g>
        <g id="Group_1205769" data-name="Group 1205769">
          <path id="Path_1265076" data-name="Path 1265076" d="M5,20a5.365,5.365,0,0,0,.08.99L5,21H4a3,3,0,0,1,0-6H5Z" fill="#f0d0b4"/>
        </g>
        <g id="Group_1205770" data-name="Group 1205770">
          <path id="Path_1265077" data-name="Path 1265077" d="M21.56,32.81l-.51-2.54a3.287,3.287,0,0,1-.05-.54A2.727,2.727,0,0,1,23.73,27H38.27A2.727,2.727,0,0,1,41,29.73a3.072,3.072,0,0,1-.05.53l-.51,2.55a2.739,2.739,0,0,1-2.68,2.2H33.88L31.4,38.45a1.325,1.325,0,0,1-2.4-.77V35H24.24a2.74,2.74,0,0,1-2.68-2.19Z" fill="#e6e9ed"/>
        </g>
      </g>
      <g id="Group_1205772" data-name="Group 1205772">
        <path id="Path_1265078" data-name="Path 1265078" d="M17.33,21.5l-1.73-1a3,3,0,0,1-5.2,0l-1.73,1a5,5,0,0,0,8.66,0Z"/>
        <path id="Path_1265079" data-name="Path 1265079" d="M49,56a3.016,3.016,0,0,1-2.6-1.5l-1.73,1a5,5,0,0,0,8.66,0l-1.73-1A3.016,3.016,0,0,1,49,56Z"/>
        <path id="Path_1265080" data-name="Path 1265080" d="M49,22a3.015,3.015,0,0,1-2.6-1.5l-1.73,1a5,5,0,0,0,8.66,0l-1.73-1A3.015,3.015,0,0,1,49,22Z"/>
        <path id="Path_1265081" data-name="Path 1265081" d="M15,56a3.016,3.016,0,0,1-2.6-1.5l-1.73,1a5,5,0,0,0,8.66,0l-1.73-1A3.016,3.016,0,0,1,15,56Z"/>
        <path id="Path_1265082" data-name="Path 1265082" d="M41.419,33.01l.509-2.549A3.732,3.732,0,0,0,38.271,26H23.729a3.732,3.732,0,0,0-3.657,4.461L20.581,33a3.739,3.739,0,0,0,3.657,3H28v1.677a2.324,2.324,0,0,0,4.208,1.359l2.181-3.026h3.373A3.74,3.74,0,0,0,41.419,33.01Zm-8.054,1-2.779,3.855A.335.335,0,0,1,30,37.677V34H24.238a1.734,1.734,0,0,1-1.7-1.391l-.509-2.54a1.75,1.75,0,0,1-.033-.34A1.731,1.731,0,0,1,23.729,28H38.27A1.731,1.731,0,0,1,40,29.73a1.755,1.755,0,0,1-.033.339l-.509,2.549a1.734,1.734,0,0,1-1.7,1.392Z"/>
        <path id="Path_1265083" data-name="Path 1265083" d="M32,30h2v2H32Z"/>
        <path id="Path_1265084" data-name="Path 1265084" d="M36,30h2v2H36Z"/>
        <path id="Path_1265085" data-name="Path 1265085" d="M24,30h2v2H24Z"/>
        <path id="Path_1265086" data-name="Path 1265086" d="M28,30h2v2H28Z"/>
        <path id="Path_1265087" data-name="Path 1265087" d="M58.045,23.654A5.025,5.025,0,0,0,62,18.764V13A12.989,12.989,0,0,0,38.067,5.994,26.242,26.242,0,0,0,23.915,6a7.044,7.044,0,0,0-3.251-1.874A8.188,8.188,0,0,0,13.528,0h-2.9a10.582,10.582,0,0,0-9.53,15.268A3.988,3.988,0,0,0,4,22h.263a7.979,7.979,0,0,0,1.459,2.943A25.657,25.657,0,0,0,5.9,37.73,12.954,12.954,0,0,0,2,47v1.292A14.771,14.771,0,0,1,.447,54.869,4.237,4.237,0,0,0,4.236,61h5.9A7.942,7.942,0,0,0,14,62h2a7.939,7.939,0,0,0,3.864-1h5.9a4.231,4.231,0,0,0,4.215-4.024c.351.015.691.024,1.023.024a25.939,25.939,0,0,0,7.792-1.207A3.936,3.936,0,0,0,40,56h.263A8.007,8.007,0,0,0,48,62h2a8.008,8.008,0,0,0,7.737-6H58a3.983,3.983,0,0,0,2.951-6.677,11.777,11.777,0,0,0-2.426-13.212l-1.768-1.768a24.743,24.743,0,0,0-.48-9.4,8.059,8.059,0,0,0,.713-1.064ZM50,26H48a6.006,6.006,0,0,1-6-6V15a3,3,0,0,1,3-3h2.531A5.987,5.987,0,0,0,52,14h2a2,2,0,0,1,2,2v4A6.006,6.006,0,0,1,50,26ZM49,2A11.013,11.013,0,0,1,60,13v5.765a3.009,3.009,0,0,1-2.169,2.871A8.021,8.021,0,0,0,58,20V16a4,4,0,0,0-4-4H52a4,4,0,0,1-4-4H46a5.972,5.972,0,0,0,.343,2H45a5.006,5.006,0,0,0-5,5v5a8.021,8.021,0,0,0,.169,1.636A3.011,3.011,0,0,1,38,18.765V13A11.013,11.013,0,0,1,49,2ZM22,16a2,2,0,0,1,0,4ZM2,18a2,2,0,0,1,2-2v4A2,2,0,0,1,2,18Zm2.075-4H4a3.952,3.952,0,0,0-1.206.206A8.6,8.6,0,0,1,10.624,2h2.9A6.2,6.2,0,0,1,19.1,5.447l.219.438.6.118A5.089,5.089,0,0,1,24,10.979a9.026,9.026,0,0,1-.626,3.28A3.95,3.95,0,0,0,22,14V12H21a3.416,3.416,0,0,1-3.186-2.157l-.886-2.214-1.857.743.886,2.214c.013.031.03.059.043.09v.088a2.612,2.612,0,0,1-.519,1.568,4.656,4.656,0,0,0-3.357-2.727A2.649,2.649,0,0,1,10,7.015V5H8V7.015a4.613,4.613,0,0,0,.923,2.749L8.7,9.777A5,5,0,0,0,4.075,14ZM6,20V14.768a3,3,0,0,1,2.82-2.995l2.993-.179a2.644,2.644,0,0,1,1.907,1.727l.7,2.089,1.031-.516a4.6,4.6,0,0,0,2.1-2.133A5.384,5.384,0,0,0,20,13.908V20a6.006,6.006,0,0,1-6,6H12A6.006,6.006,0,0,1,6,20Zm8,40a6.006,6.006,0,0,1-6-6V49a1,1,0,0,1,1-1h3a1,1,0,0,0,.832-.445L14,45.8l1.168,1.752A1,1,0,0,0,16,48h5a1,1,0,0,1,1,1v5a6.006,6.006,0,0,1-6,6Zm11.764-1H22.235A7.956,7.956,0,0,0,24,54V49a3,3,0,0,0-3-3H16.535l-1.7-2.555a1.037,1.037,0,0,0-1.664,0L11.465,46H9a3,3,0,0,0-3,3v5a7.956,7.956,0,0,0,1.765,5H4.236a2.236,2.236,0,0,1-2-3.236A16.787,16.787,0,0,0,4,48.292V47a11,11,0,0,1,22,0v1.292a16.787,16.787,0,0,0,1.764,7.472,2.236,2.236,0,0,1-2,3.236Zm3.823-4.051c-.012-.026-.021-.054-.034-.08A14.771,14.771,0,0,1,28,48.292V47A12.985,12.985,0,0,0,7.605,36.322a23.834,23.834,0,0,1-.188-9.775A7.946,7.946,0,0,0,12,28h2a8.008,8.008,0,0,0,7.737-6H22a4,4,0,0,0,4-4,3.961,3.961,0,0,0-.963-2.573A11.01,11.01,0,0,0,26,10.979a7.023,7.023,0,0,0-.81-3.255,24.248,24.248,0,0,1,11.9.076A12.91,12.91,0,0,0,36,13v5.765a5.026,5.026,0,0,0,3.955,4.89l1.054.225A8,8,0,0,0,48,28h2a7.946,7.946,0,0,0,4.583-1.453,23.319,23.319,0,0,1,.125,8.07A10.873,10.873,0,0,1,49.4,36H46a9.965,9.965,0,0,0-9.27,13.709,3.958,3.958,0,0,0,.008,4.592A23.914,23.914,0,0,1,31,55c-.448,0-.921-.021-1.413-.051ZM38,52a2,2,0,0,1,2-2v4A2,2,0,0,1,38,52Zm18,2a6.006,6.006,0,0,1-6,6H48a6.006,6.006,0,0,1-6-6V49a3.005,3.005,0,0,1,2.211-2.9A3,3,0,0,0,47,48h8a1,1,0,0,1,1,1Zm2,0V50a2,2,0,0,1,0,4Zm2-9.5a9.9,9.9,0,0,1-.742,3.722A3.949,3.949,0,0,0,58,48h-.184A3,3,0,0,0,55,46H47a1,1,0,0,1,0-2h1V42H47a3.006,3.006,0,0,0-2.854,2.073A5.011,5.011,0,0,0,40.108,48H40a3.965,3.965,0,0,0-1.633.357A7.967,7.967,0,0,1,46,38h3.4a12.868,12.868,0,0,0,6.459-1.732l1.258,1.258A9.8,9.8,0,0,1,60,44.5Z"/>
      </g>
    </g>
  </g>
</svg>
