<svg xmlns="http://www.w3.org/2000/svg" xmlns:xlink="http://www.w3.org/1999/xlink" width="420.275" height="229.303" viewBox="0 0 420.275 229.303">
  <defs>
    <clipPath id="clip-path">
      <rect id="Rectangle_411798" data-name="Rectangle 411798" width="206.504" height="206.663" fill="none"/>
    </clipPath>
  </defs>
  <g id="Group_1205776" data-name="Group 1205776" transform="translate(-285 -586.275)">
    <rect id="Rectangle_411797" data-name="Rectangle 411797" width="420.275" height="229.303" transform="translate(285 586.275)" fill="#5a8441"/>
    <g id="Group_1205775" data-name="Group 1205775" transform="translate(377.066 608.916)">
      <g id="Group_1205774" data-name="Group 1205774" clip-path="url(#clip-path)">
        <path id="Path_1265088" data-name="Path 1265088" d="M363.276,105.551A53.87,53.87,0,1,1,256.7,89.745c.252-1.7.584-3.371.984-5A53.872,53.872,0,0,1,363.371,104.88c-.029.223-.062.445-.1.671" transform="translate(-175.785 -30.046)" fill="#fff"/>
        <path id="Path_1265089" data-name="Path 1265089" d="M309.081,151.061a54.271,54.271,0,0,1-53.659-62.234c.249-1.675.582-3.37.991-5.037a53.76,53.76,0,0,1,18.051-28.773,54.351,54.351,0,0,1,42.6-11.908,54.274,54.274,0,0,1,45.822,60.966c-.028.214-.06.429-.092.647l0,.028a54.264,54.264,0,0,1-53.711,46.309m.049-107.733a53.559,53.559,0,0,0-34.154,12.308,52.961,52.961,0,0,0-17.784,28.345c-.4,1.643-.731,3.313-.976,4.964A53.469,53.469,0,1,0,362,104.634l0-.028c.031-.214.063-.425.091-.636A53.458,53.458,0,0,0,309.13,43.328m53.265,61.364h0Z" transform="translate(-174.904 -29.187)" fill="#231f20"/>
        <path id="Path_1265090" data-name="Path 1265090" d="M368.01,302.9a53.893,53.893,0,0,1-13.126-3.678c-.01-3.283,3.594-5.791,3.676-9.1.12-4.985-7.573-8.178-6.241-12.983.741-2.694,4.138-3.8,6.882-3.27s5.115,2.2,7.681,3.309,5.771,1.587,7.994-.116c2.911-2.235,2.581-6.887,5-9.648,2.879-3.274,8.207-2.474,12.153-.611s7.831,4.565,12.183,4.279c4.628-.3,8.381-3.945,12.9-4.99a11.92,11.92,0,0,1,9.4,2.027A53.887,53.887,0,0,1,368.01,302.9" transform="translate(-241.713 -182.009)" fill="#bccdb2"/>
        <path id="Path_1265091" data-name="Path 1265091" d="M375.01,302.971a54.44,54.44,0,0,1-21.162-4.29.4.4,0,0,1-.245-.368c-.006-1.773.958-3.309,1.889-4.795a8.888,8.888,0,0,0,1.787-4.32c.053-2.2-1.6-4.115-3.2-5.962-1.863-2.153-3.789-4.381-3.03-7.119.8-2.923,4.44-4.123,7.346-3.557a19.964,19.964,0,0,1,5.272,2.117c.811.42,1.651.854,2.492,1.217,1.443.624,5.068,1.867,7.59-.066,1.485-1.141,2.077-2.972,2.7-4.91a12.851,12.851,0,0,1,2.245-4.684c3.057-3.474,8.527-2.645,12.626-.709.849.4,1.707.845,2.537,1.276,3.018,1.565,6.141,3.182,9.449,2.966,2.5-.164,4.717-1.325,7.064-2.554a24.706,24.706,0,0,1,5.777-2.426,12.269,12.269,0,0,1,9.718,2.089.4.4,0,0,1,.147.467,54.282,54.282,0,0,1-51.005,35.629m-20.6-4.924a53.535,53.535,0,0,0,70.739-30.687,11.411,11.411,0,0,0-8.822-1.791,24.119,24.119,0,0,0-5.585,2.355c-2.317,1.214-4.714,2.469-7.384,2.644-3.532.232-6.756-1.439-9.871-3.054-.823-.427-1.674-.868-2.509-1.262-3.66-1.728-8.915-2.63-11.68.513a12.258,12.258,0,0,0-2.084,4.4c-.636,1.97-1.294,4.007-2.978,5.3-2.862,2.193-6.826.847-8.4.166-.867-.374-1.718-.815-2.543-1.241a19.052,19.052,0,0,0-5.056-2.042c-2.553-.5-5.735.5-6.418,2.982-.644,2.324,1.059,4.294,2.863,6.379,1.7,1.963,3.453,3.993,3.393,6.507a9.6,9.6,0,0,1-1.909,4.728,9.146,9.146,0,0,0-1.759,4.1" transform="translate(-240.833 -181.098)" fill="#231f20"/>
        <path id="Path_1265092" data-name="Path 1265092" d="M330.392,70.2a4.932,4.932,0,0,1-3.874-2.905c-1.039-2.431-.028-5.5-1.5-7.692-1.438-2.139-4.409-2.326-6.772-3.418a53.9,53.9,0,0,1,64.915-2.932c-.039.13-.072.257-.111.388a7.77,7.77,0,0,1-5.064,5.446c-5.077,1.358-10.444-4.172-15.272-2.094-2.271.98-3.548,3.34-4.862,5.432s-3.175,4.244-5.643,4.321c-2.616.085-4.62-2.153-6.476-4s-4.647-3.546-6.929-2.261c-2.6,1.467-2.178,5.416-3.961,7.808a4.931,4.931,0,0,1-4.452,1.909" transform="translate(-218.434 -30.044)" fill="#bccdb2"/>
        <path id="Path_1265093" data-name="Path 1265093" d="M330.06,69.773a5.029,5.029,0,0,1-.595-.035,5.314,5.314,0,0,1-4.2-3.146,10.357,10.357,0,0,1-.6-3.688,7.437,7.437,0,0,0-.859-3.937c-.913-1.359-2.533-1.874-4.248-2.418a20.165,20.165,0,0,1-2.359-.858.4.4,0,0,1-.088-.674,54.363,54.363,0,0,1,42.6-11.91,53.724,53.724,0,0,1,22.795,8.956.4.4,0,0,1,.157.445l-.112.389a8.125,8.125,0,0,1-5.345,5.72c-2.55.681-5.134-.276-7.632-1.2C366.9,56.419,364.37,55.48,362,56.5c-1.928.832-3.127,2.769-4.286,4.642-.132.213-.263.426-.4.635-1.872,2.967-3.825,4.442-5.971,4.509-2.6.089-4.59-1.925-6.351-3.7l-.421-.423c-.877-.873-3.931-3.612-6.449-2.2-1.374.777-1.831,2.377-2.316,4.071a11,11,0,0,1-1.52,3.628,5.331,5.331,0,0,1-4.227,2.1M318.139,55.214c.541.212,1.11.392,1.664.568,1.771.563,3.6,1.145,4.672,2.736a8.141,8.141,0,0,1,.994,4.351,9.78,9.78,0,0,0,.539,3.407,4.561,4.561,0,0,0,3.553,2.664,4.5,4.5,0,0,0,4.082-1.75,10.43,10.43,0,0,0,1.392-3.368c.507-1.775,1.032-3.611,2.693-4.55,3.008-1.694,6.432,1.352,7.411,2.326l.424.425c1.726,1.737,3.5,3.527,5.756,3.461,1.859-.058,3.6-1.41,5.317-4.134q.2-.311.392-.629c1.224-1.978,2.491-4.025,4.651-4.957,2.668-1.148,5.472-.109,8.183.9,2.38.882,4.842,1.795,7.144,1.179a7.32,7.32,0,0,0,4.783-5.172l.03-.106A52.926,52.926,0,0,0,359.6,43.9a53.555,53.555,0,0,0-41.461,11.313" transform="translate(-217.556 -29.185)" fill="#231f20"/>
        <path id="Path_1265094" data-name="Path 1265094" d="M407.658,166.23a8.844,8.844,0,0,1,1.127,7.8c-.784,2.31-2.892,4.379-5.328,4.241-2.644-.15-4.528-2.682-7.056-3.469-2.267-.705-4.742.1-6.8,1.284s-3.879,2.765-6.008,3.814-4.757,1.51-6.839.37a5.263,5.263,0,0,1-2.065-6.779c.953-1.837,2.893-2.9,4.443-4.266s2.8-3.626,1.816-5.445c-.9-1.659-3.311-2.209-3.88-4.01-.495-1.566.691-3.128,1.844-4.3a19.059,19.059,0,0,1,4.95-3.866,8.311,8.311,0,0,1,6.117-.695c1.991.633,3.8,2.253,5.867,1.933,1.776-.275,3.265-1.972,5.038-1.682a3.269,3.269,0,0,1,2.4,3.245,9.467,9.467,0,0,1-1.223,4.162c-.357.755-1.328,2.287-1.164,3.153.21,1.1.615.785,1.748,1.081a8.886,8.886,0,0,1,5.01,3.42" transform="translate(-256.819 -103.372)" fill="#bccdb2"/>
        <path id="Path_1265095" data-name="Path 1265095" d="M378.638,180.46a6.126,6.126,0,0,1-2.966-.716,5.642,5.642,0,0,1-2.229-7.316,10.5,10.5,0,0,1,3.168-3.279c.46-.355.935-.722,1.367-1.1,1.438-1.271,2.592-3.363,1.729-4.952a5.553,5.553,0,0,0-1.758-1.681,5.014,5.014,0,0,1-2.152-2.4c-.654-2.068,1.3-4.049,1.94-4.7a19.576,19.576,0,0,1,5.058-3.944,8.623,8.623,0,0,1,6.417-.718,14.318,14.318,0,0,1,2.059.9,6.17,6.17,0,0,0,3.624,1.014,6.657,6.657,0,0,0,2.021-.815,4.988,4.988,0,0,1,3.144-.867,3.659,3.659,0,0,1,2.738,3.632,9.923,9.923,0,0,1-1.262,4.343c-.076.16-.178.354-.292.569a5.21,5.21,0,0,0-.84,2.337c.1.535.122.538.664.616a6.749,6.749,0,0,1,.79.151,9.082,9.082,0,0,1,6.416,11.743c-.8,2.358-3.027,4.657-5.731,4.513a8.573,8.573,0,0,1-4.247-1.885,11.436,11.436,0,0,0-2.906-1.6c-2.323-.723-4.8.28-6.477,1.248-.861.5-1.7,1.079-2.513,1.641a28.252,28.252,0,0,1-3.519,2.186,9.7,9.7,0,0,1-4.243,1.078m8.369-30.338a8.732,8.732,0,0,0-3.856.967,18.85,18.85,0,0,0-4.843,3.789c-1.517,1.539-2.088,2.813-1.747,3.894a4.37,4.37,0,0,0,1.856,1.988,6.224,6.224,0,0,1,1.994,1.95c1.079,1.986-.178,4.413-1.9,5.937-.451.4-.938.775-1.408,1.137a9.76,9.76,0,0,0-2.945,3.013,4.876,4.876,0,0,0,1.9,6.242c2.437,1.335,5.335.181,6.468-.378a27.58,27.58,0,0,0,3.416-2.126c.826-.571,1.68-1.162,2.569-1.676,1.812-1.049,4.517-2.129,7.118-1.32a12.051,12.051,0,0,1,3.121,1.7,7.865,7.865,0,0,0,3.839,1.746c2.306.13,4.222-1.9,4.924-3.969a8.278,8.278,0,0,0-5.858-10.707,5.909,5.909,0,0,0-.7-.133c-.7-.1-1.145-.236-1.339-1.262a5.274,5.274,0,0,1,.919-2.862c.107-.2.2-.386.275-.537a9.165,9.165,0,0,0,1.185-3.981,2.887,2.887,0,0,0-2.064-2.858,4.358,4.358,0,0,0-2.637.783,7.339,7.339,0,0,1-2.274.9,6.862,6.862,0,0,1-4.109-1.09,13.678,13.678,0,0,0-1.941-.856,6.46,6.46,0,0,0-1.961-.3" transform="translate(-255.928 -102.488)" fill="#231f20"/>
        <path id="Path_1265096" data-name="Path 1265096" d="M266.065,216.881a53.692,53.692,0,0,1-9.36-39.091c.252-1.7.583-3.37.981-5a16.6,16.6,0,0,1,5.709-.719c2.175.093,4.628.877,5.467,2.883,1.255,3.014-1.951,6.249-1.474,9.479.353,2.417,2.6,4.013,4.514,5.526s3.835,3.762,3.2,6.12c-.43,1.584-1.938,2.711-2.349,4.3-.623,2.394,1.406,4.655,1.71,7.114.388,3.1-2.041,5.87-4.68,7.555a18.169,18.169,0,0,1-3.714,1.833" transform="translate(-175.788 -118.089)" fill="#bccdb2"/>
        <path id="Path_1265097" data-name="Path 1265097" d="M265.183,216.4a.4.4,0,0,1-.327-.169,54.017,54.017,0,0,1-9.43-39.383c.248-1.674.581-3.37.988-5.039a.4.4,0,0,1,.268-.287,17.014,17.014,0,0,1,5.849-.737c2.877.124,5.053,1.293,5.82,3.129.743,1.784.064,3.606-.593,5.367a8.859,8.859,0,0,0-.855,4.208c.305,2.088,2.161,3.541,3.955,4.946l.411.323c2.711,2.148,3.9,4.471,3.336,6.541a7.277,7.277,0,0,1-1.23,2.259,6.46,6.46,0,0,0-1.119,2.039c-.339,1.305.2,2.6.778,3.978a11.527,11.527,0,0,1,.942,2.985c.351,2.806-1.467,5.775-4.862,7.943a18.554,18.554,0,0,1-3.8,1.874.4.4,0,0,1-.134.023m-8.043-44.181c-.377,1.574-.687,3.17-.921,4.746a53.217,53.217,0,0,0,9.114,38.55,17.927,17.927,0,0,0,3.347-1.689c1.172-.749,4.958-3.476,4.5-7.167a10.961,10.961,0,0,0-.885-2.774c-.6-1.437-1.222-2.923-.815-4.49a7.157,7.157,0,0,1,1.241-2.3,6.585,6.585,0,0,0,1.11-2c.635-2.348-1.644-4.579-3.059-5.7l-.408-.32c-1.829-1.433-3.9-3.056-4.254-5.462A9.436,9.436,0,0,1,267,179c.63-1.69,1.225-3.286.6-4.777-.954-2.283-4.155-2.595-5.113-2.636a16.3,16.3,0,0,0-5.355.633" transform="translate(-174.907 -117.21)" fill="#231f20"/>
        <path id="Path_1265098" data-name="Path 1265098" d="M554.188,151.326c-2.656.328-5.328-.677-7.723-1.915-3.078-1.6-6.19-3.98-6.76-7.4-.589-3.564,1.77-7.338.471-10.71-1.061-2.751-4.212-4.2-5.48-6.864a7.214,7.214,0,0,1,.362-6.346,12.934,12.934,0,0,1,4.581-4.635,21.179,21.179,0,0,1,4.009-2.01,53.711,53.711,0,0,1,10.539,39.882" transform="translate(-366.602 -76.491)" fill="#bccdb2"/>
        <path id="Path_1265099" data-name="Path 1265099" d="M552.277,150.911a15.536,15.536,0,0,1-6.884-2.021c-4.133-2.142-6.478-4.731-6.971-7.693a14.031,14.031,0,0,1,.392-5.008c.4-1.991.775-3.872.1-5.623a10.132,10.132,0,0,0-2.712-3.46,12.12,12.12,0,0,1-2.756-3.376,7.557,7.557,0,0,1,.37-6.706,13.264,13.264,0,0,1,4.72-4.786,21.536,21.536,0,0,1,4.084-2.048.4.4,0,0,1,.46.133A53.907,53.907,0,0,1,553.7,150.5a.4.4,0,0,1-.349.345,8.779,8.779,0,0,1-1.073.065m1.024-.464h0Zm-10.677-39.4a20.729,20.729,0,0,0-3.654,1.865,12.482,12.482,0,0,0-4.444,4.486,6.751,6.751,0,0,0-.354,5.985,11.344,11.344,0,0,0,2.587,3.142,10.88,10.88,0,0,1,2.9,3.75c.758,1.97.341,4.054-.062,6.07a13.436,13.436,0,0,0-.388,4.719c.449,2.7,2.653,5.091,6.548,7.111,1.806.933,4.49,2.128,7.182,1.9a53.1,53.1,0,0,0-10.32-39.031" transform="translate(-365.715 -75.613)" fill="#231f20"/>
        <path id="Path_1265100" data-name="Path 1265100" d="M226.766,178.426a3.214,3.214,0,0,1-2.193-5.564,268.757,268.757,0,0,1,28.269-23.236c14.157-9.849,24.817-14.074,32.594-12.922,6.671.99,11.607,7.178,16.38,13.162,3.353,4.2,7.153,8.968,9.855,8.968h.013c8.753-.05,28.491-20.812,38.876-33.888a3.214,3.214,0,0,1,5.034,4c-.288.363-7.16,8.993-15.83,17.781-12.268,12.436-21.441,18.5-28.043,18.538h-.052c-5.8,0-10.207-5.532-14.878-11.389-3.811-4.778-8.13-10.193-12.3-10.812-10.018-1.486-30.78,11.411-55.534,34.5a3.2,3.2,0,0,1-2.192.864" transform="translate(-153.438 -84.925)" fill="#3c311b"/>
        <path id="Path_1265101" data-name="Path 1265101" d="M613.179,129.864l-9.57-8.467a3.472,3.472,0,0,1,1.665-6.013l10.211-1.9a3.471,3.471,0,0,1,4.1,3.627l-.642,10.368a3.471,3.471,0,0,1-5.765,2.385" transform="translate(-413.491 -77.85)" fill="#3c311b"/>
        <path id="Path_1265102" data-name="Path 1265102" d="M614.592,130.262a3.849,3.849,0,0,1-2.558-.976h0l-9.57-8.467a3.874,3.874,0,0,1,1.858-6.709l10.211-1.9a3.873,3.873,0,0,1,4.575,4.047l-.642,10.368a3.848,3.848,0,0,1-2.385,3.34,3.894,3.894,0,0,1-1.489.3m-2.026-1.578a3.07,3.07,0,0,0,5.1-2.109l.642-10.368A3.069,3.069,0,0,0,614.68,113l-10.211,1.9A3.07,3.07,0,0,0,603,120.217Z" transform="translate(-412.613 -76.97)" fill="#231f20"/>
        <path id="Path_1265103" data-name="Path 1265103" d="M544.844,17.364A16.083,16.083,0,1,1,528.761,1.281a16.083,16.083,0,0,1,16.083,16.083" transform="translate(-351.885 -0.879)" fill="#ffc94a"/>
        <path id="Path_1265104" data-name="Path 1265104" d="M527.882,32.97a16.485,16.485,0,1,1,16.485-16.485A16.5,16.5,0,0,1,527.882,32.97m0-32.167a15.682,15.682,0,1,0,15.681,15.681A15.7,15.7,0,0,0,527.882.8" transform="translate(-351.005 0)"/>
        <path id="Path_1265105" data-name="Path 1265105" d="M557.984,31.531a3.942,3.942,0,0,1-2.732,5.183c-.506.135-.507.135-.492.679.01.365.029.73.033,1.094a.652.652,0,0,1-.564.741,1.958,1.958,0,0,1-.81-.015.646.646,0,0,1-.5-.782c.054-.5.106-1.007.153-1.46a17.179,17.179,0,0,1-1.866-.647,3.471,3.471,0,0,1-1.736-4.514.551.551,0,0,1,.661-.416,2.969,2.969,0,0,1,1.883,1.136.808.808,0,0,1,.086.407c.025.3.01.6.059.889a1.452,1.452,0,0,0,1.569,1.269,2.229,2.229,0,0,0,1.609-.753,1.279,1.279,0,0,0,.074-1.726,3.552,3.552,0,0,0-1.4-1.031,9.282,9.282,0,0,1-3.133-2.294,5.269,5.269,0,0,1-.153-6.953,4.536,4.536,0,0,1,2.159-1.42c.212-.064.276-.149.238-.374-.074-.435-.108-.877-.163-1.316a.637.637,0,0,1,.382-.7,1.218,1.218,0,0,1,1.09-.021.663.663,0,0,1,.432.647c-.009.42-.015.841-.042,1.26-.013.212.039.313.268.355a4.578,4.578,0,0,1,3.193,2.32.85.85,0,0,1-.162,1.218,2.247,2.247,0,0,1-1.8.6.878.878,0,0,1-.658-.444,7.062,7.062,0,0,0-.92-1.2,1.516,1.516,0,0,0-2.664.845,3.376,3.376,0,0,0,.6,2.7,5.442,5.442,0,0,0,1.663,1.548c.573.356,1.16.688,1.734,1.043a4.17,4.17,0,0,1,1.9,2.134" transform="translate(-376.973 -12.619)"/>
        <path id="Path_1265106" data-name="Path 1265106" d="M375.621,16.632a12.944,12.944,0,1,1-10.905-14.7,12.944,12.944,0,0,1,10.905,14.7" transform="translate(-240.139 -1.226)" fill="#ffc94a"/>
        <path id="Path_1265107" data-name="Path 1265107" d="M361.967,27.2a13.522,13.522,0,0,1-1.986-.147,13.292,13.292,0,1,1,1.986.147m-.036-25.892a12.557,12.557,0,1,0,1.848.137,12.562,12.562,0,0,0-1.848-.137m12.812,14.442h0Z" transform="translate(-239.262 -0.348)"/>
        <path id="Path_1265108" data-name="Path 1265108" d="M384.964,26.8a3.173,3.173,0,0,1-2.787,3.8c-.418.048-.42.048-.472.482-.035.292-.063.584-.1.875a.525.525,0,0,1-.537.523,1.57,1.57,0,0,1-.643-.108.519.519,0,0,1-.3-.681c.1-.395.2-.79.294-1.144A13.78,13.78,0,0,1,379,29.82a2.793,2.793,0,0,1-.849-3.8.443.443,0,0,1,.576-.253,2.388,2.388,0,0,1,1.365,1.127.646.646,0,0,1,.02.334c-.015.239-.063.478-.058.715a1.169,1.169,0,0,0,1.1,1.2,1.794,1.794,0,0,0,1.369-.41,1.029,1.029,0,0,0,.263-1.365,2.856,2.856,0,0,0-.994-.986,7.473,7.473,0,0,1-2.223-2.2,4.241,4.241,0,0,1,.7-5.554,3.651,3.651,0,0,1,1.887-.876c.176-.026.237-.086.233-.269-.007-.355.018-.711.026-1.067a.513.513,0,0,1,.387-.514.98.98,0,0,1,.87.112.533.533,0,0,1,.268.566c-.056.333-.111.667-.182,1-.035.167-.006.254.171.315a3.683,3.683,0,0,1,2.268,2.224.683.683,0,0,1-.272.95,1.808,1.808,0,0,1-1.5.268.706.706,0,0,1-.472-.431,5.7,5.7,0,0,0-.59-1.068,1.22,1.22,0,0,0-2.221.358,2.717,2.717,0,0,0,.16,2.224,4.376,4.376,0,0,0,1.141,1.429c.414.351.842.685,1.257,1.035a3.355,3.355,0,0,1,1.263,1.924" transform="translate(-259.281 -10.877)"/>
        <path id="Path_1265109" data-name="Path 1265109" d="M457.151,81.8a11.9,11.9,0,1,1-10.024-13.516A11.9,11.9,0,0,1,457.151,81.8" transform="translate(-297.526 -46.781)" fill="#ffc94a"/>
        <path id="Path_1265110" data-name="Path 1265110" d="M444.511,91.478a12.306,12.306,0,0,1-12.175-14.106,12.3,12.3,0,1,1,12.175,14.106m-.032-23.8a11.512,11.512,0,1,0,1.711.127,11.639,11.639,0,0,0-1.711-.127m11.794,13.245h0Z" transform="translate(-296.649 -45.899)"/>
        <path id="Path_1265111" data-name="Path 1265111" d="M465.74,91.153a2.917,2.917,0,0,1-2.562,3.5c-.384.044-.385.044-.433.443-.032.268-.057.537-.094.8a.483.483,0,0,1-.493.481,1.453,1.453,0,0,1-.591-.1.478.478,0,0,1-.279-.626c.094-.363.187-.726.27-1.052a12.813,12.813,0,0,1-1.3-.676,2.567,2.567,0,0,1-.78-3.492.407.407,0,0,1,.529-.233,2.2,2.2,0,0,1,1.255,1.036.6.6,0,0,1,.019.308c-.014.219-.058.438-.053.657a1.075,1.075,0,0,0,1.01,1.1,1.649,1.649,0,0,0,1.259-.377.946.946,0,0,0,.242-1.255,2.631,2.631,0,0,0-.913-.906,6.854,6.854,0,0,1-2.044-2.019,3.9,3.9,0,0,1,.642-5.105,3.358,3.358,0,0,1,1.734-.805c.162-.024.218-.079.215-.247-.007-.326.016-.654.023-.981a.471.471,0,0,1,.356-.473.9.9,0,0,1,.8.1.49.49,0,0,1,.246.52c-.052.306-.1.613-.167.917-.033.154-.006.233.157.289a3.388,3.388,0,0,1,2.085,2.045.629.629,0,0,1-.25.873,1.663,1.663,0,0,1-1.381.246.649.649,0,0,1-.433-.4,5.2,5.2,0,0,0-.543-.981,1.121,1.121,0,0,0-2.041.329,2.5,2.5,0,0,0,.146,2.044,4.026,4.026,0,0,0,1.049,1.314c.381.322.775.629,1.156.951a3.083,3.083,0,0,1,1.16,1.768" transform="translate(-315.123 -55.652)"/>
        <path id="Path_1265112" data-name="Path 1265112" d="M1.281,527.011l.4-2.841c2.743-19.461,5.612-39.329,14.509-56.853l41.1,2.689a33.594,33.594,0,0,1,3.261,5.929c6.148,12.152,8.122,25.922,10.011,39.409q.816,5.831,1.616,11.667" transform="translate(-0.879 -320.75)" fill="#bbb4a8"/>
        <path id="Path_1265113" data-name="Path 1265113" d="M71.3,526.532a.4.4,0,0,1-.4-.348q-.8-5.834-1.616-11.665c-1.863-13.305-3.789-27.063-9.971-39.283-.272-.538-.522-1.063-.766-1.577a22.821,22.821,0,0,0-2.344-4.144l-40.657-2.66C6.683,484.444,3.9,504.218,1.2,523.345l-.4,2.841a.4.4,0,1,1-.8-.112l.4-2.841c2.717-19.277,5.527-39.21,14.548-56.978a.4.4,0,0,1,.385-.219l41.1,2.689a.4.4,0,0,1,.291.155,22.758,22.758,0,0,1,2.543,4.434c.242.508.489,1.027.758,1.56,6.242,12.339,8.178,26.164,10.05,39.535q.816,5.832,1.616,11.668a.4.4,0,0,1-.344.453.418.418,0,0,1-.055,0" transform="translate(0.001 -319.87)"/>
        <path id="Path_1265114" data-name="Path 1265114" d="M102.281,604.972q-1.256-3.971-2.518-7.988A123.727,123.727,0,0,0,93.888,580.9c-2.168,8.259-4.428,16.207-6.713,24.069" transform="translate(-59.834 -398.712)" fill="#5a8441"/>
        <path id="Path_1265115" data-name="Path 1265115" d="M101.4,604.495a.4.4,0,0,1-.383-.281q-1.257-3.972-2.518-7.99a132.643,132.643,0,0,0-5.387-15.02c-2.238,8.465-4.5,16.354-6.431,23a.4.4,0,1,1-.772-.224c2.012-6.922,4.382-15.194,6.71-24.059a.4.4,0,0,1,.751-.07,124.548,124.548,0,0,1,5.9,16.132q1.262,4.021,2.518,7.988a.4.4,0,0,1-.383.523" transform="translate(-58.954 -397.832)"/>
        <path id="Path_1265116" data-name="Path 1265116" d="M22.506,375.838a4.3,4.3,0,0,1-3.633-4.584c.831-10.752,1.264-21.819,2.2-32.483.581-6.583,1.172-13.221,3.084-19.547,1.123-3.716,2.824-7.46,5.924-9.8,3.136-2.363,7.246-2.95,11.147-3.272a98.586,98.586,0,0,1,16.6.007,21.272,21.272,0,0,1,6.611,1.415c2.289.984,3.633,3.136,5.149,5.113,6.591,8.592,8.2,45.173,9.238,58.563a4.3,4.3,0,0,1-3.634,4.587,172.594,172.594,0,0,1-52.694,0" transform="translate(-12.945 -209.897)" fill="#ffc94a"/>
        <path id="Path_1265117" data-name="Path 1265117" d="M45.351,444.812a138.987,138.987,0,0,1-24.082-1.934,4.709,4.709,0,0,1-3.887-4.958l1.312-19.406a.407.407,0,0,1,.428-.374.4.4,0,0,1,.374.428l-1.312,19.406a3.906,3.906,0,0,0,3.226,4.112c14.745,2.614,32.933,2.561,52.6-.153a3.888,3.888,0,0,0,3.346-4.273c-.718-6.944-1.206-13.328-1.678-19.5-.367-4.8-.747-9.761-1.232-14.957a.4.4,0,0,1,.363-.437.406.406,0,0,1,.438.363c.486,5.2.865,10.168,1.233,14.97.472,6.169.96,12.547,1.677,19.48a4.69,4.69,0,0,1-4.036,5.152,211.692,211.692,0,0,1-28.766,2.083" transform="translate(-11.922 -276.443)"/>
        <path id="Path_1265118" data-name="Path 1265118" d="M321.766,291.656a.4.4,0,0,1-.238-.726c.281-.206,1-.78,1.825-1.444,1.269-1.017,2.848-2.283,3.645-2.852.215-.153.441-.294.667-.433a4.849,4.849,0,0,0,1.2-.919,1.914,1.914,0,0,0,.454-1.841.4.4,0,0,1,.751-.287,2.711,2.711,0,0,1-.591,2.646,5.509,5.509,0,0,1-1.392,1.084c-.21.13-.422.26-.622.4-.779.556-2.349,1.814-3.61,2.825-.835.67-1.557,1.248-1.852,1.465a.4.4,0,0,1-.237.078" transform="translate(-220.573 -194.171)"/>
        <path id="Path_1265119" data-name="Path 1265119" d="M297.082,267.652c.387-.829.818-1.637,1.249-2.444a14.464,14.464,0,0,1,3.347-4.653,46.513,46.513,0,0,1,4.016-2.394v0a2.161,2.161,0,0,1,1.4-.474,1.421,1.421,0,0,1,1.024,1.653,3.165,3.165,0,0,1-1.163,1.773,4.261,4.261,0,0,0-1.539,1.8,7.446,7.446,0,0,0-.087,1.552,3.208,3.208,0,0,1-1.813,2.634" transform="translate(-203.907 -176.858)" fill="#fff"/>
        <path id="Path_1265120" data-name="Path 1265120" d="M296.2,267.175a.4.4,0,0,1-.364-.572c.394-.843.833-1.667,1.259-2.463a11.2,11.2,0,0,1,5.864-6.266c.541-.287,1.1-.583,1.613-.917l.025-.017a2.534,2.534,0,0,1,1.67-.532,1.526,1.526,0,0,1,1,.629,2.019,2.019,0,0,1,.358,1.485,3.447,3.447,0,0,1-1.295,2.011c-.092.08-.186.16-.28.239a3.152,3.152,0,0,0-1.138,1.371,3.084,3.084,0,0,0-.066.883c0,.2.007.391-.007.586a3.591,3.591,0,0,1-2.045,2.971.4.4,0,0,1-.338-.729,2.814,2.814,0,0,0,1.581-2.3c.012-.171.008-.344.005-.516a3.715,3.715,0,0,1,.1-1.119,3.833,3.833,0,0,1,1.391-1.764c.091-.077.181-.153.269-.23a2.716,2.716,0,0,0,1.031-1.535,1.218,1.218,0,0,0-.213-.882.73.73,0,0,0-.473-.309,1.82,1.82,0,0,0-1.1.4l-.015.01c-.549.359-1.132.668-1.7.967a13.922,13.922,0,0,0-2.287,1.4,14.265,14.265,0,0,0-3.245,4.53c-.42.787-.855,1.6-1.24,2.425a.4.4,0,0,1-.364.232" transform="translate(-203.027 -175.979)"/>
        <path id="Path_1265121" data-name="Path 1265121" d="M305.123,260.73c1.7-.958,3.767-3.335,5.466-4.292a6.826,6.826,0,0,0,1.94-1.42,2.315,2.315,0,0,0,.522-2.244l-1.472-8.448a10.157,10.157,0,0,0,2.069-1.876,4.19,4.19,0,0,0,1-2.512,1.474,1.474,0,0,0-.741-1.446,1.769,1.769,0,0,0-1.652.521c-2.334,1.875-4.022,4.5-6.528,6.141a46.457,46.457,0,0,0-4.015,2.394,14.457,14.457,0,0,0-3.347,4.653c-.431.807-.862,1.615-1.249,2.444Z" transform="translate(-203.931 -163.646)" fill="#fff"/>
        <path id="Path_1265122" data-name="Path 1265122" d="M296.236,254.167a.4.4,0,0,1-.364-.572c.389-.832.825-1.651,1.248-2.443a14.93,14.93,0,0,1,3.459-4.8A14.758,14.758,0,0,1,303,244.867c.548-.29,1.114-.591,1.632-.929a20.655,20.655,0,0,0,3.645-3.338,27.712,27.712,0,0,1,2.851-2.78,2.183,2.183,0,0,1,2.052-.581,1.875,1.875,0,0,1,1,1.825,4.6,4.6,0,0,1-1.09,2.758,10.44,10.44,0,0,1-2.151,1.953.4.4,0,0,1-.461-.658,9.639,9.639,0,0,0,1.987-1.8,3.8,3.8,0,0,0,.912-2.265c.007-.432-.142-.929-.489-1.066-.3-.12-.722.035-1.252.461a27.094,27.094,0,0,0-2.766,2.7,21.265,21.265,0,0,1-3.793,3.463c-.549.359-1.132.668-1.7.966a13.942,13.942,0,0,0-2.287,1.4,14.259,14.259,0,0,0-3.245,4.53c-.428.8-.86,1.613-1.24,2.425a.4.4,0,0,1-.364.232" transform="translate(-203.051 -162.766)"/>
        <path id="Path_1265123" data-name="Path 1265123" d="M321.766,291.656a.4.4,0,0,1-.238-.726c.281-.206,1-.78,1.825-1.444,1.269-1.017,2.848-2.283,3.645-2.852.215-.153.441-.294.667-.433a4.849,4.849,0,0,0,1.2-.919,1.914,1.914,0,0,0,.454-1.841.4.4,0,0,1,.751-.287,2.711,2.711,0,0,1-.591,2.646,5.509,5.509,0,0,1-1.392,1.084c-.21.13-.422.26-.622.4-.779.556-2.349,1.814-3.61,2.825-.835.67-1.557,1.248-1.852,1.465a.4.4,0,0,1-.237.078" transform="translate(-220.573 -194.171)"/>
        <path id="Path_1265124" data-name="Path 1265124" d="M297.082,267.652c.387-.829.818-1.637,1.249-2.444a14.464,14.464,0,0,1,3.347-4.653,46.513,46.513,0,0,1,4.016-2.394v0a2.161,2.161,0,0,1,1.4-.474,1.421,1.421,0,0,1,1.024,1.653,3.165,3.165,0,0,1-1.163,1.773,4.261,4.261,0,0,0-1.539,1.8,7.446,7.446,0,0,0-.087,1.552,3.208,3.208,0,0,1-1.813,2.634" transform="translate(-203.907 -176.858)" fill="#fff"/>
        <path id="Path_1265125" data-name="Path 1265125" d="M296.2,267.175a.4.4,0,0,1-.364-.572c.394-.843.833-1.667,1.259-2.463a11.2,11.2,0,0,1,5.864-6.266c.541-.287,1.1-.583,1.613-.917l.025-.017a2.534,2.534,0,0,1,1.67-.532,1.526,1.526,0,0,1,1,.629,2.019,2.019,0,0,1,.358,1.485,3.447,3.447,0,0,1-1.295,2.011c-.092.08-.186.16-.28.239a3.152,3.152,0,0,0-1.138,1.371,3.084,3.084,0,0,0-.066.883c0,.2.007.391-.007.586a3.591,3.591,0,0,1-2.045,2.971.4.4,0,0,1-.338-.729,2.814,2.814,0,0,0,1.581-2.3c.012-.171.008-.344.005-.516a3.715,3.715,0,0,1,.1-1.119,3.833,3.833,0,0,1,1.391-1.764c.091-.077.181-.153.269-.23a2.716,2.716,0,0,0,1.031-1.535,1.218,1.218,0,0,0-.213-.882.73.73,0,0,0-.473-.309,1.82,1.82,0,0,0-1.1.4l-.015.01c-.549.359-1.132.668-1.7.967a13.922,13.922,0,0,0-2.287,1.4,14.265,14.265,0,0,0-3.245,4.53c-.42.787-.855,1.6-1.24,2.425a.4.4,0,0,1-.364.232" transform="translate(-203.027 -175.979)"/>
        <path id="Path_1265126" data-name="Path 1265126" d="M345.485,272.7a1.859,1.859,0,0,0-1.927-.193,6.141,6.141,0,0,0-1.357.844c-.689.521-1.367,1.062-2.073,1.555a.832.832,0,0,0-.32.656,1.541,1.541,0,0,0,.388,1.1,1.594,1.594,0,0,0,.679.519,1.643,1.643,0,0,0,1.013-.193,11.576,11.576,0,0,0,3.376-2.292,1.394,1.394,0,0,0,.566-1.479,1.173,1.173,0,0,0-.345-.517" transform="translate(-233.23 -186.918)" fill="#fff"/>
        <path id="Path_1265127" data-name="Path 1265127" d="M340.213,276.731a1.376,1.376,0,0,1-.308-.035,1.826,1.826,0,0,1-.891-.645,1.952,1.952,0,0,1-.487-1.39,1.209,1.209,0,0,1,.49-.958c.492-.344.979-.719,1.451-1.081q.305-.234.611-.467a6.51,6.51,0,0,1,1.449-.9,2.245,2.245,0,0,1,2.339.262h0a1.578,1.578,0,0,1,.463.693,1.8,1.8,0,0,1-.667,1.893,11.913,11.913,0,0,1-3.494,2.372,2.379,2.379,0,0,1-.958.252m3.345-4.874a2.06,2.06,0,0,0-.73.147,5.781,5.781,0,0,0-1.26.788c-.207.157-.408.311-.611.466-.479.368-.974.748-1.479,1.1-.032.022-.132.092-.15.355a1.142,1.142,0,0,0,.29.808c.3.337.441.385.467.39a1.32,1.32,0,0,0,.757-.168,11.12,11.12,0,0,0,3.259-2.212c.4-.394.6-.68.466-1.064a.772.772,0,0,0-.227-.341,1.171,1.171,0,0,0-.784-.271" transform="translate(-232.351 -186.041)"/>
        <path id="Path_1265128" data-name="Path 1265128" d="M340.165,264.315a2.1,2.1,0,0,0-2.072-.17,6.639,6.639,0,0,0-1.515.931c-.769.571-1.525,1.169-2.313,1.714a.933.933,0,0,0-.36.76,1.7,1.7,0,0,0,.42,1.18,1.755,1.755,0,0,0,.757.591,1.836,1.836,0,0,0,1.127-.209,12.83,12.83,0,0,0,3.763-2.525,1.575,1.575,0,0,0,.654-1.6,1.339,1.339,0,0,0-.461-.673" transform="translate(-229.18 -181.169)" fill="#fff"/>
        <path id="Path_1265129" data-name="Path 1265129" d="M334.448,268.867a1.46,1.46,0,0,1-.336-.038,1.985,1.985,0,0,1-.972-.722,2.088,2.088,0,0,1-.514-1.46,1.309,1.309,0,0,1,.531-1.069c.527-.365,1.049-.761,1.554-1.143.25-.189.5-.378.749-.564a7.019,7.019,0,0,1,1.608-.982,2.459,2.459,0,0,1,2.465.227h0a1.723,1.723,0,0,1,.6.877,1.984,1.984,0,0,1-.761,2,13.145,13.145,0,0,1-3.882,2.6,2.632,2.632,0,0,1-1.043.271m3.733-5.4a2.327,2.327,0,0,0-.82.165,6.329,6.329,0,0,0-1.421.879q-.373.278-.743.56c-.512.388-1.042.789-1.581,1.163a.54.54,0,0,0-.187.446,1.29,1.29,0,0,0,.324.9c.335.4.512.453.544.461a1.515,1.515,0,0,0,.873-.187,12.35,12.35,0,0,0,3.645-2.445c.443-.429.675-.763.548-1.2a.944.944,0,0,0-.323-.469,1.36,1.36,0,0,0-.857-.277" transform="translate(-228.301 -180.285)"/>
        <path id="Path_1265130" data-name="Path 1265130" d="M336.281,256.3a2.1,2.1,0,0,0-2.072-.17,6.642,6.642,0,0,0-1.514.931c-.769.571-1.525,1.169-2.314,1.714a.934.934,0,0,0-.36.76,1.7,1.7,0,0,0,.42,1.18,1.754,1.754,0,0,0,.757.591,1.836,1.836,0,0,0,1.126-.21,12.829,12.829,0,0,0,3.764-2.525,1.575,1.575,0,0,0,.654-1.6,1.337,1.337,0,0,0-.462-.673" transform="translate(-226.514 -175.665)" fill="#fff"/>
        <path id="Path_1265131" data-name="Path 1265131" d="M330.565,260.848a1.46,1.46,0,0,1-.336-.038,1.987,1.987,0,0,1-.972-.722,2.092,2.092,0,0,1-.514-1.46,1.311,1.311,0,0,1,.532-1.069c.528-.366,1.052-.762,1.558-1.146.248-.188.5-.376.745-.561a7.032,7.032,0,0,1,1.608-.982,2.46,2.46,0,0,1,2.465.227h0a1.753,1.753,0,0,1,.6.877,1.986,1.986,0,0,1-.76,2,13.167,13.167,0,0,1-3.882,2.6,2.642,2.642,0,0,1-1.043.271m3.734-5.4a2.334,2.334,0,0,0-.821.165,6.334,6.334,0,0,0-1.421.879c-.248.184-.494.37-.74.557-.513.389-1.044.791-1.585,1.166a.543.543,0,0,0-.188.446,1.3,1.3,0,0,0,.324.9c.336.4.512.453.544.461a1.523,1.523,0,0,0,.873-.187,12.364,12.364,0,0,0,3.645-2.445c.443-.429.675-.763.548-1.2a.943.943,0,0,0-.323-.47,1.359,1.359,0,0,0-.857-.277" transform="translate(-225.635 -174.781)"/>
        <path id="Path_1265132" data-name="Path 1265132" d="M138.559,290.662c10.034,0,15.039,4.157,21.527,9.7l27.888-16.37a1.287,1.287,0,0,1,1.549.121c2.514,2.249,5.11,4.875,7.626,7.137a1.285,1.285,0,0,1,.177,1.717c-5.572,7.6-19.47,23.224-25.485,27.117-8,5.18-16.092,3.848-21.7-1.384" transform="translate(-95.102 -194.78)" fill="#ffc94a"/>
        <path id="Path_1265133" data-name="Path 1265133" d="M160.609,322.9a16.844,16.844,0,0,1-11.62-4.791.4.4,0,1,1,.548-.587c5.968,5.571,13.9,6.072,21.206,1.341,5.85-3.787,19.542-19.058,25.379-27.018a.881.881,0,0,0-.121-1.181c-1.24-1.115-2.519-2.336-3.755-3.517-1.276-1.219-2.6-2.479-3.871-3.62a.888.888,0,0,0-1.065-.082l-27.9,16.378a.4.4,0,0,1-.464-.041c-6.282-5.363-11.244-9.6-21.266-9.6a.4.4,0,0,1,0-.8c10.2,0,15.264,4.224,21.57,9.606l27.641-16.225a1.688,1.688,0,0,1,2.02.168c1.284,1.149,2.608,2.414,3.889,3.637,1.232,1.176,2.506,2.393,3.738,3.5a1.682,1.682,0,0,1,.232,2.253c-5.872,8.007-19.672,23.386-25.591,27.217a19.467,19.467,0,0,1-10.571,3.363" transform="translate(-94.223 -193.9)"/>
        <path id="Path_1265134" data-name="Path 1265134" d="M138.531,398.029a55.478,55.478,0,0,1,10.448-7.72c1.035-.594,2.359-1.145,3.349-.485a2.272,2.272,0,0,1,.867,2,6.319,6.319,0,0,1-.55,2.011" transform="translate(-95.083 -267.355)" fill="#fff"/>
        <path id="Path_1265135" data-name="Path 1265135" d="M137.648,398.442a.4.4,0,0,1-.275-.695,53.287,53.287,0,0,1,10.03-7.415c.571-.326,2.307-1.318,3.615-.444a2.54,2.54,0,0,1,1,2.26,6.716,6.716,0,0,1-.622,2.213.4.4,0,1,1-.742-.307,6.012,6.012,0,0,0,.561-1.945,1.763,1.763,0,0,0-.646-1.553c-.6-.4-1.508-.247-2.77.473a52.5,52.5,0,0,0-9.878,7.3.4.4,0,0,1-.275.109" transform="translate(-94.201 -267.365)"/>
        <path id="Path_1265136" data-name="Path 1265136" d="M199.087,368.614l-18.614,5.536a2.391,2.391,0,0,1-2.969-1.607l-6.946-23.362a2.38,2.38,0,0,1,1.607-2.965l18.613-5.54a2.391,2.391,0,0,1,2.969,1.607l6.946,23.366a2.382,2.382,0,0,1-1.607,2.965" transform="translate(-116.996 -233.76)" fill="#fff"/>
        <path id="Path_1265137" data-name="Path 1265137" d="M178.907,373.774a2.792,2.792,0,0,1-2.668-1.994l-6.949-23.364a2.787,2.787,0,0,1,1.877-3.465l18.617-5.537a2.787,2.787,0,0,1,3.465,1.876l6.949,23.364a2.79,2.79,0,0,1-1.877,3.466l-18.616,5.537a2.791,2.791,0,0,1-.8.117m.684-.5h0Zm10.987-33.17a1.976,1.976,0,0,0-.564.082L171.4,345.721a1.984,1.984,0,0,0-1.335,2.466l6.949,23.364a1.985,1.985,0,0,0,2.466,1.336l18.616-5.537a1.985,1.985,0,0,0,1.335-2.466l-6.949-23.364a1.986,1.986,0,0,0-1.9-1.418" transform="translate(-116.115 -232.882)"/>
        <path id="Path_1265138" data-name="Path 1265138" d="M151.978,402.177c1.718-.253,6.4-.827,7.237-.788a3.113,3.113,0,0,1,2.238.971,1.9,1.9,0,0,1,.166,2.317,2.881,2.881,0,0,1-1.7.87c-.108.027-.219.05-.326.074.074.076.145.151.215.23a1.86,1.86,0,0,1,.164,2.261,2.842,2.842,0,0,1-1.666.85c-.048.01-.1.023-.145.032a7.95,7.95,0,0,1,.151,1.707,3.023,3.023,0,0,1-.684,1.867,4.181,4.181,0,0,1-2.106,1.059,33.9,33.9,0,0,1-13.788.559l-3.2-8.013" transform="translate(-95.083 -275.498)" fill="#fff"/>
        <path id="Path_1265139" data-name="Path 1265139" d="M184.774,405.586a.4.4,0,0,1-.019-.8,20.3,20.3,0,0,0,3.613-.507,2.562,2.562,0,0,0,1.478-.726,1.5,1.5,0,0,0-.154-1.809,2.711,2.711,0,0,0-1.953-.831c-.75-.039-5.268.506-7.161.786a.4.4,0,1,1-.118-.795c1.68-.249,6.418-.839,7.316-.794a3.511,3.511,0,0,1,2.528,1.112,2.287,2.287,0,0,1,.179,2.821,3.228,3.228,0,0,1-1.932,1.018,21.115,21.115,0,0,1-3.757.528h-.02" transform="translate(-123.626 -274.618)"/>
        <path id="Path_1265140" data-name="Path 1265140" d="M189.227,418.252a.4.4,0,0,1-.019-.8,19.776,19.776,0,0,0,3.525-.495,2.487,2.487,0,0,0,1.438-.706,1.454,1.454,0,0,0-.15-1.753c-.05-.058-.085-.094-.127-.138l-.074-.077a.4.4,0,0,1,.583-.553l.067.069c.054.056.1.1.162.176a2.242,2.242,0,0,1,.175,2.766,3.159,3.159,0,0,1-1.891,1,20.613,20.613,0,0,1-3.668.515h-.02" transform="translate(-129.603 -283.883)"/>
        <path id="Path_1265141" data-name="Path 1265141" d="M153.636,430.782a38.867,38.867,0,0,1-5.843-.455.4.4,0,0,1,.121-.794,33.336,33.336,0,0,0,13.625-.549,3.845,3.845,0,0,0,1.909-.942,2.621,2.621,0,0,0,.583-1.616,6.075,6.075,0,0,0-.113-1.627.4.4,0,1,1,.791-.142,6.869,6.869,0,0,1,.125,1.809,3.407,3.407,0,0,1-.787,2.113,4.508,4.508,0,0,1-2.3,1.182,31.471,31.471,0,0,1-8.11,1.022" transform="translate(-101.206 -291.242)"/>
        <path id="Path_1265142" data-name="Path 1265142" d="M33.232,306.151c-8.946-1.165-18.108,4.417-22.7,12.18C7.651,323.186-.435,356.309,21.9,362.458c10.341,2.847,28.179-8.776,31.95-11.347A1.154,1.154,0,0,0,54.3,349.8l-3.788-11.63a1.156,1.156,0,0,0-1.46-.741l-24.863,8.135-.446-15.44" transform="translate(-4.611 -210.026)" fill="#ffc94a"/>
        <path id="Path_1265143" data-name="Path 1265143" d="M24.538,362.427a13.734,13.734,0,0,1-3.644-.454A19.165,19.165,0,0,1,7.647,350.1c-4.974-12.317-.433-29.365,1.629-32.848,4.98-8.408,14.482-13.5,23.1-12.374a.4.4,0,0,1-.1.8c-8.31-1.082-17.487,3.846-22.308,11.986-1.775,3-6.457,20.045-1.575,32.137a18.4,18.4,0,0,0,12.714,11.4c10.211,2.811,28.128-8.913,31.617-11.292a.758.758,0,0,0,.29-.856l-3.788-11.63a.756.756,0,0,0-.953-.484l-24.864,8.136a.4.4,0,0,1-.527-.37l-.446-15.439a.4.4,0,0,1,.39-.413h.012a.4.4,0,0,1,.4.39l.43,14.9,24.352-7.968a1.558,1.558,0,0,1,1.967,1l3.789,11.63a1.566,1.566,0,0,1-.6,1.769c-3.159,2.154-17.986,11.855-28.638,11.856" transform="translate(-3.707 -209.153)"/>
        <path id="Path_1265144" data-name="Path 1265144" d="M73.334,199.789c-.135-4.607-.214-1.812,1.112-6.227,1.02-3.4,5.071-5.826,7.313-8.572,2.348-2.874,5.833-5,9.567-4.914,4.153.1,7.232,3.819,8.219,7.855.845,3.454,1.423,7.729,2.222,10.555,1.255,4.439,2.041,9.963-1.488,13.906-1.687,1.885-4.157,2.836-5.023,5.17a2.493,2.493,0,0,0-.127,1.129c.212,1.958.554,2.393-.446,4.465-.6,1.25-2.541,3.931-9.468,3.931-10.769,0-9.4-6.839-9.456-8.3-.125-3.393-1.151-21.055-1.276-24.447" transform="translate(-50.285 -123.596)" fill="#fff"/>
        <path id="Path_1265145" data-name="Path 1265145" d="M84.335,226.61c-3.805,0-6.553-.852-8.169-2.533a7.36,7.36,0,0,1-1.7-5.655c.008-.205.016-.376.011-.5-.062-1.693-.355-7.043-.638-12.216-.228-4.179-.463-8.474-.578-10.868-.1.264-.189.458-.257.612-.244.557-.244.557-.188,2.223.011.339.025.743.039,1.229a.4.4,0,0,1-.39.413h-.012a.4.4,0,0,1-.4-.39c-.014-.485-.027-.888-.039-1.225-.06-1.779-.062-1.848.255-2.572a20.02,20.02,0,0,0,.912-2.556c.7-2.329,2.711-4.18,4.657-5.969a28.087,28.087,0,0,0,2.73-2.741,12.8,12.8,0,0,1,9.887-5.061c4.563.107,7.656,4.3,8.6,8.16.391,1.6.726,3.378,1.05,5.1.382,2.025.742,3.939,1.168,5.446,1.155,4.086,2.249,10.012-1.575,14.283a15.721,15.721,0,0,1-2.124,1.874,7.628,7.628,0,0,0-2.821,3.168,2.1,2.1,0,0,0-.1.947c.037.346.079.644.117.911a5.2,5.2,0,0,1-.6,3.771c-.916,1.9-3.364,4.158-9.83,4.158M73.847,193.138a.4.4,0,0,1,.157.3c.062,1.693.355,7.043.638,12.216s.576,10.531.639,12.231c.005.143,0,.335-.011.565a6.553,6.553,0,0,0,1.476,5.066c1.458,1.517,4.012,2.286,7.589,2.286,6.368,0,8.439-2.32,9.107-3.7a4.432,4.432,0,0,0,.528-3.311c-.038-.275-.081-.581-.119-.936a2.893,2.893,0,0,1,.15-1.312,8.341,8.341,0,0,1,3.081-3.523,15.108,15.108,0,0,0,2.019-1.776c3.559-3.977,2.5-9.625,1.4-13.529-.436-1.542-.8-3.472-1.185-5.516-.322-1.707-.654-3.473-1.041-5.053-.873-3.567-3.7-7.451-7.838-7.548a12.034,12.034,0,0,0-9.246,4.766,29.056,29.056,0,0,1-2.809,2.824c-1.865,1.716-3.795,3.491-4.431,5.609l-.1.34" transform="translate(-49.406 -122.717)"/>
        <path id="Path_1265146" data-name="Path 1265146" d="M129.165,275.272a6.423,6.423,0,0,1-2.917-.683.4.4,0,0,1,.366-.715,5.8,5.8,0,0,0,5.794-.383.4.4,0,0,1,.456.661,6.54,6.54,0,0,1-3.7,1.12" transform="translate(-86.502 -187.666)"/>
        <path id="Path_1265147" data-name="Path 1265147" d="M141.327,251.487a.4.4,0,0,1-.153-.773,4.157,4.157,0,0,0,1.151-.619,1.129,1.129,0,0,0,.433-.914,1.859,1.859,0,0,0-.422-.807c-1.026-1.381-2.131-2.73-3.286-4.009a.4.4,0,0,1,.6-.538c1.171,1.3,2.293,2.667,3.335,4.068a2.524,2.524,0,0,1,.575,1.19,1.89,1.89,0,0,1-.7,1.616,4.814,4.814,0,0,1-1.372.757.4.4,0,0,1-.153.03" transform="translate(-95.368 -167.263)"/>
        <path id="Path_1265148" data-name="Path 1265148" d="M143.086,231.529a1.269,1.269,0,1,1-1.81-.661,1.371,1.371,0,0,1,1.81.661" transform="translate(-96.561 -158.363)"/>
        <path id="Path_1265149" data-name="Path 1265149" d="M122.263,239.548a1.282,1.282,0,1,1-1.828-.668,1.385,1.385,0,0,1,1.828.668" transform="translate(-82.252 -163.861)"/>
        <path id="Path_1265150" data-name="Path 1265150" d="M133.381,225.5a.3.3,0,0,1-.283-.4,4.659,4.659,0,0,1,3.618-2.982.3.3,0,1,1,.093.6,4.1,4.1,0,0,0-3.144,2.591.3.3,0,0,1-.283.2" transform="translate(-91.341 -152.447)"/>
        <path id="Path_1265151" data-name="Path 1265151" d="M112.509,233.232a.3.3,0,0,1-.283-.4,4.766,4.766,0,0,1,3.652-3.01.3.3,0,0,1,.093.6,4.147,4.147,0,0,0-3.178,2.619.3.3,0,0,1-.283.2" transform="translate(-77.015 -157.737)"/>
        <path id="Path_1265152" data-name="Path 1265152" d="M609.179,472.645c-.1,1.282-.2,3.778-1.6,4.419-1.416.649-3.052-1.272-3.673-2.326a6.229,6.229,0,0,1-.636-4.731,3.387,3.387,0,0,1,2.225-2.555,2.972,2.972,0,0,1,3.091,1.574,6.363,6.363,0,0,1,.59,3.618" transform="translate(-413.923 -320.802)" fill="#fff"/>
        <path id="Path_1265153" data-name="Path 1265153" d="M606.091,476.717c-1.438,0-2.813-1.639-3.413-2.657a6.59,6.59,0,0,1-.677-5.04,3.808,3.808,0,0,1,2.52-2.841,3.375,3.375,0,0,1,3.532,1.767,6.586,6.586,0,0,1,.641,3.846h0l-.016.222c-.1,1.431-.279,3.827-1.813,4.532a1.836,1.836,0,0,1-.774.17m-.962-9.806a1.819,1.819,0,0,0-.422.05,3.024,3.024,0,0,0-1.93,2.269,5.863,5.863,0,0,0,.594,4.423c.547.928,2.039,2.678,3.159,2.164,1.1-.507,1.262-2.688,1.347-3.86l.017-.225a5.846,5.846,0,0,0-.539-3.391,2.762,2.762,0,0,0-2.225-1.43m3.165,4.851h0Z" transform="translate(-413.037 -319.92)"/>
        <path id="Path_1265154" data-name="Path 1265154" d="M552.763,503.743c-1.059.969-3.029-.253-3.868-1a5.737,5.737,0,0,1-1.89-3.961,3.115,3.115,0,0,1,1.229-2.861,2.73,2.73,0,0,1,3.147.507,5.834,5.834,0,0,1,1.532,3c.278,1.148.891,3.361-.149,4.314" transform="translate(-375.441 -340.174)" fill="#fff"/>
        <path id="Path_1265155" data-name="Path 1265155" d="M550.9,503.624a5.476,5.476,0,0,1-3.151-1.461,6.1,6.1,0,0,1-2.025-4.242,3.537,3.537,0,0,1,1.422-3.224,3.136,3.136,0,0,1,3.627.555,6.07,6.07,0,0,1,1.651,3.2l.045.185c.317,1.292.848,3.454-.314,4.519h0a1.8,1.8,0,0,1-1.256.465m.984-.762h0Zm-3.4-7.723a1.746,1.746,0,0,0-.917.245,2.751,2.751,0,0,0-1.036,2.5,5.366,5.366,0,0,0,1.756,3.68c.732.651,2.51,1.755,3.33,1s.332-2.689.076-3.735l-.046-.188a5.326,5.326,0,0,0-1.414-2.8,2.7,2.7,0,0,0-1.749-.7" transform="translate(-374.563 -339.293)"/>
        <path id="Path_1265156" data-name="Path 1265156" d="M628.788,505.325a6.293,6.293,0,0,1-2.89,2.192c-1.167.51-3.394,1.576-4.6.654-1.226-.935-.3-3.256.327-4.285a6.166,6.166,0,0,1,3.842-2.751,3.355,3.355,0,0,1,3.263.76,2.944,2.944,0,0,1,.057,3.431" transform="translate(-426.025 -343.881)" fill="#fff"/>
        <path id="Path_1265157" data-name="Path 1265157" d="M621.638,508.064a2.349,2.349,0,0,1-1.465-.446c-1.467-1.118-.492-3.638.228-4.815a6.532,6.532,0,0,1,4.1-2.932,3.78,3.78,0,0,1,3.654.886,3.349,3.349,0,0,1,.093,3.912h0a6.533,6.533,0,0,1-3.067,2.344l-.2.087a9.015,9.015,0,0,1-3.341.964m3.974-7.516a4.268,4.268,0,0,0-.937.106,5.8,5.8,0,0,0-3.589,2.569c-.556.907-1.391,3.019-.425,3.756s2.931-.145,3.995-.615l.2-.088a5.782,5.782,0,0,0,2.712-2.04,2.571,2.571,0,0,0-.02-2.949,2.523,2.523,0,0,0-1.935-.739m2.294,3.9h0Z" transform="translate(-425.142 -343.009)"/>
        <path id="Path_1265158" data-name="Path 1265158" d="M629.572,537.763a6.352,6.352,0,0,1-2.921,2.215c-1.177.518-3.431,1.594-4.651.662-1.239-.945-.306-3.292.332-4.332a6.244,6.244,0,0,1,3.884-2.782,3.391,3.391,0,0,1,3.3.77,2.967,2.967,0,0,1,.057,3.467" transform="translate(-426.502 -366.113)" fill="#fff"/>
        <path id="Path_1265159" data-name="Path 1265159" d="M622.354,540.538a2.38,2.38,0,0,1-1.482-.451c-1.481-1.13-.495-3.674.234-4.861a6.612,6.612,0,0,1,4.137-2.963,3.816,3.816,0,0,1,3.69.9,3.371,3.371,0,0,1,.094,3.948,6.581,6.581,0,0,1-3.1,2.367l-.182.081a9.124,9.124,0,0,1-3.392.983m4.013-7.6a4.307,4.307,0,0,0-.946.107,5.882,5.882,0,0,0-3.631,2.6c-.563.917-1.409,3.055-.43,3.8s2.981-.15,4.061-.628l.185-.082a5.844,5.844,0,0,0,2.743-2.063h0a2.594,2.594,0,0,0-.02-2.984,2.556,2.556,0,0,0-1.962-.751" transform="translate(-425.617 -365.241)"/>
        <path id="Path_1265160" data-name="Path 1265160" d="M581.567,535.161A5.544,5.544,0,0,1,580.084,538c-.742.847-2.122,2.542-3.436,2.259-1.334-.286-1.47-2.491-1.352-3.554a5.453,5.453,0,0,1,2.035-3.649,2.969,2.969,0,0,1,2.9-.62,2.6,2.6,0,0,1,1.339,2.722" transform="translate(-394.84 -365.332)" fill="#fff"/>
        <path id="Path_1265161" data-name="Path 1265161" d="M576.068,539.819a1.83,1.83,0,0,1-.386-.041c-1.631-.349-1.8-2.764-1.667-3.991a5.82,5.82,0,0,1,2.186-3.921,3.384,3.384,0,0,1,3.3-.673,3,3,0,0,1,1.578,3.141,5.787,5.787,0,0,1-1.579,3.057l-.128.147c-.758.872-1.982,2.281-3.308,2.281m2.436-8.026a3.106,3.106,0,0,0-1.807.7,5.081,5.081,0,0,0-1.883,3.377c-.1.923.016,2.9,1.037,3.117s2.252-1.213,2.919-1.981l.13-.149a5.042,5.042,0,0,0,1.387-2.629h0a2.219,2.219,0,0,0-1.1-2.3,1.707,1.707,0,0,0-.683-.136" transform="translate(-393.958 -364.454)"/>
        <path id="Path_1265162" data-name="Path 1265162" d="M603.188,521.358c-1.03.945-3.157.152-4.268-.221a5.789,5.789,0,0,1-2.828-1.769,2.708,2.708,0,0,1-.229-3.147,3.084,3.084,0,0,1,2.926-.963,5.664,5.664,0,0,1,3.744,2.2c.665.891,1.7,2.941.654,3.9" transform="translate(-408.701 -353.627)" fill="#fff"/>
        <path id="Path_1265163" data-name="Path 1265163" d="M600.933,521.331a9.37,9.37,0,0,1-2.84-.629l-.179-.06a6.025,6.025,0,0,1-3.018-1.9,3.115,3.115,0,0,1-.236-3.63,3.508,3.508,0,0,1,3.3-1.124,6.036,6.036,0,0,1,4.013,2.36c.764,1.025,1.873,3.271.6,4.435a2.359,2.359,0,0,1-1.648.553m-3.6-6.587a2.459,2.459,0,0,0-2.024.838,2.335,2.335,0,0,0,.224,2.665,5.28,5.28,0,0,0,2.636,1.633l.181.061c1.009.343,2.886.981,3.687.245s-.125-2.586-.7-3.363a5.228,5.228,0,0,0-3.476-2.044,3.945,3.945,0,0,0-.524-.035" transform="translate(-407.823 -352.752)"/>
        <path id="Path_1265164" data-name="Path 1265164" d="M551.654,538.953c-.886,1.066-3.085.572-4.229.355a5.743,5.743,0,0,1-3.018-1.359,2.685,2.685,0,0,1-.649-3.065,3.063,3.063,0,0,1,2.748-1.345,5.636,5.636,0,0,1,3.982,1.664c.773.788,2.068,2.666,1.167,3.75" transform="translate(-373.048 -366.203)" fill="#fff"/>
        <path id="Path_1265165" data-name="Path 1265165" d="M548.879,539.136a11.969,11.969,0,0,1-2.219-.276l-.191-.037a5.986,5.986,0,0,1-3.226-1.468,3.093,3.093,0,0,1-.721-3.542,3.486,3.486,0,0,1,3.1-1.555h.01a6.006,6.006,0,0,1,4.259,1.784c.89.908,2.284,2.972,1.189,4.288a2.747,2.747,0,0,1-2.2.806m-3.246-6.074h-.008a2.7,2.7,0,0,0-2.4,1.134,2.312,2.312,0,0,0,.577,2.587,5.242,5.242,0,0,0,2.812,1.251l.194.037c1.036.2,2.965.572,3.651-.254h0c.695-.836-.471-2.525-1.144-3.212a5.27,5.27,0,0,0-3.686-1.543" transform="translate(-372.166 -365.324)"/>
        <path id="Path_1265166" data-name="Path 1265166" d="M571.216,539.4a.4.4,0,0,1-.386-.29,6.169,6.169,0,0,1-.083-2.291,4.921,4.921,0,0,0-.106-2.137,4.772,4.772,0,0,0-2.2-2.127l-.038-.023a6.279,6.279,0,0,1-2.606-2.365,5.573,5.573,0,0,1-.243-3.307l.061-.375a7.076,7.076,0,0,0,.117-2.582,4.929,4.929,0,0,0-1.823-2.681.4.4,0,1,1,.518-.614,5.684,5.684,0,0,1,2.091,3.13,7.773,7.773,0,0,1-.111,2.877l-.06.37a4.8,4.8,0,0,0,.171,2.83,5.612,5.612,0,0,0,2.3,2.031l.038.023a5.49,5.49,0,0,1,2.533,2.535,5.584,5.584,0,0,1,.153,2.487,5.49,5.49,0,0,0,.055,2,.4.4,0,0,1-.386.513" transform="translate(-386.951 -357.263)"/>
        <path id="Path_1265167" data-name="Path 1265167" d="M616.444,522.8a.406.406,0,0,1-.086-.009.4.4,0,0,1-.307-.478,59.329,59.329,0,0,0,.041-24.871.4.4,0,1,1,.785-.168,60.136,60.136,0,0,1-.041,25.211.4.4,0,0,1-.392.316" transform="translate(-422.829 -341.092)"/>
        <path id="Path_1265168" data-name="Path 1265168" d="M570.423,607.459H552.3a4.02,4.02,0,0,1-3.95-3.275l-3.7-19.658h33.428l-3.7,19.658a4.02,4.02,0,0,1-3.95,3.275" transform="translate(-373.828 -401.198)"/>
        <path id="Path_1265169" data-name="Path 1265169" d="M569.543,606.98h-18.12a4.424,4.424,0,0,1-4.345-3.6l-3.7-19.658a.4.4,0,0,1,.395-.476H577.2a.4.4,0,0,1,.395.476l-3.7,19.658a4.424,4.424,0,0,1-4.345,3.6m-25.29-22.933,3.614,19.182a3.62,3.62,0,0,0,3.555,2.948h18.12a3.62,3.62,0,0,0,3.555-2.948l3.614-19.182Z" transform="translate(-372.948 -400.319)"/>
        <path id="Path_1265170" data-name="Path 1265170" d="M574.662,583.043H539.951a1.212,1.212,0,0,1-1.212-1.212v-3.678a1.212,1.212,0,0,1,1.212-1.212h34.711a1.212,1.212,0,0,1,1.212,1.212v3.678a1.212,1.212,0,0,1-1.212,1.212" transform="translate(-369.772 -395.992)" fill="#fff"/>
        <path id="Path_1265171" data-name="Path 1265171" d="M573.442,582.566H539.413a1.957,1.957,0,0,1-1.955-1.955v-3a1.957,1.957,0,0,1,1.955-1.955h34.029a1.956,1.956,0,0,1,1.954,1.955v3a1.957,1.957,0,0,1-1.954,1.955m-34.029-6.1a1.152,1.152,0,0,0-1.151,1.151v3a1.152,1.152,0,0,0,1.151,1.151h34.029a1.152,1.152,0,0,0,1.151-1.151v-3a1.152,1.152,0,0,0-1.151-1.151Z" transform="translate(-368.893 -395.113)"/>
        <path id="Path_1265172" data-name="Path 1265172" d="M609.179,472.645c-.1,1.282-.2,3.778-1.6,4.419-1.416.649-3.052-1.272-3.673-2.326a6.229,6.229,0,0,1-.636-4.731,3.387,3.387,0,0,1,2.225-2.555,2.972,2.972,0,0,1,3.091,1.574,6.363,6.363,0,0,1,.59,3.618" transform="translate(-413.923 -320.802)" fill="#fff"/>
        <path id="Path_1265173" data-name="Path 1265173" d="M606.091,476.717c-1.438,0-2.813-1.639-3.413-2.657a6.59,6.59,0,0,1-.677-5.04,3.808,3.808,0,0,1,2.52-2.841,3.375,3.375,0,0,1,3.532,1.767,6.586,6.586,0,0,1,.641,3.846h0l-.016.222c-.1,1.431-.279,3.827-1.813,4.532a1.836,1.836,0,0,1-.774.17m-.962-9.806a1.819,1.819,0,0,0-.422.05,3.024,3.024,0,0,0-1.93,2.269,5.863,5.863,0,0,0,.594,4.423c.547.928,2.039,2.678,3.159,2.164,1.1-.507,1.262-2.688,1.347-3.86l.017-.225a5.846,5.846,0,0,0-.539-3.391,2.762,2.762,0,0,0-2.225-1.43m3.165,4.851h0Z" transform="translate(-413.037 -319.92)"/>
        <path id="Path_1265174" data-name="Path 1265174" d="M552.763,503.743c-1.059.969-3.029-.253-3.868-1a5.737,5.737,0,0,1-1.89-3.961,3.115,3.115,0,0,1,1.229-2.861,2.73,2.73,0,0,1,3.147.507,5.834,5.834,0,0,1,1.532,3c.278,1.148.891,3.361-.149,4.314" transform="translate(-375.441 -340.174)" fill="#fff"/>
        <path id="Path_1265175" data-name="Path 1265175" d="M550.9,503.624a5.476,5.476,0,0,1-3.151-1.461,6.1,6.1,0,0,1-2.025-4.242,3.537,3.537,0,0,1,1.422-3.224,3.136,3.136,0,0,1,3.627.555,6.07,6.07,0,0,1,1.651,3.2l.045.185c.317,1.292.848,3.454-.314,4.519h0a1.8,1.8,0,0,1-1.256.465m.984-.762h0Zm-3.4-7.723a1.746,1.746,0,0,0-.917.245,2.751,2.751,0,0,0-1.036,2.5,5.366,5.366,0,0,0,1.756,3.68c.732.651,2.51,1.755,3.33,1s.332-2.689.076-3.735l-.046-.188a5.326,5.326,0,0,0-1.414-2.8,2.7,2.7,0,0,0-1.749-.7" transform="translate(-374.563 -339.293)"/>
        <path id="Path_1265176" data-name="Path 1265176" d="M628.788,505.325a6.293,6.293,0,0,1-2.89,2.192c-1.167.51-3.394,1.576-4.6.654-1.226-.935-.3-3.256.327-4.285a6.166,6.166,0,0,1,3.842-2.751,3.355,3.355,0,0,1,3.263.76,2.944,2.944,0,0,1,.057,3.431" transform="translate(-426.025 -343.881)" fill="#fff"/>
        <path id="Path_1265177" data-name="Path 1265177" d="M621.638,508.064a2.349,2.349,0,0,1-1.465-.446c-1.467-1.118-.492-3.638.228-4.815a6.532,6.532,0,0,1,4.1-2.932,3.78,3.78,0,0,1,3.654.886,3.349,3.349,0,0,1,.093,3.912h0a6.533,6.533,0,0,1-3.067,2.344l-.2.087a9.015,9.015,0,0,1-3.341.964m3.974-7.516a4.268,4.268,0,0,0-.937.106,5.8,5.8,0,0,0-3.589,2.569c-.556.907-1.391,3.019-.425,3.756s2.931-.145,3.995-.615l.2-.088a5.782,5.782,0,0,0,2.712-2.04,2.571,2.571,0,0,0-.02-2.949,2.523,2.523,0,0,0-1.935-.739m2.294,3.9h0Z" transform="translate(-425.142 -343.009)"/>
        <path id="Path_1265178" data-name="Path 1265178" d="M629.572,537.763a6.352,6.352,0,0,1-2.921,2.215c-1.177.518-3.431,1.594-4.651.662-1.239-.945-.306-3.292.332-4.332a6.244,6.244,0,0,1,3.884-2.782,3.391,3.391,0,0,1,3.3.77,2.967,2.967,0,0,1,.057,3.467" transform="translate(-426.502 -366.113)" fill="#fff"/>
        <path id="Path_1265179" data-name="Path 1265179" d="M622.354,540.538a2.38,2.38,0,0,1-1.482-.451c-1.481-1.13-.495-3.674.234-4.861a6.612,6.612,0,0,1,4.137-2.963,3.816,3.816,0,0,1,3.69.9,3.371,3.371,0,0,1,.094,3.948,6.581,6.581,0,0,1-3.1,2.367l-.182.081a9.124,9.124,0,0,1-3.392.983m4.013-7.6a4.307,4.307,0,0,0-.946.107,5.882,5.882,0,0,0-3.631,2.6c-.563.917-1.409,3.055-.43,3.8s2.981-.15,4.061-.628l.185-.082a5.844,5.844,0,0,0,2.743-2.063h0a2.594,2.594,0,0,0-.02-2.984,2.556,2.556,0,0,0-1.962-.751" transform="translate(-425.617 -365.241)"/>
        <path id="Path_1265180" data-name="Path 1265180" d="M581.567,535.161A5.544,5.544,0,0,1,580.084,538c-.742.847-2.122,2.542-3.436,2.259-1.334-.286-1.47-2.491-1.352-3.554a5.453,5.453,0,0,1,2.035-3.649,2.969,2.969,0,0,1,2.9-.62,2.6,2.6,0,0,1,1.339,2.722" transform="translate(-394.84 -365.332)" fill="#fff"/>
        <path id="Path_1265181" data-name="Path 1265181" d="M576.068,539.819a1.83,1.83,0,0,1-.386-.041c-1.631-.349-1.8-2.764-1.667-3.991a5.82,5.82,0,0,1,2.186-3.921,3.384,3.384,0,0,1,3.3-.673,3,3,0,0,1,1.578,3.141,5.787,5.787,0,0,1-1.579,3.057l-.128.147c-.758.872-1.982,2.281-3.308,2.281m2.436-8.026a3.106,3.106,0,0,0-1.807.7,5.081,5.081,0,0,0-1.883,3.377c-.1.923.016,2.9,1.037,3.117s2.252-1.213,2.919-1.981l.13-.149a5.042,5.042,0,0,0,1.387-2.629h0a2.219,2.219,0,0,0-1.1-2.3,1.707,1.707,0,0,0-.683-.136" transform="translate(-393.958 -364.454)"/>
        <path id="Path_1265182" data-name="Path 1265182" d="M603.188,521.358c-1.03.945-3.157.152-4.268-.221a5.789,5.789,0,0,1-2.828-1.769,2.708,2.708,0,0,1-.229-3.147,3.084,3.084,0,0,1,2.926-.963,5.664,5.664,0,0,1,3.744,2.2c.665.891,1.7,2.941.654,3.9" transform="translate(-408.701 -353.627)" fill="#fff"/>
        <path id="Path_1265183" data-name="Path 1265183" d="M600.933,521.331a9.37,9.37,0,0,1-2.84-.629l-.179-.06a6.025,6.025,0,0,1-3.018-1.9,3.115,3.115,0,0,1-.236-3.63,3.508,3.508,0,0,1,3.3-1.124,6.036,6.036,0,0,1,4.013,2.36c.764,1.025,1.873,3.271.6,4.435a2.359,2.359,0,0,1-1.648.553m-3.6-6.587a2.459,2.459,0,0,0-2.024.838,2.335,2.335,0,0,0,.224,2.665,5.28,5.28,0,0,0,2.636,1.633l.181.061c1.009.343,2.886.981,3.687.245s-.125-2.586-.7-3.363a5.228,5.228,0,0,0-3.476-2.044,3.945,3.945,0,0,0-.524-.035" transform="translate(-407.823 -352.752)"/>
        <path id="Path_1265184" data-name="Path 1265184" d="M551.654,538.953c-.886,1.066-3.085.572-4.229.355a5.743,5.743,0,0,1-3.018-1.359,2.685,2.685,0,0,1-.649-3.065,3.063,3.063,0,0,1,2.748-1.345,5.636,5.636,0,0,1,3.982,1.664c.773.788,2.068,2.666,1.167,3.75" transform="translate(-373.048 -366.203)" fill="#fff"/>
        <path id="Path_1265185" data-name="Path 1265185" d="M548.879,539.136a11.969,11.969,0,0,1-2.219-.276l-.191-.037a5.986,5.986,0,0,1-3.226-1.468,3.093,3.093,0,0,1-.721-3.542,3.486,3.486,0,0,1,3.1-1.555h.01a6.006,6.006,0,0,1,4.259,1.784c.89.908,2.284,2.972,1.189,4.288a2.747,2.747,0,0,1-2.2.806m-3.246-6.074h-.008a2.7,2.7,0,0,0-2.4,1.134,2.312,2.312,0,0,0,.577,2.587,5.242,5.242,0,0,0,2.812,1.251l.194.037c1.036.2,2.965.572,3.651-.254h0c.695-.836-.471-2.525-1.144-3.212a5.27,5.27,0,0,0-3.686-1.543" transform="translate(-372.166 -365.324)"/>
        <path id="Path_1265186" data-name="Path 1265186" d="M571.216,539.4a.4.4,0,0,1-.386-.29,6.169,6.169,0,0,1-.083-2.291,4.921,4.921,0,0,0-.106-2.137,4.772,4.772,0,0,0-2.2-2.127l-.038-.023a6.279,6.279,0,0,1-2.606-2.365,5.573,5.573,0,0,1-.243-3.307l.061-.375a7.076,7.076,0,0,0,.117-2.582,4.929,4.929,0,0,0-1.823-2.681.4.4,0,1,1,.518-.614,5.684,5.684,0,0,1,2.091,3.13,7.773,7.773,0,0,1-.111,2.877l-.06.37a4.8,4.8,0,0,0,.171,2.83,5.612,5.612,0,0,0,2.3,2.031l.038.023a5.49,5.49,0,0,1,2.533,2.535,5.584,5.584,0,0,1,.153,2.487,5.49,5.49,0,0,0,.055,2,.4.4,0,0,1-.386.513" transform="translate(-386.951 -357.263)"/>
        <path id="Path_1265187" data-name="Path 1265187" d="M616.444,522.8a.406.406,0,0,1-.086-.009.4.4,0,0,1-.307-.478,59.329,59.329,0,0,0,.041-24.871.4.4,0,1,1,.785-.168,60.136,60.136,0,0,1-.041,25.211.4.4,0,0,1-.392.316" transform="translate(-422.829 -341.092)"/>
        <path id="Path_1265188" data-name="Path 1265188" d="M570.423,607.459H552.3a4.02,4.02,0,0,1-3.95-3.275l-3.7-19.658h33.428l-3.7,19.658a4.02,4.02,0,0,1-3.95,3.275" transform="translate(-373.828 -401.198)" fill="#574727"/>
        <path id="Path_1265189" data-name="Path 1265189" d="M569.543,606.98h-18.12a4.424,4.424,0,0,1-4.345-3.6l-3.7-19.658a.4.4,0,0,1,.395-.476H577.2a.4.4,0,0,1,.395.476l-3.7,19.658a4.424,4.424,0,0,1-4.345,3.6m-25.29-22.933,3.614,19.182a3.62,3.62,0,0,0,3.555,2.948h18.12a3.62,3.62,0,0,0,3.555-2.948l3.614-19.182Z" transform="translate(-372.948 -400.319)"/>
        <path id="Path_1265190" data-name="Path 1265190" d="M574.662,583.043H539.951a1.212,1.212,0,0,1-1.212-1.212v-3.678a1.212,1.212,0,0,1,1.212-1.212h34.711a1.212,1.212,0,0,1,1.212,1.212v3.678a1.212,1.212,0,0,1-1.212,1.212" transform="translate(-369.772 -395.992)" fill="#fff"/>
        <path id="Path_1265191" data-name="Path 1265191" d="M573.442,582.566H539.413a1.957,1.957,0,0,1-1.955-1.955v-3a1.957,1.957,0,0,1,1.955-1.955h34.029a1.956,1.956,0,0,1,1.954,1.955v3a1.957,1.957,0,0,1-1.954,1.955m-34.029-6.1a1.152,1.152,0,0,0-1.151,1.151v3a1.152,1.152,0,0,0,1.151,1.151h34.029a1.152,1.152,0,0,0,1.151-1.151v-3a1.152,1.152,0,0,0-1.151-1.151Z" transform="translate(-368.893 -395.113)"/>
        <path id="Path_1265192" data-name="Path 1265192" d="M343.014,492.268a3,3,0,0,1-2.993,3l-53.394.044a3,3,0,0,1-3-2.993l-.032-38.83a3,3,0,0,1,2.993-3l53.394-.048a3,3,0,0,1,3,2.993Z" transform="translate(-194.649 -309.167)" fill="#fff"/>
        <path id="Path_1265193" data-name="Path 1265193" d="M285.747,494.836a3.4,3.4,0,0,1-3.4-3.394l-.033-38.832a3.4,3.4,0,0,1,3.394-3.4l53.393-.045h0a3.4,3.4,0,0,1,3.4,3.394l.033,38.832a3.4,3.4,0,0,1-3.394,3.4l-53.393.045Zm53.361-44.867h0l-53.393.045a2.593,2.593,0,0,0-2.592,2.6l.033,38.832a2.593,2.593,0,0,0,2.594,2.592h0l53.393-.045a2.6,2.6,0,0,0,2.592-2.6L341.7,452.56a2.6,2.6,0,0,0-2.594-2.591" transform="translate(-193.773 -308.291)"/>
        <path id="Path_1265194" data-name="Path 1265194" d="M311.248,572.337l-7.766.008-.008-8.855a.8.8,0,0,1,.8-.8l6.159-.008a.806.806,0,0,1,.8.8Z" transform="translate(-208.294 -386.203)" fill="#fff"/>
        <path id="Path_1265195" data-name="Path 1265195" d="M302.6,571.868a.4.4,0,0,1-.4-.4l-.007-8.854a1.207,1.207,0,0,1,1.2-1.206l6.159-.005h0a1.207,1.207,0,0,1,1.206,1.2l.008,8.854a.4.4,0,0,1-.4.4l-7.766.007Zm6.954-9.664h0l-6.159.005a.4.4,0,0,0-.4.4l.007,8.452,6.963-.006-.007-8.452a.4.4,0,0,0-.4-.4" transform="translate(-207.415 -385.326)"/>
        <path id="Path_1265196" data-name="Path 1265196" d="M353,559.455l-7.766.008-.012-14.729a.8.8,0,0,1,.8-.8l6.159,0a.8.8,0,0,1,.8.8Z" transform="translate(-236.948 -373.333)" fill="#ffc94a"/>
        <path id="Path_1265197" data-name="Path 1265197" d="M344.349,558.983a.4.4,0,0,1-.4-.4l-.012-14.726a1.207,1.207,0,0,1,1.2-1.207l6.159-.005h0a1.207,1.207,0,0,1,1.205,1.2l.013,14.726a.4.4,0,0,1-.4.4l-7.766.007Zm6.95-15.536h0l-6.159.005a.4.4,0,0,0-.4.4l.012,14.325,6.963-.006-.012-14.325a.4.4,0,0,0-.4-.4" transform="translate(-236.065 -372.451)"/>
        <path id="Path_1265198" data-name="Path 1265198" d="M394.737,545.875l-7.766.008-.016-20.916a.8.8,0,0,1,.8-.8l6.159,0a.8.8,0,0,1,.8.8Z" transform="translate(-265.593 -359.765)" fill="#fff"/>
        <path id="Path_1265199" data-name="Path 1265199" d="M386.093,545.4a.4.4,0,0,1-.4-.4l-.018-20.916a1.207,1.207,0,0,1,1.2-1.207l6.159-.005h0a1.205,1.205,0,0,1,1.205,1.2l.018,20.916a.4.4,0,0,1-.4.4l-7.766.007Zm6.945-21.725h0l-6.159.005a.4.4,0,0,0-.4.4l.017,20.514,6.962-.006-.017-20.514a.4.4,0,0,0-.4-.4" transform="translate(-264.713 -358.883)"/>
        <path id="Path_1265200" data-name="Path 1265200" d="M436.488,533.251l-7.766,0-.02-26.665a.8.8,0,0,1,.8-.808l6.159,0a.81.81,0,0,1,.808.8Z" transform="translate(-294.246 -347.149)" fill="#2c411f"/>
        <path id="Path_1265201" data-name="Path 1265201" d="M427.84,532.781a.4.4,0,0,1-.4-.4l-.022-26.668a1.206,1.206,0,0,1,1.2-1.206l6.159-.005h0a1.206,1.206,0,0,1,1.205,1.2l.022,26.667a.4.4,0,0,1-.4.4l-7.766.007Zm6.94-27.476h0l-6.159,0a.4.4,0,0,0-.4.4l.022,26.266,6.962-.006-.022-26.265a.4.4,0,0,0-.4-.4" transform="translate(-293.364 -346.272)"/>
        <path id="Path_1265202" data-name="Path 1265202" d="M315.485,497.43a98.678,98.678,0,0,0,39.382-21.265" transform="translate(-216.538 -326.823)" fill="#fff"/>
        <path id="Path_1265203" data-name="Path 1265203" d="M314.605,496.952a.4.4,0,0,1-.109-.788,98.753,98.753,0,0,0,39.223-21.179.4.4,0,1,1,.534.6,99.539,99.539,0,0,1-39.539,21.352.4.4,0,0,1-.109.015" transform="translate(-215.659 -325.944)"/>
        <path id="Path_1265204" data-name="Path 1265204" d="M428.138,480.8a.423.423,0,0,1-.066-.005.4.4,0,0,1-.331-.462l.755-4.558-4.557.763a.4.4,0,0,1-.133-.793l5.111-.856a.4.4,0,0,1,.463.462l-.847,5.113a.4.4,0,0,1-.4.336" transform="translate(-290.656 -325.943)"/>
        <path id="Path_1265205" data-name="Path 1265205" d="M49.578,176.881c7.192,0,11.64-4.474,18-8.152,1.63-.942,6.418,1.872,9.11-1.539a7.044,7.044,0,0,0,1.124-6.531,11.119,11.119,0,0,0-4.282-5.329,17,17,0,0,0-11.46-2.993,9.047,9.047,0,0,0-5.47,2.233c-1.065,1.046-1.715,2.449-2.733,3.541a7.021,7.021,0,0,1-4.674,2.2c-1.126.066-2.255-.144-3.381-.073a3.489,3.489,0,0,0-2.888,1.482c-.805,1.411.055,3.189-.156,4.8a6.087,6.087,0,0,1-2.487,3.676,17.457,17.457,0,0,0-3.382,3.019,3.66,3.66,0,0,0-.312,4.231c.518.676,1.341,1.053,1.908,1.689.994,1.116,1.011,2.784.807,4.264a15.873,15.873,0,0,0-.161,4.443c.556,3.868,4.652,6.265,10.97,7.077" transform="translate(-24.739 -104.498)"/>
        <path id="Path_1265206" data-name="Path 1265206" d="M64.05,247.994c-.422-.044-.846-.107-1.289-.178a8.839,8.839,0,0,1-4.659-2.088,5.361,5.361,0,0,1-1.763-4.651,4.454,4.454,0,0,1,2.2-3.125,4.69,4.69,0,0,1,5.079,1.08" transform="translate(-38.629 -163.081)" fill="#fff"/>
        <path id="Path_1265207" data-name="Path 1265207" d="M63.173,247.524l-.042,0c-.446-.046-.894-.114-1.312-.181a9.218,9.218,0,0,1-4.869-2.191,5.741,5.741,0,0,1-1.886-5.01,4.825,4.825,0,0,1,2.405-3.411,5.119,5.119,0,0,1,5.556,1.146.4.4,0,0,1-.565.572,4.321,4.321,0,0,0-4.6-1.014,4.071,4.071,0,0,0-2,2.839,4.935,4.935,0,0,0,1.641,4.291,8.426,8.426,0,0,0,4.449,1.985c.406.065.841.131,1.267.175a.4.4,0,0,1-.041.8" transform="translate(-37.752 -162.21)"/>
        <path id="Path_1265208" data-name="Path 1265208" d="M65.724,251.275a6.384,6.384,0,0,1,4.267,2.855" transform="translate(-45.111 -172.467)" fill="#fff"/>
        <path id="Path_1265209" data-name="Path 1265209" d="M69.113,253.654a.4.4,0,0,1-.348-.2,6.022,6.022,0,0,0-3.976-2.658.4.4,0,0,1,.114-.8,6.735,6.735,0,0,1,4.558,3.052.4.4,0,0,1-.147.549.4.4,0,0,1-.2.054" transform="translate(-44.232 -171.589)"/>
        <path id="Path_1265210" data-name="Path 1265210" d="M74.219,250.524a3.886,3.886,0,0,1,1.85-1.973" transform="translate(-50.941 -170.597)" fill="#fff"/>
        <path id="Path_1265211" data-name="Path 1265211" d="M73.339,250.046a.407.407,0,0,1-.155-.031.4.4,0,0,1-.215-.525,4.26,4.26,0,0,1,2.085-2.2.4.4,0,0,1,.271.756A3.508,3.508,0,0,0,73.71,249.8a.4.4,0,0,1-.371.246" transform="translate(-50.062 -169.717)"/>
        <path id="Path_1265212" data-name="Path 1265212" d="M93.5,6.283V31.329A4.492,4.492,0,0,0,98,35.821h18.357l12.905,7.425V35.821h7.964a4.493,4.493,0,0,0,4.5-4.492V6.283a4.5,4.5,0,0,0-4.5-4.5H98a4.5,4.5,0,0,0-4.492,4.5" transform="translate(-64.178 -1.226)" fill="#fff"/>
        <path id="Path_1265213" data-name="Path 1265213" d="M128.378,42.769a.4.4,0,0,1-.2-.054l-12.812-7.372H97.117a4.9,4.9,0,0,1-4.894-4.894V5.4A4.9,4.9,0,0,1,97.117.5h39.226a4.9,4.9,0,0,1,4.9,4.9V30.45a4.9,4.9,0,0,1-4.9,4.894H128.78v7.024a.4.4,0,0,1-.4.4M97.117,1.309A4.1,4.1,0,0,0,93.027,5.4V30.45a4.1,4.1,0,0,0,4.09,4.09h18.357a.4.4,0,0,1,.2.053l12.3,7.079V34.942a.4.4,0,0,1,.4-.4h7.964a4.1,4.1,0,0,0,4.095-4.09V5.4a4.1,4.1,0,0,0-4.095-4.095Z" transform="translate(-63.299 -0.347)"/>
        <path id="Path_1265214" data-name="Path 1265214" d="M143.852,41.6l15.012-15.012a1.744,1.744,0,0,0-2.466-2.466L141.386,39.134a1.744,1.744,0,0,0,2.466,2.467" transform="translate(-96.692 -16.206)"/>
        <path id="Path_1265215" data-name="Path 1265215" d="M141.742,41.635a2.145,2.145,0,0,1-1.517-3.662l15.012-15.012A2.146,2.146,0,1,1,158.272,26L143.26,41.008a2.138,2.138,0,0,1-1.517.628m15.012-18.5a1.334,1.334,0,0,0-.949.393L140.793,38.542a1.342,1.342,0,0,0,0,1.9,1.375,1.375,0,0,0,1.9,0L157.7,25.427a1.342,1.342,0,0,0-.949-2.291" transform="translate(-95.815 -15.329)"/>
        <path id="Path_1265216" data-name="Path 1265216" d="M183.968,66.7a3.355,3.355,0,1,1,0-4.744,3.354,3.354,0,0,1,0,4.744" transform="translate(-122.339 -41.853)"/>
        <path id="Path_1265217" data-name="Path 1265217" d="M180.721,67.212a3.755,3.755,0,1,1,2.656-1.1,3.744,3.744,0,0,1-2.656,1.1m0-6.706a2.951,2.951,0,1,0,2.088.863,2.944,2.944,0,0,0-2.088-.863" transform="translate(-121.464 -40.978)"/>
        <path id="Path_1265218" data-name="Path 1265218" d="M146.829,29.566a3.355,3.355,0,1,1,0-4.744,3.354,3.354,0,0,1,0,4.744" transform="translate(-96.848 -16.363)"/>
        <path id="Path_1265219" data-name="Path 1265219" d="M143.581,30.073a3.755,3.755,0,1,1,2.656-1.1,3.744,3.744,0,0,1-2.656,1.1m0-6.706a2.951,2.951,0,1,0,2.088.863,2.944,2.944,0,0,0-2.088-.863" transform="translate(-95.972 -15.487)"/>
      </g>
    </g>
  </g>
</svg>
