<svg xmlns="http://www.w3.org/2000/svg" xmlns:xlink="http://www.w3.org/1999/xlink" width="126.376" height="126.376" viewBox="0 0 126.376 126.376">
  <defs>
    <filter id="Path_874925" x="0" y="0" width="126.376" height="126.376" filterUnits="userSpaceOnUse">
      <feOffset dy="3" input="SourceAlpha"/>
      <feGaussianBlur stdDeviation="3" result="blur"/>
      <feFlood flood-opacity="0.161"/>
      <feComposite operator="in" in2="blur"/>
      <feComposite in="SourceGraphic"/>
    </filter>
  </defs>
  <g id="Group_1205757" data-name="Group 1205757" transform="translate(1689 7736)">
    <g id="Group_1205732" data-name="Group 1205732" transform="translate(-2426.051 -11903)">
      <g id="Group_1205682" data-name="Group 1205682" transform="translate(461.051 -2077.874)">
        <g id="Group_1200232" data-name="Group 1200232" transform="translate(285 6250.874)">
          <g id="Group_1187153" data-name="Group 1187153">
            <g id="Group_1182177" data-name="Group 1182177">
              <g id="Group_1181903" data-name="Group 1181903">
                <g id="Group_1181438" data-name="Group 1181438">
                  <g id="Group_1111314" data-name="Group 1111314">
                    <g transform="matrix(1, 0, 0, 1, -9, -6)" filter="url(#Path_874925)">
                      <g id="Path_874925-2" data-name="Path 874925" transform="translate(9 6)" fill="#ffc94a">
                        <path d="M 54.1878662109375 106.8763656616211 C 47.07439041137695 106.8763656616211 40.17448043823242 105.4835205078125 33.67983627319336 102.7365036010742 C 27.40597343444824 100.0828857421875 21.77115821838379 96.28368377685547 16.93191146850586 91.44444274902344 C 12.09268188476562 86.60519409179688 8.293481826782227 80.97038269042969 5.639866352081299 74.696533203125 C 2.892850875854492 68.20187377929688 1.500004649162292 61.30196380615234 1.500004649162292 54.1884880065918 C 1.500004649162292 47.07439422607422 2.892850875854492 40.17448806762695 5.639866352081299 33.67982482910156 C 8.293481826782227 27.40597915649414 12.09268188476562 21.77116394042969 16.93191146850586 16.93191719055176 C 21.77115821838379 12.09267139434814 27.40597343444824 8.293471336364746 33.67983627319336 5.639855861663818 C 40.17448043823242 2.892840623855591 47.07439041137695 1.499994397163391 54.1878662109375 1.499994397163391 C 61.30134201049805 1.499994397163391 68.20124816894531 2.892840623855591 74.69589996337891 5.639855861663818 C 80.96975708007812 8.293471336364746 86.60457611083984 12.09267139434814 91.44381713867188 16.93191719055176 C 96.28305053710938 21.77116394042969 100.0822525024414 27.40597915649414 102.7358627319336 33.67982482910156 C 105.4828796386719 40.17448806762695 106.8757247924805 47.07439422607422 106.8757247924805 54.18787002563477 C 106.8757247924805 61.30196380615234 105.4828796386719 68.20187377929688 102.7358627319336 74.696533203125 C 100.0822525024414 80.97038269042969 96.28305053710938 86.60519409179688 91.44381713867188 91.44444274902344 C 86.60457611083984 96.28368377685547 80.96975708007812 100.0828857421875 74.69589996337891 102.7365036010742 C 68.20124816894531 105.4835205078125 61.30134201049805 106.8763656616211 54.1878662109375 106.8763656616211 Z" stroke="none"/>
                        <path d="M 54.1878662109375 2.999992370605469 C 47.2762336730957 2.999992370605469 40.57291412353516 4.352981567382812 34.26416778564453 7.0213623046875 C 28.16909790039062 9.599342346191406 22.69454956054688 13.29059600830078 17.99258422851562 17.99257659912109 C 13.29059600830078 22.69454193115234 9.599349975585938 28.16909790039062 7.021369934082031 34.26416015625 C 4.352981567382812 40.57292938232422 3 47.27622985839844 3 54.18849563598633 C 3 61.10012817382812 4.352981567382812 67.80344390869141 7.021369934082031 74.11219787597656 C 9.599349975585938 80.20726013183594 13.29059600830078 85.68180847167969 17.99258422851562 90.38378143310547 C 22.69454956054688 95.08576202392578 28.16909790039062 98.77701568603516 34.26416778564453 101.3549957275391 C 40.57291412353516 104.0233764648438 47.2762336730957 105.3763656616211 54.1878662109375 105.3763656616211 C 61.0994987487793 105.3763656616211 67.80281066894531 104.0233764648438 74.11156463623047 101.3549957275391 C 80.20663452148438 98.77701568603516 85.68118286132812 95.08576202392578 90.38314819335938 90.38378143310547 C 95.08512878417969 85.68180847167969 98.77638244628906 80.20726013183594 101.3543701171875 74.11219787597656 C 104.0227508544922 67.80344390869141 105.375732421875 61.10012817382812 105.375732421875 54.1878776550293 C 105.375732421875 47.27622985839844 104.0227508544922 40.57292938232422 101.3543701171875 34.26416015625 C 98.77638244628906 28.16909790039062 95.08512878417969 22.69454193115234 90.38314819335938 17.99257659912109 C 85.68118286132812 13.29059600830078 80.20663452148438 9.599342346191406 74.11156463623047 7.0213623046875 C 67.80281066894531 4.352981567382812 61.0994987487793 2.999992370605469 54.1878662109375 2.999992370605469 M 54.1878662109375 -7.62939453125e-06 C 84.11499786376953 -7.62939453125e-06 108.375732421875 24.26072692871094 108.375732421875 54.1878776550293 L 108.375732421875 54.18849563598633 C 108.375732421875 84.11563110351562 84.11499786376953 108.3763656616211 54.1878662109375 108.3763656616211 C 24.26073455810547 108.3763656616211 0 84.11563110351562 0 54.18849563598633 L 0 54.1878776550293 C 0 24.26072692871094 24.26073455810547 -7.62939453125e-06 54.1878662109375 -7.62939453125e-06 Z" stroke="none" fill="#fff"/>
                      </g>
                    </g>
                  </g>
                </g>
              </g>
            </g>
          </g>
        </g>
      </g>
    </g>
    <g id="campesino" transform="translate(-1664.589 -7707.351)">
      <g id="Group_1205752" data-name="Group 1205752" transform="translate(9.257 0.937)">
        <path id="Path_1265036" data-name="Path 1265036" d="M110.965,24.914H81.657L83.976,12.6a6.264,6.264,0,0,1,6.155-5.1h12.36a6.264,6.264,0,0,1,6.156,5.1Z" transform="translate(-73.429 -7.5)" fill="#99e6fc"/>
        <path id="Path_1265037" data-name="Path 1265037" d="M231.773,12.6a6.264,6.264,0,0,0-6.156-5.1h-3.249a6.264,6.264,0,0,1,6.156,5.1l2.319,12.31h3.249Z" transform="translate(-196.556 -7.5)" fill="#62dbfb"/>
        <ellipse id="Ellipse_12802" data-name="Ellipse 12802" cx="22.104" cy="5.714" rx="22.104" ry="5.714" transform="translate(0.778 13.043)" fill="#766e6e"/>
        <ellipse id="Ellipse_12803" data-name="Ellipse 12803" cx="4.672" cy="2.986" rx="4.672" ry="2.986" transform="translate(0.962 34.852) rotate(-39.844)" fill="#8c8585"/>
        <ellipse id="Ellipse_12804" data-name="Ellipse 12804" cx="2.986" cy="4.672" rx="2.986" ry="4.672" transform="translate(33.481 33.445) rotate(-50.156)" fill="#9e9797"/>
        <path id="Path_1265038" data-name="Path 1265038" d="M307.683,252.067c-1.739-1.451-3.848-1.87-5.052-1.1a6.88,6.88,0,0,1,1.8,1.1c1.981,1.653,2.73,4.02,1.674,5.286a1.967,1.967,0,0,1-.448.394c1.491.606,2.948.5,3.7-.394C310.414,256.087,309.664,253.72,307.683,252.067Z" transform="translate(-266.788 -220.21)" fill="#8c8585"/>
        <path id="Path_1265039" data-name="Path 1265039" d="M103.539,97.479l-.655-3.651H75.236l-.655,3.651c-.491,3.535-.922,8.541-1.186,11.942a8.14,8.14,0,0,0,2.359,6.386h0a8.139,8.139,0,0,0,5.755,2.384h15.1a8.139,8.139,0,0,0,5.755-2.384h0a8.141,8.141,0,0,0,2.359-6.386C104.461,106.02,104.03,101.014,103.539,97.479Z" transform="translate(-66.178 -83.04)" fill="#9e9797"/>
        <rect id="Rectangle_411794" data-name="Rectangle 411794" width="7.754" height="6.535" transform="translate(19.005 34.149)" fill="#ffcebf"/>
        <rect id="Rectangle_411795" data-name="Rectangle 411795" width="3.249" height="6.535" transform="translate(23.509 34.149)" fill="#ffb09e"/>
        <g id="Group_1205751" data-name="Group 1205751" transform="translate(45.927 22.438)">
          <g id="Group_1205749" data-name="Group 1205749">
            <path id="Path_1265040" data-name="Path 1265040" d="M383.645,187.79s.881-1.768,3.666.139,2.671,4.2,2.671,4.2-2.1.935-4.883-.972S383.645,187.79,383.645,187.79Z" transform="translate(-383.327 -187.044)" fill="#a2e62e"/>
          </g>
          <g id="Group_1205750" data-name="Group 1205750" transform="translate(6.656)">
            <path id="Path_1265041" data-name="Path 1265041" d="M442.922,187.79s-.881-1.768-3.666.139-2.671,4.2-2.671,4.2,2.1.935,4.883-.972S442.922,187.79,442.922,187.79Z" transform="translate(-436.584 -187.044)" fill="#80d261"/>
          </g>
        </g>
        <path id="Path_1265042" data-name="Path 1265042" d="M124.112,128.823H118.92a8.458,8.458,0,0,1-8.458-8.458V105.978h22.109v14.386A8.458,8.458,0,0,1,124.112,128.823Z" transform="translate(-98.635 -93.671)" fill="#ffdfcf"/>
        <path id="Path_1265043" data-name="Path 1265043" d="M227.414,105.98v14.385a8.458,8.458,0,0,1-8.458,8.459l-.1.02a8.457,8.457,0,0,0,5.314-7.854V105.98Z" transform="translate(-193.478 -93.673)" fill="#ffcebf"/>
        <path id="Path_1265044" data-name="Path 1265044" d="M121.83,354.478H108.183l-12.04-3.921v-17.5H121.83Z" transform="translate(-86.105 -292.368)" fill="#fef48b"/>
        <rect id="Rectangle_411796" data-name="Rectangle 411796" width="3.249" height="21.426" transform="translate(32.476 40.684)" fill="#fef056"/>
        <path id="Path_1265045" data-name="Path 1265045" d="M37.218,333.049l1.395,14.5H28.8v-6.086a8.417,8.417,0,0,1,8.416-8.416Z" transform="translate(-27.18 -292.365)" fill="#fef48b"/>
        <path id="Path_1265046" data-name="Path 1265046" d="M304.187,349.588l-2.494-4.68V333.049a5.991,5.991,0,0,1,5.4,3.4l4,8.343Z" transform="translate(-265.967 -292.365)" fill="#fef48b"/>
        <path id="Path_1265047" data-name="Path 1265047" d="M303.844,336.451l4.83,10.02,2.415-1.677-4-8.343a5.991,5.991,0,0,0-5.4-3.4v.96A5.986,5.986,0,0,1,303.844,336.451Z" transform="translate(-265.967 -292.365)" fill="#fef056"/>
        <path id="Path_1265048" data-name="Path 1265048" d="M37.218,449.085v5.259l-4.9,1.666H28.8v-6.925Z" transform="translate(-27.181 -393.9)" fill="#ffcebf"/>
        <path id="Path_1265049" data-name="Path 1265049" d="M155.848,316.615l2.192,3.118a.76.76,0,0,0,1.266-.035l1.925-3.083-3.877-2.347Z" transform="translate(-138.349 -275.931)" fill="#99e6fc"/>
        <path id="Path_1265050" data-name="Path 1265050" d="M204.3,316.615l-2.192,3.118a.76.76,0,0,1-1.266-.035l-1.925-3.083,3.877-2.347Z" transform="translate(-176.036 -275.931)" fill="#62dbfb"/>
        <path id="Path_1265051" data-name="Path 1265051" d="M96.942,114.439s11.354-.234,16.161-7.855c0,0,1.635,5.569,5.947,5.569l1.109-6.174H95.011Z" transform="translate(-85.114 -93.671)" fill="#9e9797"/>
        <path id="Path_1265052" data-name="Path 1265052" d="M330.061,430.062l-.956,6.652h-4.651l-2.8-4.887,6.9-4.794Z" transform="translate(-283.43 -374.604)" fill="#ffcebf"/>
        <path id="Path_1265053" data-name="Path 1265053" d="M244.7,109.422c-.264-3.4-.695-8.407-1.186-11.942l-.655-3.651h-3.249l.655,3.651c.491,3.535.922,8.541,1.186,11.942a8.14,8.14,0,0,1-2.359,6.386h0a8.139,8.139,0,0,1-5.755,2.384h3.249a8.139,8.139,0,0,0,5.755-2.384h0A8.14,8.14,0,0,0,244.7,109.422Z" transform="translate(-206.153 -83.04)" fill="#8c8585"/>
        <path id="Path_1265054" data-name="Path 1265054" d="M360.76,435.128l.728-5.067-1.507-3.029-2.415,1.677Z" transform="translate(-314.858 -374.603)" fill="#ffb09e"/>
        <path id="Path_1265055" data-name="Path 1265055" d="M61.366,89.573c0,.576-.561,3.769-.561,3.769,0-3.155-9.9-5.715-22.1-5.715s-22.1,2.559-22.1,5.715c0,0-.778-3.1-.778-3.633,0-3.155,9.816-5.543,22.882-5.543S61.366,86.418,61.366,89.573Z" transform="translate(-15.82 -74.585)" fill="#c8effe"/>
        <path id="Path_1265056" data-name="Path 1265056" d="M61.366,89.573c0,.576-.561,3.769-.561,3.769,0-3.155-9.9-5.715-22.1-5.715s-22.1,2.559-22.1,5.715c0,0-.778-3.1-.778-3.633,0-3.155,9.816-5.543,22.882-5.543S61.366,86.418,61.366,89.573Z" transform="translate(-15.82 -74.585)" fill="#c8effe"/>
        <path id="Path_1265057" data-name="Path 1265057" d="M61.366,89.573c0,.576-.561,3.769-.561,3.769,0-3.155-9.9-5.715-22.1-5.715s-22.1,2.559-22.1,5.715c0,0-.778-3.1-.778-3.633,0-3.155,9.816-5.543,22.882-5.543S61.366,86.418,61.366,89.573Z" transform="translate(-15.82 -74.585)" fill="#c8effe"/>
        <path id="Path_1265058" data-name="Path 1265058" d="M380.4,350.515l2.159-15.036-1.756-2.831-.492-2.187a1.589,1.589,0,0,1,1.131-1.882h0a1.589,1.589,0,0,1,1.75.664l1.364,2.088,8.45-2.729a1.339,1.339,0,0,1,1.562.589h0a1.339,1.339,0,0,1,.138,1.048l-.822,2.919a3.274,3.274,0,0,1-1.852,2.117L388.572,337l-.105,13.514Z" transform="translate(-334.73 -288.405)" fill="#ffdfcf"/>
        <path id="Path_1265059" data-name="Path 1265059" d="M429.355,329.977a1.337,1.337,0,0,1-.05.364l-.822,2.918a3.275,3.275,0,0,1-1.852,2.118l-3.464,1.726-.1,13.513h-3.251l.093-11.882a2.659,2.659,0,0,1,1.473-2.359l2-1a3.276,3.276,0,0,0,1.852-2.118l.822-2.918a1.34,1.34,0,0,0-.139-1.048c-.008-.013-.015-.024-.024-.036l1.711-.552a1.339,1.339,0,0,1,1.751,1.273Z" transform="translate(-369.324 -288.506)" fill="#ffcebf"/>
        <path id="Path_1265060" data-name="Path 1265060" d="M73.854,429.459H56.911V420.32a1.578,1.578,0,0,1,1.578-1.578H72.276a1.578,1.578,0,0,1,1.578,1.578v9.139Z" transform="translate(-51.776 -367.349)" fill="#fe646f"/>
        <path id="Path_1265061" data-name="Path 1265061" d="M157.105,418.741h-3.249a1.578,1.578,0,0,1,1.578,1.578v9.139h3.249v-9.139A1.578,1.578,0,0,0,157.105,418.741Z" transform="translate(-136.606 -367.348)" fill="#fd4755"/>
        <path id="Path_1265062" data-name="Path 1265062" d="M101.743,390.654H97.649a1.524,1.524,0,0,0-1.524,1.524v1.987h7.142v-1.987A1.524,1.524,0,0,0,101.743,390.654Z" transform="translate(-86.089 -342.771)" fill="#9e9797"/>
        <path id="Path_1265063" data-name="Path 1265063" d="M398.505,272.265h-6.124a1.079,1.079,0,0,1-1.06-.877l-1.734-9.107a1.079,1.079,0,0,1,1.06-1.281h9.592a1.079,1.079,0,0,1,1.06,1.281l-1.734,9.107A1.079,1.079,0,0,1,398.505,272.265Z" transform="translate(-342.861 -229.32)" fill="#c59191"/>
        <path id="Path_1265064" data-name="Path 1265064" d="M440.066,261h-3.249a1.079,1.079,0,0,1,1.06,1.281l-1.734,9.107a1.079,1.079,0,0,1-1.06.877h3.249a1.079,1.079,0,0,0,1.06-.877l1.734-9.107A1.079,1.079,0,0,0,440.066,261Z" transform="translate(-382.688 -229.32)" fill="#b98080"/>
      </g>
      <g id="Group_1205756" data-name="Group 1205756" transform="translate(8.32 0)">
        <g id="Group_1205755" data-name="Group 1205755" transform="translate(45.927 22.438)">
          <g id="Group_1205753" data-name="Group 1205753">
            <path id="Trazado_1265065" data-name="Trazado 1265065" d="M378.477,179.544a5.107,5.107,0,0,1,2.8,1.049c3.181,2.179,3.084,4.906,3.078,5.021a.937.937,0,0,1-.555.81,4.558,4.558,0,0,1-1.753.31,7.142,7.142,0,0,1-4.041-1.366,4.363,4.363,0,0,1-2.163-2.918,2.457,2.457,0,0,1,.455-1.744A2.514,2.514,0,0,1,378.477,179.544Zm3.892,5.3a5.068,5.068,0,0,0-2.151-2.706,3.274,3.274,0,0,0-1.74-.721.629.629,0,0,0-.573.257,1.481,1.481,0,0,1-.13.183.625.625,0,0,0-.064.408c.042.263.274.815,1.355,1.555a5.288,5.288,0,0,0,2.982,1.038C382.164,184.859,382.271,184.854,382.369,184.845Z" transform="translate(-375.827 -179.544)"/>
          </g>
          <g id="Group_1205754" data-name="Group 1205754" transform="translate(6.656)">
            <path id="Trazado_1265066" data-name="Trazado 1265066" d="M434.966,179.544h0a2.515,2.515,0,0,1,2.178,1.163,2.457,2.457,0,0,1,.455,1.744,4.363,4.363,0,0,1-2.163,2.918,7.142,7.142,0,0,1-4.041,1.366,4.558,4.558,0,0,1-1.753-.31.937.937,0,0,1-.554-.81c-.006-.115-.1-2.842,3.078-5.021A5.107,5.107,0,0,1,434.966,179.544Zm-3.57,5.316a5.288,5.288,0,0,0,2.982-1.038c1.111-.761,1.329-1.321,1.36-1.587a.628.628,0,0,0-.069-.376.937.937,0,0,1-.146-.213.65.65,0,0,0-.557-.227h0a3.274,3.274,0,0,0-1.74.721,5.061,5.061,0,0,0-2.15,2.706C431.173,184.854,431.28,184.859,431.4,184.859Z" transform="translate(-429.087 -179.544)"/>
          </g>
        </g>
        <path id="Trazado_1265067" data-name="Trazado 1265067" d="M117.549,166.429h-5.192a9.406,9.406,0,0,1-9.4-9.4v-5.926a.937.937,0,1,1,1.875,0v5.926a7.53,7.53,0,0,0,7.521,7.521h5.192a7.53,7.53,0,0,0,7.521-7.521v-8.212a.937.937,0,0,1,1.875,0v8.212A9.406,9.406,0,0,1,117.549,166.429Z" transform="translate(-91.135 -129.403)"/>
        <path id="Línea_564" data-name="Línea 564" d="M-6.563-2.44A.937.937,0,0,1-7.5-3.377V-6.563A.937.937,0,0,1-6.563-7.5a.937.937,0,0,1,.937.937v3.185A.937.937,0,0,1-6.563-2.44Z" transform="translate(26.504 42.652)"/>
        <path id="Línea_565" data-name="Línea 565" d="M-6.563-2.44A.937.937,0,0,1-7.5-3.377V-6.563A.937.937,0,0,1-6.563-7.5a.937.937,0,0,1,.937.937v3.185A.937.937,0,0,1-6.563-2.44Z" transform="translate(34.259 42.652)"/>
        <path id="Línea_566" data-name="Línea 566" d="M.9-5.625H-6.563A.937.937,0,0,1-7.5-6.563.937.937,0,0,1-6.563-7.5H.9a.937.937,0,0,1,.937.937A.937.937,0,0,1,.9-5.625Z" transform="translate(17.538 48.184)"/>
        <path id="Trazado_1265068" data-name="Trazado 1265068" d="M242.889,348.851a.937.937,0,0,1-.937-.937V327.425h-6.523a.937.937,0,0,1,0-1.875h7.461a.937.937,0,0,1,.937.937v21.426A.937.937,0,0,1,242.889,348.851Z" transform="translate(-206.226 -284.866)"/>
        <path id="Línea_567" data-name="Línea 567" d="M-6.563.7A.937.937,0,0,1-7.5-.237V-6.563A.937.937,0,0,1-6.563-7.5a.937.937,0,0,1,.937.937V-.237A.937.937,0,0,1-6.563.7Z" transform="translate(17.538 52.567)"/>
        <path id="Trazado_1265069" data-name="Trazado 1265069" d="M22.238,348.851a.937.937,0,0,1-.937-.937V334.9a9.356,9.356,0,0,1,9.353-9.353.937.937,0,1,1,0,1.875,7.481,7.481,0,0,0-7.478,7.478v13.011A.937.937,0,0,1,22.238,348.851Z" transform="translate(-19.679 -284.866)"/>
        <path id="Trazado_1265070" data-name="Trazado 1265070" d="M297.625,343.963a.937.937,0,0,1-.828-.5l-2.494-4.68a.937.937,0,0,1-.11-.441V326.486a.937.937,0,0,1,.937-.937,6.963,6.963,0,0,1,6.247,3.935l4,8.343a.937.937,0,1,1-1.691.81l-4-8.343a5.084,5.084,0,0,0-3.619-2.781v10.6l2.384,4.473a.938.938,0,0,1-.826,1.378Z" transform="translate(-258.467 -284.865)"/>
        <path id="Línea_568" data-name="Línea 568" d="M-6.563-2.868A.937.937,0,0,1-7.5-3.806V-6.563A.937.937,0,0,1-6.563-7.5a.937.937,0,0,1,.937.937v2.757A.937.937,0,0,1-6.563-2.868Z" transform="translate(30.382 30.148)"/>
        <path id="Trazado_1265071" data-name="Trazado 1265071" d="M176.31,235.348a5.421,5.421,0,0,1-2.708-.675.937.937,0,0,1,.987-1.594,4.106,4.106,0,0,0,3.686-.055.937.937,0,1,1,.774,1.707A6.59,6.59,0,0,1,176.31,235.348Z" transform="translate(-152.562 -203.83)"/>
        <path id="Trazado_1265072" data-name="Trazado 1265072" d="M22.238,450.389a.937.937,0,0,1-.937-.937v-6.925a.937.937,0,0,1,.937-.937h3.513a.937.937,0,1,1,0,1.875H23.176v5.987A.937.937,0,0,1,22.238,450.389Z" transform="translate(-19.679 -386.404)"/>
        <path id="Trazado_1265073" data-name="Trazado 1265073" d="M150.792,306.767a.933.933,0,0,1,.485.136l3.877,2.347a.937.937,0,0,1,.31,1.3l-1.925,3.083a1.7,1.7,0,0,1-2.828.077l-2.192-3.118a.937.937,0,0,1-.022-1.045L150,307.2A.937.937,0,0,1,150.792,306.767Zm2.578,3.594-2.283-1.382-.672,1.049,1.676,2.384Z" transform="translate(-130.849 -268.43)"/>
        <path id="Trazado_1265074" data-name="Trazado 1265074" d="M196.232,306.767a.937.937,0,0,1,.79.431l1.505,2.347a.937.937,0,0,1-.022,1.045l-2.192,3.118a1.7,1.7,0,0,1-2.828-.077l-1.925-3.083a.937.937,0,0,1,.31-1.3l3.877-2.347A.934.934,0,0,1,196.232,306.767Zm.377,3.261-.672-1.049-2.283,1.382,1.28,2.05Z" transform="translate(-168.536 -268.43)"/>
        <path id="Trazado_1265075" data-name="Trazado 1265075" d="M52.967,116.062a.937.937,0,0,1-.227-1.847c4.75-1.189,6.017-2.568,6.017-3.195,0-.894-2.157-2.34-6.892-3.4a67.985,67.985,0,0,0-14.274-1.374,68.01,68.01,0,0,0-14.275,1.374c-4.735,1.062-6.891,2.508-6.891,3.4,0,.627,1.267,2.006,6.016,3.195a.937.937,0,1,1-.455,1.818c-4.934-1.235-7.436-2.922-7.436-5.013,0-2.775,4.544-4.376,8.355-5.231a69.916,69.916,0,0,1,14.685-1.42,69.892,69.892,0,0,1,14.684,1.42c3.812.855,8.357,2.456,8.357,5.231,0,2.091-2.5,3.778-7.437,5.013A.939.939,0,0,1,52.967,116.062Z" transform="translate(-13.772 -91.327)"/>
        <path id="Trazado_1265076" data-name="Trazado 1265076" d="M10.035,87.717a.937.937,0,0,1-.908-.709,30.921,30.921,0,0,1-.806-3.861c0-4.476,11.963-6.48,23.819-6.48,10.888,0,23.6,1.662,23.6,6.344,0,.61-.44,3.163-.575,3.931a.937.937,0,0,1-1.86-.162C53.305,84.831,45.06,82,32.139,82s-21.166,2.83-21.166,4.777a.938.938,0,0,1-.938.937Zm22.1-9.176c-14.13,0-21.945,2.723-21.945,4.605a12.266,12.266,0,0,0,.236,1.235c3.363-2.8,12.581-4.254,21.709-4.254,9,0,18.094,1.413,21.568,4.14.1-.626.159-1.109.16-1.256C53.866,81.137,46.316,78.541,32.139,78.541Z" transform="translate(-8.32 -67.085)"/>
        <path id="Trazado_1265077" data-name="Trazado 1265077" d="M90.047,138.129h-15.1a9.076,9.076,0,0,1-9.049-9.78c.274-3.531.7-8.478,1.192-12a.937.937,0,0,1,1.857.258c-.483,3.474-.908,8.381-1.18,11.885a7.2,7.2,0,0,0,7.18,7.76h15.1a7.2,7.2,0,0,0,7.18-7.76c-.272-3.5-.7-8.412-1.18-11.885a.937.937,0,0,1,1.857-.258c.489,3.52.918,8.468,1.192,12a9.076,9.076,0,0,1-9.049,9.78Z" transform="translate(-58.677 -101.103)"/>
        <path id="Trazado_1265078" data-name="Trazado 1265078" d="M239.838,112.791c-4.3,0-6.241-4.517-6.734-5.9a.937.937,0,1,1,1.766-.629c.389,1.092,1.9,4.656,4.968,4.656a.937.937,0,0,1,0,1.875Z" transform="translate(-204.965 -92.436)"/>
        <path id="Trazado_1265079" data-name="Trazado 1265079" d="M103.9,114.957a.937.937,0,0,1-.02-1.874c.106,0,10.658-.314,15.224-7.166a.937.937,0,1,1,1.56,1.04c-5.114,7.673-16.272,7.991-16.744,8Z" transform="translate(-91.136 -92.315)"/>
        <path id="Trazado_1265080" data-name="Trazado 1265080" d="M85.418,12.441A.938.938,0,0,1,84.5,11.33l1.029-5.462A7.205,7.205,0,0,1,92.6,0h12.361a7.208,7.208,0,0,1,7.077,5.867l1.022,5.428a.937.937,0,0,1-1.842.347L110.2,6.215a5.332,5.332,0,0,0-5.235-4.34H92.6a5.329,5.329,0,0,0-5.234,4.34l-1.028,5.462A.938.938,0,0,1,85.418,12.441Z" transform="translate(-74.962 0)"/>
        <path id="Trazado_1265081" data-name="Trazado 1265081" d="M317.892,431.086a.937.937,0,0,1-.814-.471l-2.8-4.888a.937.937,0,0,1,.278-1.236l6.9-4.794a.937.937,0,0,1,1.374.352l1.507,3.028a.937.937,0,0,1-1.678.835l-1.024-2.057-5.307,3.685,2.375,4.142a.938.938,0,0,1-.812,1.4Z" transform="translate(-275.931 -367.101)"/>
        <path id="Trazado_1265082" data-name="Trazado 1265082" d="M30.813,252.559a3.311,3.311,0,0,1-2.623-1.115c-1.409-1.689-.621-4.59,1.793-6.605a7,7,0,0,1,3.92-1.687.937.937,0,0,1,.11,1.871,5.1,5.1,0,0,0-2.828,1.255c-1.69,1.41-2.176,3.222-1.556,3.965s2.49.59,4.18-.82a5.2,5.2,0,0,0,1.721-2.481.937.937,0,1,1,1.809.492,7,7,0,0,1-2.328,3.428A6.765,6.765,0,0,1,30.813,252.559Z" transform="translate(-25.096 -212.763)"/>
        <path id="Trazado_1265083" data-name="Trazado 1265083" d="M295.685,252.766a4.839,4.839,0,0,1-.612-.04,7.614,7.614,0,0,1-5.838-4.848.937.937,0,1,1,1.783-.578,5.759,5.759,0,0,0,4.292,3.566A1.4,1.4,0,0,0,297,248.838a5.753,5.753,0,0,0-4.275-3.583.937.937,0,0,1,.247-1.858,7.609,7.609,0,0,1,5.815,4.875,3.52,3.52,0,0,1-.477,3.381A3.333,3.333,0,0,1,295.685,252.766Z" transform="translate(-254.089 -212.973)"/>
        <path id="Línea_569" data-name="Línea 569" d="M-6.563,1.683A.937.937,0,0,1-7.5.746V-6.563A.937.937,0,0,1-6.563-7.5a.937.937,0,0,1,.937.937V.746A.937.937,0,0,1-6.563,1.683Z" transform="translate(30.382 48.184)"/>
        <path id="Trazado_1265084" data-name="Trazado 1265084" d="M374.765,344.091l-1.855-.267,2.111-14.7-1.576-2.542a.938.938,0,0,1-.118-.288l-.492-2.186a2.525,2.525,0,0,1,4.1-2.482.937.937,0,0,1-1.215,1.427.651.651,0,0,0-1.054.642l.458,2.032,1.673,2.7a.937.937,0,0,1,.131.627Z" transform="translate(-327.226 -280.91)"/>
        <path id="Trazado_1265085" data-name="Trazado 1265085" d="M439.258,344.98h-.007a.937.937,0,0,1-.93-.945l.1-13.513a.937.937,0,0,1,.519-.832l3.464-1.726a2.361,2.361,0,0,0,1.368-1.534l.822-2.918a.48.48,0,0,0-.042-.315.4.4,0,0,0-.468-.176l-1.3.42a.937.937,0,0,1-.577-1.784l1.3-.42a2.277,2.277,0,0,1,2.892,2.783l-.822,2.919a4.2,4.2,0,0,1-2.382,2.724l-2.9,1.448-.1,12.938A.937.937,0,0,1,439.258,344.98Z" transform="translate(-384.584 -280.995)"/>
        <path id="Trazado_1265086" data-name="Trazado 1265086" d="M67.291,423.833a.937.937,0,0,1-.937-.937v-9.139a.641.641,0,0,0-.641-.641H51.926a.641.641,0,0,0-.641.641V422.9a.937.937,0,1,1-1.875,0v-9.139a2.518,2.518,0,0,1,2.515-2.515H65.713a2.518,2.518,0,0,1,2.515,2.515V422.9A.937.937,0,0,1,67.291,423.833Z" transform="translate(-44.276 -359.849)"/>
        <path id="Trazado_1265087" data-name="Trazado 1265087" d="M91.086,383.154H95.18a2.464,2.464,0,0,1,2.461,2.461V387.6a.937.937,0,0,1-.937.937H89.562a.937.937,0,0,1-.937-.937v-1.987A2.464,2.464,0,0,1,91.086,383.154Zm4.681,3.51v-1.049a.587.587,0,0,0-.586-.586H91.086a.587.587,0,0,0-.586.586v1.049Z" transform="translate(-78.589 -335.271)"/>
        <path id="Trazado_1265088" data-name="Trazado 1265088" d="M391.943,266.64h-6.124A2.019,2.019,0,0,1,383.838,265l-1.734-9.107a2.016,2.016,0,0,1,1.981-2.394h4.8a.937.937,0,1,1,0,1.875h-4.8l-1.06.344.921-.175,1.734,9.107a.142.142,0,0,0,.139.115h6.124a.142.142,0,0,0,.139-.115l1.734-9.107-.139-.168h-.407a.937.937,0,1,1,0-1.875h.407a2.016,2.016,0,0,1,1.981,2.393L393.924,265A2.019,2.019,0,0,1,391.943,266.64Z" transform="translate(-335.361 -221.82)"/>
        <path id="Línea_570" data-name="Línea 570" d="M-6.563-1.47A.937.937,0,0,1-7.5-2.407V-6.563A.937.937,0,0,1-6.563-7.5a.937.937,0,0,1,.937.937v4.156A.937.937,0,0,1-6.563-1.47Z" transform="translate(60.083 35.024)"/>
      </g>
    </g>
  </g>
</svg>
