<svg xmlns="http://www.w3.org/2000/svg" width="76.345" height="76.344" viewBox="0 0 76.345 76.344">
  <g id="Group_1205897" data-name="Group 1205897" transform="translate(-1024.137 -1478.655)">
    <g id="Group_1204651" data-name="Group 1204651" transform="translate(2.171 -1614)">
      <g id="Group_1200255" data-name="Group 1200255">
        <g id="Group_1187152" data-name="Group 1187152">
          <g id="Group_1185946" data-name="Group 1185946" transform="translate(-3.07)">
            <g id="Group_1184280" data-name="Group 1184280">
              <g id="Group_1182168" data-name="Group 1182168">
                <g id="Group_1178877" data-name="Group 1178877">
                  <g id="Group_1111311" data-name="Group 1111311">
                    <g id="Group_1098742" data-name="Group 1098742" transform="translate(1025.482 3093.101)">
                      <g id="Rectangle_400898" data-name="Rectangle 400898" transform="translate(-0.445 -0.445)" fill="#ffe9b5" stroke="#b18c32" stroke-width="1" opacity="0.859">
                        <rect width="76.345" height="76.345" rx="38.172" stroke="none"/>
                        <rect x="0.5" y="0.5" width="75.345" height="75.345" rx="37.672" fill="none"/>
                      </g>
                      <g id="Rectangle_400907" data-name="Rectangle 400907" transform="translate(-0.446 -0.445)" fill="none" stroke="#b18c32" stroke-width="1">
                        <rect width="76.345" height="76.345" rx="38.172" stroke="none"/>
                        <rect x="0.5" y="0.5" width="75.345" height="75.345" rx="37.672" fill="none"/>
                      </g>
                    </g>
                  </g>
                </g>
              </g>
            </g>
          </g>
        </g>
      </g>
    </g>
    <g id="turismo-ecologico" transform="translate(987.419 1490.657)">
      <g id="Group_1205894" data-name="Group 1205894" transform="translate(54.299 0.83)">
        <g id="Group_1205892" data-name="Group 1205892" transform="translate(1.762 0.519)">
          <path id="Path_1265575" data-name="Path 1265575" d="M88.071,12.19A11.183,11.183,0,1,0,99.254,23.373,11.183,11.183,0,0,0,88.071,12.19Z" transform="translate(-76.889 -12.19)" fill="#ccf49e"/>
          <path id="Path_1265576" data-name="Path 1265576" d="M144.936,12.293a11.183,11.183,0,0,1-4.16,21.563c-.153,0-.3-.005-.456-.012a11.182,11.182,0,1,0,4.615-21.551Z" transform="translate(-133.298 -12.282)" fill="#b3e59e"/>
          <circle id="Ellipse_12815" data-name="Ellipse 12815" cx="3.694" cy="3.694" r="3.694" transform="translate(15.569 19.082) rotate(-4.571)" fill="#ccf49e"/>
        </g>
        <g id="Group_1205893" data-name="Group 1205893" transform="translate(0 32.725)">
          <path id="Path_1265577" data-name="Path 1265577" d="M169.825,323.207a21.888,21.888,0,0,0,31.112-16.12,1.551,1.551,0,0,0-.806-1.624,20.686,20.686,0,0,0-30.306,17.744Z" transform="translate(-157.774 -303.086)" fill="#fee8c7"/>
          <path id="Path_1265578" data-name="Path 1265578" d="M200.131,316.75a20.618,20.618,0,0,0-2.13-.971,23.434,23.434,0,0,1-28.165,18.437c0,.093-.008.185-.011.278a21.888,21.888,0,0,0,31.112-16.12A1.551,1.551,0,0,0,200.131,316.75Z" transform="translate(-157.774 -314.373)" fill="#fece85"/>
          <path id="Path_1265579" data-name="Path 1265579" d="M61.931,308.955A1.545,1.545,0,0,0,61,310.642a21.878,21.878,0,0,0,36.186,12.519,27.162,27.162,0,0,0-35.253-14.206Z" transform="translate(-60.976 -306.474)" fill="#ccf49e"/>
          <path id="Path_1265580" data-name="Path 1265580" d="M274.067,359.818c3.212,5.164,2.736,10.4-5.158,15.97a21.789,21.789,0,0,0,13.188-5.564A27.235,27.235,0,0,0,274.067,359.818Z" transform="translate(-245.888 -353.537)" fill="#b3e59e"/>
        </g>
        <path id="Path_1265581" data-name="Path 1265581" d="M342.659,9.318a6.206,6.206,0,0,0-8.85.074,6.271,6.271,0,0,0,.146,8.773L337.7,21.91a.807.807,0,0,0,1.141,0l3.817-3.817A6.206,6.206,0,0,0,342.659,9.318Zm-2.838,5.937a2.192,2.192,0,1,1,0-3.1A2.192,2.192,0,0,1,339.821,15.255Z" transform="translate(-302.075 -7.5)" fill="#f07281"/>
      </g>
      <g id="Group_1205896" data-name="Group 1205896" transform="translate(53.468)">
        <path id="Trazado_1265582" data-name="Trazado 1265582" d="M128.486,25.132a.83.83,0,0,1-.609-1.395A10.353,10.353,0,0,0,114.411,8.176a.83.83,0,0,1-.943-1.367A12.013,12.013,0,0,1,129.1,24.866.828.828,0,0,1,128.486,25.132Z" transform="translate(-106.506 -4.171)"/>
        <path id="Trazado_1265583" data-name="Trazado 1265583" d="M81.4,66.226a12.014,12.014,0,0,1-9.766-19.01.83.83,0,1,1,1.349.968A10.354,10.354,0,0,0,85.917,63.53a.83.83,0,0,1,.726,1.494A11.9,11.9,0,0,1,81.4,66.226Z" transform="translate(-67.625 -41.68)"/>
        <path id="Línea_564" data-name="Línea 564" d="M-6.67,18.5a.83.83,0,0,1-.83-.83V-6.67a.83.83,0,0,1,.83-.83.83.83,0,0,1,.83.83V17.674A.83.83,0,0,1-6.67,18.5Z" transform="translate(20.445 16.35)"/>
        <path id="Línea_565" data-name="Línea 565" d="M-6.67-2.063a.828.828,0,0,1-.587-.243.83.83,0,0,1,0-1.174L-3.48-7.257a.83.83,0,0,1,1.174,0,.83.83,0,0,1,0,1.174L-6.083-2.306A.828.828,0,0,1-6.67-2.063Z" transform="translate(20.445 17.314)"/>
        <path id="Línea_566" data-name="Línea 566" d="M-.138.692A.828.828,0,0,1-.725.449L-7.257-6.083a.83.83,0,0,1,0-1.174.83.83,0,0,1,1.174,0L.449-.725a.83.83,0,0,1,0,1.174A.828.828,0,0,1-.138.692Z" transform="translate(13.914 20.575)"/>
        <path id="Línea_567" data-name="Línea 567" d="M-6.67-3.248A.83.83,0,0,1-7.41-3.7a.83.83,0,0,1,.362-1.117L-1.974-7.41a.83.83,0,0,1,1.117.362.83.83,0,0,1-.362,1.117L-6.293-3.339A.827.827,0,0,1-6.67-3.248Z" transform="translate(20.446 32.174)"/>
        <path id="Elipse_12816" data-name="Elipse 12816" d="M4.525,0A4.525,4.525,0,1,1,0,4.525,4.53,4.53,0,0,1,4.525,0Zm0,7.389A2.864,2.864,0,1,0,1.661,4.525,2.867,2.867,0,0,0,4.525,7.389Z" transform="translate(17.269 19.67) rotate(-4.571)"/>
        <path id="Trazado_1265584" data-name="Trazado 1265584" d="M381.355,319.2a.83.83,0,0,1-.556-1.447,21.1,21.1,0,0,0,6.69-12.2.72.72,0,0,0-.374-.754,19.754,19.754,0,0,0-4.267-1.651.83.83,0,0,1,.415-1.608,21.416,21.416,0,0,1,4.626,1.79,2.378,2.378,0,0,1,1.238,2.493,22.765,22.765,0,0,1-7.218,13.169A.827.827,0,0,1,381.355,319.2Z" transform="translate(-344.315 -268.128)"/>
        <path id="Trazado_1265585" data-name="Trazado 1265585" d="M256.5,300.013a.83.83,0,0,1-.417-1.549,21.5,21.5,0,0,1,10.754-2.877q.707,0,1.4.045a.83.83,0,1,1-.107,1.657q-.643-.041-1.3-.042a19.841,19.841,0,0,0-9.923,2.654A.827.827,0,0,1,256.5,300.013Z" transform="translate(-233.284 -262.861)"/>
        <path id="Trazado_1265586" data-name="Trazado 1265586" d="M65.636,299.4h0a27.986,27.986,0,0,1,25.632,16.762.83.83,0,0,1-.205.95,22.708,22.708,0,0,1-37.56-13,2.361,2.361,0,0,1,1.433-2.6A27.8,27.8,0,0,1,65.636,299.4ZM89.5,316.272a26.332,26.332,0,0,0-33.925-13.22.718.718,0,0,0-.432.779A21.048,21.048,0,0,0,89.5,316.272Z" transform="translate(-53.468 -266.249)"/>
        <path id="Trazado_1265587" data-name="Trazado 1265587" d="M94.162,365.491a.83.83,0,0,1-.711-.4,26.336,26.336,0,0,0-30.928-11.335.83.83,0,0,1-.53-1.574,28,28,0,0,1,32.879,12.049.831.831,0,0,1-.71,1.26Z" transform="translate(-60.546 -311.892)"/>
        <path id="Trazado_1265588" data-name="Trazado 1265588" d="M107.207,411.941a.828.828,0,0,1-.633-.292,26.329,26.329,0,0,0-24.617-8.872.83.83,0,0,1-.289-1.635,27.99,27.99,0,0,1,26.171,9.431.83.83,0,0,1-.632,1.368Z" transform="translate(-77.937 -356.353)"/>
        <path id="Trazado_1265589" data-name="Trazado 1265589" d="M331.658,0h0a7.036,7.036,0,0,1,4.976,12.011l-3.817,3.817a1.637,1.637,0,0,1-2.316,0l-3.746-3.746a7.119,7.119,0,0,1-.156-9.937A6.98,6.98,0,0,1,331.658,0Zm.018,14.654,3.784-3.817A5.375,5.375,0,1,0,327.794,3.3a5.451,5.451,0,0,0,.136,7.608Zm-.017-10.641a3.023,3.023,0,1,1-2.137.885A3,3,0,0,1,331.659,4.013Zm0,4.385A1.362,1.362,0,1,0,330.7,8,1.353,1.353,0,0,0,331.659,8.4Z" transform="translate(-294.632 0)"/>
        <g id="Group_1205895" data-name="Group 1205895" transform="translate(36.209 19)">
          <path id="Línea_568" data-name="Línea 568" d="M-6.67-5.355a.83.83,0,0,1-.83-.83V-6.67a.83.83,0,0,1,.83-.83.83.83,0,0,1,.83.83v.484A.83.83,0,0,1-6.67-5.355Z" transform="translate(7.5 7.5)"/>
          <path id="Línea_569" data-name="Línea 569" d="M-6.67-5.355a.83.83,0,0,1-.83-.83V-6.67a.83.83,0,0,1,.83-.83.83.83,0,0,1,.83.83v.485A.83.83,0,0,1-6.67-5.355Z" transform="translate(7.5 12.092)"/>
          <path id="Línea_570" data-name="Línea 570" d="M-6.67-5.355a.83.83,0,0,1-.83-.83V-6.67a.83.83,0,0,1,.83-.83.83.83,0,0,1,.83.83v.485A.83.83,0,0,1-6.67-5.355Z" transform="translate(7.5 16.683)"/>
        </g>
      </g>
    </g>
  </g>
</svg>
