<svg xmlns="http://www.w3.org/2000/svg" xmlns:xlink="http://www.w3.org/1999/xlink" width="111.775" height="111.776" viewBox="0 0 111.775 111.776">
  <defs>
    <filter id="Path_874925" x="0" y="0" width="111.775" height="111.776" filterUnits="userSpaceOnUse">
      <feOffset dy="3" input="SourceAlpha"/>
      <feGaussianBlur stdDeviation="3" result="blur"/>
      <feFlood flood-opacity="0.161"/>
      <feComposite operator="in" in2="blur"/>
      <feComposite in="SourceGraphic"/>
    </filter>
    <clipPath id="clip-path">
      <path id="path4425" d="M0-682.665H59.363V-623.3H0Z" transform="translate(0 682.665)"/>
    </clipPath>
  </defs>
  <g id="Group_1205778" data-name="Group 1205778" transform="translate(-8171 9802)">
    <g id="Group_1204846" data-name="Group 1204846" transform="translate(7895 -16046.874)">
      <g id="Group_1200232" data-name="Group 1200232" transform="translate(285 6250.874)">
        <g id="Group_1187153" data-name="Group 1187153">
          <g id="Group_1182177" data-name="Group 1182177">
            <g id="Group_1181903" data-name="Group 1181903">
              <g id="Group_1181438" data-name="Group 1181438">
                <g id="Group_1111314" data-name="Group 1111314">
                  <g transform="matrix(1, 0, 0, 1, -9, -6)" filter="url(#Path_874925)">
                    <g id="Path_874925-2" data-name="Path 874925" transform="translate(9 6)" fill="#ffc94a">
                      <path d="M 46.88790893554688 92.2763671875 C 40.75992202758789 92.2763671875 34.8160285949707 91.07652282714844 29.22134971618652 88.71018218994141 C 23.81676292419434 86.42423248291016 18.96264266967773 83.15139007568359 14.79381561279297 78.98255157470703 C 10.62497520446777 74.81372833251953 7.35213565826416 69.95960998535156 5.066188812255859 64.55502319335938 C 2.699842214584351 58.9603385925293 1.500002264976501 53.01644515991211 1.500002264976501 46.88844680786133 C 1.500002264976501 40.75992584228516 2.699842214584351 34.81603240966797 5.066188812255859 29.22135353088379 C 7.35213565826416 23.8167667388916 10.62497520446777 18.962646484375 14.79381561279297 14.79381942749023 C 18.96264266967773 10.62497997283936 23.81676292419434 7.352139949798584 29.22134971618652 5.066193103790283 C 34.8160285949707 2.699846506118774 40.75992202758789 1.500006437301636 46.88790893554688 1.500006437301636 C 53.01589584350586 1.500006437301636 58.95978927612305 2.699846506118774 64.55446624755859 5.066193103790283 C 69.95905303955078 7.352139949798584 74.81317901611328 10.62497997283936 78.98200225830078 14.79381942749023 C 83.15084075927734 18.962646484375 86.42368316650391 23.8167667388916 88.70962524414062 29.22135353088379 C 91.07597351074219 34.81603240966797 92.27581787109375 40.75992584228516 92.27581787109375 46.88791275024414 C 92.27581787109375 53.01644515991211 91.07597351074219 58.9603385925293 88.70962524414062 64.55502319335938 C 86.42368316650391 69.95960998535156 83.15084075927734 74.81372833251953 78.98200225830078 78.98255157470703 C 74.81317901611328 83.15139007568359 69.95905303955078 86.42423248291016 64.55446624755859 88.71018218994141 C 58.95978927612305 91.07652282714844 53.01589584350586 92.2763671875 46.88790893554688 92.2763671875 Z" stroke="none"/>
                      <path d="M 46.88790893554688 2.999992370605469 C 40.96175003051758 2.999992370605469 35.2144660949707 4.159965515136719 29.80567932128906 6.44769287109375 C 24.57989501953125 8.658004760742188 19.88602447509766 11.82290649414062 15.85446929931641 15.85446929931641 C 11.82290649414062 19.88602447509766 8.658012390136719 24.57989501953125 6.44769287109375 29.80567932128906 C 4.159965515136719 35.2144660949707 2.999992370605469 40.96175003051758 2.999992370605469 46.88845062255859 C 2.999992370605469 52.81460952758789 4.159965515136719 58.56189346313477 6.44769287109375 63.97069549560547 C 8.658012390136719 69.19646453857422 11.82290649414062 73.89033508300781 15.85446929931641 77.92189025878906 C 19.88602447509766 81.95343780517578 24.57989501953125 85.11833953857422 29.80567932128906 87.32865142822266 C 35.2144660949707 89.61637878417969 40.96175003051758 90.77635192871094 46.88790893554688 90.77635192871094 C 52.81406784057617 90.77635192871094 58.56135177612305 89.61637878417969 63.97013854980469 87.32865142822266 C 69.1959228515625 85.11833953857422 73.88979339599609 81.95343780517578 77.92134857177734 77.92189025878906 C 81.95291137695312 73.89033508300781 85.11781311035156 69.19646453857422 87.328125 63.97069549560547 C 89.61585235595703 58.56189346313477 90.77582550048828 52.81460952758789 90.77582550048828 46.88790893554688 C 90.77582550048828 40.96175003051758 89.61585235595703 35.2144660949707 87.328125 29.80567932128906 C 85.11781311035156 24.57989501953125 81.95291137695312 19.88602447509766 77.92134857177734 15.85446929931641 C 73.88979339599609 11.82290649414062 69.1959228515625 8.658004760742188 63.97013854980469 6.44769287109375 C 58.56135177612305 4.159965515136719 52.81406784057617 2.999992370605469 46.88790893554688 2.999992370605469 M 46.88790893554688 -7.62939453125e-06 C 72.78337860107422 -7.62939453125e-06 93.77582550048828 20.99243927001953 93.77582550048828 46.88790893554688 L 93.77582550048828 46.88845062255859 C 93.77582550048828 72.783935546875 72.78337860107422 93.77635192871094 46.88790893554688 93.77635192871094 C 20.99243927001953 93.77635192871094 -7.62939453125e-06 72.783935546875 -7.62939453125e-06 46.88845062255859 L -7.62939453125e-06 46.88790893554688 C -7.62939453125e-06 20.99243927001953 20.99243927001953 -7.62939453125e-06 46.88790893554688 -7.62939453125e-06 Z" stroke="none" fill="#fff"/>
                    </g>
                  </g>
                </g>
              </g>
            </g>
          </g>
        </g>
      </g>
    </g>
    <g id="g4419" transform="translate(8197 -9096.335)">
      <g id="g4421" transform="translate(0 -682.665)">
        <g id="g4423" clip-path="url(#clip-path)">
          <g id="g4429" transform="translate(26.151 0.87)">
            <path id="path4431" d="M-76.631-39.565A3.768,3.768,0,0,0-80.4-43.333a3.752,3.752,0,0,0-1.8.455,10.753,10.753,0,0,0-1.173,1.25,3.5,3.5,0,0,0-.561,2.094,3.27,3.27,0,0,0,3.53,3.4c1.428,0,3.31-1.625,3.31-1.625a3.75,3.75,0,0,0,.458-1.8" transform="translate(83.929 43.333)" fill="#ff7892"/>
          </g>
          <g id="g4433" transform="translate(25.914 1.324)">
            <path id="path4435" d="M-74.317-53.716a3.767,3.767,0,0,1-3.31,1.966,3.768,3.768,0,0,1-3.768-3.768,3.778,3.778,0,0,1,1.972-3.313,3.764,3.764,0,0,0-.465,1.806,3.768,3.768,0,0,0,3.768,3.768,3.749,3.749,0,0,0,1.8-.458" transform="translate(81.394 58.832)" fill="#ff5f7a"/>
          </g>
          <g id="g4437" transform="translate(15.981 4.928)">
            <path id="path4439" d="M-284.715-5.851h0a1.9,1.9,0,0,0-2.685,0l-5.475,5.485a3.206,3.206,0,0,1-2.269.942h-5.972a3.206,3.206,0,0,1-2.269-.942l-5.475-5.485a1.9,1.9,0,0,0-2.644-.04l.093.22c-.742.743-.42,1.77.322,2.513l6.856,6.627a8.255,8.255,0,0,1,2.2,6.007h8.216a8.5,8.5,0,0,1,2.483-6.007l6.616-6.629a1.905,1.905,0,0,0,0-2.69" transform="translate(311.831 6.408)" fill="#ff7892"/>
          </g>
          <g id="g4441" transform="translate(15.71 5.445)">
            <path id="path4443" d="M-129.384-161.351h-2.667a8.5,8.5,0,0,0-2.484-6.007l-6.616-6.63a1.9,1.9,0,0,1-.557-1.345,1.9,1.9,0,0,1,.557-1.345c.014-.014.027-.028.041-.04l9.242,9.36a8.5,8.5,0,0,1,2.484,6.007" transform="translate(141.706 176.718)" fill="#ff5f7a"/>
          </g>
          <g id="g4445" transform="translate(38.551 15.981)">
            <path id="path4447" d="M-160.931-284.715h0a1.9,1.9,0,0,0,0-2.685l-5.485-5.475a3.206,3.206,0,0,1-.942-2.269v-5.972a3.206,3.206,0,0,1,.942-2.269l5.485-5.475a1.9,1.9,0,0,0,.04-2.644l-.22.093c-.743-.742-1.77-.42-2.512.322l-6.627,6.856a8.255,8.255,0,0,1-6.007,2.2v8.216a8.5,8.5,0,0,1,6.007,2.483l6.629,6.616a1.905,1.905,0,0,0,2.69,0" transform="translate(176.258 311.831)" fill="#d9f5f9"/>
          </g>
          <g id="g4449" transform="translate(38.551 15.71)">
            <path id="path4451" d="M0-129.384v-2.667a8.5,8.5,0,0,0,6.007-2.484l6.63-6.616a1.9,1.9,0,0,1,1.345-.557,1.9,1.9,0,0,1,1.345.557c.014.014.028.027.04.041l-9.36,9.242A8.5,8.5,0,0,1,0-129.384" transform="translate(0 141.706)" fill="#c6ebf4"/>
          </g>
          <g id="g4453" transform="translate(15.981 38.551)">
            <path id="path4455" d="M-284.715-160.931h0a1.9,1.9,0,0,1-2.685,0l-5.475-5.485a3.206,3.206,0,0,0-2.269-.942h-5.972a3.206,3.206,0,0,0-2.269.942l-5.475,5.485a1.9,1.9,0,0,1-2.644.04l.093-.22c-.742-.743-.42-1.77.322-2.512l6.856-6.627a8.255,8.255,0,0,0,2.2-6.007h8.216a8.5,8.5,0,0,0,2.483,6.007l6.616,6.629a1.905,1.905,0,0,1,0,2.69" transform="translate(311.831 176.258)" fill="#ffe077"/>
          </g>
          <g id="g4457" transform="translate(15.71 38.551)">
            <path id="path4459" d="M-129.384,0h-2.667a8.5,8.5,0,0,1-2.484,6.007l-6.616,6.63a1.9,1.9,0,0,0-.557,1.345,1.9,1.9,0,0,0,.557,1.345c.014.014.027.028.041.04l9.242-9.36A8.5,8.5,0,0,0-129.384,0" transform="translate(141.706)" fill="#ffd05b"/>
          </g>
          <g id="g4461" transform="translate(4.928 15.71)">
            <path id="path4463" d="M-5.851-5.839h0a1.9,1.9,0,0,0,0,2.685L-.366,2.321A3.206,3.206,0,0,1,.576,4.59v5.972a3.206,3.206,0,0,1-.942,2.269l-5.485,5.475a1.9,1.9,0,0,0-.04,2.644l.22-.093c.743.742,1.77.42,2.513-.322l6.627-6.856a8.255,8.255,0,0,1,6.007-2.2V3.261A8.5,8.5,0,0,1,3.469.777L-3.16-5.839a1.905,1.905,0,0,0-2.69,0" transform="translate(6.408 6.395)" fill="#ffbee7"/>
          </g>
          <g id="g4465" transform="translate(5.445 31.33)">
            <path id="path4467" d="M-161.351,0V2.667a8.5,8.5,0,0,0-6.007,2.484l-6.63,6.616a1.9,1.9,0,0,1-1.345.557,1.9,1.9,0,0,1-1.345-.557c-.014-.014-.028-.027-.04-.041l9.36-9.242A8.5,8.5,0,0,1-161.351,0" transform="translate(176.718 0)" fill="#f7aae2"/>
          </g>
          <g id="g4469" transform="translate(51.21 25.914)">
            <path id="path4471" d="M-8.108-74.895l5.459-.01a.58.58,0,0,0,.58-.58l.472-.862v-5.1a.58.58,0,0,0-.58-.58h-5.1l-1.023.2a.58.58,0,0,0-.58.58l.192,5.773a.58.58,0,0,0,.58.58" transform="translate(8.88 82.028)" fill="#d9f5f9"/>
          </g>
          <g id="g4473" transform="translate(50.957 25.913)">
            <path id="path4475" d="M-79.13-59.652v1.275a.58.58,0,0,1-.58.58h-6.377a.58.58,0,0,1-.58-.58v-6.377a.58.58,0,0,1,.58-.58h1.275v5.449a.232.232,0,0,0,.232.232Z" transform="translate(86.666 65.333)" fill="#c6ebf4"/>
          </g>
          <g id="g4477" transform="translate(1.162 26.233)">
            <path id="path4479" d="M-67.458-.551l-4.86,2.205-1.131.639c-.193.088-.434.3-.434.514s.241.381.434.469l5.92,2.61a.58.58,0,0,0,.819-.528l.07-1.127V-.023a.58.58,0,0,0-.819-.528" transform="translate(73.882 0.603)" fill="#ffbee7"/>
          </g>
          <g id="g4481" transform="translate(0.87 28.491)">
            <path id="path4483" d="M-79.13-27.062v1.482a.579.579,0,0,1-.82.528l-6.4-2.9a.544.544,0,0,1-.231-.2.542.542,0,0,1-.086-.292.541.541,0,0,1,.317-.492l1.541-.7Z" transform="translate(86.666 29.64)" fill="#f7aae2"/>
          </g>
          <g id="g4485" transform="translate(25.587 50.957)">
            <path id="path4487" d="M-63.728,0h-3.949a.348.348,0,0,0-.3.174L-68.4.9l-1.353,2.752a.348.348,0,0,0,0,.348L-67.8,7.1a.348.348,0,0,0,.3.174l3.715.107a.348.348,0,0,0,.3-.174l.751-1.049,1.282-2.221a.348.348,0,0,0,0-.348L-63.427.174a.348.348,0,0,0-.3-.174" transform="translate(69.797)" fill="#ffe077"/>
          </g>
          <g id="g4489" transform="translate(25.384 51.857)">
            <path id="path4491" d="M-76.288-55.254l-.692,1.2a.349.349,0,0,1-.3.174H-81.23a.349.349,0,0,1-.3-.174l-1.975-3.42a.346.346,0,0,1,0-.348l1.555-2.694a4.247,4.247,0,0,0-.218,1.348,4.244,4.244,0,0,0,4.244,4.244,4.209,4.209,0,0,0,1.638-.329" transform="translate(83.553 60.516)" fill="#ffd05b"/>
          </g>
          <g id="g4493" transform="translate(17.078 16.638)">
            <path id="path4495" d="M-266.582-136.956a12.372,12.372,0,0,0-1.983-6.883c-.047-.074.031-.384.031-.384A13.031,13.031,0,0,0-279.368-150c-.16,0-.319,0-.477.01,0,0-.107.195-.214.2a12.614,12.614,0,0,0-11.913,12.832,12.232,12.232,0,0,0,12.6,12.515c3.9,0,7.338-1.229,9.728-3.946.174-.2.571-.564.571-.564a12.98,12.98,0,0,0,2.665-6.559.943.943,0,0,1-.139-.33c.034-.384-.04-.724-.04-1.116" transform="translate(291.971 150)" fill="#6fbbc6"/>
          </g>
          <g id="g4497" transform="translate(16.638 29.682)">
            <path id="path4499" d="M-245.206-83.9a13.079,13.079,0,0,1-5.39,4.093,4.085,4.085,0,0,0-.857-.255,9.552,9.552,0,0,1-3.967.414,11.985,11.985,0,0,1-7.8-2.546c-.1-.082-.691.286-.691.286a13.016,13.016,0,0,1-4.649-9.983l2.659.653a13.049,13.049,0,0,0,12.7,10.072,12.988,12.988,0,0,0,7.991-2.734" transform="translate(268.559 91.893)" fill="#61aab8"/>
          </g>
          <g id="g4501" transform="translate(17.029 16.648)">
            <path id="path4503" d="M-125.157-75.332c-2.719,1.144-4.63-.988-6.217.177-1.783,1.309-.341,4.715-2.131,5.95a2.344,2.344,0,0,1-1.3.384s-1.423-.552-2.268-.917l.834-2.9,2.538-5.7,1.29-1.44a12.977,12.977,0,0,1,7.513-2.724h0a4.088,4.088,0,0,1,2.763,3.178c.173,1.9-1.638,3.416-3.019,4" transform="translate(137.077 82.506)" fill="#ccf49f"/>
          </g>
          <g id="g4505" transform="translate(28.854 27.712)">
            <path id="path4507" d="M-22.447-19.776c1.4-.682,1.367-1.711,2.22-1.865a2.623,2.623,0,0,1,2.575,2.309c.069,1.889-3.174,2.767-3.464,2.842-.618.16-2.487.643-3.2-.355a1.93,1.93,0,0,1,.178-2.22c.426-.483.837-.3,1.687-.71" transform="translate(24.585 21.66)" fill="#ccf49f"/>
          </g>
          <g id="g4509" transform="translate(21.287 35.398)">
            <path id="path4511" d="M-139.792-66.85l-5.031.293-8.283-2.394.024-.478a4.386,4.386,0,0,1,2.131-3.463,3.814,3.814,0,0,1,2.842-.089c2,.75,1.781,2.71,3.553,3.286,1.491.486,2.443-.642,3.553,0,.846.492,1.122,1.866,1.212,2.845" transform="translate(153.106 73.217)" fill="#ccf49f"/>
          </g>
          <g id="g4513" transform="translate(16.638 19.372)">
            <path id="path4515" d="M-24.348-83.9a13,13,0,0,0,.341,2.972,6.726,6.726,0,0,1-2.66-.653,13.02,13.02,0,0,1,5.053-10.31A12.988,12.988,0,0,0-24.348-83.9" transform="translate(26.667 91.893)" fill="#b3e59f"/>
          </g>
          <g id="g4517" transform="translate(21.287 36.355)">
            <path id="path4519" d="M-139.792-56.8l-.016.007a13.007,13.007,0,0,1-4.9.953A12.982,12.982,0,0,1-153.1-58.9h0l.024-.478a4.889,4.889,0,0,1,1.241-2.831,13.007,13.007,0,0,0,9.448,4.051,13,13,0,0,0,2.293-.2,6.937,6.937,0,0,1,.307,1.561" transform="translate(153.106 62.213)" fill="#b3e59f"/>
          </g>
          <g id="g4521" transform="translate(38.551 22.415)">
            <path id="path4523" d="M-43.832-76.294a12.907,12.907,0,0,1-.079,1.446,5.778,5.778,0,0,1-3.75-3.308c-.092-.247-.95-2.684.444-4.441a3.68,3.68,0,0,1,1.176-.963,12.979,12.979,0,0,1,2.21,7.266" transform="translate(48.006 83.56)" fill="#ccf49f"/>
          </g>
          <g id="g4525" transform="translate(25.044 0)">
            <path id="path4527" d="M-92.029-53.333A4.643,4.643,0,0,1-87.391-48.7a4.643,4.643,0,0,1-4.638,4.638A4.643,4.643,0,0,1-96.666-48.7,4.643,4.643,0,0,1-92.029-53.333Zm0,7.536a2.9,2.9,0,0,0,2.9-2.9,2.9,2.9,0,0,0-2.9-2.9,2.9,2.9,0,0,0-2.9,2.9A2.9,2.9,0,0,0-92.029-45.8Z" transform="translate(96.666 53.333)"/>
          </g>
          <g id="g4529" transform="translate(14.842 4.058)">
            <path id="path4531" d="M-57.153-21.872a.87.87,0,0,1-.8-.533,7.592,7.592,0,0,0-1.634-2.436l-6.616-6.629a2.778,2.778,0,0,1,0-3.919,2.748,2.748,0,0,1,1.958-.813,2.748,2.748,0,0,1,1.958.813l1.718,1.721a.87.87,0,0,1,0,1.23.87.87,0,0,1-1.23,0l-1.718-1.721a1.021,1.021,0,0,0-.727-.3,1.021,1.021,0,0,0-.727.3,1.036,1.036,0,0,0,0,1.462l6.616,6.629a9.323,9.323,0,0,1,2.007,2.992.87.87,0,0,1-.465,1.138A.867.867,0,0,1-57.153-21.872Z" transform="translate(67.015 36.203)"/>
          </g>
          <g id="g4533" transform="translate(22.643 4.058)">
            <path id="path4535" d="M-125.993-140.907a.867.867,0,0,1-.332-.066.87.87,0,0,1-.471-1.136,9.319,9.319,0,0,1,2.026-3.038l6.616-6.629a1.036,1.036,0,0,0,0-1.462,1.021,1.021,0,0,0-.727-.3,1.021,1.021,0,0,0-.727.3l-5.475,5.485a4.049,4.049,0,0,1-2.885,1.2h-5.972a4.049,4.049,0,0,1-2.885-1.2l-.914-.916a.87.87,0,0,1,0-1.23.87.87,0,0,1,1.23,0l.914.916a2.321,2.321,0,0,0,1.654.686h5.972a2.321,2.321,0,0,0,1.654-.686l5.474-5.485a2.748,2.748,0,0,1,1.958-.813h0a2.748,2.748,0,0,1,1.958.813,2.778,2.778,0,0,1,0,3.919l-6.616,6.629a7.588,7.588,0,0,0-1.65,2.474A.87.87,0,0,1-125.993-140.907Z" transform="translate(137.992 155.279)"/>
          </g>
          <g id="g4537" transform="translate(14.842 40.904)">
            <path id="path4539" d="M-18.205-75.068a2.748,2.748,0,0,1-1.958-.812l-5.475-5.485a2.321,2.321,0,0,0-1.654-.686h-5.972a2.321,2.321,0,0,0-1.654.686l-5.475,5.485a2.748,2.748,0,0,1-1.958.813,2.749,2.749,0,0,1-1.958-.812,2.778,2.778,0,0,1,0-3.919l2.5-2.5a.87.87,0,0,1,1.23,0,.87.87,0,0,1,0,1.23l-2.5,2.5a1.036,1.036,0,0,0,0,1.462,1.021,1.021,0,0,0,.727.3,1.021,1.021,0,0,0,.727-.3l5.475-5.485a4.049,4.049,0,0,1,2.885-1.2h5.972a4.049,4.049,0,0,1,2.885,1.2l5.475,5.485a1.021,1.021,0,0,0,.727.3,1.021,1.021,0,0,0,.727-.3,1.036,1.036,0,0,0,0-1.462L-24.095-85.2a9.317,9.317,0,0,1-2.039-3.07.87.87,0,0,1,.476-1.134.87.87,0,0,1,1.134.476,7.587,7.587,0,0,0,1.661,2.5l6.616,6.629a2.778,2.778,0,0,1,0,3.919A2.748,2.748,0,0,1-18.205-75.068Z" transform="translate(45.117 89.469)"/>
          </g>
          <g id="g4541" transform="translate(20.737 40.911)">
            <path id="path4543" d="M-45.04-4.207a.867.867,0,0,1-.614-.254.87.87,0,0,1,0-1.23l1.276-1.278a7.588,7.588,0,0,0,1.658-2.493.87.87,0,0,1,1.135-.474A.87.87,0,0,1-41.113-8.8a9.318,9.318,0,0,1-2.036,3.062l-1.276,1.278A.867.867,0,0,1-45.04-4.207Z" transform="translate(45.909 10.003)"/>
          </g>
          <g id="g4545" transform="translate(40.939 20.284)">
            <path id="path4547" d="M-60.684-4.7a.87.87,0,0,1-.8-.537.87.87,0,0,1,.47-1.136,7.592,7.592,0,0,0,2.469-1.648l1.733-1.729a.87.87,0,0,1,1.23,0,.87.87,0,0,1,0,1.23L-57.32-6.786a9.323,9.323,0,0,1-3.032,2.023A.867.867,0,0,1-60.684-4.7Z" transform="translate(61.554 10)"/>
          </g>
          <g id="g4549" transform="translate(40.925 14.842)">
            <path id="path4551" d="M1.606-197.982a2.765,2.765,0,0,1-1.96-.809l-6.629-6.616a7.587,7.587,0,0,0-2.481-1.653.87.87,0,0,1-.473-1.135.87.87,0,0,1,1.135-.473,9.317,9.317,0,0,1,3.047,2.03l6.629,6.616a1.036,1.036,0,0,0,1.462,0,1.021,1.021,0,0,0,.3-.727,1.021,1.021,0,0,0-.3-.727l-5.485-5.475a4.049,4.049,0,0,1-1.2-2.885v-5.972a4.049,4.049,0,0,1,1.2-2.885l5.485-5.475a1.021,1.021,0,0,0,.3-.727,1.02,1.02,0,0,0-.3-.727,1.036,1.036,0,0,0-1.462,0l-2.037,2.033a.87.87,0,0,1-1.23,0,.87.87,0,0,1,0-1.23l2.037-2.033a2.778,2.778,0,0,1,3.919,0,2.748,2.748,0,0,1,.812,1.958,2.748,2.748,0,0,1-.812,1.958l-5.485,5.475a2.321,2.321,0,0,0-.686,1.654v5.972a2.321,2.321,0,0,0,.686,1.654l5.485,5.475a2.748,2.748,0,0,1,.813,1.958,2.748,2.748,0,0,1-.812,1.958A2.765,2.765,0,0,1,1.606-197.982Z" transform="translate(10.003 227.661)"/>
          </g>
          <g id="g4553" transform="translate(50.088 25.044)">
            <path id="path4555" d="M-8.84-87.391h-6.377a1.451,1.451,0,0,1-1.449-1.449v-6.377a1.451,1.451,0,0,1,1.449-1.449H-8.84a1.451,1.451,0,0,1,1.449,1.449v6.377A1.451,1.451,0,0,1-8.84-87.391Zm-6.087-1.739h5.8v-5.8h-5.8Z" transform="translate(16.667 96.666)"/>
          </g>
          <g id="g4557" transform="translate(4.174 14.842)">
            <path id="path4559" d="M-151.524-83.51a2.765,2.765,0,0,1-1.96-.809,2.749,2.749,0,0,1-.813-1.958,2.748,2.748,0,0,1,.813-1.958L-148-93.71a2.321,2.321,0,0,0,.687-1.654v-5.972a2.321,2.321,0,0,0-.687-1.654l-5.485-5.475a2.748,2.748,0,0,1-.813-1.958,2.748,2.748,0,0,1,.813-1.958,2.778,2.778,0,0,1,3.919,0l6.629,6.616a7.593,7.593,0,0,0,2.4,1.618.87.87,0,0,1,.459,1.141.87.87,0,0,1-1.141.459,9.325,9.325,0,0,1-2.944-1.987l-6.629-6.616a1.036,1.036,0,0,0-1.462,0,1.021,1.021,0,0,0-.3.727,1.021,1.021,0,0,0,.3.727l5.485,5.474a4.049,4.049,0,0,1,1.2,2.885v5.972a4.049,4.049,0,0,1-1.2,2.885L-152.255-87a1.021,1.021,0,0,0-.3.727,1.021,1.021,0,0,0,.3.727,1.036,1.036,0,0,0,1.462,0l6.629-6.616a9.325,9.325,0,0,1,2.924-1.978.87.87,0,0,1,1.142.456.87.87,0,0,1-.456,1.142,7.594,7.594,0,0,0-2.381,1.611l-6.629,6.616A2.765,2.765,0,0,1-151.524-83.51Z" transform="translate(154.296 113.189)"/>
          </g>
          <g id="g4561" transform="translate(0 25.363)">
            <path id="path4563" d="M-79.419-10.6h0a1.451,1.451,0,0,1,1.449,1.45v5.737a1.451,1.451,0,0,1-1.449,1.45,1.44,1.44,0,0,1-.6-.13l-6.4-2.9a1.412,1.412,0,0,1-.827-1.283,1.412,1.412,0,0,1,.827-1.283l6.4-2.9A1.44,1.44,0,0,1-79.419-10.6Zm-.29,6.737V-8.7l-5.329,2.419Z" transform="translate(87.245 10.603)"/>
          </g>
          <g id="g4565" transform="translate(24.461 50.088)">
            <path id="path4567" d="M-82.011-10h4.351a.87.87,0,0,1,.753.435L-74.731-5.8a.87.87,0,0,1,0,.87l-2.176,3.768a.87.87,0,0,1-.753.435h-4.351a.87.87,0,0,1-.753-.435l-2.176-3.768a.87.87,0,0,1,0-.87l2.176-3.768A.87.87,0,0,1-82.011-10Zm3.849,1.739h-3.347l-1.674,2.9,1.674,2.9h3.347l1.674-2.9Z" transform="translate(85.056 10)"/>
          </g>
          <g id="g4569" transform="translate(15.768 15.768)">
            <path id="path4571" d="M-296.086-160a13.929,13.929,0,0,1,13.913,13.913,13.929,13.929,0,0,1-13.913,13.913A13.929,13.929,0,0,1-310-146.086,13.929,13.929,0,0,1-296.086-160Zm0,26.087a12.188,12.188,0,0,0,12.174-12.174,12.188,12.188,0,0,0-12.174-12.174,12.188,12.188,0,0,0-12.174,12.174A12.188,12.188,0,0,0-296.086-133.912Z" transform="translate(309.999 160)"/>
          </g>
          <g id="g4573" transform="translate(15.768 22.772)">
            <path id="path4575" d="M-112.864-5.823a7.584,7.584,0,0,1-2.936-.721.87.87,0,0,1-.454-1.143.87.87,0,0,1,1.143-.454c1.462.631,2.542.753,3.125.351.516-.356.607-1.107.7-2.3.095-1.286.2-2.743,1.415-3.634a3.679,3.679,0,0,1,3.288-.268c.182.044.368.089.56.13a.87.87,0,0,1,.669,1.032.87.87,0,0,1-1.032.669c-.207-.044-.408-.093-.6-.14-.928-.224-1.432-.327-1.85-.02-.529.388-.621,1.15-.71,2.36-.095,1.289-.2,2.751-1.442,3.605A3.208,3.208,0,0,1-112.864-5.823Z" transform="translate(116.325 14.251)"/>
          </g>
          <g id="g4577" transform="translate(28.333 15.778)">
            <path id="path4579" d="M-8.548-1.53a.869.869,0,0,1-.735-.4.87.87,0,0,1,.268-1.2C-8.564-3.42-7.1-4.463-7.233-5.875A3.268,3.268,0,0,0-9.456-8.326.87.87,0,0,1-9.94-9.456.87.87,0,0,1-8.809-9.94,4.925,4.925,0,0,1-5.5-6.033,4.853,4.853,0,0,1-8.083-1.665.866.866,0,0,1-8.548-1.53Z" transform="translate(10.003 10.003)"/>
          </g>
          <g id="g4581" transform="translate(27.985 26.842)">
            <path id="path4583" d="M-29.135-31.66a3.563,3.563,0,0,1,3.23,3.166c.091,2.5-3.412,3.534-4.115,3.715a7.648,7.648,0,0,1-1.883.286,2.559,2.559,0,0,1-2.241-.979,2.793,2.793,0,0,1,.235-3.3,2.147,2.147,0,0,1,1.253-.68,3.055,3.055,0,0,0,.705-.237,2.633,2.633,0,0,0,1.038-.921A2.206,2.206,0,0,1-29.5-31.628,2.077,2.077,0,0,1-29.135-31.66ZM-31.9-26.232a6.091,6.091,0,0,0,1.447-.23c1.1-.286,2.845-1.072,2.812-1.968a1.861,1.861,0,0,0-1.492-1.49.338.338,0,0,0-.06,0c-.061.011-.136.1-.328.353a4.352,4.352,0,0,1-1.666,1.438,4.75,4.75,0,0,1-1.064.365c-.29.069-.3.078-.352.139a1.08,1.08,0,0,0-.121,1.141C-32.572-26.264-32.144-26.232-31.9-26.232Z" transform="translate(34.576 31.66)"/>
          </g>
          <g id="g4585" transform="translate(20.442 34.527)">
            <path id="path4587" d="M4.181-45.49a.87.87,0,0,1-.867-.812c-.074-1.123-.359-1.884-.8-2.14-.238-.138-.455-.1-1.014.039a4.026,4.026,0,0,1-2.371.035,3.922,3.922,0,0,1-2.132-1.9,2.866,2.866,0,0,0-1.457-1.4,2.969,2.969,0,0,0-2.162.06,3.556,3.556,0,0,0-1.639,2.741.87.87,0,0,1-.93.8.869.869,0,0,1-.8-.929,5.192,5.192,0,0,1,2.624-4.186A4.644,4.644,0,0,1-3.852-53.3,4.518,4.518,0,0,1-1.538-51.2c.4.634.657,1,1.2,1.178a2.359,2.359,0,0,0,1.41-.068,2.851,2.851,0,0,1,2.309.143c.988.573,1.549,1.761,1.666,3.53a.87.87,0,0,1-.81.925Z" transform="translate(10 53.589)"/>
          </g>
          <g id="g4589" transform="translate(37.677 21.546)">
            <path id="path4591" d="M-27.677.449a.87.87,0,0,1-.235-.033,6.624,6.624,0,0,1-4.33-3.844c-.192-.519-1.065-3.211.579-5.282A4.529,4.529,0,0,1-30.212-9.9a.87.87,0,0,1,1.174.365A.87.87,0,0,1-29.4-8.363a2.8,2.8,0,0,0-.9.734c-1.106,1.393-.342,3.509-.309,3.6a4.935,4.935,0,0,0,3.169,2.773.87.87,0,0,1,.6,1.072A.87.87,0,0,1-27.677.449Z" transform="translate(32.646 10.002)"/>
          </g>
        </g>
      </g>
    </g>
  </g>
</svg>
