<svg xmlns="http://www.w3.org/2000/svg" xmlns:xlink="http://www.w3.org/1999/xlink" width="111.776" height="111.776" viewBox="0 0 111.776 111.776">
  <defs>
    <filter id="Path_874925" x="0" y="0" width="111.776" height="111.776" filterUnits="userSpaceOnUse">
      <feOffset dy="3" input="SourceAlpha"/>
      <feGaussianBlur stdDeviation="3" result="blur"/>
      <feFlood flood-opacity="0.161"/>
      <feComposite operator="in" in2="blur"/>
      <feComposite in="SourceGraphic"/>
    </filter>
  </defs>
  <g id="Group_1205903" data-name="Group 1205903" transform="translate(-1111 -1820)">
    <g id="Group_1204845" data-name="Group 1204845" transform="translate(835 -4424.874)">
      <g id="Group_1200232" data-name="Group 1200232" transform="translate(285 6250.874)">
        <g id="Group_1187153" data-name="Group 1187153">
          <g id="Group_1182177" data-name="Group 1182177">
            <g id="Group_1181903" data-name="Group 1181903">
              <g id="Group_1181438" data-name="Group 1181438">
                <g id="Group_1111314" data-name="Group 1111314">
                  <g transform="matrix(1, 0, 0, 1, -9, -6)" filter="url(#Path_874925)">
                    <g id="Path_874925-2" data-name="Path 874925" transform="translate(9 6)" fill="#ffc94a">
                      <path d="M 46.88790893554688 92.2763671875 C 40.75992202758789 92.2763671875 34.8160285949707 91.07652282714844 29.22134971618652 88.71018218994141 C 23.81676292419434 86.42423248291016 18.96264266967773 83.15139007568359 14.79381561279297 78.98255157470703 C 10.62497520446777 74.81372833251953 7.35213565826416 69.95960998535156 5.066188812255859 64.55502319335938 C 2.699842214584351 58.9603385925293 1.500002264976501 53.01644515991211 1.500002264976501 46.88844680786133 C 1.500002264976501 40.75992584228516 2.699842214584351 34.81603240966797 5.066188812255859 29.22135353088379 C 7.35213565826416 23.8167667388916 10.62497520446777 18.962646484375 14.79381561279297 14.79381942749023 C 18.96264266967773 10.62497997283936 23.81676292419434 7.352139949798584 29.22134971618652 5.066193103790283 C 34.8160285949707 2.699846506118774 40.75992202758789 1.500006437301636 46.88790893554688 1.500006437301636 C 53.01589584350586 1.500006437301636 58.95978927612305 2.699846506118774 64.55446624755859 5.066193103790283 C 69.95905303955078 7.352139949798584 74.81317901611328 10.62497997283936 78.98200225830078 14.79381942749023 C 83.15084075927734 18.962646484375 86.42368316650391 23.8167667388916 88.70962524414062 29.22135353088379 C 91.07597351074219 34.81603240966797 92.27581787109375 40.75992584228516 92.27581787109375 46.88791275024414 C 92.27581787109375 53.01644515991211 91.07597351074219 58.9603385925293 88.70962524414062 64.55502319335938 C 86.42368316650391 69.95960998535156 83.15084075927734 74.81372833251953 78.98200225830078 78.98255157470703 C 74.81317901611328 83.15139007568359 69.95905303955078 86.42423248291016 64.55446624755859 88.71018218994141 C 58.95978927612305 91.07652282714844 53.01589584350586 92.2763671875 46.88790893554688 92.2763671875 Z" stroke="none"/>
                      <path d="M 46.88790893554688 2.999992370605469 C 40.96175003051758 2.999992370605469 35.2144660949707 4.159965515136719 29.80567932128906 6.44769287109375 C 24.57989501953125 8.658004760742188 19.88602447509766 11.82290649414062 15.85446929931641 15.85446929931641 C 11.82290649414062 19.88602447509766 8.658012390136719 24.57989501953125 6.44769287109375 29.80567932128906 C 4.159965515136719 35.2144660949707 2.999992370605469 40.96175003051758 2.999992370605469 46.88845062255859 C 2.999992370605469 52.81460952758789 4.159965515136719 58.56189346313477 6.44769287109375 63.97069549560547 C 8.658012390136719 69.19646453857422 11.82290649414062 73.89033508300781 15.85446929931641 77.92189025878906 C 19.88602447509766 81.95343780517578 24.57989501953125 85.11833953857422 29.80567932128906 87.32865142822266 C 35.2144660949707 89.61637878417969 40.96175003051758 90.77635192871094 46.88790893554688 90.77635192871094 C 52.81406784057617 90.77635192871094 58.56135177612305 89.61637878417969 63.97013854980469 87.32865142822266 C 69.1959228515625 85.11833953857422 73.88979339599609 81.95343780517578 77.92134857177734 77.92189025878906 C 81.95291137695312 73.89033508300781 85.11781311035156 69.19646453857422 87.328125 63.97069549560547 C 89.61585235595703 58.56189346313477 90.77582550048828 52.81460952758789 90.77582550048828 46.88790893554688 C 90.77582550048828 40.96175003051758 89.61585235595703 35.2144660949707 87.328125 29.80567932128906 C 85.11781311035156 24.57989501953125 81.95291137695312 19.88602447509766 77.92134857177734 15.85446929931641 C 73.88979339599609 11.82290649414062 69.1959228515625 8.658004760742188 63.97013854980469 6.44769287109375 C 58.56135177612305 4.159965515136719 52.81406784057617 2.999992370605469 46.88790893554688 2.999992370605469 M 46.88790893554688 -7.62939453125e-06 C 72.78337860107422 -7.62939453125e-06 93.77582550048828 20.99243927001953 93.77582550048828 46.88790893554688 L 93.77582550048828 46.88845062255859 C 93.77582550048828 72.783935546875 72.78337860107422 93.77635192871094 46.88790893554688 93.77635192871094 C 20.99243927001953 93.77635192871094 -7.62939453125e-06 72.783935546875 -7.62939453125e-06 46.88845062255859 L -7.62939453125e-06 46.88790893554688 C -7.62939453125e-06 20.99243927001953 20.99243927001953 -7.62939453125e-06 46.88790893554688 -7.62939453125e-06 Z" stroke="none" fill="#fff"/>
                    </g>
                  </g>
                </g>
              </g>
            </g>
          </g>
        </g>
      </g>
    </g>
    <g id="discusion" transform="translate(1139 1845)">
      <path id="Path_1265220" data-name="Path 1265220" d="M28.793,16.542V8H12.563A2.559,2.559,0,0,0,10,10.563V19.1a2.559,2.559,0,0,0,2.563,2.563H21.1v3.417l5.125-3.417h1.708a2.567,2.567,0,0,0,2.537-2.178v-.009A3.4,3.4,0,0,1,28.793,16.542Z" transform="translate(-1.312 -1.021)" fill="#e6e9ed"/>
      <path id="Path_1265221" data-name="Path 1265221" d="M54.209,2H35.417A3.416,3.416,0,0,0,32,5.417V15.667a3.4,3.4,0,0,0,1.683,2.938,3.347,3.347,0,0,0,1.734.478h2.563L43.1,22.5V19.084h11.1a3.416,3.416,0,0,0,3.417-3.417V5.417A3.416,3.416,0,0,0,54.209,2Z" transform="translate(-4.52 -0.146)" fill="#fcd770"/>
      <path id="Path_1265222" data-name="Path 1265222" d="M6.271,57.043H2V48.5a8.545,8.545,0,0,1,8.542-8.542c0,1.888,1.145,3.417,2.563,3.417s2.563-1.529,2.563-3.417a2.159,2.159,0,0,0-.009-.239l.333-.051a11.97,11.97,0,0,0,6.765-3.383l7.577-7.577a2.416,2.416,0,1,1,3.417,3.417l-13.1,13.1a2.418,2.418,0,0,0-.709,1.708V57.043Z" transform="translate(-0.146 -3.936)" fill="#fcd770"/>
      <path id="Path_1265223" data-name="Path 1265223" d="M45.1,55.667H36.136a2.136,2.136,0,1,1,0-4.271H45.1L46.5,46.28a5.813,5.813,0,0,1,11.421,1.529V59.084H45.1Z" transform="translate(-4.811 -5.977)" fill="#b4dd7f"/>
      <g id="Group_1205777" data-name="Group 1205777" transform="translate(6.979 24.064)">
        <path id="Path_1265224" data-name="Path 1265224" d="M17.117,41.72a2.159,2.159,0,0,1,.009.239c0,1.888-1.145,3.417-2.563,3.417S12,43.847,12,41.959h3.417Z" transform="translate(-8.583 -30)" fill="#f0d0b4"/>
        <circle id="Ellipse_12805" data-name="Ellipse 12805" cx="6" cy="6" r="6" transform="translate(-0.019 -0.063)" fill="#f0d0b4"/>
        <circle id="Ellipse_12806" data-name="Ellipse 12806" cx="6" cy="6" r="6" transform="translate(31.981 -0.063)" fill="#f0d0b4"/>
      </g>
      <path id="Path_1265225" data-name="Path 1265225" d="M35.168,30.271a3.27,3.27,0,0,0-5.582-2.312l-7.579,7.579a11.16,11.16,0,0,1-3.593,2.4,6.829,6.829,0,1,0-9.769,1.2A9.407,9.407,0,0,0,1,48.355v9.4H20.647V46.793a1.553,1.553,0,0,1,.457-1.1L34.211,32.582a3.248,3.248,0,0,0,.958-2.311Zm-21.355,10.4.768-.107c-.22,1.035-.87,1.815-1.622,1.815-.727,0-1.358-.726-1.6-1.708ZM7.834,33.834a5.125,5.125,0,1,1,5.125,5.125A5.13,5.13,0,0,1,7.834,33.834ZM33,31.375,19.9,44.481a3.248,3.248,0,0,0-.958,2.311v9.25H6.979V45.793H5.271V56.043H2.708V48.355A7.7,7.7,0,0,1,9.62,40.707c.33,1.927,1.7,3.378,3.339,3.378,1.751,0,3.181-1.661,3.378-3.784a12.889,12.889,0,0,0,6.879-3.556l7.579-7.579a1.562,1.562,0,0,1,2.666,1.105,1.554,1.554,0,0,1-.457,1.1Z" transform="translate(0 -3.791)"/>
      <path id="Path_1265226" data-name="Path 1265226" d="M53.515,39.149A6.831,6.831,0,1,0,47.732,40.5a6.634,6.634,0,0,0-2.2,3.374l-1.223,4.485H35.99a2.99,2.99,0,0,0,0,5.979H44.1v3.417H58.626V45.625A6.672,6.672,0,0,0,53.515,39.149ZM44.1,33.834a5.125,5.125,0,1,1,5.125,5.125A5.13,5.13,0,0,1,44.1,33.834ZM56.918,56.043h-11.1V54.335h.716A3.411,3.411,0,0,0,49.77,52L52.6,43.5l-1.62-.541-2.833,8.5a1.707,1.707,0,0,1-1.621,1.169H35.99a1.281,1.281,0,1,1,0-2.563h9.622l1.567-5.744a4.957,4.957,0,0,1,9.74,1.305Z" transform="translate(-4.665 -3.791)"/>
      <path id="Path_1265227" data-name="Path 1265227" d="M13,11h1.708v1.708H13Z" transform="translate(-1.749 -1.458)"/>
      <path id="Path_1265228" data-name="Path 1265228" d="M17,11H27.251v1.708H17Z" transform="translate(-2.333 -1.458)"/>
      <path id="Path_1265229" data-name="Path 1265229" d="M13,15H26.667v1.708H13Z" transform="translate(-1.749 -2.041)"/>
      <path id="Path_1265230" data-name="Path 1265230" d="M13,19H26.667v1.708H13Z" transform="translate(-1.749 -2.624)"/>
      <path id="Path_1265231" data-name="Path 1265231" d="M57,9h1.708v1.708H57Z" transform="translate(-8.164 -1.166)"/>
      <path id="Path_1265232" data-name="Path 1265232" d="M35,9H52.084v1.708H35Z" transform="translate(-4.957 -1.166)"/>
      <path id="Path_1265233" data-name="Path 1265233" d="M35,13H55.5v1.708H35Z" transform="translate(-4.957 -1.749)"/>
      <path id="Path_1265234" data-name="Path 1265234" d="M35,17H55.5v1.708H35Z" transform="translate(-4.957 -2.333)"/>
      <path id="Path_1265235" data-name="Path 1265235" d="M50.856,1H32.064a4.276,4.276,0,0,0-4.271,4.271v.854H12.417A3.42,3.42,0,0,0,9,9.542v8.542A3.42,3.42,0,0,0,12.417,21.5H20.1V25.66L26.343,21.5h1.45a3.431,3.431,0,0,0,3.051-1.907,4.216,4.216,0,0,0,1.22.2h2.3l6.238,4.159V19.793H50.856a4.276,4.276,0,0,0,4.271-4.271V5.271A4.276,4.276,0,0,0,50.856,1ZM27.793,19.793H25.825l-4.012,2.675V19.793h-9.4a1.71,1.71,0,0,1-1.708-1.708V9.542a1.71,1.71,0,0,1,1.708-1.708H27.793v7.688a4.244,4.244,0,0,0,1.55,3.264A1.714,1.714,0,0,1,27.793,19.793Zm25.626-4.271a2.566,2.566,0,0,1-2.563,2.563H38.9v2.675l-4.012-2.675H32.064A2.566,2.566,0,0,1,29.5,15.522V5.271a2.566,2.566,0,0,1,2.563-2.563H50.856a2.566,2.566,0,0,1,2.563,2.563Z" transform="translate(-1.166)"/>
      <path id="Path_1265236" data-name="Path 1265236" d="M35,5h1.708V6.708H35Z" transform="translate(-4.957 -0.583)"/>
      <path id="Path_1265237" data-name="Path 1265237" d="M39,5h1.708V6.708H39Z" transform="translate(-5.54 -0.583)"/>
      <path id="Path_1265238" data-name="Path 1265238" d="M43,5H56.667V6.708H43Z" transform="translate(-6.123 -0.583)"/>
    </g>
  </g>
</svg>
