<svg xmlns="http://www.w3.org/2000/svg" width="129.063" height="81.156" viewBox="0 0 129.063 81.156">
  <g id="Group_1205880" data-name="Group 1205880" transform="translate(-407 -5451.844)">
    <g id="Group_1205225" data-name="Group 1205225" transform="translate(-380.781 2903.871)">
      <g id="Rectangle_410589" data-name="Rectangle 410589" transform="translate(787.781 2575.623)" fill="#ffc94a" stroke="#dfab32" stroke-width="1">
        <rect width="129.063" height="43.021" rx="8" stroke="none"/>
        <rect x="0.5" y="0.5" width="128.063" height="42.021" rx="7.5" fill="none"/>
      </g>
    </g>
    <g id="part" transform="translate(431 5451.844)">
      <g id="Group_1205846" data-name="Group 1205846" transform="translate(1.309 1.309)">
        <g id="Group_1205818" data-name="Group 1205818" transform="translate(31.415 5.236)">
          <path id="Path_1265311" data-name="Path 1265311" d="M32.854,5A7.854,7.854,0,1,1,25,12.854,7.86,7.86,0,0,1,32.854,5Zm2.618,7.854a2.618,2.618,0,1,0-2.618,2.618A2.626,2.626,0,0,0,35.472,12.854Z" transform="translate(-25 -5)" fill="#ef7385"/>
        </g>
        <g id="Group_1205819" data-name="Group 1205819" transform="translate(26.179)">
          <path id="Path_1265312" data-name="Path 1265312" d="M41.944,14.09a7.854,7.854,0,1,0-7.854,7.854A7.86,7.86,0,0,0,41.944,14.09Zm-20.5-2.618A2.617,2.617,0,0,0,23.3,7.008l-.327-.327,3.7-3.7.327.327a2.617,2.617,0,0,0,4.464-1.859V1h5.236v.445A2.617,2.617,0,0,0,41.171,3.3l.327-.327,3.7,3.7-.327.327a2.617,2.617,0,0,0,1.859,4.464h.445v5.236h-.445a2.617,2.617,0,0,0-1.859,4.464l.327.327-3.7,3.7-.327-.327a2.617,2.617,0,0,0-4.464,1.859v.445H31.472v-.445a2.617,2.617,0,0,0-4.464-1.859l-.327.327-3.7-3.7.327-.327a2.617,2.617,0,0,0-1.859-4.464H21V11.472Z" transform="translate(-21 -1)" fill="#ef7385"/>
        </g>
        <g id="Group_1205820" data-name="Group 1205820" transform="translate(52.359 28.797)">
          <path id="Path_1265313" data-name="Path 1265313" d="M41,23H59.326a7.866,7.866,0,0,1-7.854,7.854H48.854A7.86,7.86,0,0,1,41,23Z" transform="translate(-41 -23)" fill="#dfb28b"/>
        </g>
        <g id="Group_1205821" data-name="Group 1205821" transform="translate(7.854 28.797)">
          <path id="Path_1265314" data-name="Path 1265314" d="M7,23H25.326a7.866,7.866,0,0,1-7.854,7.854H14.854A7.86,7.86,0,0,1,7,23Z" transform="translate(-7 -23)" fill="#dfb28b"/>
        </g>
        <g id="Group_1205822" data-name="Group 1205822" transform="translate(52.359 10.472)">
          <path id="Path_1265315" data-name="Path 1265315" d="M59.326,10.309v2.618a1.313,1.313,0,0,1-1.309,1.309H41V9H58.017A1.313,1.313,0,0,1,59.326,10.309Z" transform="translate(-41 -9)" fill="#b27946"/>
        </g>
        <g id="Group_1205823" data-name="Group 1205823" transform="translate(7.854 10.472)">
          <path id="Path_1265316" data-name="Path 1265316" d="M25.326,9v5.236H8.309A1.313,1.313,0,0,1,7,12.927V10.309A1.313,1.313,0,0,1,8.309,9Z" transform="translate(-7 -9)" fill="#b27946"/>
        </g>
        <g id="Group_1205824" data-name="Group 1205824" transform="translate(36.651 26.179)">
          <path id="Path_1265317" data-name="Path 1265317" d="M34.236,21V36.642a9.883,9.883,0,0,1-1.086.065H29V21Z" transform="translate(-29 -21)" fill="#b27946"/>
        </g>
        <g id="Group_1205825" data-name="Group 1205825" transform="translate(28.797 39.269)">
          <path id="Path_1265318" data-name="Path 1265318" d="M23,46.708V40.163a6.547,6.547,0,0,1,6.545-6.545H35a9.883,9.883,0,0,0,1.086-.065A8.984,8.984,0,0,0,41.326,31a15.633,15.633,0,0,1,2.618,8.652v7.055H41.326v-.3a2.627,2.627,0,0,0-2.291-2.6l-4.071-.51a6.553,6.553,0,0,1-3.142-1.283v.013l-4.411,1.466a2.63,2.63,0,0,0-1.793,2.487v.733Z" transform="translate(-23 -31)" fill="#fcd770"/>
        </g>
        <g id="Group_1205826" data-name="Group 1205826" transform="translate(52.359 41.887)">
          <path id="Path_1265319" data-name="Path 1265319" d="M52.44,41.391V41.4L48.029,42.87a2.63,2.63,0,0,0-1.793,2.487v3.351a7.846,7.846,0,0,0,4.974,7.3v.013l-1.047,3.155a6.686,6.686,0,0,0-3.024,2.055,6.253,6.253,0,0,0-.746,1.1A13.471,13.471,0,0,1,41,51.548V46.09a13.09,13.09,0,0,1,26.179,0v5.458a13.471,13.471,0,0,1-5.393,10.786,6.253,6.253,0,0,0-.746-1.1,6.685,6.685,0,0,0-3.024-2.055l-1.047-3.155v-.013a7.644,7.644,0,0,0,2.67-1.754,7.781,7.781,0,0,0,2.3-5.55V45.789a2.627,2.627,0,0,0-2.291-2.6l-4.071-.51A6.553,6.553,0,0,1,52.44,41.391Z" transform="translate(-41 -33)" fill="#b27946"/>
        </g>
        <g id="Group_1205827" data-name="Group 1205827" transform="translate(2.618 41.887)">
          <path id="Path_1265320" data-name="Path 1265320" d="M11.822,41.4,7.411,42.87a2.63,2.63,0,0,0-1.793,2.487v.733H3V43.472a10.472,10.472,0,1,1,20.944,0V46.09H21.326v-.3a2.627,2.627,0,0,0-2.291-2.6l-4.071-.51a6.553,6.553,0,0,1-3.142-1.283Z" transform="translate(-3 -33)" fill="#b27946"/>
        </g>
        <g id="Group_1205828" data-name="Group 1205828" transform="translate(65.449 68.067)">
          <path id="Path_1265321" data-name="Path 1265321" d="M59.443,58.406l.72,5.066H51V55.618L54.927,53a6.686,6.686,0,0,1,3.024,2.055,6.253,6.253,0,0,1,.746,1.1A6.715,6.715,0,0,1,59.443,58.406Z" transform="translate(-51 -53)" fill="#ef7385"/>
        </g>
        <g id="Group_1205829" data-name="Group 1205829" transform="translate(56.286 68.067)">
          <path id="Path_1265322" data-name="Path 1265322" d="M53.163,55.618v7.854H44l.72-5.066a6.716,6.716,0,0,1,.746-2.251,6.253,6.253,0,0,1,.746-1.1A6.685,6.685,0,0,1,49.236,53Z" transform="translate(-44 -53)" fill="#ef7385"/>
        </g>
        <g id="Group_1205830" data-name="Group 1205830" transform="translate(40.578 68.067)">
          <path id="Path_1265323" data-name="Path 1265323" d="M34.618,53a6.685,6.685,0,0,1,4.516,5.406l.72,5.066H33.309L32,55.618Z" transform="translate(-32 -53)" fill="#e6e9ed"/>
        </g>
        <g id="Group_1205831" data-name="Group 1205831" transform="translate(30.106 68.067)">
          <path id="Path_1265324" data-name="Path 1265324" d="M31.854,55.618l-1.309,7.854H24l.72-5.066A6.685,6.685,0,0,1,29.236,53Z" transform="translate(-24 -53)" fill="#e6e9ed"/>
        </g>
        <g id="Group_1205832" data-name="Group 1205832" transform="translate(14.399 68.067)">
          <path id="Path_1265325" data-name="Path 1265325" d="M14.618,53a6.685,6.685,0,0,1,4.516,5.406l.72,5.066H13.309L12,55.618Z" transform="translate(-12 -53)" fill="#e6e9ed"/>
        </g>
        <g id="Group_1205833" data-name="Group 1205833" transform="translate(3.927 68.067)">
          <path id="Path_1265326" data-name="Path 1265326" d="M11.854,55.618l-1.309,7.854H4l.72-5.066A6.7,6.7,0,0,1,9.236,53Z" transform="translate(-4 -53)" fill="#e6e9ed"/>
        </g>
        <g id="Group_1205834" data-name="Group 1205834" transform="translate(36.651 70.684)">
          <path id="Path_1265327" data-name="Path 1265327" d="M32.927,55l1.309,7.854H29L30.309,55Z" transform="translate(-29 -55)" fill="#ef7385"/>
        </g>
        <g id="Group_1205835" data-name="Group 1205835" transform="translate(10.472 70.684)">
          <path id="Path_1265328" data-name="Path 1265328" d="M12.927,55l1.309,7.854H9L10.309,55Z" transform="translate(-9 -55)" fill="#ef7385"/>
        </g>
        <g id="Group_1205836" data-name="Group 1205836" transform="translate(61.522 64.899)">
          <path id="Path_1265329" data-name="Path 1265329" d="M55.854,53.748l-3.927,2.618L48,53.748l1.047-3.155V50.58a7.776,7.776,0,0,0,2.88.55l2.88-.55v.013Z" transform="translate(-48 -50.58)" fill="#f5e0cd"/>
        </g>
        <g id="Group_1205837" data-name="Group 1205837" transform="translate(57.595 50.278)">
          <path id="Path_1265330" data-name="Path 1265330" d="M60.708,43.808v2.919a7.781,7.781,0,0,1-2.3,5.55,7.644,7.644,0,0,1-2.67,1.754l-2.88.55A7.863,7.863,0,0,1,45,46.727V43.376a2.63,2.63,0,0,1,1.793-2.487L51.2,39.423V39.41a6.553,6.553,0,0,0,3.142,1.283l4.071.51A2.627,2.627,0,0,1,60.708,43.808Z" transform="translate(-45 -39.41)" fill="#f5e0cd"/>
        </g>
        <g id="Group_1205838" data-name="Group 1205838" transform="translate(31.415 50.278)">
          <path id="Path_1265331" data-name="Path 1265331" d="M40.708,44.109v2.618a7.778,7.778,0,0,1-2.3,5.55,7.644,7.644,0,0,1-2.67,1.754,7.861,7.861,0,0,1-10.289-4.686A7.91,7.91,0,0,1,25,46.727V43.376a2.63,2.63,0,0,1,1.793-2.487L31.2,39.423V39.41a6.553,6.553,0,0,0,3.142,1.283l4.071.51a2.627,2.627,0,0,1,2.291,2.6Z" transform="translate(-25 -39.41)" fill="#f5e0cd"/>
        </g>
        <g id="Group_1205839" data-name="Group 1205839" transform="translate(35.342 64.899)">
          <path id="Path_1265332" data-name="Path 1265332" d="M34.807,50.593l1.047,3.155-2.618,2.618H30.618L28,53.748l1.047-3.155V50.58a7.817,7.817,0,0,0,5.759,0Z" transform="translate(-28 -50.58)" fill="#f5e0cd"/>
        </g>
        <g id="Group_1205840" data-name="Group 1205840" transform="translate(46.678 54.977)">
          <path id="Path_1265333" data-name="Path 1265333" d="M41.569,47.464a2.559,2.559,0,0,1-1.846.772H36.66a7.91,7.91,0,0,0,.445-2.618V43h2.618a2.626,2.626,0,0,1,2.618,2.618A2.559,2.559,0,0,1,41.569,47.464Z" transform="translate(-36.66 -43)" fill="#f5e0cd"/>
        </g>
        <g id="Group_1205841" data-name="Group 1205841" transform="translate(26.179 54.977)">
          <path id="Path_1265334" data-name="Path 1265334" d="M26.681,48.236H23.618A2.637,2.637,0,0,1,21,45.618,2.626,2.626,0,0,1,23.618,43h2.618v2.618A7.91,7.91,0,0,0,26.681,48.236Z" transform="translate(-21 -43)" fill="#f5e0cd"/>
        </g>
        <g id="Group_1205842" data-name="Group 1205842" transform="translate(20.498 54.977)">
          <path id="Path_1265335" data-name="Path 1265335" d="M19.723,43a2.626,2.626,0,0,1,2.618,2.618,2.637,2.637,0,0,1-2.618,2.618H16.66a7.91,7.91,0,0,0,.445-2.618V43Z" transform="translate(-16.66 -43)" fill="#f5e0cd"/>
        </g>
        <g id="Group_1205843" data-name="Group 1205843" transform="translate(5.236 50.278)">
          <path id="Path_1265336" data-name="Path 1265336" d="M20.708,44.109v2.618a7.778,7.778,0,0,1-2.3,5.55,7.809,7.809,0,0,1-8.417,1.754A7.816,7.816,0,0,1,5,46.727V43.376a2.63,2.63,0,0,1,1.793-2.487L11.2,39.423V39.41a6.553,6.553,0,0,0,3.142,1.283l4.071.51a2.627,2.627,0,0,1,2.291,2.6Z" transform="translate(-5 -39.41)" fill="#f5e0cd"/>
        </g>
        <g id="Group_1205844" data-name="Group 1205844" transform="translate(9.163 64.899)">
          <path id="Path_1265337" data-name="Path 1265337" d="M14.794,50.58l1.06,3.168-2.618,2.618H10.618L8,53.748,9.06,50.58a7.749,7.749,0,0,0,5.733,0Z" transform="translate(-8 -50.58)" fill="#f5e0cd"/>
        </g>
        <g id="Group_1205845" data-name="Group 1205845" transform="translate(0 54.977)">
          <path id="Path_1265338" data-name="Path 1265338" d="M6.236,45.618a7.91,7.91,0,0,0,.445,2.618H3.618a2.559,2.559,0,0,1-1.846-.772A2.559,2.559,0,0,1,1,45.618,2.626,2.626,0,0,1,3.618,43H6.236Z" transform="translate(-1 -43)" fill="#f5e0cd"/>
        </g>
      </g>
      <g id="Group_1205847" data-name="Group 1205847" transform="translate(0 0)">
        <path id="Path_1265339" data-name="Path 1265339" d="M53.145,45.677a1.9,1.9,0,0,1-2.618,0l-.384-.384-1.851,1.851.384.384a4.468,4.468,0,0,0,6.32,0l.384-.384-1.851-1.851Z" transform="translate(14.921 13.994)"/>
        <path id="Path_1265340" data-name="Path 1265340" d="M33.145,45.677a1.9,1.9,0,0,1-2.618,0l-.384-.384-1.851,1.851.384.384a4.468,4.468,0,0,0,6.32,0l.384-.384-1.851-1.851Z" transform="translate(8.742 13.994)"/>
        <path id="Path_1265341" data-name="Path 1265341" d="M15,47.527l.384-.384-1.851-1.851-.384.384a1.9,1.9,0,0,1-2.618,0l-.384-.384L8.293,47.144l.384.384a4.468,4.468,0,0,0,6.32,0Z" transform="translate(2.562 13.994)"/>
        <path id="Path_1265342" data-name="Path 1265342" d="M81.156,61.743V56.284a14.391,14.391,0,0,0-28.744-1.05c-.017-.007-.035-.01-.054-.017V49.224a16.847,16.847,0,0,0-2.838-9.372l-.886-1.329-1.128,1.128a7.644,7.644,0,0,1-3,1.838V27.039a1.309,1.309,0,0,1,2.234-.927l1.244,1.244L53.536,21.8,52.292,20.56a1.309,1.309,0,0,1,.927-2.234h4.876L52.359,29.8v.309a9.175,9.175,0,0,0,9.163,9.163H64.14A9.175,9.175,0,0,0,73.3,30.106V29.8L67.567,18.326h3.118A2.621,2.621,0,0,0,73.3,15.708V13.09a2.621,2.621,0,0,0-2.618-2.618H53.219a1.309,1.309,0,0,1-.927-2.234l1.244-1.244L47.983,1.441,46.739,2.685a1.309,1.309,0,0,1-2.234-.927V0H36.651V1.758a1.289,1.289,0,0,1-.808,1.211,1.281,1.281,0,0,1-1.427-.284L33.173,1.441,27.621,6.994l1.244,1.244a1.309,1.309,0,0,1-.927,2.234H10.472A2.621,2.621,0,0,0,7.854,13.09v2.618a2.621,2.621,0,0,0,2.618,2.618H13.59L7.854,29.8v.309a9.175,9.175,0,0,0,9.163,9.163h2.618A9.175,9.175,0,0,0,28.8,30.106V29.8L23.061,18.326h4.876a1.309,1.309,0,0,1,.927,2.234L27.621,21.8l5.553,5.553,1.244-1.244a1.309,1.309,0,0,1,2.234.927V41.887A7.862,7.862,0,0,0,28.8,49.741v5.477a3.912,3.912,0,0,0-1.309.78,3.89,3.89,0,0,0-1.309-.78v-1.55a11.781,11.781,0,1,0-23.561,0v1.55a3.917,3.917,0,0,0,1.309,7.613H6.133A9.222,9.222,0,0,0,9.921,66.89l-.495,1.484A7.963,7.963,0,0,0,4.663,74.6l-.936,6.558h73.7L76.494,74.6a8.1,8.1,0,0,0-.449-1.7,14.849,14.849,0,0,0,5.112-11.152ZM64.14,36.651H61.522a6.541,6.541,0,0,1-6.393-5.236h15.4A6.541,6.541,0,0,1,64.14,36.651ZM69.876,28.8H55.786l5.236-10.472H64.64Zm.809-15.708v2.618H54.977V13.09ZM19.635,36.651H17.017a6.541,6.541,0,0,1-6.393-5.236h15.4a6.541,6.541,0,0,1-6.393,5.236ZM25.37,28.8H11.281l5.236-10.472h3.618Zm-14.9-13.09V13.09H26.179v2.618ZM66.758,65.449A6.552,6.552,0,0,1,60.213,58.9v-3.35a1.306,1.306,0,0,1,.9-1.242l3.806-1.268a7.852,7.852,0,0,0,3.17,1.127l4.071.509a1.313,1.313,0,0,1,1.147,1.3V58.9A6.552,6.552,0,0,1,66.758,65.449Zm0,2.618a9.131,9.131,0,0,0,2.033-.236l.336,1.009-2.369,1.58-2.369-1.579.336-1.009A9.208,9.208,0,0,0,66.758,68.067Zm-4.076,2.783,2.767,1.844v5.845H59.1l.51-3.571a5.35,5.35,0,0,1,3.067-4.118ZM57.023,74.6l-.564,3.941H50.876L50.313,74.6a7.963,7.963,0,0,0-4.763-6.224l-.495-1.484a9.215,9.215,0,0,0,3.788-4.059H51.05a3.879,3.879,0,0,0,1.359-.257,14.838,14.838,0,0,0,5.063,10.321,8.072,8.072,0,0,0-.449,1.7ZM14.2,73.3h.4l.873,5.236H13.325Zm2.911-.86,1.525-1.525a5.361,5.361,0,0,1,2.909,4.05l.509,3.571H18.125ZM24.135,74.6a7.963,7.963,0,0,0-4.763-6.224l-.495-1.484a9.215,9.215,0,0,0,3.788-4.059H24.87a3.9,3.9,0,0,0,2.618-1.021,3.9,3.9,0,0,0,2.618,1.021h2.206A9.222,9.222,0,0,0,36.1,66.888l-.495,1.484A7.963,7.963,0,0,0,30.842,74.6l-.563,3.941H24.7ZM23.561,58.9V57.595H24.87a1.309,1.309,0,1,1,0,2.618H23.457A9.2,9.2,0,0,0,23.561,58.9ZM43.008,69.022l-1.662,1.662H39.811l-1.662-1.662.4-1.191a8.887,8.887,0,0,0,4.066,0Zm-2.429-3.573A6.552,6.552,0,0,1,34.033,58.9v-3.35a1.306,1.306,0,0,1,.9-1.242l3.806-1.268a7.845,7.845,0,0,0,3.17,1.127l4.071.509a1.313,1.313,0,0,1,1.147,1.3V58.9A6.552,6.552,0,0,1,40.578,65.449Zm-7.143,9.519a5.355,5.355,0,0,1,2.909-4.05l1.525,1.525-1.017,6.1H32.925ZM40.378,73.3h.4l.873,5.236H39.5Zm2.911-.86,1.525-1.525a5.361,5.361,0,0,1,2.909,4.05l.509,3.571H44.3ZM49.741,58.9V57.595H51.05a1.309,1.309,0,1,1,0,2.618H49.636A9.2,9.2,0,0,0,49.741,58.9Zm-16.5-35.185-1.979-1.979A3.938,3.938,0,0,0,28.8,15.8V13a3.938,3.938,0,0,0,2.461-5.941l1.979-1.979a3.861,3.861,0,0,0,3.608.308,3.856,3.856,0,0,0,2.334-2.768h2.8a3.856,3.856,0,0,0,2.334,2.768,3.854,3.854,0,0,0,3.608-.308L49.9,7.058A3.938,3.938,0,0,0,52.359,13v2.8A3.938,3.938,0,0,0,49.9,21.741L47.919,23.72a3.938,3.938,0,0,0-5.941,2.461h-2.8a3.938,3.938,0,0,0-5.94-2.462ZM39.269,28.8h2.618v13.09H39.269ZM36.651,44.505h5.461A10.319,10.319,0,0,0,48.1,42.572a14.236,14.236,0,0,1,1.644,6.652v5.753h-.147A3.922,3.922,0,0,0,46.3,52.083l-4.071-.509a5.29,5.29,0,0,1-4.337-3.556l-2.482.829a7.763,7.763,0,0,0,1.128,2.17l-2.439.813a3.92,3.92,0,0,0-2.639,3.147h-.047V49.74A5.241,5.241,0,0,1,36.651,44.505Zm-6.545,13.09h1.309V58.9a9.2,9.2,0,0,0,.1,1.309H30.106a1.309,1.309,0,1,1,0-2.618ZM14.4,44.505a9.175,9.175,0,0,1,9.163,9.163v1.309h-.147a3.922,3.922,0,0,0-3.293-2.894l-4.071-.509a5.29,5.29,0,0,1-4.337-3.556l-2.482.829a7.763,7.763,0,0,0,1.128,2.17l-2.439.813a3.922,3.922,0,0,0-2.64,3.148H5.236V53.668A9.175,9.175,0,0,1,14.4,44.505ZM3.927,60.213a1.309,1.309,0,1,1,0-2.618H5.236V58.9a9.2,9.2,0,0,0,.1,1.309ZM7.854,58.9v-3.35a1.306,1.306,0,0,1,.9-1.242l3.806-1.268a7.845,7.845,0,0,0,3.17,1.127l4.071.509a1.313,1.313,0,0,1,1.147,1.3V58.9a6.545,6.545,0,0,1-13.09,0ZM14.4,68.067a9.131,9.131,0,0,0,2.033-.236l.4,1.191-1.662,1.662H13.632l-1.662-1.662.4-1.191a9.131,9.131,0,0,0,2.033.236Zm-7.143,6.9a5.355,5.355,0,0,1,2.909-4.05l1.525,1.525-1.017,6.1H6.745Zm60.811,3.571V72.694l2.767-1.844A5.35,5.35,0,0,1,73.9,74.969l.51,3.57ZM71.73,68.373l-.495-1.484A9.162,9.162,0,0,0,75.92,58.9V55.979a3.933,3.933,0,0,0-3.44-3.9l-4.071-.509a5.29,5.29,0,0,1-4.337-3.556l-2.482.829a7.763,7.763,0,0,0,1.128,2.17l-2.439.813a3.922,3.922,0,0,0-2.686,3.725V58.9A9.165,9.165,0,0,0,62.28,66.89l-.495,1.484A7.951,7.951,0,0,0,58.807,70.6a12.238,12.238,0,0,1-3.83-8.86V56.284a11.781,11.781,0,0,1,23.561,0v5.458A12.229,12.229,0,0,1,74.707,70.6a7.974,7.974,0,0,0-2.977-2.229Z" transform="translate(0 0)"/>
        <path id="Path_1265343" data-name="Path 1265343" d="M35.854,11.927a3.927,3.927,0,1,0-3.927,3.927A3.932,3.932,0,0,0,35.854,11.927Zm-5.236,0a1.309,1.309,0,1,1,1.309,1.309A1.309,1.309,0,0,1,30.618,11.927Z" transform="translate(8.651 2.472)"/>
        <path id="Path_1265344" data-name="Path 1265344" d="M42.326,13.163a9.163,9.163,0,1,0-9.163,9.163A9.175,9.175,0,0,0,42.326,13.163Zm-15.708,0a6.545,6.545,0,1,1,6.545,6.545A6.552,6.552,0,0,1,26.618,13.163Z" transform="translate(7.415 1.236)"/>
      </g>
    </g>
  </g>
</svg>
