<svg xmlns="http://www.w3.org/2000/svg" width="129.063" height="83.411" viewBox="0 0 129.063 83.411">
  <g id="Group_1205878" data-name="Group 1205878" transform="translate(-1063.839 -5456.327)">
    <g id="Group_1205224" data-name="Group 1205224" transform="translate(276.058 2903.871)">
      <g id="Rectangle_410589" data-name="Rectangle 410589" transform="translate(787.781 2575.623)" fill="#ffc94a" stroke="#dfab32" stroke-width="1">
        <rect width="129.063" height="43.021" rx="8" stroke="none"/>
        <rect x="0.5" y="0.5" width="128.063" height="42.021" rx="7.5" fill="none"/>
      </g>
    </g>
    <g id="workflow_9948656" transform="translate(1085.313 5455.116)">
      <g id="Group_1205850" data-name="Group 1205850" transform="translate(22.577 1.211)">
        <g id="Group_1205849" data-name="Group 1205849">
          <g id="Group_1205848" data-name="Group 1205848">
            <path id="Path_1265345" data-name="Path 1265345" d="M37.892,42.449a20.052,20.052,0,0,1-3.941-.394A1.424,1.424,0,0,1,32.9,40.61a3.011,3.011,0,0,0-1.182-3.022c-.92-.394-1.971.263-2.89,1.314a1.246,1.246,0,0,1-1.708.263,19.378,19.378,0,0,1-6.175-6.043,1.246,1.246,0,0,1,.263-1.708c1.051-.92,1.577-2.1,1.182-3.022a3.011,3.011,0,0,0-3.022-1.182,1.3,1.3,0,0,1-1.445-1.051,21.425,21.425,0,0,1-.131-8.671,1.329,1.329,0,0,1,1.445-1.051,3.011,3.011,0,0,0,3.022-1.182c.394-.788-.263-1.971-1.314-2.89a1.246,1.246,0,0,1-.263-1.708,19.378,19.378,0,0,1,6.043-6.175,1.246,1.246,0,0,1,1.708.263c.657,1.445,1.839,1.839,2.628,1.445a3.011,3.011,0,0,0,1.182-3.022,1.3,1.3,0,0,1,1.051-1.445,21.425,21.425,0,0,1,8.671-.131,1.424,1.424,0,0,1,1.051,1.445A3.011,3.011,0,0,0,44.2,6.057c.788.394,1.971-.263,2.89-1.314A1.246,1.246,0,0,1,48.8,4.481a19.378,19.378,0,0,1,6.175,6.043,1.246,1.246,0,0,1-.263,1.708c-1.051.92-1.577,2.1-1.182,3.022a3.011,3.011,0,0,0,3.022,1.182,1.3,1.3,0,0,1,1.445,1.051,21.425,21.425,0,0,1,.131,8.671,1.329,1.329,0,0,1-1.445,1.051,3.011,3.011,0,0,0-3.022,1.182c-.394.788.263,1.971,1.314,2.89a1.246,1.246,0,0,1,.263,1.708,19.378,19.378,0,0,1-6.043,6.175,1.246,1.246,0,0,1-1.708-.263c-.92-1.051-2.1-1.577-3.022-1.182a3.011,3.011,0,0,0-1.182,3.022,1.3,1.3,0,0,1-1.051,1.445,40.427,40.427,0,0,1-4.336.263Zm-2.365-2.759a14.785,14.785,0,0,0,5.387-.131c.131-2.1,1.051-3.81,2.759-4.467A5.073,5.073,0,0,1,48.8,36.143a15.562,15.562,0,0,0,3.81-3.941,4.884,4.884,0,0,1-1.314-5.124,4.861,4.861,0,0,1,4.467-2.89,14.785,14.785,0,0,0-.131-5.387c-2.1-.131-3.81-1.051-4.467-2.759a5.073,5.073,0,0,1,1.051-5.124,15.562,15.562,0,0,0-3.941-3.81,4.884,4.884,0,0,1-5.124,1.314,4.861,4.861,0,0,1-2.89-4.467,14.785,14.785,0,0,0-5.387.131c-.131,2.1-1.051,3.81-2.759,4.467A5.073,5.073,0,0,1,26.987,7.5a15.562,15.562,0,0,0-3.81,3.941,4.884,4.884,0,0,1,1.314,5.124,4.861,4.861,0,0,1-4.467,2.89,14.785,14.785,0,0,0,.131,5.387c2.1.131,3.81,1.051,4.467,2.759a5.073,5.073,0,0,1-1.051,5.124,15.562,15.562,0,0,0,3.941,3.81,4.884,4.884,0,0,1,5.124-1.314,5.249,5.249,0,0,1,2.89,4.467Z" transform="translate(-17.411 -1.211)" fill="#101f2d"/>
          </g>
        </g>
      </g>
      <g id="Group_1205855" data-name="Group 1205855" transform="translate(8.636 20.641)">
        <g id="Group_1205851" data-name="Group 1205851" transform="translate(3.679)">
          <path id="Path_1265346" data-name="Path 1265346" d="M10.914,49.239A1.241,1.241,0,0,1,9.6,47.925V19.679A3.672,3.672,0,0,1,13.279,16h2.365a1.314,1.314,0,0,1,0,2.628H13.279a1.13,1.13,0,0,0-1.051,1.051V48.057a1.213,1.213,0,0,1-1.314,1.182Z" transform="translate(-9.6 -16)" fill="#101f2d"/>
        </g>
        <g id="Group_1205852" data-name="Group 1205852" transform="translate(0 29.56)">
          <path id="Path_1265347" data-name="Path 1265347" d="M11.792,44.806a1.193,1.193,0,0,1-.92-.394L7.194,40.733a1.3,1.3,0,1,1,1.839-1.839l2.628,2.628,2.628-2.628a1.3,1.3,0,1,1,1.839,1.839l-3.284,3.679a1.492,1.492,0,0,1-1.051.394Z" transform="translate(-6.8 -38.5)" fill="#101f2d"/>
        </g>
        <g id="Group_1205853" data-name="Group 1205853" transform="translate(57.807 0)">
          <path id="Path_1265348" data-name="Path 1265348" d="M56.843,49.239a1.241,1.241,0,0,1-1.314-1.314V19.679a1.13,1.13,0,0,0-1.051-1.051H52.114a1.314,1.314,0,0,1,0-2.628h2.365a3.672,3.672,0,0,1,3.679,3.679V48.057a1.3,1.3,0,0,1-1.314,1.182Z" transform="translate(-50.8 -16)" fill="#101f2d"/>
        </g>
        <g id="Group_1205854" data-name="Group 1205854" transform="translate(58.858 29.56)">
          <path id="Path_1265349" data-name="Path 1265349" d="M56.592,44.806a1.193,1.193,0,0,1-.92-.394l-3.679-3.679a1.3,1.3,0,0,1,1.839-1.839l2.628,2.628,2.628-2.628a1.3,1.3,0,1,1,1.839,1.839l-3.416,3.679A1.419,1.419,0,0,1,56.592,44.806Z" transform="translate(-51.6 -38.5)" fill="#101f2d"/>
        </g>
      </g>
      <g id="Group_1205856" data-name="Group 1205856" transform="translate(38.065 50.201)">
        <path id="Path_1265350" data-name="Path 1265350" d="M34.192,44.806a1.193,1.193,0,0,1-.92-.394l-3.679-3.679a1.3,1.3,0,1,1,1.839-1.839l2.628,2.628,2.628-2.628a1.3,1.3,0,0,1,1.839,1.839l-3.416,3.679a1.193,1.193,0,0,1-.92.394Z" transform="translate(-29.2 -38.5)" fill="#101f2d"/>
      </g>
      <g id="Group_1205857" data-name="Group 1205857" transform="translate(41.743 44.42)">
        <path id="Path_1265351" data-name="Path 1265351" d="M33.314,44.348A1.241,1.241,0,0,1,32,43.034v-7.62a1.314,1.314,0,1,1,2.628,0v7.62A1.241,1.241,0,0,1,33.314,44.348Z" transform="translate(-32 -34.1)" fill="#101f2d"/>
      </g>
      <g id="Group_1205862" data-name="Group 1205862" transform="translate(0.95 59.397)">
        <g id="Group_1205858" data-name="Group 1205858">
          <path id="Path_1265352" data-name="Path 1265352" d="M21.428,49.8A11.334,11.334,0,0,1,5.4,65.828,11.334,11.334,0,0,1,21.428,49.8Z" transform="translate(-0.605 -45.202)" fill="#64c4f6"/>
          <path id="Path_1265353" data-name="Path 1265353" d="M13.628,70.725a12.612,12.612,0,1,1,0-25.225,12.612,12.612,0,0,1,8.934,21.546,12.2,12.2,0,0,1-8.934,3.679Zm0-22.6a10.152,10.152,0,0,0-7.094,2.89,10.033,10.033,0,1,0,14.189,0A9.923,9.923,0,0,0,13.628,48.128Z" transform="translate(-0.95 -45.5)" fill="#101f2d"/>
        </g>
        <g id="Group_1205861" data-name="Group 1205861" transform="translate(5.189 5.387)">
          <g id="Group_1205859" data-name="Group 1205859" transform="translate(4.204)">
            <path id="Path_1265354" data-name="Path 1265354" d="M14.669,52.884A3.284,3.284,0,1,1,11.384,49.6,3.253,3.253,0,0,1,14.669,52.884Z" transform="translate(-8.1 -49.6)" fill="#fff"/>
          </g>
          <g id="Group_1205860" data-name="Group 1205860" transform="translate(0 9.065)">
            <path id="Path_1265355" data-name="Path 1265355" d="M6.031,63.806c0-.657-.131-1.971-.131-2.233,0-3.022,2.759-4.073,6.175-4.073s6.175.92,6.175,4.073a15.19,15.19,0,0,1-.131,2.233A10.686,10.686,0,0,1,6.031,63.806Z" transform="translate(-4.586 -56.186)" fill="#fff"/>
            <path id="Path_1265356" data-name="Path 1265356" d="M12.389,67.273a11.946,11.946,0,0,1-6.832-2.1.88.88,0,0,1-.526-.92c0-.788-.131-2.1-.131-2.365,0-1.971.92-5.387,7.489-5.387s7.489,3.284,7.489,5.387a17.827,17.827,0,0,1-.131,2.365,1.34,1.34,0,0,1-.657,1.051,12.111,12.111,0,0,1-6.7,1.971Zm-4.861-3.81a9.863,9.863,0,0,0,9.722,0V62.018c0-.788,0-2.759-4.861-2.759S7.528,61.23,7.528,62.018Z" transform="translate(-4.9 -56.5)" fill="#101f2d"/>
          </g>
        </g>
      </g>
      <g id="Group_1205867" data-name="Group 1205867" transform="translate(30.379 59.332)">
        <g id="Group_1205863" data-name="Group 1205863">
          <path id="Path_1265357" data-name="Path 1265357" d="M36.028,70.74a12.612,12.612,0,1,1,8.934-3.679,12.415,12.415,0,0,1-8.934,3.679Zm0-22.6a9.824,9.824,0,0,0-7.094,2.89,10.033,10.033,0,1,0,14.189,0A9.824,9.824,0,0,0,36.028,48.143Z" transform="translate(-23.35 -45.45)" fill="#101f2d"/>
        </g>
        <g id="Group_1205866" data-name="Group 1205866" transform="translate(5.058 5.452)">
          <g id="Group_1205864" data-name="Group 1205864" transform="translate(4.336)">
            <path id="Path_1265358" data-name="Path 1265358" d="M37.069,52.884A3.284,3.284,0,1,1,33.784,49.6,3.253,3.253,0,0,1,37.069,52.884Z" transform="translate(-30.5 -49.6)" fill="#ef6561"/>
          </g>
          <g id="Group_1205865" data-name="Group 1205865" transform="translate(0 8.934)">
            <path id="Path_1265359" data-name="Path 1265359" d="M28.331,63.806c0-.657-.131-1.971-.131-2.233,0-3.022,2.759-4.073,6.175-4.073s6.175.92,6.175,4.073a15.19,15.19,0,0,1-.131,2.233A10.682,10.682,0,0,1,28.331,63.806Z" transform="translate(-26.886 -56.055)" fill="#64c4f6"/>
            <path id="Path_1265360" data-name="Path 1265360" d="M34.82,67.3a11.946,11.946,0,0,1-6.832-2.1,1.805,1.805,0,0,1-.657-1.051c0-.788-.131-2.1-.131-2.365,0-1.971.92-5.387,7.489-5.387s7.489,3.284,7.489,5.387a17.828,17.828,0,0,1-.131,2.365,1.34,1.34,0,0,1-.657,1.051A10.607,10.607,0,0,1,34.82,67.3Zm-4.861-3.81a9.863,9.863,0,0,0,9.722,0V62.049c0-.788,0-2.759-4.861-2.759s-4.861,1.971-4.861,2.759Z" transform="translate(-27.2 -56.4)" fill="#101f2d"/>
          </g>
        </g>
      </g>
      <g id="Group_1205872" data-name="Group 1205872" transform="translate(30.379 9.276)">
        <g id="Group_1205868" data-name="Group 1205868">
          <path id="Path_1265361" data-name="Path 1265361" d="M36.028,32.64a12.612,12.612,0,0,1-8.934-21.546A12.634,12.634,0,0,1,44.962,28.962a12.976,12.976,0,0,1-8.934,3.679Zm0-22.729a9.824,9.824,0,0,0-7.094,2.89,10.033,10.033,0,1,0,14.189,0A10.391,10.391,0,0,0,36.028,9.912Z" transform="translate(-23.35 -7.35)" fill="#101f2d"/>
        </g>
        <g id="Group_1205871" data-name="Group 1205871" transform="translate(5.058 5.452)">
          <g id="Group_1205869" data-name="Group 1205869" transform="translate(4.336)">
            <path id="Path_1265362" data-name="Path 1265362" d="M37.069,14.784A3.284,3.284,0,1,1,33.784,11.5,3.253,3.253,0,0,1,37.069,14.784Z" transform="translate(-30.5 -11.5)" fill="#64c4f6"/>
          </g>
          <g id="Group_1205870" data-name="Group 1205870" transform="translate(0 8.934)">
            <path id="Path_1265363" data-name="Path 1265363" d="M28.331,25.706c0-.657-.131-1.971-.131-2.233,0-3.022,2.759-4.073,6.175-4.073s6.175.92,6.175,4.073a15.19,15.19,0,0,1-.131,2.233A10.682,10.682,0,0,1,28.331,25.706Z" transform="translate(-26.886 -17.955)" fill="#ef6561"/>
            <path id="Path_1265364" data-name="Path 1265364" d="M34.82,29.2a11.946,11.946,0,0,1-6.832-2.1,1.805,1.805,0,0,1-.657-1.051c0-.788-.131-2.1-.131-2.365,0-1.971.92-5.387,7.489-5.387s7.489,3.284,7.489,5.387a17.828,17.828,0,0,1-.131,2.365,1.34,1.34,0,0,1-.657,1.051A10.607,10.607,0,0,1,34.82,29.2Zm-4.861-3.941a9.863,9.863,0,0,0,9.722,0V23.818c0-.788,0-2.759-4.861-2.759s-4.861,1.971-4.861,2.759Z" transform="translate(-27.2 -18.3)" fill="#101f2d"/>
          </g>
        </g>
      </g>
      <g id="Group_1205877" data-name="Group 1205877" transform="translate(59.808 59.397)">
        <g id="Group_1205873" data-name="Group 1205873">
          <path id="Path_1265365" data-name="Path 1265365" d="M66.128,49.8a11.334,11.334,0,1,1-16.028,0A11.261,11.261,0,0,1,66.128,49.8Z" transform="translate(-45.436 -45.202)" fill="#ef6561"/>
          <path id="Path_1265366" data-name="Path 1265366" d="M58.428,70.725a12.612,12.612,0,1,1,8.934-3.679A12.634,12.634,0,0,1,58.428,70.725Zm0-22.6a10.152,10.152,0,0,0-7.094,2.89,10.033,10.033,0,1,0,14.189,0,10.391,10.391,0,0,0-7.094-2.89Z" transform="translate(-45.75 -45.5)" fill="#101f2d"/>
        </g>
        <g id="Group_1205876" data-name="Group 1205876" transform="translate(4.927 5.387)">
          <g id="Group_1205874" data-name="Group 1205874" transform="translate(4.336)">
            <path id="Path_1265367" data-name="Path 1265367" d="M59.369,52.884A3.284,3.284,0,1,1,56.084,49.6,3.253,3.253,0,0,1,59.369,52.884Z" transform="translate(-52.8 -49.6)" fill="#fff"/>
          </g>
          <g id="Group_1205875" data-name="Group 1205875" transform="translate(0 8.934)">
            <path id="Path_1265368" data-name="Path 1265368" d="M50.731,63.806c0-.657-.131-1.971-.131-2.233,0-3.022,2.759-4.073,6.175-4.073s6.175.92,6.175,4.073a15.19,15.19,0,0,1-.131,2.233,10.686,10.686,0,0,1-12.087,0Z" transform="translate(-49.155 -56.055)" fill="#fff"/>
            <path id="Path_1265369" data-name="Path 1265369" d="M57.12,67.3a11.946,11.946,0,0,1-6.832-2.1,1.805,1.805,0,0,1-.657-1.051c0-.788-.131-2.1-.131-2.365,0-1.971.92-5.387,7.489-5.387s7.489,3.284,7.489,5.387a17.828,17.828,0,0,1-.131,2.365,1.34,1.34,0,0,1-.657,1.051,10.607,10.607,0,0,1-6.569,2.1Zm-4.861-3.81a9.863,9.863,0,0,0,9.722,0V62.049c0-.788,0-2.759-4.861-2.759s-4.861,1.971-4.861,2.759Z" transform="translate(-49.5 -56.4)" fill="#101f2d"/>
          </g>
        </g>
      </g>
    </g>
  </g>
</svg>
