<svg xmlns="http://www.w3.org/2000/svg" width="129.063" height="72.408" viewBox="0 0 129.063 72.408">
  <g id="Group_1205883" data-name="Group 1205883" transform="translate(-11585.903 5479.193)">
    <g id="Group_1205228" data-name="Group 1205228" transform="translate(10798.122 -8037.129)">
      <g id="Rectangle_410589" data-name="Rectangle 410589" transform="translate(787.781 2575.623)" fill="#ffc94a" stroke="#dfab32" stroke-width="1">
        <rect width="129.063" height="43.021" rx="8" stroke="none"/>
        <rect x="0.5" y="0.5" width="128.063" height="42.021" rx="7.5" fill="none"/>
      </g>
    </g>
    <g id="joven" transform="translate(11563.716 -5479.193)">
      <g id="Group_1205881" data-name="Group 1205881" transform="translate(57.174 1.061)">
        <path id="Path_1265370" data-name="Path 1265370" d="M199.887,256h15.871v20.406H199.887Z" transform="translate(-180.615 -220.857)" fill="#e2a975"/>
        <path id="Path_1265371" data-name="Path 1265371" d="M230.737,408.145H226.2l-2.267-15.871H233Z" transform="translate(-201.262 -337.859)" fill="#f4dbb3"/>
        <path id="Path_1265372" data-name="Path 1265372" d="M76.083,328.145l-7.246,2.635a7.936,7.936,0,0,0-5.224,7.458v14.847h24.94V341.749Z" transform="translate(-63.613 -282.799)" fill="#ff8086"/>
        <path id="Path_1265373" data-name="Path 1265373" d="M199.887,262.089a17.971,17.971,0,0,0,15.871,0V256H199.887Z" transform="translate(-180.615 -220.857)" fill="#d19a6e"/>
        <path id="Path_1265374" data-name="Path 1265374" d="M155.436,110.495h-1.7v-6.8H124.261v6.8h-1.134c-1.565,0-3.4,1.269-3.4,2.834a2.834,2.834,0,0,0,2.834,2.834h1.758a14.723,14.723,0,0,0,29.361,0h1.758a2.834,2.834,0,1,0,0-5.668Z" transform="translate(-111.79 -90.089)" fill="#ecbd83"/>
        <path id="Path_1265375" data-name="Path 1265375" d="M128.8,115.03V103.694h-4.535v6.8h-1.7a2.834,2.834,0,1,0,0,5.668h1.758a14.633,14.633,0,0,0,16.955,13.413A14.728,14.728,0,0,1,128.8,115.03Z" transform="translate(-111.79 -90.09)" fill="#e2a975"/>
        <path id="Path_1265376" data-name="Path 1265376" d="M151.79,87.661l4.538,8.619a26.452,26.452,0,0,0,12.467-6.352l1.134,4.535S175.6,93.329,179,89.928v4.535a2.267,2.267,0,0,0,2.267,2.267h2.267V87.661Z" transform="translate(-139.32 -76.325)" fill="#6e4848"/>
        <path id="Path_1265377" data-name="Path 1265377" d="M142.56,87.661h-4.535l-2.267,2.267v6.68a22.227,22.227,0,0,0,6.8-.343Z" transform="translate(-125.555 -76.325)" fill="#643c3e"/>
        <path id="Path_1265378" data-name="Path 1265378" d="M158.432,7.5H147.1a11.336,11.336,0,0,0-11.337,11.337V21.1h34.01V18.837A11.337,11.337,0,0,0,158.432,7.5Z" transform="translate(-125.556 -7.5)" fill="#ff8086"/>
        <path id="Path_1265379" data-name="Path 1265379" d="M164.26,323.254a3.412,3.412,0,0,0-1.268-2.642,22.11,22.11,0,0,1-5.074-5.852,1.13,1.13,0,0,0-1.4-.483l-4.727,1.891a34.948,34.948,0,0,0,12.47,13.422v-6.336Z" transform="translate(-139.32 -270.822)" fill="#f5ebcd"/>
        <path id="Path_1265380" data-name="Path 1265380" d="M153.9,7.5h-6.8a11.336,11.336,0,0,0-11.337,11.337V21.1h6.8V18.837A11.336,11.336,0,0,1,153.9,7.5Z" transform="translate(-125.555 -7.5)" fill="#e5646e"/>
        <path id="Path_1265381" data-name="Path 1265381" d="M327.838,71.629H322.4A2.267,2.267,0,0,0,320.13,73.9v2.267h7.936V73.9A11.4,11.4,0,0,0,327.838,71.629Z" transform="translate(-283.853 -62.56)" fill="#e5646e"/>
        <path id="Path_1265382" data-name="Path 1265382" d="M284.5,328.145l7.246,2.635a7.936,7.936,0,0,1,5.224,7.458v14.847h-24.94V341.749Z" transform="translate(-242.557 -282.799)" fill="#ff8086"/>
        <path id="Path_1265383" data-name="Path 1265383" d="M272.032,323.254a3.412,3.412,0,0,1,1.268-2.642,22.111,22.111,0,0,0,5.074-5.852,1.13,1.13,0,0,1,1.4-.483l4.727,1.891a34.948,34.948,0,0,1-12.47,13.422v-6.336Z" transform="translate(-242.557 -270.822)" fill="#f5ebcd"/>
      </g>
      <g id="Group_1205882" data-name="Group 1205882" transform="translate(56.113 0)">
        <path id="Path_1265384" data-name="Path 1265384" d="M210.54,154.5v-1.134a1.061,1.061,0,1,0-2.121,0V154.5a1.061,1.061,0,1,0,2.121,0Z" transform="translate(-186.88 -130.767)"/>
        <path id="Path_1265385" data-name="Path 1265385" d="M289.642,155.561A1.061,1.061,0,0,0,290.7,154.5v-1.134a1.061,1.061,0,1,0-2.121,0V154.5A1.061,1.061,0,0,0,289.642,155.561Z" transform="translate(-255.705 -130.767)"/>
        <path id="Path_1265386" data-name="Path 1265386" d="M121.3,440.887a1.061,1.061,0,0,0-1.061,1.061v7.936a1.061,1.061,0,1,0,2.121,0v-7.936A1.061,1.061,0,0,0,121.3,440.887Z" transform="translate(-111.173 -378.536)"/>
        <path id="Path_1265387" data-name="Path 1265387" d="M106.728,48.045,99.5,45.416l-4.712-1.885a2.188,2.188,0,0,0-1.408-.078V38.979A15.821,15.821,0,0,0,100.027,28.2h.63a4.019,4.019,0,0,0,4.037-3.5,3.888,3.888,0,0,0-2.247-3.934V12.4A12.411,12.411,0,0,0,90.05,0H78.713a12.411,12.411,0,0,0-12.4,12.4V13.6H58.307a1.061,1.061,0,0,0,0,2.121h8.009v1.207a1.061,1.061,0,1,0,2.121,0V15.725H83.33c-3.066,1.935-8.525,4.681-14.82,4.681h-.4a4.019,4.019,0,0,0-4.037,3.5A3.9,3.9,0,0,0,67.944,28.2h.792a15.817,15.817,0,0,0,6.65,10.785v4.472a2.188,2.188,0,0,0-1.408.078l-4.712,1.885-7.231,2.629A9.024,9.024,0,0,0,56.113,56.5V71.347a1.061,1.061,0,1,0,2.121,0V56.5a6.9,6.9,0,0,1,4.525-6.461l6.367-2.315A36.559,36.559,0,0,0,81.054,60.409V71.347a1.061,1.061,0,0,0,2.121,0V56.537h2.413V71.347a1.061,1.061,0,0,0,2.121,0V60.409a36.894,36.894,0,0,0,8.165-7.255,1.061,1.061,0,0,0-1.626-1.362,34.947,34.947,0,0,1-6.539,6.054V53.493a2.34,2.34,0,0,1,.877-1.819,23.059,23.059,0,0,0,5.322-6.142A.07.07,0,0,1,94,45.5l3.636,1.454c-.181.321-.411.711-.69,1.154a1.061,1.061,0,1,0,1.794,1.132c.383-.607.679-1.122.9-1.518L106,50.039a6.9,6.9,0,0,1,4.525,6.461V71.347a1.061,1.061,0,1,0,2.121,0V56.5a9.025,9.025,0,0,0-5.922-8.455Zm-6.4-35.648V13.6H94.511V12.4a1.208,1.208,0,0,1,1.207-1.207h4.535A10.33,10.33,0,0,1,100.326,12.4Zm-7.573,3.328a19.36,19.36,0,0,1-4.216,2.122l-.53-2.122Zm5.159,0h2.414v4.681H99.119A1.208,1.208,0,0,1,97.912,19.2ZM68.438,12.4A10.288,10.288,0,0,1,78.713,2.121H90.05a10.292,10.292,0,0,1,9.72,6.948H95.718A3.332,3.332,0,0,0,92.39,12.4V13.6H68.438ZM70.7,26a1.061,1.061,0,1,0-2.121,0v.073h-.64a1.774,1.774,0,0,1-1.764-1.96,1.882,1.882,0,0,1,1.926-1.587h.4c8.126,0,14.773-4.074,17.5-6.035l.741,2.964a1.059,1.059,0,0,0,1.286.772,20.315,20.315,0,0,0,7.751-4.175V19.2a3.332,3.332,0,0,0,3.328,3.328h1.7a1.774,1.774,0,0,1,1.764,1.96,1.882,1.882,0,0,1-1.926,1.587h-.478v-.062a1.061,1.061,0,0,0-1.06-1.061h0a1.061,1.061,0,0,0-1.061,1.06A13.677,13.677,0,0,1,70.7,26Zm.428,20.953L74.765,45.5a.07.07,0,0,1,.09.031,23.058,23.058,0,0,0,5.322,6.142,2.34,2.34,0,0,1,.877,1.819v4.352A35.077,35.077,0,0,1,71.132,46.954Zm16.116,3.074a4.453,4.453,0,0,0-1.66,3.465v.923H83.175v-.923a4.453,4.453,0,0,0-1.66-3.465,21.679,21.679,0,0,1-4.008-4.294v-5.51a15.776,15.776,0,0,0,13.75,0v5.511A21.685,21.685,0,0,1,87.248,50.027Z" transform="translate(-56.113 0)"/>
        <path id="Path_1265388" data-name="Path 1265388" d="M377.819,440.887a1.061,1.061,0,0,0-1.061,1.061v7.936a1.061,1.061,0,1,0,2.121,0v-7.936A1.061,1.061,0,0,0,377.819,440.887Z" transform="translate(-331.412 -378.536)"/>
        <path id="Path_1265389" data-name="Path 1265389" d="M228.295,210.385a1.061,1.061,0,1,0-1.1-1.812,7.673,7.673,0,0,1-7.5,0,1.061,1.061,0,1,0-1.1,1.812,9.786,9.786,0,0,0,9.707,0Z" transform="translate(-195.173 -178.943)"/>
      </g>
    </g>
  </g>
</svg>
