<svg xmlns="http://www.w3.org/2000/svg" width="610" height="502" viewBox="0 0 610 502">
  <g id="Group_1205673" data-name="Group 1205673" transform="translate(-495.051 -1882)">
    <rect id="Rectangle_411411" data-name="Rectangle 411411" width="610" height="502" rx="12" transform="translate(495.051 1882)" fill="#f4f3ed"/>
    <path id="Subtraction_1" data-name="Subtraction 1" d="M-1205.949,12056a225.686,225.686,0,0,1-45.144-4.551,222.909,222.909,0,0,1-42.047-13.052,224.046,224.046,0,0,1-38.05-20.653,225.655,225.655,0,0,1-33.152-27.352,225.719,225.719,0,0,1-27.352-33.151,224.059,224.059,0,0,1-20.653-38.051,222.85,222.85,0,0,1-13.052-42.048,225.647,225.647,0,0,1-4.551-45.144,225.661,225.661,0,0,1,4.551-45.144,222.822,222.822,0,0,1,13.052-42.046,224.045,224.045,0,0,1,20.653-38.051,225.658,225.658,0,0,1,27.352-33.15,225.6,225.6,0,0,1,33.152-27.353,224.035,224.035,0,0,1,38.05-20.652,222.908,222.908,0,0,1,42.047-13.053,225.683,225.683,0,0,1,45.144-4.551,225.674,225.674,0,0,1,45.143,4.551,222.9,222.9,0,0,1,42.047,13.053,224.02,224.02,0,0,1,38.049,20.652,225.593,225.593,0,0,1,33.151,27.353,225.636,225.636,0,0,1,27.352,33.15,224.107,224.107,0,0,1,20.653,38.051,222.853,222.853,0,0,1,13.052,42.046A225.666,225.666,0,0,1-981.95,11832a225.651,225.651,0,0,1-4.551,45.144,222.854,222.854,0,0,1-13.052,42.048,224.041,224.041,0,0,1-20.653,38.051,225.689,225.689,0,0,1-27.352,33.151,225.652,225.652,0,0,1-33.151,27.352,223.977,223.977,0,0,1-38.049,20.653,222.91,222.91,0,0,1-42.047,13.052A225.676,225.676,0,0,1-1205.949,12056Zm0-304a80.631,80.631,0,0,0-16.123,1.625,79.608,79.608,0,0,0-15.017,4.662,79.926,79.926,0,0,0-13.589,7.376,80.535,80.535,0,0,0-11.84,9.769,80.5,80.5,0,0,0-9.769,11.84,79.966,79.966,0,0,0-7.376,13.588,79.6,79.6,0,0,0-4.662,15.017,80.585,80.585,0,0,0-1.625,16.122,80.587,80.587,0,0,0,1.625,16.123,79.6,79.6,0,0,0,4.662,15.018,79.966,79.966,0,0,0,7.376,13.588,80.527,80.527,0,0,0,9.769,11.841,80.564,80.564,0,0,0,11.84,9.769,79.967,79.967,0,0,0,13.589,7.376,79.608,79.608,0,0,0,15.017,4.662,80.629,80.629,0,0,0,16.123,1.625,80.621,80.621,0,0,0,16.122-1.625,79.612,79.612,0,0,0,15.016-4.662,79.912,79.912,0,0,0,13.589-7.376,80.573,80.573,0,0,0,11.84-9.769,80.535,80.535,0,0,0,9.769-11.841,79.949,79.949,0,0,0,7.376-13.588,79.586,79.586,0,0,0,4.661-15.018,80.587,80.587,0,0,0,1.625-16.123,80.585,80.585,0,0,0-1.625-16.122,79.607,79.607,0,0,0-4.661-15.017,79.949,79.949,0,0,0-7.376-13.588,80.561,80.561,0,0,0-9.769-11.84,80.489,80.489,0,0,0-11.84-9.769,79.912,79.912,0,0,0-13.589-7.376,79.612,79.612,0,0,0-15.016-4.662A80.621,80.621,0,0,0-1205.949,11752Z" transform="translate(2044 -9702)" fill="#bbb4a8"/>
    <path id="Path_1264826" data-name="Path 1264826" d="M2229.434-9713.067v448" transform="translate(-1391.949 11619.066)" fill="none" stroke="#f4f3ed" stroke-width="3"/>
    <path id="Path_1264827" data-name="Path 1264827" d="M2229.434-9713.066v468.248" transform="matrix(0.438, 0.899, -0.899, 0.438, -8674.968, 4250.126)" fill="none" stroke="#f4f3ed" stroke-width="3"/>
    <path id="Path_1264828" data-name="Path 1264828" d="M2229.434-9713.067V-9562.4" transform="translate(-8645.352 -84.434) rotate(90)" fill="none" stroke="#f4f3ed" stroke-width="3"/>
    <path id="Path_1264829" data-name="Path 1264829" d="M2229.434-9713.066v450.58" transform="translate(-4300.59 -6148.73) rotate(135)" fill="none" stroke="#f4f3ed" stroke-width="3"/>
    <path id="Path_1265593" data-name="Path 1265593" d="M7.8-5.078H3.133v3.5H8.594V0H1.156V-11.375H8.539v1.594H3.133v3.141H7.8Zm5.539,3.719a1.716,1.716,0,0,0,1.18-.414,1.415,1.415,0,0,0,.5-1.023h1.789a2.789,2.789,0,0,1-.492,1.473A3.228,3.228,0,0,1,15.07-.242a3.725,3.725,0,0,1-1.7.4A3.6,3.6,0,0,1,10.555-.992,4.555,4.555,0,0,1,9.516-4.164v-.2a4.479,4.479,0,0,1,1.031-3.09,3.571,3.571,0,0,1,2.813-1.16,3.473,3.473,0,0,1,2.457.879,3.148,3.148,0,0,1,1,2.309H15.023a1.738,1.738,0,0,0-.5-1.2,1.6,1.6,0,0,0-1.184-.469,1.671,1.671,0,0,0-1.422.668,3.408,3.408,0,0,0-.508,2.027v.3a3.465,3.465,0,0,0,.5,2.051A1.669,1.669,0,0,0,13.344-1.359ZM17.891-4.3a4.984,4.984,0,0,1,.492-2.238,3.6,3.6,0,0,1,1.383-1.531,3.9,3.9,0,0,1,2.047-.535,3.692,3.692,0,0,1,2.777,1.1,4.333,4.333,0,0,1,1.152,2.922l.008.445a5.029,5.029,0,0,1-.48,2.234A3.551,3.551,0,0,1,23.895-.383a3.925,3.925,0,0,1-2.066.539,3.667,3.667,0,0,1-2.863-1.191,4.563,4.563,0,0,1-1.074-3.176Zm1.9.164A3.406,3.406,0,0,0,20.328-2.1a1.752,1.752,0,0,0,1.5.738,1.733,1.733,0,0,0,1.5-.75,3.762,3.762,0,0,0,.535-2.2,3.362,3.362,0,0,0-.551-2.031,1.759,1.759,0,0,0-1.5-.75,1.743,1.743,0,0,0-1.477.738A3.691,3.691,0,0,0,19.789-4.141ZM27-4.289a5.026,5.026,0,0,1,.906-3.137,2.9,2.9,0,0,1,2.43-1.184,2.759,2.759,0,0,1,2.172.938V-12h1.9V0H32.688l-.094-.875A2.8,2.8,0,0,1,30.32.156a2.887,2.887,0,0,1-2.4-1.2A5.21,5.21,0,0,1,27-4.289Zm1.9.164a3.519,3.519,0,0,0,.5,2.012,1.61,1.61,0,0,0,1.41.723,1.793,1.793,0,0,0,1.7-1.039V-6.039A1.766,1.766,0,0,0,30.82-7.055a1.622,1.622,0,0,0-1.422.73A3.918,3.918,0,0,0,28.9-4.125ZM38.406,0h-1.9V-8.453h1.9ZM36.391-10.648a1.008,1.008,0,0,1,.277-.727,1.048,1.048,0,0,1,.793-.289,1.061,1.061,0,0,1,.8.289,1,1,0,0,1,.281.727.977.977,0,0,1-.281.715,1.069,1.069,0,0,1-.8.285,1.056,1.056,0,0,1-.793-.285A.984.984,0,0,1,36.391-10.648ZM45.211-2.3a.861.861,0,0,0-.418-.773,4.445,4.445,0,0,0-1.387-.469,7.129,7.129,0,0,1-1.617-.516,2.158,2.158,0,0,1-1.422-1.992,2.25,2.25,0,0,1,.922-1.828,3.644,3.644,0,0,1,2.344-.734,3.792,3.792,0,0,1,2.449.75,2.38,2.38,0,0,1,.934,1.945h-1.9a1.17,1.17,0,0,0-.406-.91,1.557,1.557,0,0,0-1.078-.363,1.682,1.682,0,0,0-1.02.289.911.911,0,0,0-.395.773.769.769,0,0,0,.367.68,5.049,5.049,0,0,0,1.484.488,7.027,7.027,0,0,1,1.754.586,2.484,2.484,0,0,1,.945.816A2.082,2.082,0,0,1,47.078-2.4a2.2,2.2,0,0,1-.945,1.848,4.031,4.031,0,0,1-2.477.707A4.371,4.371,0,0,1,41.8-.219,3.047,3.047,0,0,1,40.539-1.25a2.441,2.441,0,0,1-.453-1.414H41.93a1.338,1.338,0,0,0,.508,1.035,1.973,1.973,0,0,0,1.242.363,1.92,1.92,0,0,0,1.141-.285A.883.883,0,0,0,45.211-2.3ZM52.453.156A3.928,3.928,0,0,1,49.527-.98a4.124,4.124,0,0,1-1.121-3.027v-.234A5.072,5.072,0,0,1,48.895-6.5a3.716,3.716,0,0,1,1.371-1.551,3.625,3.625,0,0,1,1.969-.555,3.318,3.318,0,0,1,2.668,1.1,4.658,4.658,0,0,1,.941,3.117v.766H50.32a2.539,2.539,0,0,0,.7,1.656,2.1,2.1,0,0,0,1.543.609,2.571,2.571,0,0,0,2.125-1.055l1.023.977A3.418,3.418,0,0,1,54.355-.262,4.244,4.244,0,0,1,52.453.156Zm-.227-7.242a1.6,1.6,0,0,0-1.262.547,2.835,2.835,0,0,0-.613,1.523h3.617v-.141A2.307,2.307,0,0,0,53.461-6.6,1.586,1.586,0,0,0,52.227-7.086Zm6.852-1.367.055.977a3.039,3.039,0,0,1,2.461-1.133q2.641,0,2.688,3.023V0h-1.9V-5.477a1.741,1.741,0,0,0-.348-1.191A1.462,1.462,0,0,0,60.9-7.055a1.829,1.829,0,0,0-1.711,1.039V0h-1.9V-8.453Zm4.609-3.375a2.1,2.1,0,0,1-.5,1.43,1.582,1.582,0,0,1-1.246.57,1.856,1.856,0,0,1-.527-.066,3.354,3.354,0,0,1-.633-.3,3.128,3.128,0,0,0-.578-.281,1.378,1.378,0,0,0-.371-.047.662.662,0,0,0-.5.223.821.821,0,0,0-.207.582l-1.164-.062a2.16,2.16,0,0,1,.5-1.445,1.557,1.557,0,0,1,1.238-.586,2.305,2.305,0,0,1,1.074.352,2.271,2.271,0,0,0,1.035.352.674.674,0,0,0,.508-.223.822.822,0,0,0,.211-.59ZM65.859-4.3a4.984,4.984,0,0,1,.492-2.238,3.6,3.6,0,0,1,1.383-1.531,3.9,3.9,0,0,1,2.047-.535,3.692,3.692,0,0,1,2.777,1.1,4.333,4.333,0,0,1,1.152,2.922l.008.445a5.029,5.029,0,0,1-.48,2.234A3.551,3.551,0,0,1,71.863-.383,3.925,3.925,0,0,1,69.8.156a3.667,3.667,0,0,1-2.863-1.191,4.563,4.563,0,0,1-1.074-3.176Zm1.9.164A3.406,3.406,0,0,0,68.3-2.1a1.752,1.752,0,0,0,1.5.738,1.733,1.733,0,0,0,1.5-.75,3.762,3.762,0,0,0,.535-2.2,3.362,3.362,0,0,0-.551-2.031,1.759,1.759,0,0,0-1.5-.75,1.743,1.743,0,0,0-1.477.738A3.691,3.691,0,0,0,67.758-4.141Z" transform="translate(859.051 2012)" fill="#12263f"/>
    <path id="Path_1265597" data-name="Path 1265597" d="M7.711-4.82H3.133V0H1.156V-11.375H8.383v1.594H3.133V-6.4H7.711ZM14.547,0a2.93,2.93,0,0,1-.219-.789,2.955,2.955,0,0,1-2.219.945A2.982,2.982,0,0,1,10.031-.57a2.325,2.325,0,0,1-.8-1.8,2.4,2.4,0,0,1,1-2.074A4.865,4.865,0,0,1,13.1-5.164h1.164v-.555A1.481,1.481,0,0,0,13.9-6.77a1.456,1.456,0,0,0-1.117-.395,1.672,1.672,0,0,0-1.062.324,1,1,0,0,0-.414.824h-1.9a2.107,2.107,0,0,1,.461-1.3,3.071,3.071,0,0,1,1.254-.949,4.4,4.4,0,0,1,1.77-.344,3.547,3.547,0,0,1,2.367.746,2.661,2.661,0,0,1,.906,2.1v3.813a4.321,4.321,0,0,0,.32,1.82V0ZM12.461-1.367a2.159,2.159,0,0,0,1.059-.273,1.827,1.827,0,0,0,.746-.734V-3.969H13.242a2.8,2.8,0,0,0-1.586.367,1.189,1.189,0,0,0-.531,1.039,1.109,1.109,0,0,0,.363.871A1.407,1.407,0,0,0,12.461-1.367ZM25.57-4.141a5.078,5.078,0,0,1-.879,3.133A2.863,2.863,0,0,1,22.273.156a2.758,2.758,0,0,1-2.312-1.07L19.867,0H18.148V-12h1.9v4.359a2.748,2.748,0,0,1,2.211-.969,2.9,2.9,0,0,1,2.43,1.148A5.162,5.162,0,0,1,25.57-4.25Zm-1.9-.164a3.589,3.589,0,0,0-.484-2.062,1.613,1.613,0,0,0-1.406-.687,1.763,1.763,0,0,0-1.734,1.078v3.484a1.781,1.781,0,0,0,1.75,1.1,1.6,1.6,0,0,0,1.375-.664,3.477,3.477,0,0,0,.5-2.008Zm7.914-2.414a4.7,4.7,0,0,0-.773-.062,1.741,1.741,0,0,0-1.758,1V0h-1.9V-8.453h1.813l.047.945a2.139,2.139,0,0,1,1.906-1.1,1.777,1.777,0,0,1,.672.109ZM34.8,0h-1.9V-8.453h1.9ZM32.789-10.648a1.008,1.008,0,0,1,.277-.727,1.048,1.048,0,0,1,.793-.289,1.061,1.061,0,0,1,.8.289,1,1,0,0,1,.281.727.977.977,0,0,1-.281.715,1.069,1.069,0,0,1-.8.285,1.056,1.056,0,0,1-.793-.285A.984.984,0,0,1,32.789-10.648Zm7.555,9.289a1.716,1.716,0,0,0,1.18-.414,1.415,1.415,0,0,0,.5-1.023h1.789a2.789,2.789,0,0,1-.492,1.473A3.228,3.228,0,0,1,42.07-.242a3.725,3.725,0,0,1-1.7.4A3.6,3.6,0,0,1,37.555-.992a4.555,4.555,0,0,1-1.039-3.172v-.2a4.479,4.479,0,0,1,1.031-3.09,3.571,3.571,0,0,1,2.813-1.16,3.473,3.473,0,0,1,2.457.879,3.148,3.148,0,0,1,1,2.309H42.023a1.738,1.738,0,0,0-.5-1.2,1.6,1.6,0,0,0-1.184-.469,1.671,1.671,0,0,0-1.422.668,3.408,3.408,0,0,0-.508,2.027v.3a3.465,3.465,0,0,0,.5,2.051A1.669,1.669,0,0,0,40.344-1.359ZM50.3,0a2.93,2.93,0,0,1-.219-.789,2.955,2.955,0,0,1-2.219.945A2.982,2.982,0,0,1,45.781-.57a2.325,2.325,0,0,1-.8-1.8,2.4,2.4,0,0,1,1-2.074,4.865,4.865,0,0,1,2.871-.723h1.164v-.555a1.481,1.481,0,0,0-.367-1.051,1.456,1.456,0,0,0-1.117-.395,1.672,1.672,0,0,0-1.062.324,1,1,0,0,0-.414.824h-1.9a2.107,2.107,0,0,1,.461-1.3,3.071,3.071,0,0,1,1.254-.949,4.4,4.4,0,0,1,1.77-.344,3.547,3.547,0,0,1,2.367.746,2.661,2.661,0,0,1,.906,2.1v3.813a4.321,4.321,0,0,0,.32,1.82V0ZM48.211-1.367a2.16,2.16,0,0,0,1.059-.273,1.827,1.827,0,0,0,.746-.734V-3.969H48.992a2.8,2.8,0,0,0-1.586.367,1.189,1.189,0,0,0-.531,1.039,1.109,1.109,0,0,0,.363.871A1.407,1.407,0,0,0,48.211-1.367Zm9.164.008a1.716,1.716,0,0,0,1.18-.414,1.415,1.415,0,0,0,.5-1.023h1.789a2.789,2.789,0,0,1-.492,1.473A3.228,3.228,0,0,1,59.1-.242a3.725,3.725,0,0,1-1.7.4A3.6,3.6,0,0,1,54.586-.992a4.555,4.555,0,0,1-1.039-3.172v-.2a4.479,4.479,0,0,1,1.031-3.09,3.571,3.571,0,0,1,2.813-1.16,3.473,3.473,0,0,1,2.457.879,3.148,3.148,0,0,1,1,2.309H59.055a1.738,1.738,0,0,0-.5-1.2,1.6,1.6,0,0,0-1.184-.469,1.671,1.671,0,0,0-1.422.668,3.408,3.408,0,0,0-.508,2.027v.3a3.465,3.465,0,0,0,.5,2.051A1.669,1.669,0,0,0,57.375-1.359ZM64.3,0H62.4V-8.453h1.9ZM62.281-10.648a1.008,1.008,0,0,1,.277-.727,1.048,1.048,0,0,1,.793-.289,1.061,1.061,0,0,1,.8.289,1,1,0,0,1,.281.727.977.977,0,0,1-.281.715,1.069,1.069,0,0,1-.8.285,1.056,1.056,0,0,1-.793-.285A.984.984,0,0,1,62.281-10.648ZM66.008-4.3A4.984,4.984,0,0,1,66.5-6.543a3.6,3.6,0,0,1,1.383-1.531,3.9,3.9,0,0,1,2.047-.535,3.692,3.692,0,0,1,2.777,1.1,4.333,4.333,0,0,1,1.152,2.922l.008.445a5.029,5.029,0,0,1-.48,2.234A3.551,3.551,0,0,1,72.012-.383a3.925,3.925,0,0,1-2.066.539,3.667,3.667,0,0,1-2.863-1.191,4.563,4.563,0,0,1-1.074-3.176Zm1.9.164A3.406,3.406,0,0,0,68.445-2.1a1.752,1.752,0,0,0,1.5.738,1.733,1.733,0,0,0,1.5-.75,3.762,3.762,0,0,0,.535-2.2,3.362,3.362,0,0,0-.551-2.031,1.759,1.759,0,0,0-1.5-.75,1.743,1.743,0,0,0-1.477.738A3.691,3.691,0,0,0,67.906-4.141ZM70.453-12h2.164L70.453-9.633H68.93Zm6.781,3.547.055.977A3.039,3.039,0,0,1,79.75-8.609q2.641,0,2.688,3.023V0h-1.9V-5.477a1.741,1.741,0,0,0-.348-1.191,1.462,1.462,0,0,0-1.137-.387,1.829,1.829,0,0,0-1.711,1.039V0h-1.9V-8.453Z" transform="translate(943.051 2127)" fill="#12263f"/>
    <path id="Path_1265598" data-name="Path 1265598" d="M1.156,0V-11.375H4.516a5.269,5.269,0,0,1,2.676.672A4.581,4.581,0,0,1,9-8.8a6.051,6.051,0,0,1,.641,2.828v.57A6.026,6.026,0,0,1,9-2.555,4.526,4.526,0,0,1,7.16-.664,5.513,5.513,0,0,1,4.43,0ZM3.133-9.781v8.2H4.422a2.968,2.968,0,0,0,2.387-.973,4.237,4.237,0,0,0,.848-2.793v-.633a4.347,4.347,0,0,0-.8-2.828,2.853,2.853,0,0,0-2.336-.977ZM13.445,0h-1.9V-8.453h1.9ZM11.43-10.648a1.008,1.008,0,0,1,.277-.727,1.048,1.048,0,0,1,.793-.289,1.061,1.061,0,0,1,.8.289,1,1,0,0,1,.281.727.977.977,0,0,1-.281.715,1.069,1.069,0,0,1-.8.285,1.056,1.056,0,0,1-.793-.285A.984.984,0,0,1,11.43-10.648ZM20.25-2.3a.861.861,0,0,0-.418-.773,4.445,4.445,0,0,0-1.387-.469,7.129,7.129,0,0,1-1.617-.516,2.158,2.158,0,0,1-1.422-1.992,2.25,2.25,0,0,1,.922-1.828,3.644,3.644,0,0,1,2.344-.734,3.792,3.792,0,0,1,2.449.75,2.38,2.38,0,0,1,.934,1.945h-1.9a1.17,1.17,0,0,0-.406-.91,1.557,1.557,0,0,0-1.078-.363,1.682,1.682,0,0,0-1.02.289.911.911,0,0,0-.395.773.769.769,0,0,0,.367.68,5.049,5.049,0,0,0,1.484.488,7.027,7.027,0,0,1,1.754.586,2.484,2.484,0,0,1,.945.816A2.082,2.082,0,0,1,22.117-2.4a2.2,2.2,0,0,1-.945,1.848A4.031,4.031,0,0,1,18.7.156a4.371,4.371,0,0,1-1.852-.375A3.047,3.047,0,0,1,15.578-1.25a2.441,2.441,0,0,1-.453-1.414h1.844a1.338,1.338,0,0,0,.508,1.035,1.973,1.973,0,0,0,1.242.363,1.92,1.92,0,0,0,1.141-.285A.883.883,0,0,0,20.25-2.3Zm5.9-8.211v2.055h1.492v1.406H26.148v4.719a1.039,1.039,0,0,0,.191.7.888.888,0,0,0,.684.215,2.924,2.924,0,0,0,.664-.078V-.023a4.676,4.676,0,0,1-1.25.18q-2.188,0-2.187-2.414V-7.047H22.859V-8.453H24.25v-2.055Zm7.367,3.789a4.7,4.7,0,0,0-.773-.062,1.741,1.741,0,0,0-1.758,1V0h-1.9V-8.453H30.9l.047.945a2.139,2.139,0,0,1,1.906-1.1,1.777,1.777,0,0,1,.672.109ZM36.734,0h-1.9V-8.453h1.9ZM34.719-10.648A1.008,1.008,0,0,1,35-11.375a1.048,1.048,0,0,1,.793-.289,1.061,1.061,0,0,1,.8.289,1,1,0,0,1,.281.727.977.977,0,0,1-.281.715,1.069,1.069,0,0,1-.8.285A1.056,1.056,0,0,1,35-9.934.984.984,0,0,1,34.719-10.648Zm11.5,6.508a5.078,5.078,0,0,1-.879,3.133A2.863,2.863,0,0,1,42.922.156a2.758,2.758,0,0,1-2.312-1.07L40.516,0H38.8V-12h1.9v4.359a2.748,2.748,0,0,1,2.211-.969,2.9,2.9,0,0,1,2.43,1.148,5.162,5.162,0,0,1,.883,3.211ZM44.32-4.3a3.589,3.589,0,0,0-.484-2.062,1.613,1.613,0,0,0-1.406-.687A1.763,1.763,0,0,0,40.7-5.977v3.484a1.781,1.781,0,0,0,1.75,1.1,1.6,1.6,0,0,0,1.375-.664,3.477,3.477,0,0,0,.5-2.008ZM52.93-.828a2.944,2.944,0,0,1-2.375.984,2.624,2.624,0,0,1-2.082-.8,3.423,3.423,0,0,1-.707-2.328V-8.453h1.9V-3q0,1.609,1.336,1.609a1.876,1.876,0,0,0,1.867-.992v-6.07h1.9V0H52.977Zm7.242-.531a1.716,1.716,0,0,0,1.18-.414,1.415,1.415,0,0,0,.5-1.023h1.789a2.789,2.789,0,0,1-.492,1.473A3.228,3.228,0,0,1,61.9-.242a3.725,3.725,0,0,1-1.7.4A3.6,3.6,0,0,1,57.383-.992a4.555,4.555,0,0,1-1.039-3.172v-.2a4.479,4.479,0,0,1,1.031-3.09,3.571,3.571,0,0,1,2.813-1.16,3.473,3.473,0,0,1,2.457.879,3.148,3.148,0,0,1,1,2.309H61.852a1.738,1.738,0,0,0-.5-1.2,1.6,1.6,0,0,0-1.184-.469,1.671,1.671,0,0,0-1.422.668,3.408,3.408,0,0,0-.508,2.027v.3a3.465,3.465,0,0,0,.5,2.051A1.669,1.669,0,0,0,60.172-1.359ZM67.094,0H65.2V-8.453h1.9ZM65.078-10.648a1.008,1.008,0,0,1,.277-.727,1.048,1.048,0,0,1,.793-.289,1.061,1.061,0,0,1,.8.289,1,1,0,0,1,.281.727.977.977,0,0,1-.281.715,1.069,1.069,0,0,1-.8.285,1.056,1.056,0,0,1-.793-.285A.984.984,0,0,1,65.078-10.648ZM68.8-4.3A4.984,4.984,0,0,1,69.3-6.543,3.6,3.6,0,0,1,70.68-8.074a3.9,3.9,0,0,1,2.047-.535,3.692,3.692,0,0,1,2.777,1.1,4.333,4.333,0,0,1,1.152,2.922l.008.445a5.029,5.029,0,0,1-.48,2.234A3.551,3.551,0,0,1,74.809-.383a3.925,3.925,0,0,1-2.066.539,3.667,3.667,0,0,1-2.863-1.191A4.563,4.563,0,0,1,68.8-4.211Zm1.9.164A3.406,3.406,0,0,0,71.242-2.1a1.752,1.752,0,0,0,1.5.738,1.733,1.733,0,0,0,1.5-.75,3.762,3.762,0,0,0,.535-2.2,3.362,3.362,0,0,0-.551-2.031,1.759,1.759,0,0,0-1.5-.75,1.743,1.743,0,0,0-1.477.738A3.691,3.691,0,0,0,70.7-4.141ZM73.25-12h2.164L73.25-9.633H71.727Zm6.781,3.547.055.977a3.039,3.039,0,0,1,2.461-1.133q2.641,0,2.688,3.023V0h-1.9V-5.477a1.741,1.741,0,0,0-.348-1.191,1.462,1.462,0,0,0-1.137-.387,1.829,1.829,0,0,0-1.711,1.039V0h-1.9V-8.453Z" transform="translate(943.051 2234)" fill="#12263f"/>
    <path id="Path_1265599" data-name="Path 1265599" d="M9.477-11.375v7.6A3.694,3.694,0,0,1,8.316-.9,4.407,4.407,0,0,1,5.227.156a4.438,4.438,0,0,1-3.1-1.043A3.712,3.712,0,0,1,.977-3.781v-7.594H2.945v7.609a2.417,2.417,0,0,0,.578,1.742,2.255,2.255,0,0,0,1.7.6q2.281,0,2.281-2.406v-7.547ZM16.141-2.3a.861.861,0,0,0-.418-.773,4.445,4.445,0,0,0-1.387-.469,7.129,7.129,0,0,1-1.617-.516A2.158,2.158,0,0,1,11.3-6.047a2.25,2.25,0,0,1,.922-1.828,3.644,3.644,0,0,1,2.344-.734,3.792,3.792,0,0,1,2.449.75,2.38,2.38,0,0,1,.934,1.945h-1.9a1.17,1.17,0,0,0-.406-.91,1.557,1.557,0,0,0-1.078-.363,1.682,1.682,0,0,0-1.02.289.911.911,0,0,0-.395.773.769.769,0,0,0,.367.68A5.049,5.049,0,0,0,15-4.957a7.027,7.027,0,0,1,1.754.586,2.484,2.484,0,0,1,.945.816A2.082,2.082,0,0,1,18.008-2.4a2.2,2.2,0,0,1-.945,1.848,4.031,4.031,0,0,1-2.477.707,4.371,4.371,0,0,1-1.852-.375A3.047,3.047,0,0,1,11.469-1.25a2.441,2.441,0,0,1-.453-1.414h1.844a1.338,1.338,0,0,0,.508,1.035,1.973,1.973,0,0,0,1.242.363,1.92,1.92,0,0,0,1.141-.285A.883.883,0,0,0,16.141-2.3ZM19.3-4.3A4.984,4.984,0,0,1,19.8-6.543,3.6,3.6,0,0,1,21.18-8.074a3.9,3.9,0,0,1,2.047-.535A3.692,3.692,0,0,1,26-7.508a4.333,4.333,0,0,1,1.152,2.922l.008.445a5.029,5.029,0,0,1-.48,2.234A3.551,3.551,0,0,1,25.309-.383a3.925,3.925,0,0,1-2.066.539,3.667,3.667,0,0,1-2.863-1.191A4.563,4.563,0,0,1,19.3-4.211Zm1.9.164A3.406,3.406,0,0,0,21.742-2.1a1.752,1.752,0,0,0,1.5.738,1.733,1.733,0,0,0,1.5-.75,3.762,3.762,0,0,0,.535-2.2,3.362,3.362,0,0,0-.551-2.031,1.759,1.759,0,0,0-1.5-.75,1.743,1.743,0,0,0-1.477.738A3.691,3.691,0,0,0,21.2-4.141ZM29.3.977H27.813l4.477-12.352h1.492ZM43.961-3.7a4.107,4.107,0,0,1-1.344,2.84A4.581,4.581,0,0,1,39.5.156a4.436,4.436,0,0,1-2.395-.645,4.231,4.231,0,0,1-1.6-1.832,6.611,6.611,0,0,1-.586-2.758V-6.141a6.659,6.659,0,0,1,.57-2.836,4.3,4.3,0,0,1,1.637-1.891,4.566,4.566,0,0,1,2.465-.664,4.386,4.386,0,0,1,3.031,1.023,4.276,4.276,0,0,1,1.336,2.891H41.992a2.81,2.81,0,0,0-.715-1.77,2.363,2.363,0,0,0-1.684-.543,2.309,2.309,0,0,0-1.98.941,4.7,4.7,0,0,0-.707,2.762v1.008a4.988,4.988,0,0,0,.66,2.813,2.191,2.191,0,0,0,1.934.969,2.555,2.555,0,0,0,1.75-.523A2.729,2.729,0,0,0,41.992-3.7Zm1.227-.6a4.984,4.984,0,0,1,.492-2.238,3.6,3.6,0,0,1,1.383-1.531,3.9,3.9,0,0,1,2.047-.535,3.692,3.692,0,0,1,2.777,1.1,4.333,4.333,0,0,1,1.152,2.922l.008.445a5.029,5.029,0,0,1-.48,2.234A3.551,3.551,0,0,1,51.191-.383a3.925,3.925,0,0,1-2.066.539,3.667,3.667,0,0,1-2.863-1.191,4.563,4.563,0,0,1-1.074-3.176Zm1.9.164A3.406,3.406,0,0,0,47.625-2.1a1.752,1.752,0,0,0,1.5.738,1.733,1.733,0,0,0,1.5-.75,3.762,3.762,0,0,0,.535-2.2,3.362,3.362,0,0,0-.551-2.031,1.759,1.759,0,0,0-1.5-.75,1.743,1.743,0,0,0-1.477.738A3.691,3.691,0,0,0,47.086-4.141Zm9.328-4.312.055.977A3.039,3.039,0,0,1,58.93-8.609q2.641,0,2.688,3.023V0h-1.9V-5.477a1.741,1.741,0,0,0-.348-1.191,1.462,1.462,0,0,0-1.137-.387,1.829,1.829,0,0,0-1.711,1.039V0h-1.9V-8.453ZM68.289-2.3a.861.861,0,0,0-.418-.773,4.445,4.445,0,0,0-1.387-.469,7.129,7.129,0,0,1-1.617-.516,2.158,2.158,0,0,1-1.422-1.992,2.25,2.25,0,0,1,.922-1.828,3.644,3.644,0,0,1,2.344-.734,3.792,3.792,0,0,1,2.449.75,2.38,2.38,0,0,1,.934,1.945H68.2a1.17,1.17,0,0,0-.406-.91,1.557,1.557,0,0,0-1.078-.363,1.682,1.682,0,0,0-1.02.289.911.911,0,0,0-.395.773.769.769,0,0,0,.367.68,5.049,5.049,0,0,0,1.484.488,7.027,7.027,0,0,1,1.754.586,2.484,2.484,0,0,1,.945.816A2.082,2.082,0,0,1,70.156-2.4a2.2,2.2,0,0,1-.945,1.848,4.031,4.031,0,0,1-2.477.707,4.371,4.371,0,0,1-1.852-.375A3.047,3.047,0,0,1,63.617-1.25a2.441,2.441,0,0,1-.453-1.414h1.844a1.338,1.338,0,0,0,.508,1.035,1.973,1.973,0,0,0,1.242.363A1.92,1.92,0,0,0,67.9-1.551.883.883,0,0,0,68.289-2.3ZM76.93-.828a2.944,2.944,0,0,1-2.375.984,2.624,2.624,0,0,1-2.082-.8,3.423,3.423,0,0,1-.707-2.328V-8.453h1.9V-3q0,1.609,1.336,1.609a1.876,1.876,0,0,0,1.867-.992v-6.07h1.9V0H76.977Zm5.555-7.625.055.883a3.042,3.042,0,0,1,2.438-1.039,2.337,2.337,0,0,1,2.32,1.3,3,3,0,0,1,2.594-1.3,2.636,2.636,0,0,1,2.082.773,3.405,3.405,0,0,1,.7,2.281V0h-1.9V-5.5a1.681,1.681,0,0,0-.352-1.18,1.539,1.539,0,0,0-1.164-.375,1.581,1.581,0,0,0-1.059.348,1.833,1.833,0,0,0-.574.91L87.633,0h-1.9V-5.562a1.354,1.354,0,0,0-1.523-1.492,1.671,1.671,0,0,0-1.617.93V0H80.7V-8.453ZM94.266-4.3a4.984,4.984,0,0,1,.492-2.238,3.6,3.6,0,0,1,1.383-1.531,3.9,3.9,0,0,1,2.047-.535,3.692,3.692,0,0,1,2.777,1.1,4.333,4.333,0,0,1,1.152,2.922l.008.445a5.029,5.029,0,0,1-.48,2.234A3.551,3.551,0,0,1,100.27-.383,3.925,3.925,0,0,1,98.2.156,3.667,3.667,0,0,1,95.34-1.035a4.563,4.563,0,0,1-1.074-3.176Zm1.9.164A3.406,3.406,0,0,0,96.7-2.1a1.752,1.752,0,0,0,1.5.738,1.733,1.733,0,0,0,1.5-.75,3.762,3.762,0,0,0,.535-2.2,3.362,3.362,0,0,0-.551-2.031,1.759,1.759,0,0,0-1.5-.75,1.743,1.743,0,0,0-1.477.738A3.691,3.691,0,0,0,96.164-4.141Z" transform="translate(853.051 2304)" fill="#12263f"/>
    <path id="Path_1265603" data-name="Path 1265603" d="M5.336-4.383h-2.2V0H1.156V-11.375h4a4.656,4.656,0,0,1,3.039.883,3.122,3.122,0,0,1,1.07,2.555,3.2,3.2,0,0,1-.551,1.91A3.5,3.5,0,0,1,7.18-4.844L9.734-.1V0H7.617Zm-2.2-1.586H5.164a2.259,2.259,0,0,0,1.563-.5,1.757,1.757,0,0,0,.563-1.379,1.871,1.871,0,0,0-.52-1.414,2.207,2.207,0,0,0-1.551-.516H3.133ZM14.68.156A3.928,3.928,0,0,1,11.754-.98a4.124,4.124,0,0,1-1.121-3.027v-.234A5.072,5.072,0,0,1,11.121-6.5a3.716,3.716,0,0,1,1.371-1.551,3.625,3.625,0,0,1,1.969-.555,3.318,3.318,0,0,1,2.668,1.1,4.658,4.658,0,0,1,.941,3.117v.766H12.547a2.539,2.539,0,0,0,.7,1.656,2.1,2.1,0,0,0,1.543.609,2.571,2.571,0,0,0,2.125-1.055l1.023.977A3.418,3.418,0,0,1,16.582-.262,4.244,4.244,0,0,1,14.68.156Zm-.227-7.242a1.6,1.6,0,0,0-1.262.547,2.835,2.835,0,0,0-.613,1.523H16.2v-.141A2.307,2.307,0,0,0,15.688-6.6,1.586,1.586,0,0,0,14.453-7.086ZM24.664-.828a2.944,2.944,0,0,1-2.375.984,2.624,2.624,0,0,1-2.082-.8A3.423,3.423,0,0,1,19.5-2.977V-8.453h1.9V-3q0,1.609,1.336,1.609A1.876,1.876,0,0,0,24.6-2.383v-6.07h1.9V0H24.711Zm6.148-9.68v2.055H32.3v1.406H30.813v4.719a1.039,1.039,0,0,0,.191.7.888.888,0,0,0,.684.215,2.924,2.924,0,0,0,.664-.078V-.023a4.676,4.676,0,0,1-1.25.18q-2.188,0-2.187-2.414V-7.047H27.523V-8.453h1.391v-2.055ZM35.773,0h-1.9V-8.453h1.9ZM33.758-10.648a1.008,1.008,0,0,1,.277-.727,1.048,1.048,0,0,1,.793-.289,1.061,1.061,0,0,1,.8.289,1,1,0,0,1,.281.727.977.977,0,0,1-.281.715,1.069,1.069,0,0,1-.8.285,1.056,1.056,0,0,1-.793-.285A.984.984,0,0,1,33.758-10.648ZM39.859,0h-1.9V-12h1.9Zm4.086,0h-1.9V-8.453h1.9ZM41.93-10.648a1.008,1.008,0,0,1,.277-.727A1.048,1.048,0,0,1,43-11.664a1.061,1.061,0,0,1,.8.289,1,1,0,0,1,.281.727.977.977,0,0,1-.281.715,1.069,1.069,0,0,1-.8.285,1.056,1.056,0,0,1-.793-.285A.984.984,0,0,1,41.93-10.648Zm6.109,9.133h4.5V0H45.68V-1.242l4.289-5.68H45.758V-8.453h6.617v1.2ZM59.109,0a2.93,2.93,0,0,1-.219-.789,2.955,2.955,0,0,1-2.219.945A2.982,2.982,0,0,1,54.594-.57a2.325,2.325,0,0,1-.8-1.8,2.4,2.4,0,0,1,1-2.074,4.865,4.865,0,0,1,2.871-.723h1.164v-.555a1.481,1.481,0,0,0-.367-1.051,1.456,1.456,0,0,0-1.117-.395,1.672,1.672,0,0,0-1.062.324,1,1,0,0,0-.414.824h-1.9a2.107,2.107,0,0,1,.461-1.3,3.071,3.071,0,0,1,1.254-.949,4.4,4.4,0,0,1,1.77-.344,3.547,3.547,0,0,1,2.367.746,2.661,2.661,0,0,1,.906,2.1v3.813a4.321,4.321,0,0,0,.32,1.82V0ZM57.023-1.367a2.16,2.16,0,0,0,1.059-.273,1.827,1.827,0,0,0,.746-.734V-3.969H57.8a2.8,2.8,0,0,0-1.586.367,1.189,1.189,0,0,0-.531,1.039,1.109,1.109,0,0,0,.363.871A1.407,1.407,0,0,0,57.023-1.367Zm9.164.008a1.716,1.716,0,0,0,1.18-.414,1.415,1.415,0,0,0,.5-1.023h1.789a2.789,2.789,0,0,1-.492,1.473,3.228,3.228,0,0,1-1.25,1.082,3.725,3.725,0,0,1-1.7.4A3.6,3.6,0,0,1,63.4-.992a4.555,4.555,0,0,1-1.039-3.172v-.2a4.479,4.479,0,0,1,1.031-3.09A3.571,3.571,0,0,1,66.2-8.609a3.473,3.473,0,0,1,2.457.879,3.148,3.148,0,0,1,1,2.309H67.867a1.738,1.738,0,0,0-.5-1.2,1.6,1.6,0,0,0-1.184-.469,1.671,1.671,0,0,0-1.422.668,3.408,3.408,0,0,0-.508,2.027v.3a3.465,3.465,0,0,0,.5,2.051A1.669,1.669,0,0,0,66.188-1.359ZM73.109,0h-1.9V-8.453h1.9ZM71.094-10.648a1.008,1.008,0,0,1,.277-.727,1.048,1.048,0,0,1,.793-.289,1.061,1.061,0,0,1,.8.289,1,1,0,0,1,.281.727.977.977,0,0,1-.281.715,1.069,1.069,0,0,1-.8.285,1.056,1.056,0,0,1-.793-.285A.984.984,0,0,1,71.094-10.648ZM74.82-4.3a4.984,4.984,0,0,1,.492-2.238A3.6,3.6,0,0,1,76.7-8.074a3.9,3.9,0,0,1,2.047-.535,3.692,3.692,0,0,1,2.777,1.1,4.333,4.333,0,0,1,1.152,2.922l.008.445a5.029,5.029,0,0,1-.48,2.234A3.551,3.551,0,0,1,80.824-.383a3.925,3.925,0,0,1-2.066.539,3.667,3.667,0,0,1-2.863-1.191A4.563,4.563,0,0,1,74.82-4.211Zm1.9.164A3.406,3.406,0,0,0,77.258-2.1a1.752,1.752,0,0,0,1.5.738,1.733,1.733,0,0,0,1.5-.75,3.762,3.762,0,0,0,.535-2.2,3.362,3.362,0,0,0-.551-2.031,1.759,1.759,0,0,0-1.5-.75,1.743,1.743,0,0,0-1.477.738A3.691,3.691,0,0,0,76.719-4.141ZM79.266-12H81.43L79.266-9.633H77.742Zm6.781,3.547.055.977a3.039,3.039,0,0,1,2.461-1.133q2.641,0,2.688,3.023V0h-1.9V-5.477A1.741,1.741,0,0,0,89-6.668a1.462,1.462,0,0,0-1.137-.387,1.829,1.829,0,0,0-1.711,1.039V0h-1.9V-8.453Z" transform="translate(730.051 2238)" fill="#12263f"/>
    <path id="Path_1265602" data-name="Path 1265602" d="M5.336-4.383h-2.2V0H1.156V-11.375h4a4.656,4.656,0,0,1,3.039.883,3.122,3.122,0,0,1,1.07,2.555,3.2,3.2,0,0,1-.551,1.91A3.5,3.5,0,0,1,7.18-4.844L9.734-.1V0H7.617Zm-2.2-1.586H5.164a2.259,2.259,0,0,0,1.563-.5,1.757,1.757,0,0,0,.563-1.379,1.871,1.871,0,0,0-.52-1.414,2.207,2.207,0,0,0-1.551-.516H3.133ZM14.68.156A3.928,3.928,0,0,1,11.754-.98a4.124,4.124,0,0,1-1.121-3.027v-.234A5.072,5.072,0,0,1,11.121-6.5a3.716,3.716,0,0,1,1.371-1.551,3.625,3.625,0,0,1,1.969-.555,3.318,3.318,0,0,1,2.668,1.1,4.658,4.658,0,0,1,.941,3.117v.766H12.547a2.539,2.539,0,0,0,.7,1.656,2.1,2.1,0,0,0,1.543.609,2.571,2.571,0,0,0,2.125-1.055l1.023.977A3.418,3.418,0,0,1,16.582-.262,4.244,4.244,0,0,1,14.68.156Zm-.227-7.242a1.6,1.6,0,0,0-1.262.547,2.835,2.835,0,0,0-.613,1.523H16.2v-.141A2.307,2.307,0,0,0,15.688-6.6,1.586,1.586,0,0,0,14.453-7.086ZM21.3-8.453l.055.977A3.039,3.039,0,0,1,23.82-8.609q2.641,0,2.688,3.023V0h-1.9V-5.477a1.741,1.741,0,0,0-.348-1.191,1.462,1.462,0,0,0-1.137-.387,1.829,1.829,0,0,0-1.711,1.039V0h-1.9V-8.453ZM28.086-4.3a4.984,4.984,0,0,1,.492-2.238,3.6,3.6,0,0,1,1.383-1.531,3.9,3.9,0,0,1,2.047-.535,3.692,3.692,0,0,1,2.777,1.1,4.333,4.333,0,0,1,1.152,2.922l.008.445a5.029,5.029,0,0,1-.48,2.234A3.551,3.551,0,0,1,34.09-.383a3.925,3.925,0,0,1-2.066.539A3.667,3.667,0,0,1,29.16-1.035a4.563,4.563,0,0,1-1.074-3.176Zm1.9.164A3.406,3.406,0,0,0,30.523-2.1a1.752,1.752,0,0,0,1.5.738,1.733,1.733,0,0,0,1.5-.75,3.762,3.762,0,0,0,.535-2.2A3.362,3.362,0,0,0,33.5-6.336a1.759,1.759,0,0,0-1.5-.75,1.743,1.743,0,0,0-1.477.738A3.691,3.691,0,0,0,29.984-4.141Zm10.43,1.734L42.2-8.453h1.961L41.234,0H39.586L36.633-8.453H38.6ZM50.281,0a2.93,2.93,0,0,1-.219-.789,2.955,2.955,0,0,1-2.219.945A2.982,2.982,0,0,1,45.766-.57a2.325,2.325,0,0,1-.8-1.8,2.4,2.4,0,0,1,1-2.074,4.865,4.865,0,0,1,2.871-.723H50v-.555a1.481,1.481,0,0,0-.367-1.051,1.456,1.456,0,0,0-1.117-.395,1.672,1.672,0,0,0-1.062.324,1,1,0,0,0-.414.824h-1.9a2.107,2.107,0,0,1,.461-1.3,3.071,3.071,0,0,1,1.254-.949,4.4,4.4,0,0,1,1.77-.344,3.547,3.547,0,0,1,2.367.746,2.661,2.661,0,0,1,.906,2.1v3.813a4.321,4.321,0,0,0,.32,1.82V0ZM48.2-1.367a2.16,2.16,0,0,0,1.059-.273A1.827,1.827,0,0,0,50-2.375V-3.969H48.977a2.8,2.8,0,0,0-1.586.367,1.189,1.189,0,0,0-.531,1.039,1.109,1.109,0,0,0,.363.871A1.407,1.407,0,0,0,48.2-1.367Zm9.164.008a1.716,1.716,0,0,0,1.18-.414,1.415,1.415,0,0,0,.5-1.023h1.789a2.789,2.789,0,0,1-.492,1.473,3.228,3.228,0,0,1-1.25,1.082,3.725,3.725,0,0,1-1.7.4A3.6,3.6,0,0,1,54.57-.992a4.555,4.555,0,0,1-1.039-3.172v-.2a4.479,4.479,0,0,1,1.031-3.09,3.571,3.571,0,0,1,2.813-1.16,3.473,3.473,0,0,1,2.457.879,3.148,3.148,0,0,1,1,2.309H59.039a1.738,1.738,0,0,0-.5-1.2,1.6,1.6,0,0,0-1.184-.469,1.671,1.671,0,0,0-1.422.668,3.408,3.408,0,0,0-.508,2.027v.3a3.465,3.465,0,0,0,.5,2.051A1.669,1.669,0,0,0,57.359-1.359ZM64.281,0h-1.9V-8.453h1.9ZM62.266-10.648a1.008,1.008,0,0,1,.277-.727,1.048,1.048,0,0,1,.793-.289,1.061,1.061,0,0,1,.8.289,1,1,0,0,1,.281.727.977.977,0,0,1-.281.715,1.069,1.069,0,0,1-.8.285,1.056,1.056,0,0,1-.793-.285A.984.984,0,0,1,62.266-10.648ZM65.992-4.3a4.984,4.984,0,0,1,.492-2.238,3.6,3.6,0,0,1,1.383-1.531,3.9,3.9,0,0,1,2.047-.535,3.692,3.692,0,0,1,2.777,1.1,4.333,4.333,0,0,1,1.152,2.922l.008.445a5.029,5.029,0,0,1-.48,2.234A3.551,3.551,0,0,1,72-.383,3.925,3.925,0,0,1,69.93.156a3.667,3.667,0,0,1-2.863-1.191,4.563,4.563,0,0,1-1.074-3.176Zm1.9.164A3.406,3.406,0,0,0,68.43-2.1a1.752,1.752,0,0,0,1.5.738,1.733,1.733,0,0,0,1.5-.75,3.762,3.762,0,0,0,.535-2.2,3.362,3.362,0,0,0-.551-2.031,1.759,1.759,0,0,0-1.5-.75,1.743,1.743,0,0,0-1.477.738A3.691,3.691,0,0,0,67.891-4.141ZM70.438-12H72.6L70.438-9.633H68.914Zm6.781,3.547.055.977a3.039,3.039,0,0,1,2.461-1.133q2.641,0,2.688,3.023V0h-1.9V-5.477a1.741,1.741,0,0,0-.348-1.191,1.462,1.462,0,0,0-1.137-.387,1.829,1.829,0,0,0-1.711,1.039V0h-1.9V-8.453Z" transform="translate(739.051 2257)" fill="#12263f"/>
    <path id="Path_1265601" data-name="Path 1265601" d="M5.336-4.383h-2.2V0H1.156V-11.375h4a4.656,4.656,0,0,1,3.039.883,3.122,3.122,0,0,1,1.07,2.555,3.2,3.2,0,0,1-.551,1.91A3.5,3.5,0,0,1,7.18-4.844L9.734-.1V0H7.617Zm-2.2-1.586H5.164a2.259,2.259,0,0,0,1.563-.5,1.757,1.757,0,0,0,.563-1.379,1.871,1.871,0,0,0-.52-1.414,2.207,2.207,0,0,0-1.551-.516H3.133ZM14.68.156A3.928,3.928,0,0,1,11.754-.98a4.124,4.124,0,0,1-1.121-3.027v-.234A5.072,5.072,0,0,1,11.121-6.5a3.716,3.716,0,0,1,1.371-1.551,3.625,3.625,0,0,1,1.969-.555,3.318,3.318,0,0,1,2.668,1.1,4.658,4.658,0,0,1,.941,3.117v.766H12.547a2.539,2.539,0,0,0,.7,1.656,2.1,2.1,0,0,0,1.543.609,2.571,2.571,0,0,0,2.125-1.055l1.023.977A3.418,3.418,0,0,1,16.582-.262,4.244,4.244,0,0,1,14.68.156Zm-.227-7.242a1.6,1.6,0,0,0-1.262.547,2.835,2.835,0,0,0-.613,1.523H16.2v-.141A2.307,2.307,0,0,0,15.688-6.6,1.586,1.586,0,0,0,14.453-7.086ZM26.945-4.141a5.033,5.033,0,0,1-.891,3.129A2.852,2.852,0,0,1,23.664.156a2.871,2.871,0,0,1-2.227-.914V3.25h-1.9v-11.7h1.75l.078.859a2.788,2.788,0,0,1,2.273-1.016,2.881,2.881,0,0,1,2.426,1.152,5.167,5.167,0,0,1,.879,3.2ZM25.055-4.3a3.526,3.526,0,0,0-.5-2.008,1.638,1.638,0,0,0-1.441-.742,1.747,1.747,0,0,0-1.672.961v3.75a1.763,1.763,0,0,0,1.688.984,1.636,1.636,0,0,0,1.418-.73A3.881,3.881,0,0,0,25.055-4.3ZM33.6,0a2.93,2.93,0,0,1-.219-.789,2.955,2.955,0,0,1-2.219.945A2.982,2.982,0,0,1,29.086-.57a2.325,2.325,0,0,1-.8-1.8,2.4,2.4,0,0,1,1-2.074,4.865,4.865,0,0,1,2.871-.723H33.32v-.555a1.481,1.481,0,0,0-.367-1.051,1.456,1.456,0,0,0-1.117-.395,1.672,1.672,0,0,0-1.062.324,1,1,0,0,0-.414.824h-1.9a2.107,2.107,0,0,1,.461-1.3,3.071,3.071,0,0,1,1.254-.949,4.4,4.4,0,0,1,1.77-.344,3.547,3.547,0,0,1,2.367.746,2.661,2.661,0,0,1,.906,2.1v3.813a4.321,4.321,0,0,0,.32,1.82V0ZM31.516-1.367a2.16,2.16,0,0,0,1.059-.273,1.827,1.827,0,0,0,.746-.734V-3.969H32.3a2.8,2.8,0,0,0-1.586.367,1.189,1.189,0,0,0-.531,1.039,1.109,1.109,0,0,0,.363.871A1.407,1.407,0,0,0,31.516-1.367ZM41.633-6.719a4.7,4.7,0,0,0-.773-.062,1.741,1.741,0,0,0-1.758,1V0H37.2V-8.453h1.813l.047.945a2.139,2.139,0,0,1,1.906-1.1,1.777,1.777,0,0,1,.672.109ZM47.648,0a2.93,2.93,0,0,1-.219-.789,2.955,2.955,0,0,1-2.219.945A2.982,2.982,0,0,1,43.133-.57a2.325,2.325,0,0,1-.8-1.8,2.4,2.4,0,0,1,1-2.074A4.865,4.865,0,0,1,46.2-5.164h1.164v-.555A1.481,1.481,0,0,0,47-6.77a1.456,1.456,0,0,0-1.117-.395,1.672,1.672,0,0,0-1.062.324,1,1,0,0,0-.414.824h-1.9a2.107,2.107,0,0,1,.461-1.3,3.071,3.071,0,0,1,1.254-.949,4.4,4.4,0,0,1,1.77-.344,3.547,3.547,0,0,1,2.367.746,2.661,2.661,0,0,1,.906,2.1v3.813a4.321,4.321,0,0,0,.32,1.82V0ZM45.563-1.367a2.16,2.16,0,0,0,1.059-.273,1.827,1.827,0,0,0,.746-.734V-3.969H46.344a2.8,2.8,0,0,0-1.586.367,1.189,1.189,0,0,0-.531,1.039,1.109,1.109,0,0,0,.363.871A1.407,1.407,0,0,0,45.563-1.367Zm9.164.008a1.716,1.716,0,0,0,1.18-.414,1.415,1.415,0,0,0,.5-1.023H58.2A2.789,2.789,0,0,1,57.7-1.324a3.228,3.228,0,0,1-1.25,1.082,3.725,3.725,0,0,1-1.7.4A3.6,3.6,0,0,1,51.938-.992,4.555,4.555,0,0,1,50.9-4.164v-.2a4.479,4.479,0,0,1,1.031-3.09,3.571,3.571,0,0,1,2.813-1.16A3.473,3.473,0,0,1,57.2-7.73a3.148,3.148,0,0,1,1,2.309H56.406a1.738,1.738,0,0,0-.5-1.2,1.6,1.6,0,0,0-1.184-.469,1.671,1.671,0,0,0-1.422.668A3.408,3.408,0,0,0,52.8-4.391v.3a3.465,3.465,0,0,0,.5,2.051A1.669,1.669,0,0,0,54.727-1.359ZM61.648,0h-1.9V-8.453h1.9ZM59.633-10.648a1.008,1.008,0,0,1,.277-.727,1.048,1.048,0,0,1,.793-.289,1.061,1.061,0,0,1,.8.289,1,1,0,0,1,.281.727.977.977,0,0,1-.281.715,1.069,1.069,0,0,1-.8.285,1.056,1.056,0,0,1-.793-.285A.984.984,0,0,1,59.633-10.648ZM63.359-4.3a4.984,4.984,0,0,1,.492-2.238,3.6,3.6,0,0,1,1.383-1.531,3.9,3.9,0,0,1,2.047-.535,3.692,3.692,0,0,1,2.777,1.1,4.333,4.333,0,0,1,1.152,2.922l.008.445a5.029,5.029,0,0,1-.48,2.234A3.551,3.551,0,0,1,69.363-.383,3.925,3.925,0,0,1,67.3.156a3.667,3.667,0,0,1-2.863-1.191,4.563,4.563,0,0,1-1.074-3.176Zm1.9.164A3.406,3.406,0,0,0,65.8-2.1a1.752,1.752,0,0,0,1.5.738,1.733,1.733,0,0,0,1.5-.75,3.762,3.762,0,0,0,.535-2.2,3.362,3.362,0,0,0-.551-2.031,1.759,1.759,0,0,0-1.5-.75,1.743,1.743,0,0,0-1.477.738A3.691,3.691,0,0,0,65.258-4.141ZM67.8-12h2.164L67.8-9.633H66.281Zm6.781,3.547.055.977A3.039,3.039,0,0,1,77.1-8.609q2.641,0,2.688,3.023V0h-1.9V-5.477a1.741,1.741,0,0,0-.348-1.191,1.462,1.462,0,0,0-1.137-.387A1.829,1.829,0,0,0,74.7-6.016V0H72.8V-8.453Z" transform="translate(741.051 2277)" fill="#12263f"/>
    <path id="Path_1265600" data-name="Path 1265600" d="M5.336-4.383h-2.2V0H1.156V-11.375h4a4.656,4.656,0,0,1,3.039.883,3.122,3.122,0,0,1,1.07,2.555,3.2,3.2,0,0,1-.551,1.91A3.5,3.5,0,0,1,7.18-4.844L9.734-.1V0H7.617Zm-2.2-1.586H5.164a2.259,2.259,0,0,0,1.563-.5,1.757,1.757,0,0,0,.563-1.379,1.871,1.871,0,0,0-.52-1.414,2.207,2.207,0,0,0-1.551-.516H3.133ZM14.68.156A3.928,3.928,0,0,1,11.754-.98a4.124,4.124,0,0,1-1.121-3.027v-.234A5.072,5.072,0,0,1,11.121-6.5a3.716,3.716,0,0,1,1.371-1.551,3.625,3.625,0,0,1,1.969-.555,3.318,3.318,0,0,1,2.668,1.1,4.658,4.658,0,0,1,.941,3.117v.766H12.547a2.539,2.539,0,0,0,.7,1.656,2.1,2.1,0,0,0,1.543.609,2.571,2.571,0,0,0,2.125-1.055l1.023.977A3.418,3.418,0,0,1,16.582-.262,4.244,4.244,0,0,1,14.68.156Zm-.227-7.242a1.6,1.6,0,0,0-1.262.547,2.835,2.835,0,0,0-.613,1.523H16.2v-.141A2.307,2.307,0,0,0,15.688-6.6,1.586,1.586,0,0,0,14.453-7.086ZM24.594,0a2.93,2.93,0,0,1-.219-.789,2.955,2.955,0,0,1-2.219.945A2.982,2.982,0,0,1,20.078-.57a2.325,2.325,0,0,1-.8-1.8,2.4,2.4,0,0,1,1-2.074,4.865,4.865,0,0,1,2.871-.723h1.164v-.555a1.481,1.481,0,0,0-.367-1.051,1.456,1.456,0,0,0-1.117-.395,1.672,1.672,0,0,0-1.062.324,1,1,0,0,0-.414.824h-1.9a2.107,2.107,0,0,1,.461-1.3,3.071,3.071,0,0,1,1.254-.949,4.4,4.4,0,0,1,1.77-.344,3.547,3.547,0,0,1,2.367.746,2.661,2.661,0,0,1,.906,2.1v3.813a4.321,4.321,0,0,0,.32,1.82V0ZM22.508-1.367a2.159,2.159,0,0,0,1.059-.273,1.827,1.827,0,0,0,.746-.734V-3.969H23.289A2.8,2.8,0,0,0,21.7-3.6a1.189,1.189,0,0,0-.531,1.039,1.109,1.109,0,0,0,.363.871A1.407,1.407,0,0,0,22.508-1.367Zm9.164.008a1.716,1.716,0,0,0,1.18-.414,1.415,1.415,0,0,0,.5-1.023h1.789a2.789,2.789,0,0,1-.492,1.473A3.228,3.228,0,0,1,33.4-.242a3.725,3.725,0,0,1-1.7.4A3.6,3.6,0,0,1,28.883-.992a4.555,4.555,0,0,1-1.039-3.172v-.2a4.479,4.479,0,0,1,1.031-3.09,3.571,3.571,0,0,1,2.813-1.16,3.473,3.473,0,0,1,2.457.879,3.148,3.148,0,0,1,1,2.309H33.352a1.738,1.738,0,0,0-.5-1.2,1.6,1.6,0,0,0-1.184-.469,1.671,1.671,0,0,0-1.422.668,3.408,3.408,0,0,0-.508,2.027v.3a3.465,3.465,0,0,0,.5,2.051A1.669,1.669,0,0,0,31.672-1.359ZM36.219-4.3a4.984,4.984,0,0,1,.492-2.238,3.6,3.6,0,0,1,1.383-1.531,3.9,3.9,0,0,1,2.047-.535,3.692,3.692,0,0,1,2.777,1.1A4.333,4.333,0,0,1,44.07-4.586l.008.445a5.029,5.029,0,0,1-.48,2.234A3.551,3.551,0,0,1,42.223-.383a3.925,3.925,0,0,1-2.066.539,3.667,3.667,0,0,1-2.863-1.191,4.563,4.563,0,0,1-1.074-3.176Zm1.9.164A3.406,3.406,0,0,0,38.656-2.1a1.752,1.752,0,0,0,1.5.738,1.733,1.733,0,0,0,1.5-.75,3.762,3.762,0,0,0,.535-2.2,3.362,3.362,0,0,0-.551-2.031,1.759,1.759,0,0,0-1.5-.75,1.743,1.743,0,0,0-1.477.738A3.691,3.691,0,0,0,38.117-4.141Zm9.328-4.312.055.977a3.039,3.039,0,0,1,2.461-1.133q2.641,0,2.688,3.023V0h-1.9V-5.477A1.741,1.741,0,0,0,50.4-6.668a1.462,1.462,0,0,0-1.137-.387,1.829,1.829,0,0,0-1.711,1.039V0h-1.9V-8.453Zm6.781,4.164a5.026,5.026,0,0,1,.906-3.137,2.9,2.9,0,0,1,2.43-1.184,2.759,2.759,0,0,1,2.172.938V-12h1.9V0H59.914L59.82-.875A2.8,2.8,0,0,1,57.547.156a2.887,2.887,0,0,1-2.4-1.2A5.21,5.21,0,0,1,54.227-4.289Zm1.9.164a3.519,3.519,0,0,0,.5,2.012,1.61,1.61,0,0,0,1.41.723,1.793,1.793,0,0,0,1.7-1.039V-6.039a1.766,1.766,0,0,0-1.687-1.016,1.622,1.622,0,0,0-1.422.73A3.919,3.919,0,0,0,56.125-4.125ZM65.633,0h-1.9V-8.453h1.9ZM63.617-10.648a1.008,1.008,0,0,1,.277-.727,1.048,1.048,0,0,1,.793-.289,1.061,1.061,0,0,1,.8.289,1,1,0,0,1,.281.727.977.977,0,0,1-.281.715,1.069,1.069,0,0,1-.8.285,1.056,1.056,0,0,1-.793-.285A.984.984,0,0,1,63.617-10.648Zm7.555,9.289a1.716,1.716,0,0,0,1.18-.414,1.415,1.415,0,0,0,.5-1.023h1.789a2.789,2.789,0,0,1-.492,1.473A3.228,3.228,0,0,1,72.9-.242a3.725,3.725,0,0,1-1.7.4A3.6,3.6,0,0,1,68.383-.992a4.555,4.555,0,0,1-1.039-3.172v-.2a4.479,4.479,0,0,1,1.031-3.09,3.571,3.571,0,0,1,2.813-1.16,3.473,3.473,0,0,1,2.457.879,3.148,3.148,0,0,1,1,2.309H72.852a1.738,1.738,0,0,0-.5-1.2,1.6,1.6,0,0,0-1.184-.469,1.671,1.671,0,0,0-1.422.668,3.408,3.408,0,0,0-.508,2.027v.3a3.465,3.465,0,0,0,.5,2.051A1.669,1.669,0,0,0,71.172-1.359ZM78.094,0H76.2V-8.453h1.9ZM76.078-10.648a1.008,1.008,0,0,1,.277-.727,1.048,1.048,0,0,1,.793-.289,1.061,1.061,0,0,1,.8.289,1,1,0,0,1,.281.727.977.977,0,0,1-.281.715,1.069,1.069,0,0,1-.8.285,1.056,1.056,0,0,1-.793-.285A.984.984,0,0,1,76.078-10.648ZM79.8-4.3A4.984,4.984,0,0,1,80.3-6.543,3.6,3.6,0,0,1,81.68-8.074a3.9,3.9,0,0,1,2.047-.535,3.692,3.692,0,0,1,2.777,1.1,4.333,4.333,0,0,1,1.152,2.922l.008.445a5.029,5.029,0,0,1-.48,2.234A3.551,3.551,0,0,1,85.809-.383a3.925,3.925,0,0,1-2.066.539,3.667,3.667,0,0,1-2.863-1.191A4.563,4.563,0,0,1,79.8-4.211Zm1.9.164A3.406,3.406,0,0,0,82.242-2.1a1.752,1.752,0,0,0,1.5.738,1.733,1.733,0,0,0,1.5-.75,3.762,3.762,0,0,0,.535-2.2,3.362,3.362,0,0,0-.551-2.031,1.759,1.759,0,0,0-1.5-.75,1.743,1.743,0,0,0-1.477.738A3.691,3.691,0,0,0,81.7-4.141Zm9.328-4.312.055.977a3.039,3.039,0,0,1,2.461-1.133q2.641,0,2.688,3.023V0h-1.9V-5.477a1.741,1.741,0,0,0-.348-1.191,1.462,1.462,0,0,0-1.137-.387,1.829,1.829,0,0,0-1.711,1.039V0h-1.9V-8.453ZM103.219,0A2.93,2.93,0,0,1,103-.789a2.955,2.955,0,0,1-2.219.945A2.982,2.982,0,0,1,98.7-.57a2.325,2.325,0,0,1-.8-1.8,2.4,2.4,0,0,1,1-2.074,4.865,4.865,0,0,1,2.871-.723h1.164v-.555a1.481,1.481,0,0,0-.367-1.051,1.456,1.456,0,0,0-1.117-.395,1.672,1.672,0,0,0-1.062.324,1,1,0,0,0-.414.824h-1.9a2.107,2.107,0,0,1,.461-1.3,3.071,3.071,0,0,1,1.254-.949,4.4,4.4,0,0,1,1.77-.344,3.547,3.547,0,0,1,2.367.746,2.661,2.661,0,0,1,.906,2.1v3.813a4.321,4.321,0,0,0,.32,1.82V0Zm-2.086-1.367a2.159,2.159,0,0,0,1.059-.273,1.827,1.827,0,0,0,.746-.734V-3.969h-1.023a2.8,2.8,0,0,0-1.586.367A1.189,1.189,0,0,0,99.8-2.562a1.109,1.109,0,0,0,.363.871A1.407,1.407,0,0,0,101.133-1.367Zm5.336-2.922a5.026,5.026,0,0,1,.906-3.137,2.9,2.9,0,0,1,2.43-1.184,2.759,2.759,0,0,1,2.172.938V-12h1.9V0h-1.719l-.094-.875A2.8,2.8,0,0,1,109.789.156a2.887,2.887,0,0,1-2.4-1.2A5.21,5.21,0,0,1,106.469-4.289Zm1.9.164a3.519,3.519,0,0,0,.5,2.012,1.61,1.61,0,0,0,1.41.723,1.793,1.793,0,0,0,1.7-1.039V-6.039a1.766,1.766,0,0,0-1.687-1.016,1.622,1.622,0,0,0-1.422.73A3.918,3.918,0,0,0,108.367-4.125ZM115.5-4.3a4.984,4.984,0,0,1,.492-2.238,3.6,3.6,0,0,1,1.383-1.531,3.9,3.9,0,0,1,2.047-.535,3.692,3.692,0,0,1,2.777,1.1,4.333,4.333,0,0,1,1.152,2.922l.008.445a5.029,5.029,0,0,1-.48,2.234A3.551,3.551,0,0,1,121.5-.383a3.925,3.925,0,0,1-2.066.539,3.667,3.667,0,0,1-2.863-1.191A4.563,4.563,0,0,1,115.5-4.211Zm1.9.164a3.406,3.406,0,0,0,.539,2.043,1.752,1.752,0,0,0,1.5.738,1.733,1.733,0,0,0,1.5-.75,3.762,3.762,0,0,0,.535-2.2,3.362,3.362,0,0,0-.551-2.031,1.759,1.759,0,0,0-1.5-.75,1.743,1.743,0,0,0-1.477.738A3.691,3.691,0,0,0,117.4-4.141Z" transform="translate(698.051 2297)" fill="#12263f"/>
    <path id="Path_1265594" data-name="Path 1265594" d="M7.1-2.93a1.374,1.374,0,0,0-.527-1.156,6.345,6.345,0,0,0-1.9-.82,9.186,9.186,0,0,1-2.187-.922A2.919,2.919,0,0,1,.93-8.375a2.772,2.772,0,0,1,1.121-2.266,4.538,4.538,0,0,1,2.91-.891,4.916,4.916,0,0,1,2.117.438A3.475,3.475,0,0,1,8.539-9.848,3.2,3.2,0,0,1,9.07-8.055H7.1a1.782,1.782,0,0,0-.559-1.395,2.305,2.305,0,0,0-1.6-.5,2.408,2.408,0,0,0-1.5.414,1.379,1.379,0,0,0-.535,1.156A1.247,1.247,0,0,0,3.484-7.34a6.66,6.66,0,0,0,1.906.813,8.768,8.768,0,0,1,2.133.9A3.392,3.392,0,0,1,8.7-4.473a3.011,3.011,0,0,1,.375,1.527A2.707,2.707,0,0,1,7.988-.684a4.727,4.727,0,0,1-2.957.84A5.557,5.557,0,0,1,2.762-.3,3.812,3.812,0,0,1,1.152-1.562,3.144,3.144,0,0,1,.578-3.437H2.555a1.84,1.84,0,0,0,.641,1.5,2.805,2.805,0,0,0,1.836.531,2.437,2.437,0,0,0,1.551-.418A1.349,1.349,0,0,0,7.1-2.93Zm8.648,2.1a2.944,2.944,0,0,1-2.375.984,2.624,2.624,0,0,1-2.082-.8,3.423,3.423,0,0,1-.707-2.328V-8.453h1.9V-3q0,1.609,1.336,1.609a1.876,1.876,0,0,0,1.867-.992v-6.07h1.9V0H15.8ZM26.922-4.141a5.033,5.033,0,0,1-.891,3.129A2.852,2.852,0,0,1,23.641.156a2.871,2.871,0,0,1-2.227-.914V3.25h-1.9v-11.7h1.75l.078.859a2.788,2.788,0,0,1,2.273-1.016,2.881,2.881,0,0,1,2.426,1.152,5.167,5.167,0,0,1,.879,3.2ZM25.031-4.3a3.526,3.526,0,0,0-.5-2.008,1.638,1.638,0,0,0-1.441-.742,1.747,1.747,0,0,0-1.672.961v3.75a1.763,1.763,0,0,0,1.688.984,1.636,1.636,0,0,0,1.418-.73A3.881,3.881,0,0,0,25.031-4.3Zm7.922-2.414a4.7,4.7,0,0,0-.773-.062,1.741,1.741,0,0,0-1.758,1V0h-1.9V-8.453h1.813l.047.945a2.139,2.139,0,0,1,1.906-1.1,1.777,1.777,0,0,1,.672.109ZM38.969,0a2.93,2.93,0,0,1-.219-.789,2.955,2.955,0,0,1-2.219.945A2.982,2.982,0,0,1,34.453-.57a2.325,2.325,0,0,1-.8-1.8,2.4,2.4,0,0,1,1-2.074,4.865,4.865,0,0,1,2.871-.723h1.164v-.555A1.481,1.481,0,0,0,38.32-6.77,1.456,1.456,0,0,0,37.2-7.164a1.672,1.672,0,0,0-1.062.324,1,1,0,0,0-.414.824h-1.9a2.107,2.107,0,0,1,.461-1.3,3.071,3.071,0,0,1,1.254-.949,4.4,4.4,0,0,1,1.77-.344,3.547,3.547,0,0,1,2.367.746,2.661,2.661,0,0,1,.906,2.1v3.813a4.321,4.321,0,0,0,.32,1.82V0ZM36.883-1.367a2.16,2.16,0,0,0,1.059-.273,1.827,1.827,0,0,0,.746-.734V-3.969H37.664a2.8,2.8,0,0,0-1.586.367,1.189,1.189,0,0,0-.531,1.039,1.109,1.109,0,0,0,.363.871A1.407,1.407,0,0,0,36.883-1.367ZM47-6.719a4.7,4.7,0,0,0-.773-.062,1.741,1.741,0,0,0-1.758,1V0h-1.9V-8.453h1.813l.047.945a2.139,2.139,0,0,1,1.906-1.1,1.777,1.777,0,0,1,.672.109ZM51.773.156A3.928,3.928,0,0,1,48.848-.98a4.124,4.124,0,0,1-1.121-3.027v-.234A5.072,5.072,0,0,1,48.215-6.5a3.716,3.716,0,0,1,1.371-1.551,3.625,3.625,0,0,1,1.969-.555,3.318,3.318,0,0,1,2.668,1.1,4.658,4.658,0,0,1,.941,3.117v.766H49.641a2.539,2.539,0,0,0,.7,1.656,2.1,2.1,0,0,0,1.543.609,2.571,2.571,0,0,0,2.125-1.055l1.023.977A3.418,3.418,0,0,1,53.676-.262,4.244,4.244,0,0,1,51.773.156Zm-.227-7.242a1.6,1.6,0,0,0-1.262.547,2.835,2.835,0,0,0-.613,1.523h3.617v-.141A2.307,2.307,0,0,0,52.781-6.6,1.586,1.586,0,0,0,51.547-7.086Zm8.563,5.727a1.716,1.716,0,0,0,1.18-.414,1.415,1.415,0,0,0,.5-1.023h1.789a2.789,2.789,0,0,1-.492,1.473,3.228,3.228,0,0,1-1.25,1.082,3.725,3.725,0,0,1-1.7.4A3.6,3.6,0,0,1,57.32-.992a4.555,4.555,0,0,1-1.039-3.172v-.2a4.479,4.479,0,0,1,1.031-3.09,3.571,3.571,0,0,1,2.813-1.16,3.473,3.473,0,0,1,2.457.879,3.148,3.148,0,0,1,1,2.309H61.789a1.738,1.738,0,0,0-.5-1.2,1.6,1.6,0,0,0-1.184-.469,1.671,1.671,0,0,0-1.422.668,3.408,3.408,0,0,0-.508,2.027v.3a3.465,3.465,0,0,0,.5,2.051A1.669,1.669,0,0,0,60.109-1.359ZM67.031,0h-1.9V-8.453h1.9ZM65.016-10.648a1.008,1.008,0,0,1,.277-.727,1.048,1.048,0,0,1,.793-.289,1.061,1.061,0,0,1,.8.289,1,1,0,0,1,.281.727.977.977,0,0,1-.281.715,1.069,1.069,0,0,1-.8.285,1.056,1.056,0,0,1-.793-.285A.984.984,0,0,1,65.016-10.648ZM72.57-1.359a1.716,1.716,0,0,0,1.18-.414,1.415,1.415,0,0,0,.5-1.023h1.789a2.789,2.789,0,0,1-.492,1.473A3.228,3.228,0,0,1,74.3-.242a3.725,3.725,0,0,1-1.7.4A3.6,3.6,0,0,1,69.781-.992a4.555,4.555,0,0,1-1.039-3.172v-.2a4.479,4.479,0,0,1,1.031-3.09,3.571,3.571,0,0,1,2.813-1.16,3.473,3.473,0,0,1,2.457.879,3.148,3.148,0,0,1,1,2.309H74.25a1.738,1.738,0,0,0-.5-1.2,1.6,1.6,0,0,0-1.184-.469,1.671,1.671,0,0,0-1.422.668,3.408,3.408,0,0,0-.508,2.027v.3a3.465,3.465,0,0,0,.5,2.051A1.669,1.669,0,0,0,72.57-1.359ZM79.492,0h-1.9V-12h1.9Zm7.117,0a2.93,2.93,0,0,1-.219-.789,2.955,2.955,0,0,1-2.219.945A2.982,2.982,0,0,1,82.094-.57a2.325,2.325,0,0,1-.8-1.8,2.4,2.4,0,0,1,1-2.074,4.865,4.865,0,0,1,2.871-.723h1.164v-.555a1.481,1.481,0,0,0-.367-1.051,1.456,1.456,0,0,0-1.117-.395,1.672,1.672,0,0,0-1.062.324,1,1,0,0,0-.414.824h-1.9a2.107,2.107,0,0,1,.461-1.3,3.071,3.071,0,0,1,1.254-.949,4.4,4.4,0,0,1,1.77-.344,3.547,3.547,0,0,1,2.367.746,2.661,2.661,0,0,1,.906,2.1v3.813a4.321,4.321,0,0,0,.32,1.82V0ZM84.523-1.367a2.159,2.159,0,0,0,1.059-.273,1.827,1.827,0,0,0,.746-.734V-3.969H85.3a2.8,2.8,0,0,0-1.586.367,1.189,1.189,0,0,0-.531,1.039,1.109,1.109,0,0,0,.363.871A1.407,1.407,0,0,0,84.523-1.367ZM92.2-8.453V.75a2.781,2.781,0,0,1-.645,1.98,2.47,2.47,0,0,1-1.887.684,3.794,3.794,0,0,1-1.008-.133v-1.5a2.925,2.925,0,0,0,.672.07q.945,0,.969-1.031V-8.453Zm-2.062-2.2a1.008,1.008,0,0,1,.277-.727,1.048,1.048,0,0,1,.793-.289,1.061,1.061,0,0,1,.8.289,1,1,0,0,1,.281.727A.977.977,0,0,1,92-9.934a1.069,1.069,0,0,1-.8.285,1.056,1.056,0,0,1-.793-.285A.984.984,0,0,1,90.133-10.648ZM97.945.156A3.928,3.928,0,0,1,95.02-.98,4.124,4.124,0,0,1,93.9-4.008v-.234A5.072,5.072,0,0,1,94.387-6.5a3.716,3.716,0,0,1,1.371-1.551,3.625,3.625,0,0,1,1.969-.555,3.318,3.318,0,0,1,2.668,1.1,4.658,4.658,0,0,1,.941,3.117v.766H95.813a2.539,2.539,0,0,0,.7,1.656,2.1,2.1,0,0,0,1.543.609,2.571,2.571,0,0,0,2.125-1.055l1.023.977A3.418,3.418,0,0,1,99.848-.262,4.244,4.244,0,0,1,97.945.156Zm-.227-7.242a1.6,1.6,0,0,0-1.262.547,2.835,2.835,0,0,0-.613,1.523h3.617v-.141A2.307,2.307,0,0,0,98.953-6.6,1.586,1.586,0,0,0,97.719-7.086Z" transform="translate(630.051 2127)" fill="#12263f"/>
    <path id="Path_1265592" data-name="Path 1265592" d="M5.336-4.383h-2.2V0H1.156V-11.375h4a4.656,4.656,0,0,1,3.039.883,3.122,3.122,0,0,1,1.07,2.555,3.2,3.2,0,0,1-.551,1.91A3.5,3.5,0,0,1,7.18-4.844L9.734-.1V0H7.617Zm-2.2-1.586H5.164a2.259,2.259,0,0,0,1.563-.5,1.757,1.757,0,0,0,.563-1.379,1.871,1.871,0,0,0-.52-1.414,2.207,2.207,0,0,0-1.551-.516H3.133ZM14.68.156A3.928,3.928,0,0,1,11.754-.98a4.124,4.124,0,0,1-1.121-3.027v-.234A5.072,5.072,0,0,1,11.121-6.5a3.716,3.716,0,0,1,1.371-1.551,3.625,3.625,0,0,1,1.969-.555,3.318,3.318,0,0,1,2.668,1.1,4.658,4.658,0,0,1,.941,3.117v.766H12.547a2.539,2.539,0,0,0,.7,1.656,2.1,2.1,0,0,0,1.543.609,2.571,2.571,0,0,0,2.125-1.055l1.023.977A3.418,3.418,0,0,1,16.582-.262,4.244,4.244,0,0,1,14.68.156Zm-.227-7.242a1.6,1.6,0,0,0-1.262.547,2.835,2.835,0,0,0-.613,1.523H16.2v-.141A2.307,2.307,0,0,0,15.688-6.6,1.586,1.586,0,0,0,14.453-7.086Zm6.875-1.367.055.883A3.042,3.042,0,0,1,23.82-8.609a2.337,2.337,0,0,1,2.32,1.3,3,3,0,0,1,2.594-1.3,2.636,2.636,0,0,1,2.082.773,3.405,3.405,0,0,1,.7,2.281V0h-1.9V-5.5a1.681,1.681,0,0,0-.352-1.18A1.539,1.539,0,0,0,28.1-7.055a1.581,1.581,0,0,0-1.059.348,1.833,1.833,0,0,0-.574.91L26.477,0h-1.9V-5.562a1.354,1.354,0,0,0-1.523-1.492,1.671,1.671,0,0,0-1.617.93V0h-1.9V-8.453ZM38.516,0A2.93,2.93,0,0,1,38.3-.789a2.955,2.955,0,0,1-2.219.945A2.982,2.982,0,0,1,34-.57a2.325,2.325,0,0,1-.8-1.8,2.4,2.4,0,0,1,1-2.074,4.865,4.865,0,0,1,2.871-.723h1.164v-.555a1.481,1.481,0,0,0-.367-1.051,1.456,1.456,0,0,0-1.117-.395,1.672,1.672,0,0,0-1.062.324,1,1,0,0,0-.414.824h-1.9a2.107,2.107,0,0,1,.461-1.3,3.071,3.071,0,0,1,1.254-.949,4.4,4.4,0,0,1,1.77-.344,3.547,3.547,0,0,1,2.367.746,2.661,2.661,0,0,1,.906,2.1v3.813a4.321,4.321,0,0,0,.32,1.82V0ZM36.43-1.367a2.16,2.16,0,0,0,1.059-.273,1.827,1.827,0,0,0,.746-.734V-3.969H37.211a2.8,2.8,0,0,0-1.586.367,1.189,1.189,0,0,0-.531,1.039,1.109,1.109,0,0,0,.363.871A1.407,1.407,0,0,0,36.43-1.367Zm7.453-7.086.055.977A3.039,3.039,0,0,1,46.4-8.609q2.641,0,2.688,3.023V0h-1.9V-5.477a1.741,1.741,0,0,0-.348-1.191A1.462,1.462,0,0,0,45.7-7.055a1.829,1.829,0,0,0-1.711,1.039V0h-1.9V-8.453ZM56.141-.828a2.944,2.944,0,0,1-2.375.984,2.624,2.624,0,0,1-2.082-.8,3.423,3.423,0,0,1-.707-2.328V-8.453h1.9V-3q0,1.609,1.336,1.609a1.876,1.876,0,0,0,1.867-.992v-6.07h1.9V0H56.188ZM60.578,0V-7.047H59.289V-8.453h1.289v-.773a2.9,2.9,0,0,1,.781-2.172,2.993,2.993,0,0,1,2.188-.766,4.388,4.388,0,0,1,1.063.141l-.047,1.484a3.739,3.739,0,0,0-.727-.062,1.219,1.219,0,0,0-1.359,1.4v.75H64.2v1.406H62.477V0ZM70.633,0a2.93,2.93,0,0,1-.219-.789A2.955,2.955,0,0,1,68.2.156,2.982,2.982,0,0,1,66.117-.57a2.325,2.325,0,0,1-.8-1.8,2.4,2.4,0,0,1,1-2.074,4.865,4.865,0,0,1,2.871-.723h1.164v-.555a1.481,1.481,0,0,0-.367-1.051,1.456,1.456,0,0,0-1.117-.395A1.672,1.672,0,0,0,67.8-6.84a1,1,0,0,0-.414.824h-1.9a2.107,2.107,0,0,1,.461-1.3,3.071,3.071,0,0,1,1.254-.949,4.4,4.4,0,0,1,1.77-.344,3.547,3.547,0,0,1,2.367.746,2.661,2.661,0,0,1,.906,2.1v3.813a4.321,4.321,0,0,0,.32,1.82V0ZM68.547-1.367a2.159,2.159,0,0,0,1.059-.273,1.827,1.827,0,0,0,.746-.734V-3.969H69.328a2.8,2.8,0,0,0-1.586.367,1.189,1.189,0,0,0-.531,1.039,1.109,1.109,0,0,0,.363.871A1.407,1.407,0,0,0,68.547-1.367Zm9.164.008a1.716,1.716,0,0,0,1.18-.414,1.415,1.415,0,0,0,.5-1.023H81.18a2.789,2.789,0,0,1-.492,1.473,3.228,3.228,0,0,1-1.25,1.082,3.725,3.725,0,0,1-1.7.4A3.6,3.6,0,0,1,74.922-.992a4.555,4.555,0,0,1-1.039-3.172v-.2a4.479,4.479,0,0,1,1.031-3.09,3.571,3.571,0,0,1,2.813-1.16,3.473,3.473,0,0,1,2.457.879,3.148,3.148,0,0,1,1,2.309H79.391a1.738,1.738,0,0,0-.5-1.2,1.6,1.6,0,0,0-1.184-.469,1.671,1.671,0,0,0-1.422.668,3.408,3.408,0,0,0-.508,2.027v.3a3.465,3.465,0,0,0,.5,2.051A1.669,1.669,0,0,0,77.711-1.359Zm7.281-9.148v2.055h1.492v1.406H84.992v4.719a1.039,1.039,0,0,0,.191.7.888.888,0,0,0,.684.215,2.924,2.924,0,0,0,.664-.078V-.023a4.676,4.676,0,0,1-1.25.18q-2.188,0-2.187-2.414V-7.047H81.7V-8.453h1.391v-2.055Zm8.063,9.68A2.944,2.944,0,0,1,90.68.156a2.624,2.624,0,0,1-2.082-.8,3.423,3.423,0,0,1-.707-2.328V-8.453h1.9V-3q0,1.609,1.336,1.609a1.876,1.876,0,0,0,1.867-.992v-6.07h1.9V0H93.1Zm8.2-5.891a4.7,4.7,0,0,0-.773-.062,1.741,1.741,0,0,0-1.758,1V0h-1.9V-8.453h1.813l.047.945a2.139,2.139,0,0,1,1.906-1.1,1.777,1.777,0,0,1,.672.109ZM107.266,0a2.93,2.93,0,0,1-.219-.789,2.955,2.955,0,0,1-2.219.945A2.982,2.982,0,0,1,102.75-.57a2.325,2.325,0,0,1-.8-1.8,2.4,2.4,0,0,1,1-2.074,4.865,4.865,0,0,1,2.871-.723h1.164v-.555a1.481,1.481,0,0,0-.367-1.051,1.456,1.456,0,0,0-1.117-.395,1.672,1.672,0,0,0-1.062.324,1,1,0,0,0-.414.824h-1.9a2.107,2.107,0,0,1,.461-1.3,3.071,3.071,0,0,1,1.254-.949,4.4,4.4,0,0,1,1.77-.344,3.547,3.547,0,0,1,2.367.746,2.661,2.661,0,0,1,.906,2.1v3.813a4.321,4.321,0,0,0,.32,1.82V0ZM105.18-1.367a2.159,2.159,0,0,0,1.059-.273,1.827,1.827,0,0,0,.746-.734V-3.969h-1.023a2.8,2.8,0,0,0-1.586.367,1.189,1.189,0,0,0-.531,1.039,1.109,1.109,0,0,0,.363.871A1.407,1.407,0,0,0,105.18-1.367Z" transform="translate(718.051 2011)" fill="#12263f"/>
    <g id="Group_1205669" data-name="Group 1205669" transform="translate(38)">
      <circle id="Ellipse_12786" data-name="Ellipse 12786" cx="29" cy="29" r="29" transform="translate(821.051 1935)" fill="#dcd9d3"/>
      <g id="documento" transform="translate(830.559 1946.103)">
        <path id="Path_1264830" data-name="Path 1264830" d="M37.562,36.485a.614.614,0,0,0-.842.227,1.843,1.843,0,0,1-1.616.922H17.9a1.843,1.843,0,0,1-1.843-1.843V12.709l1.475-1.4a7.778,7.778,0,0,0,2.691.528,4.491,4.491,0,0,0,3.281-1.29c2.341-2.341,2.384-7.7,2.384-7.932A.608.608,0,0,0,25.275,2c-.215,0-5.579.037-7.932,2.39-2.07,2.07-1.124,5.062-.713,6.082L15.444,11.6l-1.186-1.124c.412-1.02,1.358-4.012-.713-6.082C11.2,2.043,5.842,2,5.614,2h0A.619.619,0,0,0,5,2.614c0,.227.043,5.585,2.384,7.925a4.491,4.491,0,0,0,3.281,1.29,7.778,7.778,0,0,0,2.691-.528l1.475,1.407V35.791A3.072,3.072,0,0,0,17.9,38.863H35.1a3.072,3.072,0,0,0,2.66-1.536A.614.614,0,0,0,37.562,36.485ZM18.209,5.256c1.536-1.561,5-1.917,6.451-2.027-.1,1.456-.467,4.915-2.027,6.451a4.075,4.075,0,0,1-4.086.664l3.465-3.287a.615.615,0,0,0-.848-.891L17.607,9.545C17.288,8.5,16.913,6.559,18.209,5.256ZM8.256,9.68C6.7,8.144,6.333,4.685,6.229,3.229c1.45.111,4.915.467,6.451,2.027,1.3,1.3.94,3.244.614,4.3L9.737,6.178a.615.615,0,1,0-.848.891l3.484,3.275C11.261,10.657,9.473,10.9,8.256,9.68Z" transform="translate(-5 -2)" fill="#574727"/>
        <path id="Path_1264831" data-name="Path 1264831" d="M50.4,23.551l-7.373-7.373A.614.614,0,0,0,42.587,16H37.764a.614.614,0,0,0,0,1.229h4.209v6.758a.614.614,0,0,0,.614.614h6.758v15.36a.614.614,0,0,0,1.229,0V23.987A.645.645,0,0,0,50.4,23.551ZM43.2,23.373V18.1l5.271,5.271Z" transform="translate(-17.398 -7.398)" fill="#574727"/>
        <path id="Path_1264832" data-name="Path 1264832" d="M37.373,27H30.614a.614.614,0,1,0,0,1.229h6.758a.614.614,0,1,0,0-1.229Z" transform="translate(-14.641 -11.64)" fill="#574727"/>
        <path id="Path_1264833" data-name="Path 1264833" d="M38.208,31H30.614a.614.614,0,1,0,0,1.229h7.594a.614.614,0,1,0,0-1.229Z" transform="translate(-14.641 -13.183)" fill="#574727"/>
        <path id="Path_1264834" data-name="Path 1264834" d="M40.444,35h-9.83a.614.614,0,1,0,0,1.229h9.83a.614.614,0,0,0,0-1.229Z" transform="translate(-14.641 -14.725)" fill="#574727"/>
        <path id="Path_1264835" data-name="Path 1264835" d="M40.444,39h-9.83a.614.614,0,1,0,0,1.229h9.83a.614.614,0,1,0,0-1.229Z" transform="translate(-14.641 -16.268)" fill="#574727"/>
        <path id="Path_1264836" data-name="Path 1264836" d="M30.614,45a.614.614,0,0,0-.614.614V49.3a.614.614,0,0,0,.614.614H34.3a.614.614,0,0,0,.614-.614V45.614A.614.614,0,0,0,34.3,45Zm3.072,3.686H31.229V46.229h2.458Z" transform="translate(-14.641 -18.581)" fill="#574727"/>
        <path id="Path_1264837" data-name="Path 1264837" d="M44.3,46H40.614a.614.614,0,1,0,0,1.229H44.3A.614.614,0,1,0,44.3,46Z" transform="translate(-18.497 -18.967)" fill="#574727"/>
        <path id="Path_1264838" data-name="Path 1264838" d="M44.3,50H40.614a.614.614,0,1,0,0,1.229H44.3A.614.614,0,1,0,44.3,50Z" transform="translate(-18.497 -20.509)" fill="#574727"/>
      </g>
    </g>
    <g id="Group_1205647" data-name="Group 1205647" transform="translate(38)">
      <circle id="Ellipse_12787" data-name="Ellipse 12787" cx="29" cy="29" r="29" transform="translate(924.051 2045)" fill="#dcd9d3"/>
      <g id="fabrica" transform="translate(918.937 2054.5)">
        <g id="Group_1205640" data-name="Group 1205640" transform="translate(16 0)">
          <g id="Group_1205639" data-name="Group 1205639" transform="translate(0 0)">
            <path id="Path_1264839" data-name="Path 1264839" d="M52.08,16.99a.65.65,0,0,0-.645-.008l-1.789.994L49.15.632A.65.65,0,0,0,48.5,0H43.95a.65.65,0,0,0-.65.632L42.694,21.84l-1.994,1.1V17.55a.65.65,0,0,0-.965-.568L29,22.945V17.55a.65.65,0,0,0-.965-.568l-11.7,6.5A.65.65,0,0,0,16,24.05v14.3a.65.65,0,0,0,.65.65h35.1a.65.65,0,0,0,.65-.65V17.55A.65.65,0,0,0,52.08,16.99ZM44.582,1.3h3.286l.038,1.3H44.545Zm-.075,2.6h3.436l.423,14.787L44.015,21.1ZM33.55,37.7h-3.9V34.45h3.9Zm5.2,0h-3.9V34.45h3.9Zm12.35,0H40.05V33.8a.65.65,0,0,0-.65-.65H29a.65.65,0,0,0-.65.65v3.9H17.3V24.433l10.4-5.778V24.05a.65.65,0,0,0,.965.568L39.4,18.655V24.05a.65.65,0,0,0,.965.568l6.13-3.405,2.85-1.583,1.755-.975Z" transform="translate(-16 0)" fill="#574727"/>
          </g>
        </g>
        <g id="Group_1205642" data-name="Group 1205642" transform="translate(19.25 26)">
          <g id="Group_1205641" data-name="Group 1205641">
            <path id="Path_1264840" data-name="Path 1264840" d="M61.85,320h-5.2a.65.65,0,0,0-.65.65v2.6a.65.65,0,0,0,.65.65h5.2a.65.65,0,0,0,.65-.65v-2.6A.65.65,0,0,0,61.85,320Zm-.65,2.6H57.3v-1.3h3.9Z" transform="translate(-56 -320)" fill="#574727"/>
          </g>
        </g>
        <g id="Group_1205644" data-name="Group 1205644" transform="translate(30.95 26)">
          <g id="Group_1205643" data-name="Group 1205643">
            <path id="Path_1264841" data-name="Path 1264841" d="M205.85,320h-5.2a.65.65,0,0,0-.65.65v2.6a.65.65,0,0,0,.65.65h5.2a.65.65,0,0,0,.65-.65v-2.6A.65.65,0,0,0,205.85,320Zm-.65,2.6h-3.9v-1.3h3.9Z" transform="translate(-200 -320)" fill="#574727"/>
          </g>
        </g>
        <g id="Group_1205646" data-name="Group 1205646" transform="translate(42.65 26)">
          <g id="Group_1205645" data-name="Group 1205645" transform="translate(0)">
            <path id="Path_1264842" data-name="Path 1264842" d="M349.85,320h-5.2a.65.65,0,0,0-.65.65v2.6a.65.65,0,0,0,.65.65h5.2a.65.65,0,0,0,.65-.65v-2.6A.65.65,0,0,0,349.85,320Zm-.65,2.6h-3.9v-1.3h3.9Z" transform="translate(-344 -320)" fill="#574727"/>
          </g>
        </g>
      </g>
    </g>
    <g id="Group_1205670" data-name="Group 1205670" transform="translate(38)">
      <g id="Group_1205648" data-name="Group 1205648" transform="translate(-7 112)">
        <circle id="Ellipse_12787-2" data-name="Ellipse 12787" cx="29" cy="29" r="29" transform="translate(924.051 2045)" fill="#dcd9d3"/>
      </g>
      <g id="distribucion" transform="translate(923.341 2079.779)">
        <g id="Group_1205650" data-name="Group 1205650" transform="translate(0 94.062)">
          <g id="Group_1205649" data-name="Group 1205649" transform="translate(0 0)">
            <path id="Path_1264843" data-name="Path 1264843" d="M42.163,106.22l-1.174-4.7a.71.71,0,0,0,.562-.694v-.757a2.985,2.985,0,0,0-2.981-2.981H33.222V95.529a1.469,1.469,0,0,0-1.467-1.467H4.5a1.469,1.469,0,0,0-1.467,1.467V108.4a.71.71,0,1,0,1.42,0V95.529a.047.047,0,0,1,.047-.047H31.755a.047.047,0,0,1,.047.047V108.4a.71.71,0,1,0,1.42,0v-.8H41.6a2.323,2.323,0,0,1,2.206,1.609H41.6a.71.71,0,0,0-.71.71v1.514a2.227,2.227,0,0,0,2.224,2.224h.8v3.123H42.061a4.494,4.494,0,0,0-8.5,0h-.342V111.43a.71.71,0,1,0-1.42,0v5.348H17.074a4.494,4.494,0,0,0-8.5,0H4.5a.047.047,0,0,1-.047-.047v-1.562H7.525a.71.71,0,1,0,0-1.42H.71a.71.71,0,1,0,0,1.42H3.029v1.562A1.469,1.469,0,0,0,4.5,118.2H8.33c0,.016,0,.031,0,.047a4.5,4.5,0,1,0,8.992,0c0-.016,0-.032,0-.047h16c0,.016,0,.031,0,.047a4.5,4.5,0,1,0,8.992,0c0-.016,0-.032,0-.047h2.32a.71.71,0,0,0,.71-.71v-7.572A3.744,3.744,0,0,0,42.163,106.22Zm-8.941-7.709H38.57a1.564,1.564,0,0,1,1.562,1.562v.047H33.222Zm0,7.667v-4.638H39.53l1.159,4.638H33.222Zm-20.4,15.144a3.076,3.076,0,1,1,3.076-3.076A3.08,3.08,0,0,1,12.825,121.321Zm24.987,0a3.076,3.076,0,1,1,3.076-3.076A3.08,3.08,0,0,1,37.812,121.321Zm6.1-9.086h-.8a.805.805,0,0,1-.8-.8v-.8h1.609v1.609Z" transform="translate(0 -94.062)" fill="#574727"/>
          </g>
        </g>
        <g id="Group_1205652" data-name="Group 1205652" transform="translate(11.358 116.778)">
          <g id="Group_1205651" data-name="Group 1205651" transform="translate(0 0)">
            <path id="Path_1264844" data-name="Path 1264844" d="M129.734,350.6a1.467,1.467,0,1,0,1.467,1.467A1.469,1.469,0,0,0,129.734,350.6Z" transform="translate(-128.267 -350.597)" fill="#574727"/>
          </g>
        </g>
        <g id="Group_1205654" data-name="Group 1205654" transform="translate(36.345 116.778)">
          <g id="Group_1205653" data-name="Group 1205653" transform="translate(0 0)">
            <path id="Path_1264845" data-name="Path 1264845" d="M411.922,350.6a1.467,1.467,0,1,0,1.467,1.467A1.469,1.469,0,0,0,411.922,350.6Z" transform="translate(-410.455 -350.597)" fill="#574727"/>
          </g>
        </g>
        <g id="Group_1205656" data-name="Group 1205656" transform="translate(18.173 113.749)">
          <g id="Group_1205655" data-name="Group 1205655" transform="translate(0 0)">
            <path id="Path_1264846" data-name="Path 1264846" d="M216.538,316.393h-10.6a.71.71,0,0,0,0,1.42h10.6a.71.71,0,0,0,0-1.42Z" transform="translate(-205.227 -316.393)" fill="#574727"/>
          </g>
        </g>
        <g id="Group_1205658" data-name="Group 1205658" transform="translate(1.514 110.72)">
          <g id="Group_1205657" data-name="Group 1205657" transform="translate(0 0)">
            <path id="Path_1264847" data-name="Path 1264847" d="M26.9,282.188H17.812a.71.71,0,0,0,0,1.42H26.9a.71.71,0,0,0,0-1.42Z" transform="translate(-17.102 -282.188)" fill="#574727"/>
          </g>
        </g>
        <g id="Group_1205660" data-name="Group 1205660" transform="translate(12.872 100.877)">
          <g id="Group_1205659" data-name="Group 1205659">
            <path id="Path_1264848" data-name="Path 1264848" d="M157.182,171.23a.71.71,0,0,0-1,0l-6.313,6.313-3.284-3.284a.71.71,0,0,0-1,1l3.786,3.786a.71.71,0,0,0,1,0l6.815-6.815A.71.71,0,0,0,157.182,171.23Z" transform="translate(-145.37 -171.023)" fill="#574727"/>
          </g>
        </g>
      </g>
    </g>
    <g id="Group_1205671" data-name="Group 1205671" transform="translate(38)">
      <g id="Group_1205661" data-name="Group 1205661" transform="translate(-109 179)">
        <circle id="Ellipse_12787-3" data-name="Ellipse 12787" cx="29" cy="29" r="29" transform="translate(924.051 2045)" fill="#dcd9d3"/>
      </g>
      <g id="shop__shopping__market__ecommerce__online" data-name="shop  shopping  market  ecommerce  online" transform="translate(822.051 2230)">
        <path id="Path_1264849" data-name="Path 1264849" d="M28.667,48a.667.667,0,0,0-.667.667v.667a.667.667,0,1,0,1.333,0v-.667A.667.667,0,0,0,28.667,48Z" transform="translate(-8.667 -15.333)" fill="#574727"/>
        <path id="Path_1264850" data-name="Path 1264850" d="M34.667,48a.667.667,0,0,0-.667.667v.667a.667.667,0,1,0,1.333,0v-.667A.667.667,0,0,0,34.667,48Z" transform="translate(-10.667 -15.333)" fill="#574727"/>
        <path id="Path_1264851" data-name="Path 1264851" d="M23,9.667a2,2,0,0,0-2-2A.667.667,0,1,1,21.667,7,.667.667,0,1,0,23,7a2,2,0,1,0-2,2,.667.667,0,1,1-.667.667.667.667,0,1,0-1.333,0,2,2,0,0,0,4,0Z" transform="translate(-5.667 -1)" fill="#574727"/>
        <path id="Path_1264852" data-name="Path 1264852" d="M35,11.667a2,2,0,0,0,2-2V7a2,2,0,1,0-4,0V9.667A2,2,0,0,0,35,11.667ZM34.333,7a.667.667,0,0,1,1.333,0V9.667a.667.667,0,0,1-1.333,0Z" transform="translate(-10.333 -1)" fill="#574727"/>
        <path id="Path_1264853" data-name="Path 1264853" d="M26.667,11.667A.667.667,0,0,0,27.333,11V9h1.333v2A.667.667,0,0,0,30,11V5.667a.667.667,0,0,0-1.333,0v2H27.333v-2a.667.667,0,0,0-1.333,0V11A.667.667,0,0,0,26.667,11.667Z" transform="translate(-8 -1)" fill="#574727"/>
        <path id="Path_1264854" data-name="Path 1264854" d="M40.667,11.667A.667.667,0,0,0,41.333,11V9H42a2,2,0,0,0,0-4H40.667A.667.667,0,0,0,40,5.667V11A.667.667,0,0,0,40.667,11.667Zm.667-5.333H42a.667.667,0,1,1,0,1.333h-.667Z" transform="translate(-12.667 -1)" fill="#574727"/>
        <path id="Path_1264855" data-name="Path 1264855" d="M40,38H38.667V24.6a3.345,3.345,0,0,0,2.667-3.267V20a.659.659,0,0,0-.1-.353L37.9,14.313A.675.675,0,0,0,37.333,14H28.667V12.667H32a2.006,2.006,0,0,0,2-2V4a2.006,2.006,0,0,0-2-2H12a2.006,2.006,0,0,0-2,2v6.667a2.006,2.006,0,0,0,2,2h3.333V14H6.667a.675.675,0,0,0-.567.313L2.767,19.647a.659.659,0,0,0-.1.353v1.333A3.345,3.345,0,0,0,5.333,24.6V38H4a2.006,2.006,0,0,0-2,2v1.333A.667.667,0,0,0,2.667,42H41.333A.667.667,0,0,0,42,41.333V40a2.006,2.006,0,0,0-2-2Zm0-16.667a2,2,0,0,1-4,0v-.667h4Zm-10,6H14a2.006,2.006,0,0,0-2,2V38H6.667V24.6a3.318,3.318,0,0,0,2-1.287,3.3,3.3,0,0,0,5.333,0,3.3,3.3,0,0,0,5.333,0,3.3,3.3,0,0,0,5.333,0,3.3,3.3,0,0,0,5.333,0,3.3,3.3,0,0,0,5.333,0,3.318,3.318,0,0,0,2,1.287V38H32V29.333a2.006,2.006,0,0,0-2-2Zm.667,2V38h-8V28.667H30A.667.667,0,0,1,30.667,29.333Zm-9.333-.667V38h-8V29.333A.667.667,0,0,1,14,28.667Zm-12-7.333v-.667h4v.667a2,2,0,0,1-4,0Zm5.333,0v-.667h4v.667a2,2,0,0,1-4,0ZM24,20.667v.667a2,2,0,0,1-4,0v-.667Zm-3.913-1.333.5-4h2.827l.5,4ZM16.667,14V12.667H27.333V14Zm8.667,7.333v-.667h4v.667a2,2,0,0,1-4,0Zm5.333,0v-.667h4v.667a2,2,0,1,1-4,0Zm6.3-6,2.5,4h-3.72l-2-4Zm-4.713,0,2,4H30.46l-1.5-4Zm-3.213,4H25.253l-.5-4H27.54Zm-17.04-8a.667.667,0,0,1-.667-.667V4A.667.667,0,0,1,12,3.333H32A.667.667,0,0,1,32.667,4v6.667a.667.667,0,0,1-.667.667Zm4.46,4h2.787l-.5,4H14.96Zm-1.42,0-1.5,4H9.747l2-4Zm-8.007,0h3.22l-2,4H4.533ZM4,21.333v-.667H8v.667a2,2,0,0,1-4,0ZM40.667,40.667H3.333V40A.667.667,0,0,1,4,39.333H40a.667.667,0,0,1,.667.667Z" transform="translate(0 0)" fill="#574727"/>
      </g>
    </g>
    <g id="Group_1205672" data-name="Group 1205672" transform="translate(38)">
      <circle id="Ellipse_12787-4" data-name="Ellipse 12787" cx="29" cy="29" r="29" transform="translate(631.051 2175)" fill="#dcd9d3"/>
      <path id="Path_1264856" data-name="Path 1264856" d="M12.85,48.276,8.276,52.85a.581.581,0,0,0,.821.821L13.671,49.1a.581.581,0,1,0-.821-.821Z" transform="translate(637.356 2163.227)" fill="#574727"/>
      <path id="Path_1264857" data-name="Path 1264857" d="M25.853,16.479,28.9,13.429l2.17-.7a.6.6,0,0,0,.352-.293l1.231-2.756a.535.535,0,0,0-.117-.645L30.6,7.1a.535.535,0,0,0-.645-.117L27.2,8.21a.372.372,0,0,0-.293.352l-.7,2.17L22.98,13.957c-1.759-1.525-3.342-2.873-4.4-3.636a6.781,6.781,0,0,0-7.74-9.031.582.582,0,0,0-.293,1L13.48,5.161a.46.46,0,0,1,0,.645L10.137,9.149a.46.46,0,0,1-.645,0L6.5,6.158a.582.582,0,0,0-1,.293,6.781,6.781,0,0,0,9.031,7.74c.762,1.056,2.111,2.639,3.636,4.4L15.356,21.4,14.3,20.349a.567.567,0,0,0-.821,0l-1.935,1.935a.567.567,0,0,0,0,.821.968.968,0,0,1,.352.88c-.117.7-1.29,1.994-2.17,1.407a1.154,1.154,0,0,0-1.407.117L2.162,31.666a4.064,4.064,0,0,0,5.747,5.747l6.157-6.157a1.14,1.14,0,0,0,.117-1.407c-.586-.88.645-2.052,1.407-2.17a.968.968,0,0,1,.88.352.567.567,0,0,0,.821,0l1.994-1.994a.567.567,0,0,0,0-.821L18.23,24.161l2.639-2.639c3.753,4.1,11.787,12.549,14.66,12.666h.059A3.613,3.613,0,0,0,38.519,31.2C38.4,28.324,29.958,20.232,25.853,16.479ZM6.56,7.859,8.671,9.97a1.706,1.706,0,0,0,2.287,0L14.3,6.627a1.593,1.593,0,0,0,0-2.287L12.19,2.229A5.619,5.619,0,1,1,6.56,7.859Zm11.493,3.46c1,.762,2.463,1.994,4.046,3.4l-3.049,3.049c-5.16-5.923-3.225-2.756-1-6.45ZM13.187,30.494l-6.1,6.1a2.861,2.861,0,0,1-4.046-4.046l6.1-6.1c1.525,1,3.4-.469,3.87-1.876l2.052,2.052c-1.407.469-2.873,2.287-1.876,3.87ZM16.881,26.8l-4.1-4.046,1.114-1.114,4.046,4.046Zm-.645-4.574L27.084,11.377a.3.3,0,0,0,.117-.235l.645-2.052,2.17-.938L31.365,9.5l-.938,2.17-2.052.645a.445.445,0,0,0-.235.117c-2.58,2.7-8.21,8.327-10.79,10.907Zm19.351,10.79c-1.7-.059-7.1-4.926-13.9-12.314l3.342-3.342c7.447,6.8,12.256,12.2,12.314,13.9C37.346,31.784,36.056,33.074,35.587,33.015Z" transform="translate(640.303 2182.65)" fill="#574727"/>
      <path id="Path_1264858" data-name="Path 1264858" d="M54.231,47.552a.581.581,0,1,0,.821-.821L54,45.676a.581.581,0,0,0-.821.821Z" transform="translate(618.785 2164.303)" fill="#574727"/>
    </g>
    <g id="Group_1205667" data-name="Group 1205667" transform="translate(38)">
      <g id="Group_1205666" data-name="Group 1205666" transform="translate(-307)">
        <circle id="Ellipse_12787-5" data-name="Ellipse 12787" cx="29" cy="29" r="29" transform="translate(924.051 2045)" fill="#dcd9d3"/>
      </g>
      <g id="reciclar-senal" transform="translate(624.855 2052.071)">
        <path id="Path_1264859" data-name="Path 1264859" d="M52.709,43.071H50.7a.571.571,0,0,1-.5-.3L46.367,35.6a.571.571,0,0,1,.2-.76l7.8-4.828a.578.578,0,0,1,.811.223l3.2,6.193a4.125,4.125,0,0,1,.371,2.931,4.188,4.188,0,0,1-.429,1.057.715.715,0,0,1-.046.069,5.228,5.228,0,0,1-2.857,2.131,8.079,8.079,0,0,1-2.708.451Zm-1.663-1.143h1.663a6.959,6.959,0,0,0,2.348-.383,4.125,4.125,0,0,0,2.257-1.663v-.029a2.959,2.959,0,0,0,.331-.743,3.011,3.011,0,0,0-.274-2.131l-2.92-5.639L47.63,35.535Z" transform="translate(-19.119 -12.403)" fill="#574727"/>
        <path id="Path_1264860" data-name="Path 1264860" d="M44.789,59.525H40.516a.571.571,0,0,1-.417-.177l-4.285-4.5a.571.571,0,0,1,0-.783L40.1,49.418a.571.571,0,0,1,.423-.189h7.627a6.959,6.959,0,0,0,2.348-.383,4.108,4.108,0,0,0,2.257-1.663.573.573,0,1,1,.994.571l-5.016,9.376A4.456,4.456,0,0,1,44.789,59.525Zm-4-1.143h4a3.331,3.331,0,0,0,2.936-1.759l3.68-6.908c-.171.074-.343.143-.526.206a8.079,8.079,0,0,1-2.731.451H40.767L37,54.417Z" transform="translate(-14.559 -19.676)" fill="#574727"/>
        <path id="Path_1264861" data-name="Path 1264861" d="M16.707,61.284a4.159,4.159,0,0,1-2.782-1.017,4.217,4.217,0,0,1-.737-.863,5.325,5.325,0,0,1-.617-3.548,8.319,8.319,0,0,1,.851-2.628l.92-1.783a.571.571,0,0,1,.5-.314L22.957,51a.571.571,0,0,1,.571.526l.72,9.141a.571.571,0,0,1-.571.617H16.718ZM14.7,59.41a2.891,2.891,0,0,0,2.017.731h6.353l-.628-8-7.25.109-.76,1.474a6.987,6.987,0,0,0-.731,2.285,4.091,4.091,0,0,0,.44,2.765v.034a3.131,3.131,0,0,0,.571.628Z" transform="translate(-4.628 -21.435)" fill="#574727"/>
        <path id="Path_1264862" data-name="Path 1264862" d="M9.023,50.73a.571.571,0,0,1-.468-.246l-6.068-8.77a4.451,4.451,0,0,1-.3-4.571L4.663,32.4a.571.571,0,0,1,.343-.286l6.148-1.828a.568.568,0,0,1,.714.394L13.7,37.24a.571.571,0,0,1-.046.428l-3.857,7.17a6.959,6.959,0,0,0-.726,2.251,4.114,4.114,0,0,0,.44,2.771.571.571,0,0,1-.486.868ZM5.56,33.161,3.2,37.652a3.331,3.331,0,0,0,.223,3.428L7.88,47.519a5.049,5.049,0,0,1,.051-.571,8.319,8.319,0,0,1,.851-2.628l3.754-6.959-1.617-5.793Z" transform="translate(0 -12.543)" fill="#574727"/>
        <path id="Path_1264863" data-name="Path 1264863" d="M19.741,21h-.057a.571.571,0,0,1-.486-.331l-2.125-4.571-5.233.034a.571.571,0,0,1-.5-.857l7.2-11.838a.571.571,0,0,1,.309-.246l6.4-2.16a.571.571,0,0,1,.743.423L27.46,8.426a.571.571,0,0,1-.069.417l-7.136,11.9a.571.571,0,0,1-.514.251Zm-2.285-6.062a.571.571,0,0,1,.514.349L19.8,19.224l6.5-10.8-1.3-6.108L19.4,4.2,12.879,14.991l4.571-.034Z" transform="translate(-4.103)" fill="#574727"/>
      </g>
    </g>
    <rect id="Rectangle_411781" data-name="Rectangle 411781" width="295" height="48" transform="translate(533.051 1906)" fill="#bbb4a8"/>
    <g id="Group_1205668" data-name="Group 1205668" transform="translate(38)">
      <circle id="Ellipse_12788" data-name="Ellipse 12788" cx="29" cy="29" r="29" transform="translate(710.051 1935)" fill="#dcd9d3"/>
      <g id="flecha" transform="translate(723.051 1933)">
        <path id="Path_1264864" data-name="Path 1264864" d="M24.484,24.595A6.651,6.651,0,0,0,19.74,26.56l-8.291,8.483a5.287,5.287,0,0,1-7.477-7.477A5.176,5.176,0,0,1,7.71,26.032h5.464L10.8,28.4a.7.7,0,0,0,0,1.006.695.695,0,0,0,1.006,0L15.4,25.817a.7.7,0,0,0,0-1.006l-3.595-3.595A.712.712,0,0,0,10.8,22.222l2.372,2.372H7.71A6.71,6.71,0,0,0,2.965,36.049a6.725,6.725,0,0,0,9.49,0l8.291-8.459a5.239,5.239,0,0,1,3.738-1.558,5.316,5.316,0,0,1,3.738,1.534A5.176,5.176,0,0,1,29.756,31.3a5.316,5.316,0,0,1-1.534,3.738,5.176,5.176,0,0,1-3.738,1.534H19.021L21.393,34.2A.712.712,0,1,0,20.387,33.2l-3.595,3.595a.7.7,0,0,0,0,1.006l3.595,3.595a.695.695,0,0,0,1.006,0,.7.7,0,0,0,0-1.006l-2.372-2.372h5.464a6.71,6.71,0,1,0,0-13.42Z" fill="#574727"/>
      </g>
    </g>
    <path id="Path_1265591" data-name="Path 1265591" d="M3.719-11.375,7-2.656l3.273-8.719h2.555V0H10.859V-3.75l.2-5.016L7.7,0H6.281L2.93-8.758l.2,5.008V0H1.156V-11.375ZM20.031,0a2.93,2.93,0,0,1-.219-.789,2.955,2.955,0,0,1-2.219.945A2.982,2.982,0,0,1,15.516-.57a2.325,2.325,0,0,1-.8-1.8,2.4,2.4,0,0,1,1-2.074,4.865,4.865,0,0,1,2.871-.723H19.75v-.555a1.481,1.481,0,0,0-.367-1.051,1.456,1.456,0,0,0-1.117-.395A1.672,1.672,0,0,0,17.2-6.84a1,1,0,0,0-.414.824h-1.9a2.107,2.107,0,0,1,.461-1.3,3.071,3.071,0,0,1,1.254-.949,4.4,4.4,0,0,1,1.77-.344,3.547,3.547,0,0,1,2.367.746,2.661,2.661,0,0,1,.906,2.1v3.813a4.321,4.321,0,0,0,.32,1.82V0ZM17.945-1.367A2.159,2.159,0,0,0,19-1.641a1.827,1.827,0,0,0,.746-.734V-3.969H18.727a2.8,2.8,0,0,0-1.586.367,1.189,1.189,0,0,0-.531,1.039,1.109,1.109,0,0,0,.363.871A1.407,1.407,0,0,0,17.945-1.367Zm8.07-9.141v2.055h1.492v1.406H26.016v4.719a1.039,1.039,0,0,0,.191.7.888.888,0,0,0,.684.215,2.924,2.924,0,0,0,.664-.078V-.023a4.676,4.676,0,0,1-1.25.18q-2.188,0-2.187-2.414V-7.047H22.727V-8.453h1.391v-2.055ZM32.68.156A3.928,3.928,0,0,1,29.754-.98a4.124,4.124,0,0,1-1.121-3.027v-.234A5.072,5.072,0,0,1,29.121-6.5a3.716,3.716,0,0,1,1.371-1.551,3.625,3.625,0,0,1,1.969-.555,3.318,3.318,0,0,1,2.668,1.1,4.658,4.658,0,0,1,.941,3.117v.766H30.547a2.539,2.539,0,0,0,.7,1.656,2.1,2.1,0,0,0,1.543.609,2.571,2.571,0,0,0,2.125-1.055l1.023.977A3.418,3.418,0,0,1,34.582-.262,4.244,4.244,0,0,1,32.68.156Zm-.227-7.242a1.6,1.6,0,0,0-1.262.547,2.835,2.835,0,0,0-.613,1.523H34.2v-.141A2.307,2.307,0,0,0,33.688-6.6,1.586,1.586,0,0,0,32.453-7.086Zm9.516.367a4.7,4.7,0,0,0-.773-.062,1.741,1.741,0,0,0-1.758,1V0h-1.9V-8.453h1.813l.047.945a2.139,2.139,0,0,1,1.906-1.1,1.777,1.777,0,0,1,.672.109ZM45.188,0h-1.9V-8.453h1.9ZM43.172-10.648a1.008,1.008,0,0,1,.277-.727,1.048,1.048,0,0,1,.793-.289,1.061,1.061,0,0,1,.8.289,1,1,0,0,1,.281.727.977.977,0,0,1-.281.715,1.069,1.069,0,0,1-.8.285,1.056,1.056,0,0,1-.793-.285A.984.984,0,0,1,43.172-10.648ZM52.3,0a2.93,2.93,0,0,1-.219-.789,2.955,2.955,0,0,1-2.219.945A2.982,2.982,0,0,1,47.789-.57a2.325,2.325,0,0,1-.8-1.8,2.4,2.4,0,0,1,1-2.074,4.865,4.865,0,0,1,2.871-.723h1.164v-.555a1.481,1.481,0,0,0-.367-1.051,1.456,1.456,0,0,0-1.117-.395,1.672,1.672,0,0,0-1.062.324,1,1,0,0,0-.414.824h-1.9a2.107,2.107,0,0,1,.461-1.3,3.071,3.071,0,0,1,1.254-.949,4.4,4.4,0,0,1,1.77-.344,3.547,3.547,0,0,1,2.367.746,2.661,2.661,0,0,1,.906,2.1v3.813a4.321,4.321,0,0,0,.32,1.82V0ZM50.219-1.367a2.16,2.16,0,0,0,1.059-.273,1.827,1.827,0,0,0,.746-.734V-3.969H51a2.8,2.8,0,0,0-1.586.367,1.189,1.189,0,0,0-.531,1.039,1.109,1.109,0,0,0,.363.871A1.407,1.407,0,0,0,50.219-1.367Zm10.43-.93a.861.861,0,0,0-.418-.773,4.445,4.445,0,0,0-1.387-.469,7.129,7.129,0,0,1-1.617-.516A2.158,2.158,0,0,1,55.8-6.047a2.25,2.25,0,0,1,.922-1.828,3.644,3.644,0,0,1,2.344-.734,3.792,3.792,0,0,1,2.449.75,2.38,2.38,0,0,1,.934,1.945h-1.9a1.17,1.17,0,0,0-.406-.91,1.557,1.557,0,0,0-1.078-.363,1.682,1.682,0,0,0-1.02.289.911.911,0,0,0-.395.773.769.769,0,0,0,.367.68,5.049,5.049,0,0,0,1.484.488,7.027,7.027,0,0,1,1.754.586,2.484,2.484,0,0,1,.945.816A2.082,2.082,0,0,1,62.516-2.4,2.2,2.2,0,0,1,61.57-.551a4.031,4.031,0,0,1-2.477.707,4.371,4.371,0,0,1-1.852-.375A3.047,3.047,0,0,1,55.977-1.25a2.441,2.441,0,0,1-.453-1.414h1.844a1.338,1.338,0,0,0,.508,1.035,1.973,1.973,0,0,0,1.242.363,1.92,1.92,0,0,0,1.141-.285A.883.883,0,0,0,60.648-2.3Zm9.664-1.93V0H68.336V-11.375h4.352a4.4,4.4,0,0,1,3.027.992,3.334,3.334,0,0,1,1.121,2.625,3.224,3.224,0,0,1-1.1,2.6,4.617,4.617,0,0,1-3.074.93Zm0-1.586h2.375a2.339,2.339,0,0,0,1.609-.5,1.823,1.823,0,0,0,.555-1.434,1.967,1.967,0,0,0-.562-1.473,2.168,2.168,0,0,0-1.547-.566h-2.43ZM82.8-6.719a4.7,4.7,0,0,0-.773-.062,1.741,1.741,0,0,0-1.758,1V0h-1.9V-8.453h1.813l.047.945a2.139,2.139,0,0,1,1.906-1.1,1.777,1.777,0,0,1,.672.109ZM86.023,0h-1.9V-8.453h1.9ZM84.008-10.648a1.008,1.008,0,0,1,.277-.727,1.048,1.048,0,0,1,.793-.289,1.061,1.061,0,0,1,.8.289,1,1,0,0,1,.281.727.977.977,0,0,1-.281.715,1.069,1.069,0,0,1-.8.285,1.056,1.056,0,0,1-.793-.285A.984.984,0,0,1,84.008-10.648Zm5.867,2.2.055.883a3.042,3.042,0,0,1,2.438-1.039,2.337,2.337,0,0,1,2.32,1.3,3,3,0,0,1,2.594-1.3,2.636,2.636,0,0,1,2.082.773,3.405,3.405,0,0,1,.7,2.281V0h-1.9V-5.5a1.681,1.681,0,0,0-.352-1.18,1.539,1.539,0,0,0-1.164-.375,1.581,1.581,0,0,0-1.059.348,1.833,1.833,0,0,0-.574.91L95.023,0h-1.9V-5.562A1.354,1.354,0,0,0,91.6-7.055a1.671,1.671,0,0,0-1.617.93V0h-1.9V-8.453ZM107.063,0a2.93,2.93,0,0,1-.219-.789,2.955,2.955,0,0,1-2.219.945,2.982,2.982,0,0,1-2.078-.727,2.325,2.325,0,0,1-.8-1.8,2.4,2.4,0,0,1,1-2.074,4.865,4.865,0,0,1,2.871-.723h1.164v-.555a1.481,1.481,0,0,0-.367-1.051,1.456,1.456,0,0,0-1.117-.395,1.672,1.672,0,0,0-1.062.324,1,1,0,0,0-.414.824h-1.9a2.107,2.107,0,0,1,.461-1.3,3.071,3.071,0,0,1,1.254-.949,4.4,4.4,0,0,1,1.77-.344,3.547,3.547,0,0,1,2.367.746,2.661,2.661,0,0,1,.906,2.1v3.813A4.321,4.321,0,0,0,109-.133V0Zm-2.086-1.367a2.159,2.159,0,0,0,1.059-.273,1.827,1.827,0,0,0,.746-.734V-3.969h-1.023a2.8,2.8,0,0,0-1.586.367,1.189,1.189,0,0,0-.531,1.039,1.109,1.109,0,0,0,.363.871A1.407,1.407,0,0,0,104.977-1.367Zm10.43-.93a.861.861,0,0,0-.418-.773,4.445,4.445,0,0,0-1.387-.469,7.129,7.129,0,0,1-1.617-.516,2.158,2.158,0,0,1-1.422-1.992,2.25,2.25,0,0,1,.922-1.828,3.644,3.644,0,0,1,2.344-.734,3.792,3.792,0,0,1,2.449.75,2.38,2.38,0,0,1,.934,1.945h-1.9a1.17,1.17,0,0,0-.406-.91,1.557,1.557,0,0,0-1.078-.363,1.682,1.682,0,0,0-1.02.289.911.911,0,0,0-.395.773.769.769,0,0,0,.367.68,5.049,5.049,0,0,0,1.484.488,7.027,7.027,0,0,1,1.754.586,2.484,2.484,0,0,1,.945.816,2.082,2.082,0,0,1,.309,1.156,2.2,2.2,0,0,1-.945,1.848,4.031,4.031,0,0,1-2.477.707A4.371,4.371,0,0,1,112-.219a3.047,3.047,0,0,1-1.266-1.031,2.441,2.441,0,0,1-.453-1.414h1.844a1.338,1.338,0,0,0,.508,1.035,1.973,1.973,0,0,0,1.242.363,1.92,1.92,0,0,0,1.141-.285A.883.883,0,0,0,115.406-2.3Z" transform="translate(599.051 1936)" fill="#12263f"/>
    <g id="pinos" transform="translate(552.05 1915.476)">
      <path id="Path_1264865" data-name="Path 1264865" d="M13.565,24.753H11.188A1.19,1.19,0,0,1,10,23.565V20.594a.594.594,0,0,1,1.188,0v2.971h2.377V20.594a.594.594,0,0,1,1.188,0v2.971A1.19,1.19,0,0,1,13.565,24.753Z" transform="translate(1.318 3.764)" fill="#574727"/>
      <path id="Path_1264866" data-name="Path 1264866" d="M19.666,10.693H6.594a.594.594,0,0,1-.49-.93L12.64.255a.617.617,0,0,1,.979,0l6.536,9.507a.594.594,0,0,1-.49.93ZM7.724,9.5H18.537L13.13,1.64Z" transform="translate(0.565 0)" fill="#574727"/>
      <path id="Path_1264867" data-name="Path 1264867" d="M22.419,16.319H4.594a.594.594,0,0,1-.475-.951l5.348-7.13a.594.594,0,0,1,.951.713L5.783,15.13H21.231L16.6,8.951a.594.594,0,0,1,.951-.713l5.348,7.13a.595.595,0,0,1-.475.951Z" transform="translate(0.188 1.504)" fill="#574727"/>
      <path id="Path_1264868" data-name="Path 1264868" d="M23.8,22.318H3.594a.594.594,0,0,1-.478-.947l5.264-7.13a.594.594,0,1,1,.955.706L4.772,21.13H22.619l-4.566-6.183a.594.594,0,0,1,.955-.706l5.264,7.13a.594.594,0,0,1-.478.947Z" transform="translate(0 2.634)" fill="#574727"/>
    </g>
    <g id="tacho-de-reciclaje" transform="translate(523.051 2081.063)">
      <path id="Path_1264869" data-name="Path 1264869" d="M41,132.643a1.932,1.932,0,0,0,1.318,1.829l.675,10.8a3.219,3.219,0,0,0,3.207,3.013h8.024a3.219,3.219,0,0,0,3.207-3.013l.675-10.8a1.932,1.932,0,0,0,1.318-1.829V132H41Zm5.755,4.422a4.486,4.486,0,0,1,7.593,1.092l.073-.126a.643.643,0,0,1,1.113.643l-.909,1.574a.642.642,0,0,1-.878.235l-1.574-.909a.643.643,0,1,1,.643-1.113l.351.2a3.2,3.2,0,0,0-5.421-.78.643.643,0,0,1-.99-.819ZM44.89,141.18l.909-1.574a.643.643,0,0,1,.878-.235l1.574.909a.643.643,0,1,1-.643,1.113l-.351-.2a3.2,3.2,0,0,0,5.421.78.643.643,0,0,1,.99.819,4.486,4.486,0,0,1-7.593-1.092l-.073.126a.643.643,0,0,1-1.113-.643Z" transform="translate(0 -126.344)" fill="#574727"/>
      <path id="Path_1264870" data-name="Path 1264870" d="M57.5,1.8h-3.45L53.6.855A1.507,1.507,0,0,0,52.242,0h-4.06a1.507,1.507,0,0,0-1.354.855l-.45.945h-3.45A1.93,1.93,0,0,0,41,3.728V4.37H59.424V3.728A1.93,1.93,0,0,0,57.5,1.8Z" transform="translate(0)" fill="#574727"/>
    </g>
    <path id="Path_1265595" data-name="Path 1265595" d="M5.336-4.383h-2.2V0H1.156V-11.375h4a4.656,4.656,0,0,1,3.039.883,3.122,3.122,0,0,1,1.07,2.555,3.2,3.2,0,0,1-.551,1.91A3.5,3.5,0,0,1,7.18-4.844L9.734-.1V0H7.617Zm-2.2-1.586H5.164a2.259,2.259,0,0,0,1.563-.5,1.757,1.757,0,0,0,.563-1.379,1.871,1.871,0,0,0-.52-1.414,2.207,2.207,0,0,0-1.551-.516H3.133ZM14.68.156A3.928,3.928,0,0,1,11.754-.98a4.124,4.124,0,0,1-1.121-3.027v-.234A5.072,5.072,0,0,1,11.121-6.5a3.716,3.716,0,0,1,1.371-1.551,3.625,3.625,0,0,1,1.969-.555,3.318,3.318,0,0,1,2.668,1.1,4.658,4.658,0,0,1,.941,3.117v.766H12.547a2.539,2.539,0,0,0,.7,1.656,2.1,2.1,0,0,0,1.543.609,2.571,2.571,0,0,0,2.125-1.055l1.023.977A3.418,3.418,0,0,1,16.582-.262,4.244,4.244,0,0,1,14.68.156Zm-.227-7.242a1.6,1.6,0,0,0-1.262.547,2.835,2.835,0,0,0-.613,1.523H16.2v-.141A2.307,2.307,0,0,0,15.688-6.6,1.586,1.586,0,0,0,14.453-7.086ZM24.281-2.3a.861.861,0,0,0-.418-.773,4.445,4.445,0,0,0-1.387-.469,7.129,7.129,0,0,1-1.617-.516,2.158,2.158,0,0,1-1.422-1.992,2.25,2.25,0,0,1,.922-1.828A3.644,3.644,0,0,1,22.7-8.609a3.792,3.792,0,0,1,2.449.75,2.38,2.38,0,0,1,.934,1.945h-1.9a1.17,1.17,0,0,0-.406-.91A1.557,1.557,0,0,0,22.7-7.187a1.682,1.682,0,0,0-1.02.289.911.911,0,0,0-.395.773.769.769,0,0,0,.367.68,5.049,5.049,0,0,0,1.484.488,7.027,7.027,0,0,1,1.754.586,2.484,2.484,0,0,1,.945.816A2.082,2.082,0,0,1,26.148-2.4,2.2,2.2,0,0,1,25.2-.551a4.031,4.031,0,0,1-2.477.707,4.371,4.371,0,0,1-1.852-.375A3.047,3.047,0,0,1,19.609-1.25a2.441,2.441,0,0,1-.453-1.414H21a1.338,1.338,0,0,0,.508,1.035,1.973,1.973,0,0,0,1.242.363,1.92,1.92,0,0,0,1.141-.285A.883.883,0,0,0,24.281-2.3ZM29.82,0h-1.9V-8.453h1.9ZM27.8-10.648a1.008,1.008,0,0,1,.277-.727,1.048,1.048,0,0,1,.793-.289,1.061,1.061,0,0,1,.8.289,1,1,0,0,1,.281.727.977.977,0,0,1-.281.715,1.069,1.069,0,0,1-.8.285,1.056,1.056,0,0,1-.793-.285A.984.984,0,0,1,27.8-10.648Zm3.727,6.359a5.026,5.026,0,0,1,.906-3.137,2.9,2.9,0,0,1,2.43-1.184,2.759,2.759,0,0,1,2.172.938V-12h1.9V0H37.219l-.094-.875A2.8,2.8,0,0,1,34.852.156a2.887,2.887,0,0,1-2.4-1.2A5.21,5.21,0,0,1,31.531-4.289Zm1.9.164a3.519,3.519,0,0,0,.5,2.012,1.61,1.61,0,0,0,1.41.723,1.793,1.793,0,0,0,1.7-1.039V-6.039a1.766,1.766,0,0,0-1.687-1.016,1.622,1.622,0,0,0-1.422.73A3.919,3.919,0,0,0,33.43-4.125Zm12.609,3.3a2.944,2.944,0,0,1-2.375.984,2.624,2.624,0,0,1-2.082-.8,3.423,3.423,0,0,1-.707-2.328V-8.453h1.9V-3q0,1.609,1.336,1.609a1.876,1.876,0,0,0,1.867-.992v-6.07h1.9V0H46.086ZM49.453-4.3a4.984,4.984,0,0,1,.492-2.238,3.6,3.6,0,0,1,1.383-1.531,3.9,3.9,0,0,1,2.047-.535,3.692,3.692,0,0,1,2.777,1.1A4.333,4.333,0,0,1,57.3-4.586l.008.445a5.029,5.029,0,0,1-.48,2.234A3.551,3.551,0,0,1,55.457-.383a3.925,3.925,0,0,1-2.066.539,3.667,3.667,0,0,1-2.863-1.191,4.563,4.563,0,0,1-1.074-3.176Zm1.9.164A3.406,3.406,0,0,0,51.891-2.1a1.752,1.752,0,0,0,1.5.738,1.733,1.733,0,0,0,1.5-.75,3.762,3.762,0,0,0,.535-2.2,3.362,3.362,0,0,0-.551-2.031,1.759,1.759,0,0,0-1.5-.75,1.743,1.743,0,0,0-1.477.738A3.691,3.691,0,0,0,51.352-4.141ZM63.656-2.3a.861.861,0,0,0-.418-.773,4.445,4.445,0,0,0-1.387-.469,7.129,7.129,0,0,1-1.617-.516,2.158,2.158,0,0,1-1.422-1.992,2.25,2.25,0,0,1,.922-1.828,3.644,3.644,0,0,1,2.344-.734,3.792,3.792,0,0,1,2.449.75,2.38,2.38,0,0,1,.934,1.945h-1.9a1.17,1.17,0,0,0-.406-.91,1.557,1.557,0,0,0-1.078-.363,1.682,1.682,0,0,0-1.02.289.911.911,0,0,0-.395.773.769.769,0,0,0,.367.68,5.049,5.049,0,0,0,1.484.488,7.027,7.027,0,0,1,1.754.586,2.484,2.484,0,0,1,.945.816A2.082,2.082,0,0,1,65.523-2.4a2.2,2.2,0,0,1-.945,1.848A4.031,4.031,0,0,1,62.1.156,4.371,4.371,0,0,1,60.25-.219,3.047,3.047,0,0,1,58.984-1.25a2.441,2.441,0,0,1-.453-1.414h1.844a1.338,1.338,0,0,0,.508,1.035,1.973,1.973,0,0,0,1.242.363,1.92,1.92,0,0,0,1.141-.285A.883.883,0,0,0,63.656-2.3Z" transform="translate(540.051 2125.574)" fill="#12263f"/>
    <path id="Path_1265596" data-name="Path 1265596" d="M-34.727-6.348h-5.84v4.375h6.826V0h-9.3V-14.219h9.229v1.992h-6.758V-8.3h5.84ZM-27.8-1.7a2.146,2.146,0,0,0,1.475-.518A1.768,1.768,0,0,0-25.7-3.5h2.236a3.486,3.486,0,0,1-.615,1.841A4.035,4.035,0,0,1-25.645-.3a4.656,4.656,0,0,1-2.129.5A4.505,4.505,0,0,1-31.289-1.24a5.694,5.694,0,0,1-1.3-3.965v-.244A5.6,5.6,0,0,1-31.3-9.312a4.464,4.464,0,0,1,3.516-1.45,4.341,4.341,0,0,1,3.071,1.1,3.935,3.935,0,0,1,1.245,2.886H-25.7a2.173,2.173,0,0,0-.62-1.494A2,2,0,0,0-27.8-8.857a2.088,2.088,0,0,0-1.777.835,4.261,4.261,0,0,0-.635,2.534v.381a4.331,4.331,0,0,0,.62,2.563A2.086,2.086,0,0,0-27.8-1.7Zm5.684-3.682a6.231,6.231,0,0,1,.615-2.8,4.493,4.493,0,0,1,1.729-1.914,4.87,4.87,0,0,1,2.559-.669,4.615,4.615,0,0,1,3.472,1.377A5.416,5.416,0,0,1-12.3-5.732l.01.557a6.286,6.286,0,0,1-.6,2.793,4.439,4.439,0,0,1-1.719,1.9A4.906,4.906,0,0,1-17.2.2a4.584,4.584,0,0,1-3.579-1.489,5.7,5.7,0,0,1-1.343-3.97Zm2.373.205a4.258,4.258,0,0,0,.674,2.554A2.191,2.191,0,0,0-17.2-1.7a2.167,2.167,0,0,0,1.87-.937,4.7,4.7,0,0,0,.669-2.744,4.2,4.2,0,0,0-.688-2.539,2.2,2.2,0,0,0-1.87-.937,2.178,2.178,0,0,0-1.846.923A4.614,4.614,0,0,0-19.746-5.176Zm11.66-5.391.068,1.221a3.8,3.8,0,0,1,3.076-1.416q3.3,0,3.359,3.779V0H-3.955V-6.846A2.176,2.176,0,0,0-4.39-8.335a1.828,1.828,0,0,0-1.421-.483,2.287,2.287,0,0,0-2.139,1.3V0h-2.373V-10.566ZM.391-5.381a6.231,6.231,0,0,1,.615-2.8,4.493,4.493,0,0,1,1.729-1.914,4.87,4.87,0,0,1,2.559-.669A4.615,4.615,0,0,1,8.765-9.385a5.416,5.416,0,0,1,1.44,3.652l.01.557a6.286,6.286,0,0,1-.6,2.793A4.439,4.439,0,0,1,7.9-.479,4.906,4.906,0,0,1,5.313.2,4.584,4.584,0,0,1,1.733-1.294,5.7,5.7,0,0,1,.391-5.264Zm2.373.205a4.258,4.258,0,0,0,.674,2.554A2.191,2.191,0,0,0,5.313-1.7a2.167,2.167,0,0,0,1.87-.937,4.7,4.7,0,0,0,.669-2.744A4.2,4.2,0,0,0,7.163-7.92a2.2,2.2,0,0,0-1.87-.937,2.178,2.178,0,0,0-1.846.923A4.614,4.614,0,0,0,2.764-5.176Zm11.689-5.391.068,1.1a3.8,3.8,0,0,1,3.047-1.3,2.921,2.921,0,0,1,2.9,1.621,3.748,3.748,0,0,1,3.242-1.621,3.294,3.294,0,0,1,2.6.967,4.257,4.257,0,0,1,.874,2.852V0H24.814V-6.875a2.1,2.1,0,0,0-.439-1.475,1.924,1.924,0,0,0-1.455-.469,1.976,1.976,0,0,0-1.323.435,2.292,2.292,0,0,0-.718,1.138L20.889,0H18.516V-6.953a1.693,1.693,0,0,0-1.9-1.865A2.089,2.089,0,0,0,14.59-7.656V0H12.217V-10.566ZM32.178,0H29.8V-10.566h2.373Zm-.449-14.932h2.705l-2.705,2.959h-1.9ZM41.191,0a3.662,3.662,0,0,1-.273-.986A3.694,3.694,0,0,1,38.145.2a3.728,3.728,0,0,1-2.6-.908,2.906,2.906,0,0,1-1.006-2.246A3,3,0,0,1,35.8-5.552a6.081,6.081,0,0,1,3.589-.9H40.84v-.693a1.851,1.851,0,0,0-.459-1.313,1.819,1.819,0,0,0-1.4-.493,2.09,2.09,0,0,0-1.328.405,1.254,1.254,0,0,0-.518,1.03H34.766a2.634,2.634,0,0,1,.576-1.626,3.838,3.838,0,0,1,1.567-1.187,5.506,5.506,0,0,1,2.212-.43,4.434,4.434,0,0,1,2.959.933,3.326,3.326,0,0,1,1.133,2.622v4.766a5.4,5.4,0,0,0,.4,2.275V0ZM38.584-1.709a2.7,2.7,0,0,0,1.323-.342,2.284,2.284,0,0,0,.933-.918V-4.961H39.561a3.5,3.5,0,0,0-1.982.459,1.487,1.487,0,0,0-.664,1.3,1.387,1.387,0,0,0,.454,1.089A1.758,1.758,0,0,0,38.584-1.709ZM-22.48,15.371a5.134,5.134,0,0,1-1.68,3.55,5.726,5.726,0,0,1-3.9,1.274,5.545,5.545,0,0,1-2.993-.806,5.288,5.288,0,0,1-2-2.29,8.264,8.264,0,0,1-.732-3.447V12.324a8.324,8.324,0,0,1,.713-3.545,5.373,5.373,0,0,1,2.046-2.363,5.707,5.707,0,0,1,3.081-.83A5.483,5.483,0,0,1-24.15,6.865a5.344,5.344,0,0,1,1.67,3.613h-2.461a3.512,3.512,0,0,0-.894-2.212,2.953,2.953,0,0,0-2.1-.679,2.886,2.886,0,0,0-2.476,1.177,5.877,5.877,0,0,0-.884,3.452v1.26a6.235,6.235,0,0,0,.825,3.516A2.739,2.739,0,0,0-28.057,18.2a3.194,3.194,0,0,0,2.188-.654,3.412,3.412,0,0,0,.928-2.178Zm4.5,4.629h-2.373V9.434h2.373ZM-20.5,6.689a1.259,1.259,0,0,1,.347-.908,1.309,1.309,0,0,1,.991-.361,1.326,1.326,0,0,1,1,.361,1.25,1.25,0,0,1,.352.908,1.221,1.221,0,0,1-.352.894,1.336,1.336,0,0,1-1,.356,1.32,1.32,0,0,1-.991-.356A1.23,1.23,0,0,1-20.5,6.689ZM-9.863,11.6a5.872,5.872,0,0,0-.967-.078,2.177,2.177,0,0,0-2.2,1.25V20H-15.4V9.434h2.266l.059,1.182a2.674,2.674,0,0,1,2.383-1.377,2.222,2.222,0,0,1,.84.137Zm5.654,6.7a2.146,2.146,0,0,0,1.475-.518A1.768,1.768,0,0,0-2.109,16.5H.127a3.486,3.486,0,0,1-.615,1.841A4.035,4.035,0,0,1-2.051,19.7a4.656,4.656,0,0,1-2.129.5A4.505,4.505,0,0,1-7.7,18.76a5.694,5.694,0,0,1-1.3-3.965v-.244a5.6,5.6,0,0,1,1.289-3.862,4.464,4.464,0,0,1,3.516-1.45,4.341,4.341,0,0,1,3.071,1.1A3.935,3.935,0,0,1,.127,13.223H-2.109a2.173,2.173,0,0,0-.62-1.494,2,2,0,0,0-1.479-.586,2.088,2.088,0,0,0-1.777.835,4.261,4.261,0,0,0-.635,2.534v.381A4.331,4.331,0,0,0-6,17.456,2.086,2.086,0,0,0-4.209,18.3Zm12.529.664A3.68,3.68,0,0,1,5.352,20.2a3.28,3.28,0,0,1-2.6-1.006,4.279,4.279,0,0,1-.884-2.91V9.434H4.238V16.25q0,2.012,1.67,2.012a2.345,2.345,0,0,0,2.334-1.24V9.434h2.373V20H8.379ZM15.557,20H13.184V5h2.373Zm8.9,0a3.662,3.662,0,0,1-.273-.986A3.694,3.694,0,0,1,21.406,20.2a3.728,3.728,0,0,1-2.6-.908A2.906,2.906,0,0,1,17.8,17.041a3,3,0,0,1,1.255-2.593,6.081,6.081,0,0,1,3.589-.9H24.1v-.693a1.851,1.851,0,0,0-.459-1.313,1.819,1.819,0,0,0-1.4-.493,2.09,2.09,0,0,0-1.328.405,1.254,1.254,0,0,0-.518,1.03H18.027a2.634,2.634,0,0,1,.576-1.626,3.839,3.839,0,0,1,1.567-1.187,5.506,5.506,0,0,1,2.212-.43,4.434,4.434,0,0,1,2.959.933,3.326,3.326,0,0,1,1.133,2.622v4.766a5.4,5.4,0,0,0,.4,2.275V20Zm-2.607-1.709a2.7,2.7,0,0,0,1.323-.342,2.284,2.284,0,0,0,.933-.918V15.039H22.822a3.5,3.5,0,0,0-1.982.459,1.487,1.487,0,0,0-.664,1.3,1.387,1.387,0,0,0,.454,1.089A1.758,1.758,0,0,0,21.846,18.291ZM34.492,11.6a5.872,5.872,0,0,0-.967-.078,2.177,2.177,0,0,0-2.2,1.25V20H28.955V9.434h2.266l.059,1.182a2.674,2.674,0,0,1,2.383-1.377,2.222,2.222,0,0,1,.84.137Z" transform="translate(838.051 2128)" fill="#12263f"/>
    <text id="R" transform="translate(838.051 2187)" fill="#574727" font-size="20" font-family="Roboto-Medium, Roboto" font-weight="500"><tspan x="-6.24" y="0">R</tspan></text>
    <path id="Path_1264871" data-name="Path 1264871" d="M2195.412-9406.733v-16.823h21.949" transform="translate(-1389.361 11602)" fill="none" stroke="#2b2313" stroke-width="1"/>
    <path id="Path_1264872" data-name="Path 1264872" d="M2216.969-9406.733v-16.823h-21.557" transform="translate(-1342.361 11602)" fill="none" stroke="#2b2313" stroke-width="1"/>
    <path id="Polygon_17" data-name="Polygon 17" d="M5.5,0,11,9H0Z" transform="translate(880.051 2199) rotate(180)" fill="#574727"/>
    <path id="Path_1264873" data-name="Path 1264873" d="M2018.35-9558.879h-52.457v21.9" transform="translate(-1391.949 11608)" fill="none" stroke="#2b2313" stroke-width="1"/>
    <path id="Polygon_18" data-name="Polygon 18" d="M5.5,0,11,9H0Z" transform="translate(579.051 2076) rotate(180)" fill="#574727"/>
  </g>
</svg>
