<svg xmlns="http://www.w3.org/2000/svg" xmlns:xlink="http://www.w3.org/1999/xlink" width="111.775" height="111.776" viewBox="0 0 111.775 111.776">
  <defs>
    <filter id="Path_874925" x="0" y="0" width="111.775" height="111.776" filterUnits="userSpaceOnUse">
      <feOffset dy="3" input="SourceAlpha"/>
      <feGaussianBlur stdDeviation="3" result="blur"/>
      <feFlood flood-opacity="0.161"/>
      <feComposite operator="in" in2="blur"/>
      <feComposite in="SourceGraphic"/>
    </filter>
  </defs>
  <g id="Group_1205781" data-name="Group 1205781" transform="translate(-8495 9802)">
    <g id="Group_1204847" data-name="Group 1204847" transform="translate(8219 -16046.874)">
      <g id="Group_1200232" data-name="Group 1200232" transform="translate(285 6250.874)">
        <g id="Group_1187153" data-name="Group 1187153">
          <g id="Group_1182177" data-name="Group 1182177">
            <g id="Group_1181903" data-name="Group 1181903">
              <g id="Group_1181438" data-name="Group 1181438">
                <g id="Group_1111314" data-name="Group 1111314">
                  <g transform="matrix(1, 0, 0, 1, -9, -6)" filter="url(#Path_874925)">
                    <g id="Path_874925-2" data-name="Path 874925" transform="translate(9 6)" fill="#ffc94a">
                      <path d="M 46.88790893554688 92.2763671875 C 40.75992202758789 92.2763671875 34.8160285949707 91.07652282714844 29.22134971618652 88.71018218994141 C 23.81676292419434 86.42423248291016 18.96264266967773 83.15139007568359 14.79381561279297 78.98255157470703 C 10.62497520446777 74.81372833251953 7.35213565826416 69.95960998535156 5.066188812255859 64.55502319335938 C 2.699842214584351 58.9603385925293 1.500002264976501 53.01644515991211 1.500002264976501 46.88844680786133 C 1.500002264976501 40.75992584228516 2.699842214584351 34.81603240966797 5.066188812255859 29.22135353088379 C 7.35213565826416 23.8167667388916 10.62497520446777 18.962646484375 14.79381561279297 14.79381942749023 C 18.96264266967773 10.62497997283936 23.81676292419434 7.352139949798584 29.22134971618652 5.066193103790283 C 34.8160285949707 2.699846506118774 40.75992202758789 1.500006437301636 46.88790893554688 1.500006437301636 C 53.01589584350586 1.500006437301636 58.95978927612305 2.699846506118774 64.55446624755859 5.066193103790283 C 69.95905303955078 7.352139949798584 74.81317901611328 10.62497997283936 78.98200225830078 14.79381942749023 C 83.15084075927734 18.962646484375 86.42368316650391 23.8167667388916 88.70962524414062 29.22135353088379 C 91.07597351074219 34.81603240966797 92.27581787109375 40.75992584228516 92.27581787109375 46.88791275024414 C 92.27581787109375 53.01644515991211 91.07597351074219 58.9603385925293 88.70962524414062 64.55502319335938 C 86.42368316650391 69.95960998535156 83.15084075927734 74.81372833251953 78.98200225830078 78.98255157470703 C 74.81317901611328 83.15139007568359 69.95905303955078 86.42423248291016 64.55446624755859 88.71018218994141 C 58.95978927612305 91.07652282714844 53.01589584350586 92.2763671875 46.88790893554688 92.2763671875 Z" stroke="none"/>
                      <path d="M 46.88790893554688 2.999992370605469 C 40.96175003051758 2.999992370605469 35.2144660949707 4.159965515136719 29.80567932128906 6.44769287109375 C 24.57989501953125 8.658004760742188 19.88602447509766 11.82290649414062 15.85446929931641 15.85446929931641 C 11.82290649414062 19.88602447509766 8.658012390136719 24.57989501953125 6.44769287109375 29.80567932128906 C 4.159965515136719 35.2144660949707 2.999992370605469 40.96175003051758 2.999992370605469 46.88845062255859 C 2.999992370605469 52.81460952758789 4.159965515136719 58.56189346313477 6.44769287109375 63.97069549560547 C 8.658012390136719 69.19646453857422 11.82290649414062 73.89033508300781 15.85446929931641 77.92189025878906 C 19.88602447509766 81.95343780517578 24.57989501953125 85.11833953857422 29.80567932128906 87.32865142822266 C 35.2144660949707 89.61637878417969 40.96175003051758 90.77635192871094 46.88790893554688 90.77635192871094 C 52.81406784057617 90.77635192871094 58.56135177612305 89.61637878417969 63.97013854980469 87.32865142822266 C 69.1959228515625 85.11833953857422 73.88979339599609 81.95343780517578 77.92134857177734 77.92189025878906 C 81.95291137695312 73.89033508300781 85.11781311035156 69.19646453857422 87.328125 63.97069549560547 C 89.61585235595703 58.56189346313477 90.77582550048828 52.81460952758789 90.77582550048828 46.88790893554688 C 90.77582550048828 40.96175003051758 89.61585235595703 35.2144660949707 87.328125 29.80567932128906 C 85.11781311035156 24.57989501953125 81.95291137695312 19.88602447509766 77.92134857177734 15.85446929931641 C 73.88979339599609 11.82290649414062 69.1959228515625 8.658004760742188 63.97013854980469 6.44769287109375 C 58.56135177612305 4.159965515136719 52.81406784057617 2.999992370605469 46.88790893554688 2.999992370605469 M 46.88790893554688 -7.62939453125e-06 C 72.78337860107422 -7.62939453125e-06 93.77582550048828 20.99243927001953 93.77582550048828 46.88790893554688 L 93.77582550048828 46.88845062255859 C 93.77582550048828 72.783935546875 72.78337860107422 93.77635192871094 46.88790893554688 93.77635192871094 C 20.99243927001953 93.77635192871094 -7.62939453125e-06 72.783935546875 -7.62939453125e-06 46.88845062255859 L -7.62939453125e-06 46.88790893554688 C -7.62939453125e-06 20.99243927001953 20.99243927001953 -7.62939453125e-06 46.88790893554688 -7.62939453125e-06 Z" stroke="none" fill="#fff"/>
                    </g>
                  </g>
                </g>
              </g>
            </g>
          </g>
        </g>
      </g>
    </g>
    <g id="transferencia-de-conocimiento" transform="translate(8522 -9778.001)">
      <g id="Group_1205779" data-name="Group 1205779" transform="translate(0.852 0.853)">
        <path id="Path_1265239" data-name="Path 1265239" d="M21.4,209.551c-8.2.158-13.9,5.632-13.9,13.922a14.082,14.082,0,0,0,4.422,10.219,8.533,8.533,0,0,1,2.756,7.087v2.262H27.886v-4.5l3.945.035a2.139,2.139,0,0,0,2.117-2.117l.114-3.956,2.17-.906A2.661,2.661,0,0,0,37.5,227.77l-1.968-4.3c0-8.775-5.886-14.08-14.141-13.922Zm0,8.517a4.259,4.259,0,0,1,1.7,8.162v2.058a1.7,1.7,0,1,1-3.407,0V226.23a4.259,4.259,0,0,1,1.7-8.162Z" transform="translate(-7.5 -186.604)" fill="#fbf2e1" fill-rule="evenodd"/>
        <path id="Path_1265240" data-name="Path 1265240" d="M18.531,212.11C11.9,213.348,7.5,218.458,7.5,225.744a14.082,14.082,0,0,0,4.422,10.219,8.533,8.533,0,0,1,2.756,7.087v2.262h2.555v-2.289c0-3.689-.781-6.273-3.548-8.909a11.526,11.526,0,0,1-3.63-8.369C10.055,219.234,13.442,215.212,18.531,212.11Z" transform="translate(-7.5 -188.876)" fill="#fbdfba" fill-rule="evenodd"/>
        <circle id="Ellipse_12807" data-name="Ellipse 12807" cx="4.258" cy="4.258" r="4.258" transform="translate(9.637 31.463)" fill="#fdef8e"/>
        <path id="Path_1265241" data-name="Path 1265241" d="M118.275,356.453a4.269,4.269,0,0,1-3.407,0v2.058a1.7,1.7,0,0,0,3.407,0Z" transform="translate(-102.676 -316.828)" fill="#acc5e3" fill-rule="evenodd"/>
        <path id="Path_1265242" data-name="Path 1265242" d="M243.3,36.526l3.945-.035v4.5h13.208V38.731a8.534,8.534,0,0,1,2.756-7.087,14.083,14.083,0,0,0,4.422-10.219c0-8.29-5.691-13.764-13.9-13.922-8.254-.158-14.141,5.146-14.141,13.922l-1.968,4.3a2.661,2.661,0,0,0,1.272,3.824l2.17.906.114,3.956a2.139,2.139,0,0,0,2.117,2.117Zm10.436-8.583a1.708,1.708,0,0,1-1.7-1.7V24.183a4.259,4.259,0,1,1,3.407,0V26.24A1.708,1.708,0,0,1,253.734,27.944Z" transform="translate(-211.193 -7.501)" fill="#f6d9ad" fill-rule="evenodd"/>
        <path id="Path_1265243" data-name="Path 1265243" d="M243.3,39.257l.411,0-.136-7.792L240.07,30c-.237-.1-.218-.317-.123-.482l2.2-4.8c0-6.612,2.315-10.714,7.773-14.133-6.195,1.308-10.328,6.223-10.328,13.576l-1.968,4.3a2.661,2.661,0,0,0,1.272,3.824l2.17.906.114,3.956a2.139,2.139,0,0,0,2.117,2.117Zm3.945-.887,2.555-.023v5.377h-2.555Z" transform="translate(-211.191 -10.231)" fill="#eeae7e" fill-rule="evenodd"/>
        <path id="Path_1265244" data-name="Path 1265244" d="M96.626,284.578A4.258,4.258,0,1,0,97.9,292.9a4.259,4.259,0,0,1,0-8.126A4.255,4.255,0,0,0,96.626,284.578Z" transform="translate(-82.731 -253.115)" fill="#fee026" fill-rule="evenodd"/>
        <circle id="Ellipse_12808" data-name="Ellipse 12808" cx="4.258" cy="4.258" r="4.258" transform="translate(36.519 12.778) rotate(-45)" fill="#fdef8e"/>
        <path id="Path_1265245" data-name="Path 1265245" d="M370.538,154.405a4.269,4.269,0,0,1-3.407,0v2.058a1.7,1.7,0,1,0,3.407,0Z" transform="translate(-326.293 -137.723)" fill="#acc5e3" fill-rule="evenodd"/>
        <path id="Path_1265246" data-name="Path 1265246" d="M348.889,82.53a4.258,4.258,0,1,0,1.278,8.321,4.259,4.259,0,0,1,0-8.126A4.258,4.258,0,0,0,348.889,82.53Z" transform="translate(-306.348 -74.01)" fill="#fee026" fill-rule="evenodd"/>
        <path id="Trazado_1265247" data-name="Trazado 1265247" d="M361.334,34.444h-1.7v-1.7h1.7Z" transform="translate(-319.645 -29.875)" fill="#fff"/>
      </g>
      <g id="Group_1205780" data-name="Group 1205780" transform="translate(0 0.001)">
        <path id="Trazado_1265248" data-name="Trazado 1265248" d="M22.089,237.244h-6.6v-1.7h4.9v-4.51l4.8.043a1.3,1.3,0,0,0,1.258-1.29l.129-4.506,2.677-1.118a1.643,1.643,0,0,0,.976-.906,2.362,2.362,0,0,0-.15-1.778l-2.045-4.465v-.186a13.078,13.078,0,0,0-3.628-9.614,13.03,13.03,0,0,0-9.645-3.457c-7.812.15-13.06,5.4-13.06,13.07a13.169,13.169,0,0,0,4.158,9.6,9.33,9.33,0,0,1,3.02,7.694v1.42h4.9v1.7h-6.6V234.13a7.678,7.678,0,0,0-2.492-6.47A14.857,14.857,0,0,1,0,216.825c0-8.667,5.92-14.6,14.731-14.773A14.69,14.69,0,0,1,25.6,206a14.677,14.677,0,0,1,4.137,10.642l1.891,4.129a4.026,4.026,0,0,1,.188,3.107,3.344,3.344,0,0,1-1.906,1.857l-1.662.694-.1,3.407a3.007,3.007,0,0,1-2.976,2.944l-3.086-.028Z" transform="translate(0 -179.105)"/>
        <path id="Elipse_12809" data-name="Elipse 12809" d="M-2.39-7.5A5.116,5.116,0,0,1,2.72-2.39,5.116,5.116,0,0,1-2.39,2.72,5.116,5.116,0,0,1-7.5-2.39,5.116,5.116,0,0,1-2.39-7.5Zm0,8.517A3.41,3.41,0,0,0,1.017-2.39,3.41,3.41,0,0,0-2.39-5.8,3.41,3.41,0,0,0-5.8-2.39,3.41,3.41,0,0,0-2.39,1.017Z" transform="translate(17.137 38.963)"/>
        <path id="Trazado_1265249" data-name="Trazado 1265249" d="M109.923,361.066a2.558,2.558,0,0,1-2.555-2.555v-2.058h1.7v2.058a.852.852,0,0,0,1.7,0v-2.058h1.7v2.058A2.558,2.558,0,0,1,109.923,361.066Z" transform="translate(-95.176 -315.976)"/>
        <path id="Trazado_1265250" data-name="Trazado 1265250" d="M195.906,316.281h-2.555v-1.7h2.555Z" transform="translate(-171.395 -278.856)"/>
        <path id="Trazado_1265251" data-name="Trazado 1265251" d="M254.652,35.2H239.741V30.7l-3.086.028h-.026a3.007,3.007,0,0,1-2.95-2.944l-.1-3.407-1.662-.694a3.344,3.344,0,0,1-1.906-1.857,4.026,4.026,0,0,1,.188-3.107l1.891-4.129a15.615,15.615,0,0,1,2.253-8.3l1.442.906a14.021,14.021,0,0,0-1.993,7.58v.186l-2.045,4.465a2.362,2.362,0,0,0-.15,1.778,1.643,1.643,0,0,0,.976.906l2.677,1.118.129,4.506a1.294,1.294,0,0,0,1.258,1.29l4.8-.043v4.51h11.5V32.083a9.337,9.337,0,0,1,3.02-7.7,13.169,13.169,0,0,0,4.158-9.6c0-7.668-5.248-12.92-13.06-13.07-4.284-.082-7.946,1.4-10.312,4.173l-1.3-1.106C238.162,1.607,242.3-.088,247.1,0c8.811.169,14.731,6.106,14.731,14.773a14.856,14.856,0,0,1-4.686,10.835,7.67,7.67,0,0,0-2.491,6.461Z" transform="translate(-203.69 -0.001)"/>
        <path id="Elipse_12810" data-name="Elipse 12810" d="M5.11,0A5.11,5.11,0,1,1,0,5.11,5.116,5.116,0,0,1,5.11,0Zm0,8.517A3.407,3.407,0,1,0,1.7,5.11,3.41,3.41,0,0,0,5.11,8.517Z" transform="translate(36.166 13.63) rotate(-45)"/>
        <path id="Trazado_1265252" data-name="Trazado 1265252" d="M362.187,159.018a2.558,2.558,0,0,1-2.555-2.555v-2.058h1.7v2.058a.852.852,0,1,0,1.7,0v-2.058h1.7v2.058A2.558,2.558,0,0,1,362.187,159.018Z" transform="translate(-318.794 -136.872)"/>
        <path id="Trazado_1265253" data-name="Trazado 1265253" d="M298.7,114.233h-2.555v-1.7H298.7Z" transform="translate(-262.52 -99.752)"/>
        <path id="Trazado_1265254" data-name="Trazado 1265254" d="M178.269,54l-1.2-1.2,1.807-1.807-1.807-1.807,1.2-1.2,3.011,3.011Z" transform="translate(-156.958 -42.532)"/>
        <path id="Trazado_1265255" data-name="Trazado 1265255" d="M124.071,78.929h-1.7V67h9.222v1.7h-7.519Z" transform="translate(-108.473 -59.389)"/>
        <path id="Trazado_1265256" data-name="Trazado 1265256" d="M301.822,417.039l-3.011-3.011,3.011-3.011,1.2,1.2-1.807,1.807,1.807,1.807Z" transform="translate(-264.88 -364.344)"/>
        <path id="Trazado_1265257" data-name="Trazado 1265257" d="M318.64,351.884h-9.222v-1.7h7.519V339.951h1.7Z" transform="translate(-274.282 -301.348)"/>
      </g>
    </g>
  </g>
</svg>
