<svg xmlns="http://www.w3.org/2000/svg" xmlns:xlink="http://www.w3.org/1999/xlink" width="111.776" height="111.776" viewBox="0 0 111.776 111.776">
  <defs>
    <filter id="Path_874925" x="0" y="0" width="111.776" height="111.776" filterUnits="userSpaceOnUse">
      <feOffset dy="3" input="SourceAlpha"/>
      <feGaussianBlur stdDeviation="3" result="blur"/>
      <feFlood flood-opacity="0.161"/>
      <feComposite operator="in" in2="blur"/>
      <feComposite in="SourceGraphic"/>
    </filter>
    <clipPath id="clip-path">
      <path id="path6024" d="M0-682.665H57.844v57.844H0Z" transform="translate(0 682.665)"/>
    </clipPath>
  </defs>
  <g id="Group_1205782" data-name="Group 1205782" transform="translate(-796 -1819.883)">
    <g id="Group_1204844" data-name="Group 1204844" transform="translate(520 -4424.991)">
      <g id="Group_1200232" data-name="Group 1200232" transform="translate(285 6250.874)">
        <g id="Group_1187153" data-name="Group 1187153">
          <g id="Group_1182177" data-name="Group 1182177">
            <g id="Group_1181903" data-name="Group 1181903">
              <g id="Group_1181438" data-name="Group 1181438">
                <g id="Group_1111314" data-name="Group 1111314">
                  <g transform="matrix(1, 0, 0, 1, -9, -6)" filter="url(#Path_874925)">
                    <g id="Path_874925-2" data-name="Path 874925" transform="translate(9 6)" fill="#ffc94a">
                      <path d="M 46.88790893554688 92.2763671875 C 40.75992202758789 92.2763671875 34.8160285949707 91.07652282714844 29.22134971618652 88.71018218994141 C 23.81676292419434 86.42423248291016 18.96264266967773 83.15139007568359 14.79381561279297 78.98255157470703 C 10.62497520446777 74.81372833251953 7.35213565826416 69.95960998535156 5.066188812255859 64.55502319335938 C 2.699842214584351 58.9603385925293 1.500002264976501 53.01644515991211 1.500002264976501 46.88844680786133 C 1.500002264976501 40.75992584228516 2.699842214584351 34.81603240966797 5.066188812255859 29.22135353088379 C 7.35213565826416 23.8167667388916 10.62497520446777 18.962646484375 14.79381561279297 14.79381942749023 C 18.96264266967773 10.62497997283936 23.81676292419434 7.352139949798584 29.22134971618652 5.066193103790283 C 34.8160285949707 2.699846506118774 40.75992202758789 1.500006437301636 46.88790893554688 1.500006437301636 C 53.01589584350586 1.500006437301636 58.95978927612305 2.699846506118774 64.55446624755859 5.066193103790283 C 69.95905303955078 7.352139949798584 74.81317901611328 10.62497997283936 78.98200225830078 14.79381942749023 C 83.15084075927734 18.962646484375 86.42368316650391 23.8167667388916 88.70962524414062 29.22135353088379 C 91.07597351074219 34.81603240966797 92.27581787109375 40.75992584228516 92.27581787109375 46.88791275024414 C 92.27581787109375 53.01644515991211 91.07597351074219 58.9603385925293 88.70962524414062 64.55502319335938 C 86.42368316650391 69.95960998535156 83.15084075927734 74.81372833251953 78.98200225830078 78.98255157470703 C 74.81317901611328 83.15139007568359 69.95905303955078 86.42423248291016 64.55446624755859 88.71018218994141 C 58.95978927612305 91.07652282714844 53.01589584350586 92.2763671875 46.88790893554688 92.2763671875 Z" stroke="none"/>
                      <path d="M 46.88790893554688 2.999992370605469 C 40.96175003051758 2.999992370605469 35.2144660949707 4.159965515136719 29.80567932128906 6.44769287109375 C 24.57989501953125 8.658004760742188 19.88602447509766 11.82290649414062 15.85446929931641 15.85446929931641 C 11.82290649414062 19.88602447509766 8.658012390136719 24.57989501953125 6.44769287109375 29.80567932128906 C 4.159965515136719 35.2144660949707 2.999992370605469 40.96175003051758 2.999992370605469 46.88845062255859 C 2.999992370605469 52.81460952758789 4.159965515136719 58.56189346313477 6.44769287109375 63.97069549560547 C 8.658012390136719 69.19646453857422 11.82290649414062 73.89033508300781 15.85446929931641 77.92189025878906 C 19.88602447509766 81.95343780517578 24.57989501953125 85.11833953857422 29.80567932128906 87.32865142822266 C 35.2144660949707 89.61637878417969 40.96175003051758 90.77635192871094 46.88790893554688 90.77635192871094 C 52.81406784057617 90.77635192871094 58.56135177612305 89.61637878417969 63.97013854980469 87.32865142822266 C 69.1959228515625 85.11833953857422 73.88979339599609 81.95343780517578 77.92134857177734 77.92189025878906 C 81.95291137695312 73.89033508300781 85.11781311035156 69.19646453857422 87.328125 63.97069549560547 C 89.61585235595703 58.56189346313477 90.77582550048828 52.81460952758789 90.77582550048828 46.88790893554688 C 90.77582550048828 40.96175003051758 89.61585235595703 35.2144660949707 87.328125 29.80567932128906 C 85.11781311035156 24.57989501953125 81.95291137695312 19.88602447509766 77.92134857177734 15.85446929931641 C 73.88979339599609 11.82290649414062 69.1959228515625 8.658004760742188 63.97013854980469 6.44769287109375 C 58.56135177612305 4.159965515136719 52.81406784057617 2.999992370605469 46.88790893554688 2.999992370605469 M 46.88790893554688 -7.62939453125e-06 C 72.78337860107422 -7.62939453125e-06 93.77582550048828 20.99243927001953 93.77582550048828 46.88790893554688 L 93.77582550048828 46.88845062255859 C 93.77582550048828 72.783935546875 72.78337860107422 93.77635192871094 46.88790893554688 93.77635192871094 C 20.99243927001953 93.77635192871094 -7.62939453125e-06 72.783935546875 -7.62939453125e-06 46.88845062255859 L -7.62939453125e-06 46.88790893554688 C -7.62939453125e-06 20.99243927001953 20.99243927001953 -7.62939453125e-06 46.88790893554688 -7.62939453125e-06 Z" stroke="none" fill="#fff"/>
                    </g>
                  </g>
                </g>
              </g>
            </g>
          </g>
        </g>
      </g>
    </g>
    <g id="g6018" transform="translate(824.81 2525.949)">
      <g id="g6020" transform="translate(0 -682.665)">
        <g id="g6022" clip-path="url(#clip-path)">
          <g id="g6028" transform="translate(13.382 18.065)">
            <path id="path6030" d="M-278.408-118.458h-10.054v-7.991a2.979,2.979,0,0,0-2.976-2.976h-2.381a.6.6,0,0,0-.6.6v14.158h-9.768v14.413h9.962a5.99,5.99,0,0,0,5.569,3.786h10.243a5.989,5.989,0,0,0,5.989-5.989v-10.007a5.989,5.989,0,0,0-5.989-5.989" transform="translate(304.182 129.425)" fill="#fed2a4"/>
          </g>
          <g id="g6032" transform="translate(13.382 18.065)">
            <path id="path6034" d="M-129.921-189.864a.565.565,0,0,0,.565-.565v-14.157c0-1.437,0-2.339,0-2.855h-2.231a.6.6,0,0,0-.6.6v14.157h-9.768v2.824Z" transform="translate(141.949 207.441)" fill="#ffbd86"/>
          </g>
          <g id="g6036" transform="translate(12.535 17.218)">
            <path id="path6038" d="M-302.971-139.425h2.381a3.828,3.828,0,0,1,3.823,3.823v7.143h9.207a6.844,6.844,0,0,1,6.836,6.836v10.007a6.844,6.844,0,0,1-6.836,6.836H-297.8a6.8,6.8,0,0,1-6.118-3.786h-9.412a.847.847,0,0,1-.847-.847v-14.413a.847.847,0,0,1,.847-.847h8.921v-13.31A1.444,1.444,0,0,1-302.971-139.425Zm15.411,32.952a5.148,5.148,0,0,0,5.142-5.142v-10.007a5.148,5.148,0,0,0-5.142-5.142h-10.054a.847.847,0,0,1-.847-.847V-135.6a2.131,2.131,0,0,0-2.129-2.129h-2.129v13.905a.847.847,0,0,1-.847.847h-8.921v12.718h9.115a.847.847,0,0,1,.788.535,5.116,5.116,0,0,0,4.781,3.251Z" transform="translate(314.182 139.425)"/>
          </g>
          <g id="g6040" transform="translate(32.483 45.812)">
            <path id="path6042" d="M-27.352,0a2.55,2.55,0,0,0-2.532,2.553v.681a2.55,2.55,0,0,0,2.532,2.553h7.6a2.55,2.55,0,0,0,2.532-2.553V2.553A2.55,2.55,0,0,0-19.755,0Z" transform="translate(29.884)" fill="#fed2a4"/>
          </g>
          <g id="g6044" transform="translate(32.483 47.568)">
            <path id="path6046" d="M-27.352-18.967h7.6a2.543,2.543,0,0,0,2.4-1.756,2.546,2.546,0,0,1,.129.8v.681a2.55,2.55,0,0,1-2.532,2.553h-7.6a2.55,2.55,0,0,1-2.532-2.553v-.681a2.546,2.546,0,0,1,.129-.8,2.542,2.542,0,0,0,2.4,1.756" transform="translate(29.884 20.723)" fill="#ffbd86"/>
          </g>
          <g id="g6048" transform="translate(31.636 44.964)">
            <path id="path6050" d="M-36.5-10h7.6a3.394,3.394,0,0,1,3.379,3.4v.681a3.394,3.394,0,0,1-3.379,3.4h-7.6a3.394,3.394,0,0,1-3.379-3.4V-6.6A3.394,3.394,0,0,1-36.5-10Zm7.6,5.788a1.7,1.7,0,0,0,1.685-1.706V-6.6a1.7,1.7,0,0,0-1.685-1.706h-7.6A1.7,1.7,0,0,0-38.189-6.6v.681A1.7,1.7,0,0,0-36.5-4.212Z" transform="translate(39.884 10)"/>
          </g>
          <g id="g6052" transform="translate(34.282 40.024)">
            <path id="path6054" d="M-27.353,0a2.55,2.55,0,0,0-2.532,2.553v.681a2.55,2.55,0,0,0,2.532,2.553h7.6a2.55,2.55,0,0,0,2.532-2.553V2.553A2.551,2.551,0,0,0-19.757,0Z" transform="translate(29.885)" fill="#fed2a4"/>
          </g>
          <g id="g6056" transform="translate(34.282 41.78)">
            <path id="path6058" d="M-27.353-18.967h7.6a2.543,2.543,0,0,0,2.4-1.756,2.546,2.546,0,0,1,.129.8v.681a2.55,2.55,0,0,1-2.532,2.553h-7.6a2.55,2.55,0,0,1-2.532-2.553v-.681a2.546,2.546,0,0,1,.129-.8,2.543,2.543,0,0,0,2.4,1.756" transform="translate(29.885 20.723)" fill="#ffbd86"/>
          </g>
          <g id="g6060" transform="translate(33.435 39.177)">
            <path id="path6062" d="M-36.506-10h7.6a3.394,3.394,0,0,1,3.38,3.4v.681a3.394,3.394,0,0,1-3.38,3.4h-7.6a3.394,3.394,0,0,1-3.38-3.4V-6.6A3.394,3.394,0,0,1-36.506-10Zm7.6,5.788a1.7,1.7,0,0,0,1.685-1.706V-6.6a1.7,1.7,0,0,0-1.685-1.706h-7.6A1.7,1.7,0,0,0-38.191-6.6v.681a1.7,1.7,0,0,0,1.685,1.706Z" transform="translate(39.885 10)"/>
          </g>
          <g id="g6064" transform="translate(35.002 34.237)">
            <path id="path6066" d="M-27.354,0a2.55,2.55,0,0,0-2.532,2.553v.681a2.55,2.55,0,0,0,2.532,2.554h7.6a2.55,2.55,0,0,0,2.532-2.554V2.553A2.55,2.55,0,0,0-19.758,0Z" transform="translate(29.887)" fill="#fed2a4"/>
          </g>
          <g id="g6068" transform="translate(35.002 35.992)">
            <path id="path6070" d="M-27.354-18.967h7.6a2.543,2.543,0,0,0,2.4-1.756,2.55,2.55,0,0,1,.129.8v.681a2.55,2.55,0,0,1-2.532,2.554h-7.6a2.55,2.55,0,0,1-2.532-2.554v-.681a2.547,2.547,0,0,1,.129-.8,2.543,2.543,0,0,0,2.4,1.756" transform="translate(29.887 20.723)" fill="#ffbd86"/>
          </g>
          <g id="g6072" transform="translate(34.155 33.389)">
            <path id="path6074" d="M-36.507-10h7.6a3.394,3.394,0,0,1,3.379,3.4v.681a3.394,3.394,0,0,1-3.379,3.4h-7.6a3.394,3.394,0,0,1-3.38-3.4V-6.6A3.394,3.394,0,0,1-36.507-10Zm7.6,5.788a1.7,1.7,0,0,0,1.685-1.706V-6.6A1.7,1.7,0,0,0-28.91-8.305h-7.6A1.7,1.7,0,0,0-38.192-6.6v.681a1.7,1.7,0,0,0,1.685,1.706Z" transform="translate(39.887 10)"/>
          </g>
          <g id="g6076" transform="translate(32.843 28.449)">
            <path id="path6078" d="M-27.352,0a2.551,2.551,0,0,0-2.532,2.553v.681a2.55,2.55,0,0,0,2.532,2.554h7.6a2.55,2.55,0,0,0,2.532-2.554V2.553A2.55,2.55,0,0,0-19.755,0Z" transform="translate(29.884)" fill="#fed2a4"/>
          </g>
          <g id="g6080" transform="translate(32.843 30.205)">
            <path id="path6082" d="M-27.352-18.967h7.6a2.543,2.543,0,0,0,2.4-1.756,2.545,2.545,0,0,1,.129.8v.681a2.55,2.55,0,0,1-2.532,2.553h-7.6a2.55,2.55,0,0,1-2.532-2.553v-.681a2.545,2.545,0,0,1,.129-.8,2.543,2.543,0,0,0,2.4,1.756" transform="translate(29.884 20.723)" fill="#ffbd86"/>
          </g>
          <g id="g6084" transform="translate(31.996 27.602)">
            <path id="path6086" d="M-36.5-10h7.6a3.394,3.394,0,0,1,3.379,3.4v.681a3.394,3.394,0,0,1-3.379,3.4h-7.6a3.394,3.394,0,0,1-3.379-3.4V-6.6A3.394,3.394,0,0,1-36.5-10Zm7.6,5.788a1.7,1.7,0,0,0,1.685-1.706V-6.6a1.7,1.7,0,0,0-1.685-1.706h-7.6A1.7,1.7,0,0,0-38.189-6.6v.681A1.7,1.7,0,0,0-36.5-4.212Z" transform="translate(39.884 10)"/>
          </g>
          <g id="g6088" transform="translate(9.515 30.912)">
            <path id="path6090" d="M-107.673-190.758a.567.567,0,0,1-.565.565h-8.838a.567.567,0,0,1-.565-.565v-17.1a.567.567,0,0,1,.565-.565h8.838a.567.567,0,0,1,.565.565Z" transform="translate(117.641 208.418)" fill="#b9acac"/>
          </g>
          <g id="g6092" transform="translate(9.515 30.912)">
            <path id="path6094" d="M-107.673-190.758a.567.567,0,0,1-.565.565h-8.838a.567.567,0,0,1-.565-.565v-17.1a.567.567,0,0,1,.565-.565h8.838a.567.567,0,0,1,.565.565Z" transform="translate(117.641 208.418)" fill="#d4f2f6"/>
          </g>
          <g id="g6096" transform="translate(9.515 30.912)">
            <path id="path6098" d="M-101.571,0h-8.838a.567.567,0,0,0-.565.565V3.954a.567.567,0,0,1,.565-.565h8.838a.567.567,0,0,1,.565.565V.565A.567.567,0,0,0-101.571,0" transform="translate(110.974 0)" fill="#a6e7f0"/>
          </g>
          <g id="g6100" transform="translate(8.668 30.064)">
            <path id="path6102" d="M-117.391-198.5h-8.838a1.414,1.414,0,0,1-1.412-1.412v-17.1a1.414,1.414,0,0,1,1.412-1.412h8.838a1.414,1.414,0,0,1,1.412,1.412v17.1A1.414,1.414,0,0,1-117.391-198.5Zm-8.556-1.695h8.273v-16.53h-8.273Z" transform="translate(127.641 218.418)"/>
          </g>
          <g id="g6104" transform="translate(4.883 29.447)">
            <path id="path6106" d="M-107.673-222.393a.567.567,0,0,1-.565.565h-8.838a.567.567,0,0,1-.565-.565v-20.024a.567.567,0,0,1,.565-.565h8.838a.567.567,0,0,1,.565.565Z" transform="translate(117.641 242.982)" fill="#08a9f1"/>
          </g>
          <g id="g6108" transform="translate(4.883 29.447)">
            <path id="path6110" d="M-101.571,0h-8.838a.567.567,0,0,0-.565.565V3.954a.567.567,0,0,1,.565-.565h8.838a.567.567,0,0,1,.565.565V.565A.567.567,0,0,0-101.571,0" transform="translate(110.974 0)" fill="#0290cf"/>
          </g>
          <g id="g6112" transform="translate(4.036 28.6)">
            <path id="path6114" d="M-117.39-230.134h-8.838a1.414,1.414,0,0,1-1.412-1.412V-251.57a1.414,1.414,0,0,1,1.412-1.412h8.838a1.414,1.414,0,0,1,1.412,1.412v20.024A1.414,1.414,0,0,1-117.39-230.134Zm-8.556-1.695h8.273v-19.459h-8.273Z" transform="translate(127.641 252.982)"/>
          </g>
          <g id="g6116" transform="translate(2.785 39.53)">
            <path id="path6118" d="M-189.73-94.337a8.758,8.758,0,0,1-8.782,8.733,8.758,8.758,0,0,1-8.782-8.733,8.758,8.758,0,0,1,8.782-8.733,8.758,8.758,0,0,1,8.782,8.733" transform="translate(207.294 103.07)" fill="#97d729"/>
          </g>
          <g id="g6120" transform="translate(2.785 39.53)">
            <path id="path6122" d="M-36.611-94.337a8.748,8.748,0,0,1,7.088-8.569,8.88,8.88,0,0,0-1.695-.164A8.758,8.758,0,0,0-40-94.337,8.758,8.758,0,0,0-31.218-85.6a8.87,8.87,0,0,0,1.695-.164,8.748,8.748,0,0,1-7.088-8.569" transform="translate(40 103.07)" fill="#8bc727"/>
          </g>
          <g id="g6124" transform="translate(1.937 38.683)">
            <path id="path6126" d="M-207.664-113.07a9.616,9.616,0,0,1,9.63,9.581,9.616,9.616,0,0,1-9.63,9.581,9.616,9.616,0,0,1-9.63-9.581A9.616,9.616,0,0,1-207.664-113.07Zm0,17.467a7.92,7.92,0,0,0,7.935-7.886,7.92,7.92,0,0,0-7.935-7.886,7.92,7.92,0,0,0-7.935,7.886A7.92,7.92,0,0,0-207.664-95.6Z" transform="translate(217.294 113.07)"/>
          </g>
          <g id="g6128" transform="translate(7.116 45.101)">
            <path id="path6130" d="M-6.6-28.4a.845.845,0,0,1-.6-.247l-2.55-2.536a.847.847,0,0,1,0-1.2.847.847,0,0,1,1.2,0L-6.6-30.441l4.059-4.037a.847.847,0,0,1,1.2,0,.847.847,0,0,1,0,1.2l-4.657,4.631A.845.845,0,0,1-6.6-28.4Z" transform="translate(10 34.724)"/>
          </g>
          <g id="g6132" transform="translate(32.278 7.811)">
            <path id="path6134" d="M-134.451-162.517a.683.683,0,0,1-.316-.077l-4.18-2.176-4.179,2.176a.684.684,0,0,1-.316.077.685.685,0,0,1-.4-.128.669.669,0,0,1-.27-.658l.8-4.609-3.381-3.264a.668.668,0,0,1-.172-.689.678.678,0,0,1,.549-.458l4.672-.672,2.089-4.193a.68.68,0,0,1,.609-.375.68.68,0,0,1,.609.375l2.09,4.193,4.672.672a.678.678,0,0,1,.548.458.668.668,0,0,1-.172.689l-3.381,3.264.8,4.609a.67.67,0,0,1-.27.658.683.683,0,0,1-.4.128" transform="translate(146.898 177.562)" fill="#ffdc48"/>
          </g>
          <g id="g6136" transform="translate(32.278 12.647)">
            <path id="path6138" d="M-66.72-89.592l.8-4.609L-69.3-97.465a.669.669,0,0,1-.2-.422l-2.811.4a.678.678,0,0,0-.549.458.668.668,0,0,0,.172.689l3.381,3.264-.8,4.609a.669.669,0,0,0,.27.658.684.684,0,0,0,.4.128.684.684,0,0,0,.316-.077l2.533-1.319a.666.666,0,0,1-.129-.52" transform="translate(72.897 97.886)" fill="#fac600"/>
          </g>
          <g id="g6140" transform="translate(31.432 6.964)">
            <path id="path6142" d="M-143.593-170.822A1.536,1.536,0,0,1-144.3-171l-3.788-1.972-3.788,1.972a1.538,1.538,0,0,1-.707.173,1.523,1.523,0,0,1-.893-.287,1.527,1.527,0,0,1-.611-1.491l.722-4.166-3.058-2.952a1.524,1.524,0,0,1-.389-1.562,1.516,1.516,0,0,1,1.233-1.033l4.233-.609,1.891-3.8a1.519,1.519,0,0,1,1.367-.844,1.518,1.518,0,0,1,1.367.844l1.892,3.8,4.233.609a1.517,1.517,0,0,1,1.232,1.032,1.525,1.525,0,0,1-.389,1.564l-3.057,2.951.722,4.166a1.528,1.528,0,0,1-.61,1.49A1.521,1.521,0,0,1-143.593-170.822Zm-11.394-9.865,3.121,3.013a.847.847,0,0,1,.246.754l-.743,4.286,3.882-2.041a.847.847,0,0,1,.783,0l3.879,2.019-.739-4.265a.847.847,0,0,1,.246-.754l3.121-3.013-4.321-.622a.847.847,0,0,1-.638-.461l-1.94-3.893-1.94,3.893a.847.847,0,0,1-.638.461Z" transform="translate(156.886 187.562)"/>
          </g>
          <g id="g6144" transform="translate(52.291 8.489)">
            <path id="path6146" d="M-9.153-20.184a.847.847,0,0,1-.736-.427.847.847,0,0,1,.314-1.156l1.921-1.1a.847.847,0,0,1,1.156.314A.847.847,0,0,1-6.812-21.4l-1.921,1.1A.844.844,0,0,1-9.153-20.184Z" transform="translate(10.002 22.979)"/>
          </g>
          <g id="g6148" transform="translate(52.291 8.489)">
            <path id="path6150" d="M-9.153-20.184a.847.847,0,0,1-.736-.427.847.847,0,0,1,.314-1.156l1.921-1.1a.847.847,0,0,1,1.156.314A.847.847,0,0,1-6.812-21.4l-1.921,1.1A.844.844,0,0,1-9.153-20.184Z" transform="translate(10.002 22.979)"/>
          </g>
          <g id="g6152" transform="translate(46.835 2.274)">
            <path id="path6154" d="M-9.155-28.883A.843.843,0,0,1-9.58-29a.847.847,0,0,1-.306-1.159l1.109-1.9a.847.847,0,0,1,1.159-.306.847.847,0,0,1,.306,1.159l-1.109,1.9A.847.847,0,0,1-9.155-28.883Z" transform="translate(10.002 32.483)"/>
          </g>
          <g id="g6156" transform="translate(39.383 0)">
            <path id="path6158" d="M-9.153-32.066A.847.847,0,0,1-10-32.913v-2.2a.847.847,0,0,1,.847-.847.847.847,0,0,1,.847.847v2.2A.847.847,0,0,1-9.153-32.066Z" transform="translate(10 35.96)"/>
          </g>
          <g id="g6160" transform="translate(30.821 2.275)">
            <path id="path6162" d="M-21.132-28.884a.847.847,0,0,1-.733-.421l-1.109-1.905a.847.847,0,0,1,.306-1.159.847.847,0,0,1,1.159.306l1.109,1.905A.847.847,0,0,1-20.707-29,.843.843,0,0,1-21.132-28.884Z" transform="translate(23.09 32.484)"/>
          </g>
          <g id="g6164" transform="translate(24.554 8.489)">
            <path id="path6166" d="M-29.9-20.188a.843.843,0,0,1-.42-.112l-1.921-1.1a.847.847,0,0,1-.314-1.156.847.847,0,0,1,1.156-.314l1.921,1.1a.847.847,0,0,1,.314,1.156A.847.847,0,0,1-29.9-20.188Z" transform="translate(32.672 22.983)"/>
          </g>
        </g>
      </g>
    </g>
  </g>
</svg>
