<svg xmlns="http://www.w3.org/2000/svg" xmlns:xlink="http://www.w3.org/1999/xlink" width="98" height="98" viewBox="0 0 98 98">
  <defs>
    <filter id="Path_874925" x="0" y="0" width="98" height="98" filterUnits="userSpaceOnUse">
      <feOffset dy="3" input="SourceAlpha"/>
      <feGaussianBlur stdDeviation="3" result="blur"/>
      <feFlood flood-opacity="0.161"/>
      <feComposite operator="in" in2="blur"/>
      <feComposite in="SourceGraphic"/>
    </filter>
  </defs>
  <g id="Group_1205795" data-name="Group 1205795" transform="translate(-1246 -2427.78)">
    <g id="Group_1204661" data-name="Group 1204661" transform="translate(970 -3817.094)">
      <g id="Group_1200232" data-name="Group 1200232" transform="translate(0 153.467)">
        <g id="Group_1187153" data-name="Group 1187153">
          <g id="Group_1182177" data-name="Group 1182177">
            <g id="Group_1181903" data-name="Group 1181903">
              <g id="Group_1181438" data-name="Group 1181438">
                <g id="Group_1111314" data-name="Group 1111314" transform="translate(-734.73 3020.407)">
                  <g transform="matrix(1, 0, 0, 1, 1010.73, 3071)" filter="url(#Path_874925)">
                    <g id="Path_874925-2" data-name="Path 874925" transform="translate(9 6)" fill="#bbb4a8">
                      <path d="M 39.99997329711914 78.50040435791016 C 34.80184936523438 78.50040435791016 29.76000595092773 77.48268127441406 25.01450729370117 75.47550201416016 C 20.43013954162598 73.53648376464844 16.3126392364502 70.76027679443359 12.7763843536377 67.22402191162109 C 9.240128517150879 63.68776702880859 6.463928699493408 59.57027053833008 4.524906635284424 54.98590087890625 C 2.517728805541992 50.24040222167969 1.500006675720215 45.19855880737305 1.500006675720215 40.00043487548828 C 1.500006675720215 34.80185699462891 2.517728805541992 29.76001358032227 4.524906635284424 25.01451301574707 C 6.463928699493408 20.43013572692871 9.240128517150879 16.31263542175293 12.7763843536377 12.77637958526611 C 16.3126392364502 9.240124702453613 20.43013954162598 6.463935375213623 25.01450729370117 4.52490234375 C 29.76000595092773 2.517724514007568 34.80184936523438 1.500002145767212 39.99997329711914 1.500002145767212 C 45.19809722900391 1.500002145767212 50.23994064331055 2.517724514007568 54.98543930053711 4.52490234375 C 59.56981658935547 6.463935375213623 63.68731689453125 9.240124702453613 67.22357177734375 12.77637958526611 C 70.75982666015625 16.31263542175293 73.53601837158203 20.43013572692871 75.47505187988281 25.01451301574707 C 77.48223114013672 29.76001358032227 78.49995422363281 34.80185699462891 78.49995422363281 39.99998092651367 C 78.49995422363281 45.19855880737305 77.48223114013672 50.24040222167969 75.47505187988281 54.98590087890625 C 73.53601837158203 59.57027053833008 70.75982666015625 63.68776702880859 67.22357177734375 67.22402191162109 C 63.68731689453125 70.76027679443359 59.56981658935547 73.53648376464844 54.98543930053711 75.47550201416016 C 50.23994064331055 77.48268127441406 45.19809722900391 78.50040435791016 39.99997329711914 78.50040435791016 Z" stroke="none"/>
                      <path d="M 39.99997329711914 3 C 35.00369262695312 3 30.15843963623047 3.977851867675781 25.59883880615234 5.906417846679688 C 21.19326782226562 7.769813537597656 17.23602676391602 10.43805694580078 13.83704376220703 13.83704376220703 C 10.43805694580078 17.23601531982422 7.769813537597656 21.19325637817383 5.906410217285156 25.59882736206055 C 3.977851867675781 30.15844345092773 3 35.00368118286133 3 40.00042724609375 C 3 44.99672317504883 3.977851867675781 49.84196472167969 5.906410217285156 54.40157318115234 C 7.769813537597656 58.80714797973633 10.43805694580078 62.76438903808594 13.83704376220703 66.16336059570312 C 17.23602676391602 69.56234741210938 21.19326782226562 72.2305908203125 25.59883880615234 74.09398651123047 C 30.15843963623047 76.02255249023438 35.00369262695312 77.00040435791016 39.99997329711914 77.00040435791016 C 44.99625396728516 77.00040435791016 49.84150695800781 76.02255249023438 54.40110778808594 74.09398651123047 C 58.80667877197266 72.2305908203125 62.76391983032227 69.56234741210938 66.16290283203125 66.16336059570312 C 69.5618896484375 62.76438903808594 72.23013305664062 58.80714797973633 74.09353637695312 54.40157318115234 C 76.0220947265625 49.84196472167969 76.99994659423828 44.99672317504883 76.99994659423828 39.99997711181641 C 76.99994659423828 35.00368118286133 76.0220947265625 30.15844345092773 74.09353637695312 25.59882736206055 C 72.23013305664062 21.19325637817383 69.5618896484375 17.23601531982422 66.16290283203125 13.83704376220703 C 62.76391983032227 10.43805694580078 58.80667877197266 7.769813537597656 54.40110778808594 5.906417846679688 C 49.84150695800781 3.977851867675781 44.99625396728516 3 39.99997329711914 3 M 39.99997329711914 0 C 62.09134674072266 0 79.99994659423828 17.90858840942383 79.99994659423828 39.99997711181641 L 79.99994659423828 40.00042724609375 C 79.99994659423828 62.09181594848633 62.09134674072266 80.00040435791016 39.99997329711914 80.00040435791016 C 17.90859985351562 80.00040435791016 0 62.09181594848633 0 40.00042724609375 L 0 39.99997711181641 C 0 17.90858840942383 17.90859985351562 0 39.99997329711914 0 Z" stroke="none" fill="#fff"/>
                    </g>
                  </g>
                </g>
              </g>
            </g>
          </g>
        </g>
      </g>
    </g>
    <g id="dialogo" transform="translate(1267.513 2444.513)">
      <g id="Group_1205793" data-name="Group 1205793" transform="translate(1.863 1.863)">
        <g id="Group_1205783" data-name="Group 1205783" transform="translate(37.096 39.684)">
          <path id="Path_1265247" data-name="Path 1265247" d="M55.568,48.682,57.009,50.3a6.248,6.248,0,0,1,.932,3.278v6.5H45V57.714a9.279,9.279,0,0,1,3.813-7.5c.164-.121.328-.233.5-.345a9.1,9.1,0,0,1,2.416-1.087L54.49,48Z" transform="translate(-45 -48)" fill="#b4dd7f"/>
        </g>
        <g id="Group_1205784" data-name="Group 1205784" transform="translate(1.725 39.684)">
          <path id="Path_1265248" data-name="Path 1265248" d="M9.176,60.078H4v-6.5A6.248,6.248,0,0,1,4.932,50.3,6.37,6.37,0,0,1,7.451,48l2.761.785a9.068,9.068,0,0,1,2.407,1.1,9.1,9.1,0,0,1,2.761,2.683,9.271,9.271,0,0,1,1.561,5.15v2.364Z" transform="translate(-4 -48)" fill="#fcd770"/>
        </g>
        <g id="Group_1205785" data-name="Group 1205785" transform="translate(0 18.979)">
          <path id="Path_1265249" data-name="Path 1265249" d="M14.9,30.9H12.352a1.73,1.73,0,0,0-1.725,1.725v2.381a1.725,1.725,0,0,1-.958,1.544l-1.536.776a1.725,1.725,0,0,0-.958,1.544v2.381L6,40.469A8.988,8.988,0,0,1,10.989,24h7.4a.865.865,0,0,1,.863.863v2.588a3.447,3.447,0,0,1-2.3,3.252,3.376,3.376,0,0,1-1.147.2Z" transform="translate(-2 -24)" fill="#b27946"/>
        </g>
        <g id="Group_1205786" data-name="Group 1205786" transform="translate(34.508 25.683)">
          <path id="Path_1265250" data-name="Path 1265250" d="M50.627,33.694v2.381a1.725,1.725,0,0,0,.958,1.544l1.544.776a1.733,1.733,0,0,1,.949,1.544v5.832l-2.761.785A9.1,9.1,0,0,0,48.9,47.644V43.615l-1.354.336a3.2,3.2,0,0,1-.751.095,3.072,3.072,0,0,1-3.071-3.071V38.007L42,37.145l2.3-5.375a3.376,3.376,0,0,0,1.147.2H48.9A1.725,1.725,0,0,1,50.627,33.694Z" transform="translate(-42 -31.77)" fill="#f0d0b4"/>
        </g>
        <g id="Group_1205787" data-name="Group 1205787" transform="translate(5.176 25.683)">
          <path id="Path_1265251" data-name="Path 1265251" d="M13.176,31.968h3.451a3.376,3.376,0,0,0,1.147-.2l2.3,5.375-1.725.863v2.968a3.067,3.067,0,0,1-3.071,3.071,3.2,3.2,0,0,1-.751-.095l-1.354-.336v4.029l-.009.009a9.068,9.068,0,0,0-2.407-1.1L8,45.772V39.94A1.725,1.725,0,0,1,8.958,38.4l1.536-.776a1.725,1.725,0,0,0,.958-1.544V33.694a1.73,1.73,0,0,1,1.725-1.725Z" transform="translate(-8 -31.77)" fill="#f0d0b4"/>
        </g>
        <g id="Group_1205788" data-name="Group 1205788" transform="translate(34.508 18.979)">
          <path id="Path_1265252" data-name="Path 1265252" d="M56.4,45.179l-1.242.207L54.078,44.7V38.873a1.733,1.733,0,0,0-.949-1.544l-1.544-.776a1.725,1.725,0,0,1-.958-1.544V32.627A1.725,1.725,0,0,0,48.9,30.9H45.451a3.376,3.376,0,0,1-1.147-.2,3.54,3.54,0,0,1-1.294-.811A3.451,3.451,0,0,1,45.451,24h4.814a8.989,8.989,0,0,1,8.989,8.989,10.216,10.216,0,0,1-1.708,5.659l-.017.017.725.725A3.421,3.421,0,0,1,56.4,45.179Z" transform="translate(-42 -24)" fill="#fcd770"/>
        </g>
        <g id="Group_1205789" data-name="Group 1205789" transform="translate(25.881 0)">
          <path id="Path_1265253" data-name="Path 1265253" d="M40.627,2s0,6.9-6.9,6.9H32C32,6.313,33.725,2,40.627,2Z" transform="translate(-32 -2)" fill="#b4dd7f"/>
        </g>
        <g id="Group_1205790" data-name="Group 1205790" transform="translate(18.979 3.451)">
          <path id="Path_1265254" data-name="Path 1265254" d="M30.9,11.176H29.176A5.184,5.184,0,0,1,24,6h1.725A5.184,5.184,0,0,1,30.9,11.176Z" transform="translate(-24 -6)" fill="#b4dd7f"/>
        </g>
        <g id="Group_1205791" data-name="Group 1205791" transform="translate(18.979 13.803)">
          <path id="Path_1265255" data-name="Path 1265255" d="M29.383,19.518A5.128,5.128,0,0,1,30.9,23.176H29.176A5.184,5.184,0,0,1,24,18h1.725A5.128,5.128,0,0,1,29.383,19.518Z" transform="translate(-24 -18)" fill="#b4dd7f"/>
        </g>
        <g id="Group_1205792" data-name="Group 1205792" transform="translate(25.881 17.254)">
          <path id="Path_1265256" data-name="Path 1265256" d="M37.176,22H38.9a5.184,5.184,0,0,1-5.176,5.176H32A5.184,5.184,0,0,1,37.176,22Z" transform="translate(-32 -22)" fill="#b4dd7f"/>
        </g>
      </g>
      <g id="Group_1205794" data-name="Group 1205794" transform="translate(1 1)">
        <path id="Path_1265257" data-name="Path 1265257" d="M19.979,27.315v-2.59A1.727,1.727,0,0,0,18.255,23h-7.4A9.854,9.854,0,0,0,5.388,41.054l.789.525v2.5a7.05,7.05,0,0,0-3.451,6.073v7.357H17.391V54.279a10.111,10.111,0,0,0-4.313-8.292V43.516l.287.072a3.935,3.935,0,0,0,4.889-3.818V37.336l1.976-.989-2.3-5.377a4.3,4.3,0,0,0,2.054-3.655ZM2.725,32.855a8.138,8.138,0,0,1,8.127-8.128h7.4v2.59A2.588,2.588,0,0,1,15.667,29.9H14.75a.827.827,0,0,1-.809-.858.865.865,0,0,1,.862-.867V26.452a2.6,2.6,0,0,0-2.587,2.636,2.526,2.526,0,0,0,.146.814h-.146a2.591,2.591,0,0,0-2.588,2.588v2.384a.858.858,0,0,1-.477.772l-1.543.772a2.571,2.571,0,0,0-1.43,2.313v.77a8.111,8.111,0,0,1-3.451-6.648ZM14.252,49.611a8.383,8.383,0,0,1,1.414,4.669v1.5H9.627v-6.9H7.9v6.9H4.451V50.152a5.347,5.347,0,0,1,2.687-4.657l2.423.692A8.421,8.421,0,0,1,14.252,49.611ZM18,35.533l-1.475.738v3.5a2.213,2.213,0,0,1-2.21,2.21,2.261,2.261,0,0,1-.537-.066L10.7,41.144l-.418,1.673,1.071.267v1.929a10.039,10.039,0,0,0-1.317-.488L7.9,43.917V38.732a.857.857,0,0,1,.477-.771l1.543-.772a2.573,2.573,0,0,0,1.43-2.314V32.491a.863.863,0,0,1,.863-.863h3.451a4.19,4.19,0,0,0,.637-.065Z" transform="translate(-1 -4.021)"/>
        <path id="Path_1265258" data-name="Path 1265258" d="M58.447,38.4a11.024,11.024,0,0,0,1.493-5.55A9.85,9.85,0,0,0,50.09,23H45.274a4.3,4.3,0,0,0-2.259,7.971L40.71,36.349l1.976.989V39.77a3.933,3.933,0,0,0,4.89,3.817l.286-.072v2.472a10.107,10.107,0,0,0-4.313,8.291v3.229H58.215V50.151a7.071,7.071,0,0,0-1.493-4.35,4.256,4.256,0,0,0,3.218-4.131,4.312,4.312,0,0,0-1.254-3.028Zm-8.859,4.681,1.071-.268-.418-1.673-3.083.77a2.182,2.182,0,0,1-.537.066,2.213,2.213,0,0,1-2.21-2.21v-3.5l-1.474-.737,1.7-3.97a4.178,4.178,0,0,0,.636.065h3.451a.863.863,0,0,1,.863.863v2.384a2.576,2.576,0,0,0,1.43,2.315l1.543.772a.858.858,0,0,1,.477.772v5.184l-2.133.609a10.039,10.039,0,0,0-1.317.488Zm6.9,12.7H53.039v-6.9H51.313v6.9H45.275v-1.5a8.417,8.417,0,0,1,6.105-8.093l2.423-.693A5.344,5.344,0,0,1,56.49,50.15v5.633Zm.976-15.92a2.557,2.557,0,0,1-1.389,4.331l-.882.147c-.137-.1-.286-.176-.43-.263V38.732a2.576,2.576,0,0,0-1.43-2.315l-1.543-.772a.86.86,0,0,1-.477-.772V32.49A2.591,2.591,0,0,0,48.725,29.9h-.147a2.67,2.67,0,0,0,.147-.858,2.594,2.594,0,0,0-2.587-2.593v1.725a.876.876,0,0,1,.862.911.813.813,0,0,1-.239.577.805.805,0,0,1-.575.238h-.912a2.588,2.588,0,0,1-1.83-4.419,2.568,2.568,0,0,1,1.83-.758H50.09a8.125,8.125,0,0,1,8.125,8.128,9.321,9.321,0,0,1-1.581,5.2l-.393.588Z" transform="translate(-6.452 -4.021)"/>
        <path id="Path_1265259" data-name="Path 1265259" d="M38.529,18.254H35.94a6.016,6.016,0,0,0-4.313,1.821V9.627h.863c6.142,0,7.764-5.079,7.764-7.764V1h-.863c-5.842,0-8.335,2.967-9.154,5.641a6.027,6.027,0,0,0-4.649-2.19H23v.863a6.047,6.047,0,0,0,6.039,6.039H29.9v5.272A6.016,6.016,0,0,0,25.588,14.8H23v.863A6.047,6.047,0,0,0,29.039,21.7H29.9V32.057h1.725v-6.9h.863a6.047,6.047,0,0,0,6.039-6.039Zm-.084-15.5A5.646,5.646,0,0,1,32.49,7.9h-.8c.363-2.391,2.284-4.842,6.753-5.145ZM29.039,9.627a4.32,4.32,0,0,1-4.226-3.451h.776a4.32,4.32,0,0,1,4.226,3.451Zm0,10.352a4.32,4.32,0,0,1-4.226-3.451h.776a4.32,4.32,0,0,1,4.226,3.451ZM32.49,23.43h-.776a4.321,4.321,0,0,1,4.226-3.451h.776A4.32,4.32,0,0,1,32.49,23.43Z" transform="translate(-4.021 -1)"/>
        <circle id="Ellipse_12809" data-name="Ellipse 12809" cx="1" cy="1" r="1" transform="translate(39.487 29.487)"/>
        <ellipse id="Ellipse_12810" data-name="Ellipse 12810" cx="0.5" cy="1" rx="0.5" ry="1" transform="translate(12.487 29.487)"/>
        <path id="Path_1265260" data-name="Path 1265260" d="M32.176,42.813V41H30.451v1.725H27v4.313a4.318,4.318,0,0,0,4.313,4.313A2.591,2.591,0,0,1,33.9,53.94v2.588H31.313a2.591,2.591,0,0,1-2.588-2.588V51.352H27V53.94a4.322,4.322,0,0,0,3.451,4.226v1.813h1.725V58.254h3.451V53.94a4.318,4.318,0,0,0-4.313-4.313,2.591,2.591,0,0,1-2.588-2.588V44.451h2.588A2.591,2.591,0,0,1,33.9,47.039v2.588h1.725V47.039a4.322,4.322,0,0,0-3.451-4.226Z" transform="translate(-4.57 -6.492)"/>
      </g>
    </g>
  </g>
</svg>
